; OM File Header - Saved 2015/01/28 16:36:43
; (6.080003 :patc (om-make-point 118 360) (om-make-point 50 50) (om-make-point 500 400) "" 183 0 "2015/01/28 16:28:30" "2015/01/28 16:36:43")
; End File Header
(in-package :om)(load-lib-for (quote nil))(setf *om-current-persistent* (om-load-patch1 "tabela02" (quote ((om-load-boxcall (quote genfun) "PC-SET" (quote pc-set) (quote ((om-load-inputfunmenu1 (quote input-funmenu) "" "TYPE" (quote :integer) (list (list "integer" (quote :integer)) (list "vector" (quote :vector)) (list "pitch" (quote :pitch)))) (om-load-inputfun (quote input-funbox) "" "FN-NAME" (quote |6-Z10|)))) (om-make-point 92 104) nil nil nil nil 1) (om-load-editor-box1 "N-CERCLE" (quote n-cercle) (quote ((om-load-inputfun (quote input-funbox) "object" "self" nil) (om-load-inputfun (quote input-funbox) "" "n" 12) (om-load-inputfun (quote input-funbox) "" "puntos" (list 0 5 7)))) (om-make-point 61 189) (om-make-point 109 112) (if (find-class (quote n-cercle) nil) (make-instance (quote n-cercle) :n 12 :puntos (list (list 0 1 3 4 6 7 9 10)) :from-file t)) nil nil (pairlis (quote (winsize winpos)) (list (om-make-point 335 275) (om-make-point 10 40))) t nil nil nil) (om-load-boxcall (quote bastype) "aux" (quote t) (quote nil) (om-make-point 154 45) (om-make-point 53 32) (quote |8-28|) "|8-28|" nil) (om-load-editor-box1 "TEXT-BOX" (quote text-box) (quote ((om-load-inputfun (quote input-funbox) "dialog-item text (string)" "text" "untitled"))) (om-make-point 190 144) (om-make-point 133 51) (om-make-dialog-item (quote text-box) (om-make-point 1 1) (om-make-point 113 24) "(0 1 3 4 6 7 9 10)" :font (om-make-font "DejaVu Sans" 10.998697916666666D0 :family "DejaVu Sans" :style (quote (:plain)) :mode (quote nil))) nil nil (pairlis (quote (winsize winpos)) (list (om-make-point 335 275) (om-make-point 10 40))) t nil nil nil) (om-load-boxcall (quote genfun) "N-STRUCTURE" (quote n-structure) (quote ((om-load-inputfun (quote input-funbox) "values" "L" (list 5 7 9)) (om-load-inputfun (quote input-funbox) "n" "N" 12))) (om-make-point 189 249) nil nil nil nil 1))) (quote ((2 0 0 1 nil 0) (0 0 1 2 nil 0) (0 0 3 0 nil 0) (3 0 4 0 nil 0))) nil 6.080003))