; OM File Header - Saved 2014/04/25 15:14:15
; (6.080003 :patc (om-make-point 10 60) (om-make-point 50 50) (om-make-point 1366 698) "" 183 0 "2014/04/25 15:14:15" "2014/04/25 15:14:15")
; End File Header
(in-package :om)(load-lib-for (quote nil))(setf *om-current-persistent* (om-load-patch1 "00_sucessivas_transposiçoes 2" (quote ((om-load-editor-box1 "TEXT-BOX 5" (quote text-box) (quote ((om-load-inputfun (quote input-funbox) "dialog-item text (string)" "text" "untitled"))) (om-make-point 579 606) (om-make-point 130 50) (om-make-dialog-item (quote text-box) (om-make-point 1 1) (om-make-point 110 23) "(0 1 2 1 1 1)" :font (om-make-font "DejaVu Sans" 11.0D0 :family "DejaVu Sans" :style (quote (:plain)) :mode (quote nil))) nil nil (pairlis (quote (winsize winpos)) (list (om-make-point 335 275) (om-make-point 10 40))) t nil nil nil) (om-load-boxcall (quote abstraction) "base_C4 4" (om-load-patch-abs1 "base_C4" (quote ((om-load-boxout "output" 0 (om-make-point 23 170) (quote ((om-load-inputfun (quote input-funbox) "" "out" nil))) nil nil) (om-load-boxcall (quote bastype) "aux 2" (quote t) (quote nil) (om-make-point 124 91) (om-make-point 48 32) 6000 "6000" nil) (om-load-boxcall (quote genfun) "OM+" (quote om+) (quote ((om-load-inputfun (quote input-funbox) "number or list" "ARG1" 0) (om-load-inputfun (quote input-funbox) "number or list" "ARG2" 0))) (om-make-point 63 124) nil nil nil nil 1) (om-load-boxcall (quote bastype) "aux" (quote t) (quote nil) (om-make-point 90 52) (om-make-point 41 32) 100 "100" nil) (om-load-boxcall (quote genfun) "OM*" (quote om*) (quote ((om-load-inputfun (quote input-funbox) "number or list" "ARG1" 0) (om-load-inputfun (quote input-funbox) "number or list" "ARG2" 0))) (om-make-point 36 108) nil nil nil nil 1) (om-load-boxin "input" 0 (om-make-point 5 45) "" nil nil nil))) (quote ((2 0 0 0 nil 0) (4 0 2 0 nil 0) (1 0 2 1 nil 0) (5 0 4 0 nil 0) (3 0 4 1 nil 0))) 6.080003 nil "" (om-make-point 200 200) (om-make-point 500 400)) (quote ((om-load-inputfun (quote input-funbox) "" "input" nil))) (om-make-point 228 514) nil (list (list (list 6000 6200 6500 6800))) nil "base_C4") (om-load-editor-box1 "CHORD-SEQ 5" (quote chord-seq) (quote ((om-load-inputfun (quote input-funbox) "object" "self" nil) (om-load-inputfun (quote input-funbox) "pitches (mc): list or list of lists" "lmidic" (list 6000)) (om-load-inputfun (quote input-funbox) "onsets (ms): list" "lonset" (list 0 300)) (om-load-inputfun (quote input-funbox) "durations (ms): list or list of lists" "ldur" (list 1000)) (om-load-inputfun (quote input-funbox) "velocities (0-127): list or list of lists" "lvel" (list 100)) (om-load-inputfun (quote input-funbox) "offsets (ms): list or list of lists" "loffset" (list 0)) (om-load-inputfun (quote input-funbox) "MIDI channels (1-16): list or list of lists" "lchan" (list 1)) (om-load-inputfun (quote input-funbox) "relative chords duration (0-100)" "legato" 0))) (om-make-point 242 593) (om-make-point 115 82) (let ((newobj (when (find-class (quote chord-seq) nil) (make-instance (quote chord-seq) :lmidic (quote ((6000 6200 6500 6800))) :lonset (quote (0 1000)) :ldur (quote ((1000 1000 1000 1000))) :lvel (quote ((100 100 100 100))) :loffset (quote ((0 0 0 0))) :lchan (quote ((1 1 1 1))) :legato 0)))) (load-port-info newobj (quote ((0 0 0 0)))) (init-mus-color newobj (quote nil)) (set-extra-pairs newobj (quote nil)) (set-patch-pairs newobj (quote nil)) (set-name newobj nil) (set-tonalite newobj nil) newobj) nil nil (pairlis (quote (approx fontsize staff cmnpref deltapict outport inport player zoom notechancolor? grillestep mode winsize winpos score-mode obj-mode cursor-mode show-stems scale)) (list 2 24 (quote g) (let ((newobj (make-instance (quote edition-values)))) (setf (paper-size newobj) (om-make-point 600 800)) (setf (top-margin newobj) 2) (setf (left-margin newobj) 1) (setf (right-margin newobj) 1) (setf (bottom-margin newobj) 1) (setf (orientation newobj) nil) (setf (scale newobj) nil) (setf (system-space newobj) (quote (1))) (setf (system-color newobj) (quote nil)) (setf (line-space newobj) 1) (setf (title newobj) nil) (setf (show-title? newobj) nil) (setf (show-page? newobj) nil) (setf (sheet-id newobj) nil) (setf (page-mode newobj) nil) newobj) (om-make-point 0 0) nil nil (quote :jackmidi) 1 nil 1000 0 (om-make-point 370 280) (om-make-point 400 20) 0 1 (quote :normal) (quote t) nil)) t nil nil nil) (om-load-boxcall (quote abstraction) "base_C4 3" (om-load-patch-abs1 "base_C4" (quote ((om-load-boxout "output" 0 (om-make-point 23 170) (quote ((om-load-inputfun (quote input-funbox) "" "out" nil))) nil nil) (om-load-boxcall (quote bastype) "aux 2" (quote t) (quote nil) (om-make-point 124 91) (om-make-point 48 32) 6000 "6000" nil) (om-load-boxcall (quote genfun) "OM+" (quote om+) (quote ((om-load-inputfun (quote input-funbox) "number or list" "ARG1" 0) (om-load-inputfun (quote input-funbox) "number or list" "ARG2" 0))) (om-make-point 63 124) nil nil nil nil 1) (om-load-boxcall (quote bastype) "aux" (quote t) (quote nil) (om-make-point 90 52) (om-make-point 41 32) 100 "100" nil) (om-load-boxcall (quote genfun) "OM*" (quote om*) (quote ((om-load-inputfun (quote input-funbox) "number or list" "ARG1" 0) (om-load-inputfun (quote input-funbox) "number or list" "ARG2" 0))) (om-make-point 36 108) nil nil nil nil 1) (om-load-boxin "input" 0 (om-make-point 5 45) "" nil nil nil))) (quote ((2 0 0 0 nil 0) (4 0 2 0 nil 0) (1 0 2 1 nil 0) (5 0 4 0 nil 0) (3 0 4 1 nil 0))) 6.080003 nil "" (om-make-point 200 200) (om-make-point 500 400)) (quote ((om-load-inputfun (quote input-funbox) "" "input" nil))) (om-make-point 282 376) nil (list (list (list 6000 6300 6700 6900))) nil "base_C4") (om-load-editor-box1 "CHORD-SEQ 4" (quote chord-seq) (quote ((om-load-inputfun (quote input-funbox) "object" "self" nil) (om-load-inputfun (quote input-funbox) "pitches (mc): list or list of lists" "lmidic" (list 6000)) (om-load-inputfun (quote input-funbox) "onsets (ms): list" "lonset" (list 0 300)) (om-load-inputfun (quote input-funbox) "durations (ms): list or list of lists" "ldur" (list 1000)) (om-load-inputfun (quote input-funbox) "velocities (0-127): list or list of lists" "lvel" (list 100)) (om-load-inputfun (quote input-funbox) "offsets (ms): list or list of lists" "loffset" (list 0)) (om-load-inputfun (quote input-funbox) "MIDI channels (1-16): list or list of lists" "lchan" (list 1)) (om-load-inputfun (quote input-funbox) "relative chords duration (0-100)" "legato" 0))) (om-make-point 326 479) (om-make-point 115 82) (let ((newobj (when (find-class (quote chord-seq) nil) (make-instance (quote chord-seq) :lmidic (quote ((6000 6300 6700 6900))) :lonset (quote (0 1000)) :ldur (quote ((1000 1000 1000 1000))) :lvel (quote ((100 100 100 100))) :loffset (quote ((0 0 0 0))) :lchan (quote ((1 1 1 1))) :legato 0)))) (load-port-info newobj (quote ((0 0 0 0)))) (init-mus-color newobj (quote nil)) (set-extra-pairs newobj (quote nil)) (set-patch-pairs newobj (quote nil)) (set-name newobj nil) (set-tonalite newobj nil) newobj) nil nil (pairlis (quote (approx fontsize staff cmnpref deltapict outport inport player zoom notechancolor? grillestep mode winsize winpos score-mode obj-mode cursor-mode show-stems scale)) (list 2 24 (quote g) (let ((newobj (make-instance (quote edition-values)))) (setf (paper-size newobj) (om-make-point 600 800)) (setf (top-margin newobj) 2) (setf (left-margin newobj) 1) (setf (right-margin newobj) 1) (setf (bottom-margin newobj) 1) (setf (orientation newobj) nil) (setf (scale newobj) nil) (setf (system-space newobj) (quote (1))) (setf (system-color newobj) (quote nil)) (setf (line-space newobj) 1) (setf (title newobj) nil) (setf (show-title? newobj) nil) (setf (show-page? newobj) nil) (setf (sheet-id newobj) nil) (setf (page-mode newobj) nil) newobj) (om-make-point 0 0) nil nil (quote :jackmidi) 1 nil 1000 0 (om-make-point 370 280) (om-make-point 400 20) 0 1 (quote :normal) (quote t) nil)) t nil nil nil) (om-load-editor-box1 "N-CERCLE 3" (quote n-cercle) (quote ((om-load-inputfun (quote input-funbox) "object" "self" nil) (om-load-inputfun (quote input-funbox) "" "n" 12) (om-load-inputfun (quote input-funbox) "" "puntos" (list 1 5 7 9)))) (om-make-point 102 554) (om-make-point 81 89) (if (find-class (quote n-cercle) nil) (make-instance (quote n-cercle) :n 12 :puntos (list (list 0 2 5 8)) :from-file t)) nil nil (pairlis (quote (winpos winsize)) (list (om-make-point 0 0) (om-make-point 335 275))) t nil nil nil) (om-load-editor-box1 "N-CERCLE 2" (quote n-cercle) (quote ((om-load-inputfun (quote input-funbox) "object" "self" nil) (om-load-inputfun (quote input-funbox) "" "n" 12) (om-load-inputfun (quote input-funbox) "" "puntos" (list 1 5 7 9)))) (om-make-point 168 342) (om-make-point 81 89) (if (find-class (quote n-cercle) nil) (make-instance (quote n-cercle) :n 12 :puntos (list (list 0 3 7 9)) :from-file t)) nil nil (pairlis (quote (winpos winsize)) (list (om-make-point 0 0) (om-make-point 335 275))) t nil nil nil) (om-load-editor-box1 "CHORD" (quote chord) (quote ((om-load-inputfun (quote input-funbox) "object" "self" nil) (om-load-inputfun (quote input-funbox) "pitches (list of midicents)" "lmidic" (list 6000)) (om-load-inputfun (quote input-funbox) "velocities (list of values 0-127)" "lvel" (list 100)) (om-load-inputfun (quote input-funbox) "offsets (list of values in ms)" "loffset" (list 0)) (om-load-inputfun (quote input-funbox) "durations (list of values in ms)" "ldur" (list 1000)) (om-load-inputfun (quote input-funbox) "MIDI channels (list of values 0-16)" "lchan" (list 1)))) (om-make-point 1139 223) (om-make-point 113 83) (let ((thechord (make-instance (quote chord) :lmidic (quote (6000 6100 6500 6700 6900)) :ldur (quote (1000 1000 1000 1000 1000)) :lvel (quote (100 100 100 100 100)) :loffset (quote (0 0 0 0 0)) :lchan (quote (1 1 1 1 1))))) (load-port-info thechord (quote (0 0 0 0 0))) (init-mus-color thechord (quote nil)) (set-extra-pairs thechord (quote nil)) (set-tonalite thechord nil) thechord) nil nil (pairlis (quote (scale show-stems cursor-mode obj-mode score-mode winpos winsize mode grillestep notechancolor? zoom player inport outport deltapict cmnpref staff fontsize approx)) (list nil (quote t) (quote :normal) 0 0 (om-make-point 400 20) (om-make-point 370 280) 0 1000 nil 1 (quote :jackmidi) nil nil (om-make-point 0 0) (let ((newobj (make-instance (quote edition-values)))) (setf (paper-size newobj) (om-make-point 600 800)) (setf (top-margin newobj) 2) (setf (left-margin newobj) 1) (setf (right-margin newobj) 1) (setf (bottom-margin newobj) 1) (setf (orientation newobj) nil) (setf (scale newobj) nil) (setf (system-space newobj) (quote (1))) (setf (system-color newobj) (quote nil)) (setf (line-space newobj) 1) (setf (title newobj) nil) (setf (show-title? newobj) nil) (setf (show-page? newobj) nil) (setf (sheet-id newobj) nil) (setf (page-mode newobj) nil) newobj) (quote g) 24 2)) t nil nil nil) (om-load-editor-box1 "CHORD-SEQ 3" (quote chord-seq) (quote ((om-load-inputfun (quote input-funbox) "object" "self" nil) (om-load-inputfun (quote input-funbox) "pitches (mc): list or list of lists" "lmidic" (list 6000)) (om-load-inputfun (quote input-funbox) "onsets (ms): list" "lonset" (list 0 300)) (om-load-inputfun (quote input-funbox) "durations (ms): list or list of lists" "ldur" (list 1000)) (om-load-inputfun (quote input-funbox) "velocities (0-127): list or list of lists" "lvel" (list 100)) (om-load-inputfun (quote input-funbox) "offsets (ms): list or list of lists" "loffset" (list 0)) (om-load-inputfun (quote input-funbox) "MIDI channels (1-16): list or list of lists" "lchan" (list 1)) (om-load-inputfun (quote input-funbox) "relative chords duration (0-100)" "legato" 0))) (om-make-point 1146 338) (om-make-point 143 96) (let ((newobj (when (find-class (quote chord-seq) nil) (make-instance (quote chord-seq) :lmidic (quote ((6000) (6100) (6500) (6700) (6900))) :lonset (quote (0 300 600 900 1200 2200)) :ldur (quote ((1000) (1000) (1000) (1000) (1000))) :lvel (quote ((100) (100) (100) (100) (100))) :loffset (quote ((0) (0) (0) (0) (0))) :lchan (quote ((1) (1) (1) (1) (1))) :legato 0)))) (load-port-info newobj (quote ((0) (0) (0) (0) (0)))) (init-mus-color newobj (quote nil)) (set-extra-pairs newobj (quote nil)) (set-patch-pairs newobj (quote nil)) (set-name newobj nil) (set-tonalite newobj nil) newobj) nil nil (pairlis (quote (scale show-stems cursor-mode obj-mode score-mode winpos winsize mode grillestep notechancolor? zoom player inport outport deltapict cmnpref staff fontsize approx)) (list nil (quote t) (quote :normal) 1 0 (om-make-point 400 20) (om-make-point 370 280) 0 1000 nil 1 (quote :jackmidi) nil nil (om-make-point 0 0) (let ((newobj (make-instance (quote edition-values)))) (setf (paper-size newobj) (om-make-point 600 800)) (setf (top-margin newobj) 2) (setf (left-margin newobj) 1) (setf (right-margin newobj) 1) (setf (bottom-margin newobj) 1) (setf (orientation newobj) nil) (setf (scale newobj) nil) (setf (system-space newobj) (quote (1))) (setf (system-color newobj) (quote nil)) (setf (line-space newobj) 1) (setf (title newobj) nil) (setf (show-title? newobj) nil) (setf (show-page? newobj) nil) (setf (sheet-id newobj) nil) (setf (page-mode newobj) nil) newobj) (quote g) 24 2)) t nil nil nil) (om-load-editor-box1 "N-CERCLE" (quote n-cercle) (quote ((om-load-inputfun (quote input-funbox) "object" "self" nil) (om-load-inputfun (quote input-funbox) "" "n" 12) (om-load-inputfun (quote input-funbox) "" "puntos" (list 1 5 7 9)))) (om-make-point 1002 207) (om-make-point 81 89) (if (find-class (quote n-cercle) nil) (make-instance (quote n-cercle) :n 12 :puntos (list (list 0 1 5 7 9)) :from-file t)) "x" nil (pairlis (quote (winpos winsize)) (list (om-make-point 0 0) (om-make-point 335 275))) t nil nil nil) (om-load-boxcall (quote genfun) "CARD" (quote card) (quote ((om-load-inputfun (quote input-funbox) "Zn" "N" 12) (om-load-inputfun (quote input-funbox) "elments" "K" 6))) (om-make-point 1061 518) nil nil nil nil 1) (om-load-boxcall (quote genfun) "FAMILLE" (quote famille) (quote ((om-load-inputfun (quote input-funbox) "Zn" "N" 12) (om-load-inputfunmenu1 (quote input-funmenu) "familly" "FAMILLY" "tac" (list (list "tac" "tac") (list "tai" "tai") (list "tic" "tic") (list "ttl" "ttl") (list "tp" "tp") (list "tid" "tid"))) (om-load-inputfun (quote input-funbox) "number of elements" "K" 6) (om-load-inputfun (quote input-funbox) "howmany answers" "HOWMANY" 5))) (om-make-point 1061 419) nil nil nil nil 1) (om-load-boxcall (quote genfun) "PC-SET 2" (quote pc-set) (quote ((om-load-inputfunmenu1 (quote input-funmenu) "" "TYPE" (quote :integer) (list (list "integer" (quote :integer)) (list "vector" (quote :vector)) (list "pitch" (quote :pitch)))) (om-load-inputfun (quote input-funbox) "" "FN-NAME" (quote |6-Z10|)))) (om-make-point 875 528) nil nil nil nil 1) (om-load-boxcall (quote bastype) "aux 3" (quote t) (quote nil) (om-make-point 800 374) (om-make-point 45 32) (quote |4-27|) "4-27" nil) (om-load-boxcall (quote genfun) "PC-SET" (quote pc-set) (quote ((om-load-inputfunmenu1 (quote input-funmenu) "" "TYPE" (quote :vector) (list (list "integer" (quote :integer)) (list "vector" (quote :vector)) (list "pitch" (quote :pitch)))) (om-load-inputfun (quote input-funbox) "" "FN-NAME" (quote |6-Z10|)))) (om-make-point 757 477) nil nil nil nil 1) (om-load-boxcall (quote genfun) "C2CHORD" (quote c2chord) (quote ((om-load-inputfun (quote input-funbox) "the n-cercle" "SELF" nil) (om-load-inputfun (quote input-funbox) "index" "INDEX" 0) (om-load-inputfun (quote input-funbox) "initial value" "BASE" 6000) (om-load-inputfun (quote input-funbox) "approx" "APPROX" 100))) (om-make-point 1018 323) nil nil nil nil 1) (om-load-boxcall (quote genfun) "P-FORM" (quote p-form) (quote ((om-load-inputfunmenu1 (quote input-funmenu) "" "TYPE" (quote :integer) (list (list "fn" (quote :fn)) (list "integer" (quote :integer)) (list "pitch" (quote :pitch)))) (om-load-inputfun (quote input-funbox) "" "SET" (list 3 9 6 5 0)))) (om-make-point 117 450) nil nil nil nil 1) (om-load-boxcomment "comment 3" (om-make-point 114 85) (quote "vetor de Allen Forte") "" (om-make-point 957 42) nil (om-make-color 0 0 0) (om-make-font "Bitstream Vera Sans" 12 :family "Bitstream Vera Sans" :style (quote (:plain)) :mode (quote nil))) (om-load-boxcomment "comment 2" (om-make-point 128 47) (quote "normalizado se altera") "" (om-make-point 674 257) nil (om-make-color 0 0 0) (om-make-font "Bitstream Vera Sans" 12 :family "Bitstream Vera Sans" :style (quote (:plain)) :mode (quote nil))) (om-load-editor-box1 "TEXT-BOX 4" (quote text-box) (quote ((om-load-inputfun (quote input-funbox) "dialog-item text (string)" "text" "untitled"))) (om-make-point 590 324) (om-make-point 130 50) (om-make-dialog-item (quote text-box) (om-make-point 1 1) (om-make-point 110 23) "(3 4)" :font (om-make-font "DejaVu Sans" 11.0D0 :family "DejaVu Sans" :style (quote (:plain)) :mode (quote nil))) nil nil (pairlis (quote (winsize winpos)) (list (om-make-point 335 275) (om-make-point 10 40))) t nil nil nil) (om-load-boxcall (quote genfun) "X->DX 3" (quote x->dx) (quote ((om-load-inputfun (quote input-funbox) "a list of numbers" "SELF" 0))) (om-make-point 632 260) nil nil nil nil 1) (om-load-boxcomment "comment" (om-make-point 114 85) (quote "sem normalização$o conteudo dos$intervalos $se mantém") "" (om-make-point 760 35) nil (om-make-color 0 0 0) (om-make-font "Bitstream Vera Sans" 12 :family "Bitstream Vera Sans" :style (quote (:plain)) :mode (quote nil))) (om-load-editor-box1 "TEXT-BOX 3" (quote text-box) (quote ((om-load-inputfun (quote input-funbox) "dialog-item text (string)" "text" "untitled"))) (om-make-point 447 118) (om-make-point 130 50) (om-make-dialog-item (quote text-box) (om-make-point 1 1) (om-make-point 110 23) "(3 4 2)" :font (om-make-font "DejaVu Sans" 11.0D0 :family "DejaVu Sans" :style (quote (:plain)) :mode (quote nil))) nil nil (pairlis (quote (winsize winpos)) (list (om-make-point 335 275) (om-make-point 10 40))) t nil nil nil) (om-load-boxcall (quote genfun) "X->DX 2" (quote x->dx) (quote ((om-load-inputfun (quote input-funbox) "a list of numbers" "SELF" 0))) (om-make-point 280 10) nil nil nil nil 1) (om-load-editor-box1 "TEXT-BOX 2" (quote text-box) (quote ((om-load-inputfun (quote input-funbox) "dialog-item text (string)" "text" "untitled"))) (om-make-point 527 77) (om-make-point 130 50) (om-make-dialog-item (quote text-box) (om-make-point 1 1) (om-make-point 110 23) "(3 4 2)" :font (om-make-font "DejaVu Sans" 11.0D0 :family "DejaVu Sans" :style (quote (:plain)) :mode (quote nil))) nil nil (pairlis (quote (winsize winpos)) (list (om-make-point 335 275) (om-make-point 10 40))) t nil nil nil) (om-load-boxcall (quote genfun) "X->DX" (quote x->dx) (quote ((om-load-inputfun (quote input-funbox) "a list of numbers" "SELF" 0))) (om-make-point 569 13) nil nil nil nil 1) (om-load-boxcall (quote abstraction) "base_C4 2" (om-load-patch-abs1 "base_C4" (quote ((om-load-boxout "output" 0 (om-make-point 23 170) (quote ((om-load-inputfun (quote input-funbox) "" "out" nil))) nil nil) (om-load-boxcall (quote bastype) "aux 2" (quote t) (quote nil) (om-make-point 124 91) (om-make-point 48 32) 6000 "6000" nil) (om-load-boxcall (quote genfun) "OM+" (quote om+) (quote ((om-load-inputfun (quote input-funbox) "number or list" "ARG1" 0) (om-load-inputfun (quote input-funbox) "number or list" "ARG2" 0))) (om-make-point 63 124) nil nil nil nil 1) (om-load-boxcall (quote bastype) "aux" (quote t) (quote nil) (om-make-point 90 52) (om-make-point 41 32) 100 "100" nil) (om-load-boxcall (quote genfun) "OM*" (quote om*) (quote ((om-load-inputfun (quote input-funbox) "number or list" "ARG1" 0) (om-load-inputfun (quote input-funbox) "number or list" "ARG2" 0))) (om-make-point 36 108) nil nil nil nil 1) (om-load-boxin "input" 0 (om-make-point 5 45) "" nil nil nil))) (quote ((2 0 0 0 nil 0) (4 0 2 0 nil 0) (1 0 2 1 nil 0) (5 0 4 0 nil 0) (3 0 4 1 nil 0))) 6.080003 nil "" (om-make-point 200 200) (om-make-point 500 400)) (quote ((om-load-inputfun (quote input-funbox) "" "input" nil))) (om-make-point 454 293) nil (list (list 6300 6600 7000)) nil "base_C4") (om-load-editor-box1 "CHORD-SEQ 2" (quote chord-seq) (quote ((om-load-inputfun (quote input-funbox) "object" "self" nil) (om-load-inputfun (quote input-funbox) "pitches (mc): list or list of lists" "lmidic" (list 6000)) (om-load-inputfun (quote input-funbox) "onsets (ms): list" "lonset" (list 0 300)) (om-load-inputfun (quote input-funbox) "durations (ms): list or list of lists" "ldur" (list 1000)) (om-load-inputfun (quote input-funbox) "velocities (0-127): list or list of lists" "lvel" (list 100)) (om-load-inputfun (quote input-funbox) "offsets (ms): list or list of lists" "loffset" (list 0)) (om-load-inputfun (quote input-funbox) "MIDI channels (1-16): list or list of lists" "lchan" (list 1)) (om-load-inputfun (quote input-funbox) "relative chords duration (0-100)" "legato" 0))) (om-make-point 434 382) (om-make-point 115 82) (let ((newobj (when (find-class (quote chord-seq) nil) (make-instance (quote chord-seq) :lmidic (quote ((6300) (6600) (7000))) :lonset (quote (0 300 600 1600)) :ldur (quote ((1000) (1000) (1000))) :lvel (quote ((100) (100) (100))) :loffset (quote ((0) (0) (0))) :lchan (quote ((1) (1) (1))) :legato 0)))) (load-port-info newobj (quote ((0) (0) (0)))) (init-mus-color newobj (quote nil)) (set-extra-pairs newobj (quote nil)) (set-patch-pairs newobj (quote nil)) (set-name newobj nil) (set-tonalite newobj nil) newobj) nil nil (pairlis (quote (approx fontsize staff cmnpref deltapict outport inport player zoom notechancolor? grillestep mode winsize winpos score-mode obj-mode cursor-mode show-stems scale)) (list 2 24 (quote g) (let ((newobj (make-instance (quote edition-values)))) (setf (paper-size newobj) (om-make-point 600 800)) (setf (top-margin newobj) 2) (setf (left-margin newobj) 1) (setf (right-margin newobj) 1) (setf (bottom-margin newobj) 1) (setf (orientation newobj) nil) (setf (scale newobj) nil) (setf (system-space newobj) (quote (1))) (setf (system-color newobj) (quote nil)) (setf (line-space newobj) 1) (setf (title newobj) nil) (setf (show-title? newobj) nil) (setf (show-page? newobj) nil) (setf (sheet-id newobj) nil) (setf (page-mode newobj) nil) newobj) (om-make-point 0 0) nil nil (quote :jackmidi) 1 nil 1000 0 (om-make-point 370 280) (om-make-point 400 20) 0 1 (quote :normal) (quote t) nil)) t nil nil nil) (om-load-boxcall (quote abstraction) "mod12-list" (om-load-patch-abs1 "mod12-list" (quote ((om-load-boxout "output" 0 (om-make-point 104 275) (quote ((om-load-inputfun (quote input-funbox) "" "out" nil))) nil nil) (om-load-boxin "input" 0 (om-make-point 170 9) "" nil nil nil) (om-load-boxcall (quote genfun) "OM-ABS" (quote om-abs) (quote ((om-load-inputfun (quote input-funbox) "number or tree" "SELF" 1))) (om-make-point 150 84) nil nil nil nil 1) (om-load-boxcall (quote lispfun) "MAPCAR" (quote mapcar) (quote ((om-load-inputfun (quote input-funbox) "FUNCTION" "FUNCTION" nil) (om-load-inputfun (quote input-funbox) "LIST" "LIST" nil))) (om-make-point 95 205) nil nil nil nil 1) (om-load-boxcall (quote lispfun) "MOD" (quote mod) (quote ((om-load-inputfun (quote input-funbox) "X" "X" nil) (om-load-inputfun (quote input-funbox) "Y" "Y" nil))) (om-make-point 44 187) nil nil "l" nil 1) (om-load-boxcall (quote bastype) "aux" (quote t) (quote nil) (om-make-point 71 155) (om-make-point 34 32) 12 "12" nil))) (quote ((3 0 0 0 nil 0) (1 0 2 0 nil 0) (4 0 3 0 nil 0) (2 0 3 1 nil 0) (5 0 4 1 nil 0))) 6.080003 nil "" (om-make-point 200 200) (om-make-point 500 400)) (quote ((om-load-inputfun (quote input-funbox) "" "input" nil))) (om-make-point 235 206) nil (list (list 3 6 10)) nil "mod12-list") (om-load-editor-box1 "TEXT-BOX" (quote text-box) (quote ((om-load-inputfun (quote input-funbox) "dialog-item text (string)" "text" "untitled"))) (om-make-point 442 206) (om-make-point 130 50) (om-make-dialog-item (quote text-box) (om-make-point 1 1) (om-make-point 110 23) "(3 6 10)" :font (om-make-font "DejaVu Sans" 11.0D0 :family "DejaVu Sans" :style (quote (:plain)) :mode (quote nil))) nil nil (pairlis (quote (winsize winpos)) (list (om-make-point 335 275) (om-make-point 10 40))) t nil nil nil) (om-load-boxcall (quote genfun) "SORT-LIST" (quote sort-list) (quote ((om-load-inputfun (quote input-funbox) "a list" "LST" nil))) (om-make-point 291 298) nil nil nil nil 1) (om-load-boxcall (quote bastype) "aux 2" (quote t) (quote nil) (om-make-point 319 111) (om-make-point 27 32) 3 "3" nil) (om-load-boxcall (quote genfun) "OM+" (quote om+) (quote ((om-load-inputfun (quote input-funbox) "number or list" "ARG1" 0) (om-load-inputfun (quote input-funbox) "number or list" "ARG2" 0))) (om-make-point 265 158) (om-make-point 22 35) nil nil nil 1) (om-load-boxcall (quote bastype) "aux" (quote t) (quote nil) (om-make-point 134 80) (om-make-point 72 32) (list 0 3 7 9) "(0 3 7 9 )" nil) (om-load-boxcall (quote abstraction) "base_C4" (om-load-patch-abs1 "base_C4" (quote ((om-load-boxout "output" 0 (om-make-point 23 170) (quote ((om-load-inputfun (quote input-funbox) "" "out" nil))) nil nil) (om-load-boxcall (quote bastype) "aux 2" (quote t) (quote nil) (om-make-point 124 91) (om-make-point 48 32) 6000 "6000" nil) (om-load-boxcall (quote genfun) "OM+" (quote om+) (quote ((om-load-inputfun (quote input-funbox) "number or list" "ARG1" 0) (om-load-inputfun (quote input-funbox) "number or list" "ARG2" 0))) (om-make-point 63 124) nil nil nil nil 1) (om-load-boxcall (quote bastype) "aux" (quote t) (quote nil) (om-make-point 90 52) (om-make-point 41 32) 100 "100" nil) (om-load-boxcall (quote genfun) "OM*" (quote om*) (quote ((om-load-inputfun (quote input-funbox) "number or list" "ARG1" 0) (om-load-inputfun (quote input-funbox) "number or list" "ARG2" 0))) (om-make-point 36 108) nil nil nil nil 1) (om-load-boxin "input" 0 (om-make-point 5 45) "" nil nil nil))) (quote ((2 0 0 0 nil 0) (4 0 2 0 nil 0) (1 0 2 1 nil 0) (5 0 4 0 nil 0) (3 0 4 1 nil 0))) 6.080003 nil "" (om-make-point 200 200) (om-make-point 500 400)) (quote ((om-load-inputfun (quote input-funbox) "" "input" nil))) (om-make-point 77 122) nil (list (list 6000 6300 6700)) nil "base_C4") (om-load-editor-box1 "CHORD-SEQ" (quote chord-seq) (quote ((om-load-inputfun (quote input-funbox) "object" "self" nil) (om-load-inputfun (quote input-funbox) "pitches (mc): list or list of lists" "lmidic" (list 6000)) (om-load-inputfun (quote input-funbox) "onsets (ms): list" "lonset" (list 0 300)) (om-load-inputfun (quote input-funbox) "durations (ms): list or list of lists" "ldur" (list 1000)) (om-load-inputfun (quote input-funbox) "velocities (0-127): list or list of lists" "lvel" (list 100)) (om-load-inputfun (quote input-funbox) "offsets (ms): list or list of lists" "loffset" (list 0)) (om-load-inputfun (quote input-funbox) "MIDI channels (1-16): list or list of lists" "lchan" (list 1)) (om-load-inputfun (quote input-funbox) "relative chords duration (0-100)" "legato" 0))) (om-make-point 54 243) (om-make-point 115 82) (let ((newobj (when (find-class (quote chord-seq) nil) (make-instance (quote chord-seq) :lmidic (quote ((6000) (6300) (6700))) :lonset (quote (0 300 600 1600)) :ldur (quote ((1000) (1000) (1000))) :lvel (quote ((100) (100) (100))) :loffset (quote ((0) (0) (0))) :lchan (quote ((1) (1) (1))) :legato 0)))) (load-port-info newobj (quote ((0) (0) (0)))) (init-mus-color newobj (quote nil)) (set-extra-pairs newobj (quote nil)) (set-patch-pairs newobj (quote nil)) (set-name newobj nil) (set-tonalite newobj nil) newobj) "x" nil (pairlis (quote (approx fontsize staff cmnpref deltapict outport inport player zoom notechancolor? grillestep mode winsize winpos score-mode obj-mode cursor-mode show-stems scale)) (list 2 24 (quote g) (let ((newobj (make-instance (quote edition-values)))) (setf (paper-size newobj) (om-make-point 600 800)) (setf (top-margin newobj) 2) (setf (left-margin newobj) 1) (setf (right-margin newobj) 1) (setf (bottom-margin newobj) 1) (setf (orientation newobj) nil) (setf (scale newobj) nil) (setf (system-space newobj) (quote (1))) (setf (system-color newobj) (quote nil)) (setf (line-space newobj) 1) (setf (title newobj) nil) (setf (show-title? newobj) nil) (setf (show-page? newobj) nil) (setf (sheet-id newobj) nil) (setf (page-mode newobj) nil) newobj) (om-make-point 0 0) nil nil (quote :jackmidi) 1 nil 1000 0 (om-make-point 370 280) (om-make-point 400 20) 0 1 (quote :normal) (quote t) nil)) t nil nil nil))) (quote ((14 0 0 0 nil 0) (5 2 1 0 nil 0) (1 0 2 1 nil 0) (6 2 3 0 nil 0) (3 0 4 1 nil 0) (16 0 5 2 nil 0) (33 0 6 2 nil 0) (15 0 7 0 nil 0) (7 1 8 1 nil 0) (13 0 14 1 nil 0) (9 0 15 0 nil 0) (6 2 16 1 nil 0) (20 0 19 0 nil 0) (29 0 20 0 nil 0) (23 0 22 0 nil 3) (33 0 23 0 nil 3) (25 0 24 0 nil 0) (32 0 25 0 nil 5) (29 0 26 0 nil 0) (26 0 27 1 nil 0) (32 0 28 0 nil 0) (30 0 29 0 nil 0) (28 0 30 0 nil 0) (33 0 32 0 nil 3) (31 0 32 1 nil 5) (33 0 34 0 nil 0) (34 0 35 1 nil 0))) nil 6.080003))