; OM File Header - Saved 2014/12/17 11:20:43
; (6.080003 :patc (om-make-point 10 260) (om-make-point 544 0) (om-make-point 650 628) "" 183 0 "2014/12/17 8:52:52" "2014/12/17 11:20:43")
; End File Header
(in-package :om)(load-lib-for (quote nil))(setf *om-current-persistent* (om-load-patch1 "Patch" (quote ((om-load-boxcall (quote genfun) "OUT-RYTHM" (quote out-rythm) (quote ((om-load-inputfun (quote input-funbox) "Number of voices" "NBVAR" 6) (om-load-inputfun (quote input-funbox) "period" "PERIOD" 24) (om-load-inputfun (quote input-funbox) "0-1 polynomial" "POLY" (list 1 1 0 0 1 1)))) (om-make-point 88 337) nil nil nil nil 1) (om-load-editor-box1 "N-CERCLE" (quote n-cercle) (quote ((om-load-inputfun (quote input-funbox) "object" "self" nil) (om-load-inputfun (quote input-funbox) "" "n" 12) (om-load-inputfun (quote input-funbox) "" "puntos" (list 0 5 7)))) (om-make-point 16 130) (om-make-point 76 79) (if (find-class (quote n-cercle) nil) (make-instance (quote n-cercle) :n 12 :puntos (list (list 0 3 5 8)) :from-file t)) nil nil (pairlis (quote (winpos winsize)) (list (om-make-point 0 0) (om-make-point 335 275))) t nil nil nil) (om-load-boxcall (quote genfun) "POLY2CANON" (quote poly2canon) (quote ((om-load-inputfun (quote input-funbox) "0-1 polynomial" "POLY" (list 1 0 1)))) (om-make-point 110 105) nil nil nil nil 1) (om-load-editor-box1 "TEXT-BOX 4" (quote text-box) (quote ((om-load-inputfun (quote input-funbox) "dialog-item text (string)" "text" "untitled"))) (om-make-point 801 99) (om-make-point 43 65) (om-make-dialog-item (quote text-box) (om-make-point 1 1) (om-make-point 23 38) "4" :font (om-make-font "DejaVu Sans" 10.998697916666666D0 :family "DejaVu Sans" :style (quote (:plain)) :mode (quote nil))) nil nil (pairlis (quote (winpos winsize)) (list (om-make-point 10 40) (om-make-point 335 275))) t nil nil nil) (om-load-boxcall (quote genfun) "OM-RANDOM 2" (quote om-random) (quote ((om-load-inputfun (quote input-funbox) "min" "LOW" 1) (om-load-inputfun (quote input-funbox) "max" "HIGH" 12))) (om-make-point 782 37) nil nil nil nil 1) (om-load-editor-box1 "TEXT-BOX 3" (quote text-box) (quote ((om-load-inputfun (quote input-funbox) "dialog-item text (string)" "text" "untitled"))) (om-make-point 562 185) (om-make-point 401 50) (om-make-dialog-item (quote text-box) (om-make-point 1 1) (om-make-point 381 23) "((1 1 1 1) (1 1 1 5) (1 1 1 7) (1 1 1 11) (1 1 1 5) (1 1 5 5) (1 1 5 7) (1 1 5 11) (1 1 1 7) (1 1 5 7) (1 1 7 7) (1 1 7 11) (1 1 1 11) (1 1 5 11) (1 1 7 11) (1 1 11 11) (1 1 1 5) (1 1 5 5) (1 1 5 7) (1 1 5 11) (1 1 5 5) (1 5 5 5) (1 5 5 7) (1 5 5 11) (1 1 5 7) (1 5 5 7) (1 5 7 7) (1 5 7 11) (1 1 5 11) (1 5 5 11) (1 5 7 11) (1 5 11 11) (1 1 1 7) (1 1 5 7) (1 1 7 7) (1 1 7 11) (1 1 5 7) (1 5 5 7) (1 5 7 7) (1 5 7 11) (1 1 7 7) (1 5 7 7) (1 7 7 7) (1 7 7 11) (1 1 7 11) (1 5 7 11) (1 7 7 11) (1 7 11 11) (1 1 1 11) (1 1 5 11) (1 1 7 11) (1 1 11 11) (1 1 5 11) (1 5 5 11) (1 5 7 11) (1 5 11 11) (1 1 7 11) (1 5 7 11) (1 7 7 11) (1 7 11 11) (1 1 11 11) (1 5 11 11) (1 7 11 11) (1 11 11 11))" :font (om-make-font "DejaVu Sans" 10.998697916666666D0 :family "DejaVu Sans" :style (quote (:plain)) :mode (quote nil))) nil nil (pairlis (quote (winpos winsize)) (list (om-make-point 10 40) (om-make-point 335 275))) t nil nil nil) (om-load-boxcall (quote genfun) "SIGNATURES" (quote signatures) (quote ((om-load-inputfun (quote input-funbox) "module" "N" 12) (om-load-inputfun (quote input-funbox) "length" "K" 6))) (om-make-point 649 109) nil nil nil nil 1) (om-load-editor-box1 "TEXT-BOX 2" (quote text-box) (quote ((om-load-inputfun (quote input-funbox) "dialog-item text (string)" "text" "untitled"))) (om-make-point 482 112) (om-make-point 43 65) (om-make-dialog-item (quote text-box) (om-make-point 1 1) (om-make-point 23 38) "15" :font (om-make-font "DejaVu Sans" 10.998697916666666D0 :family "DejaVu Sans" :style (quote (:plain)) :mode (quote nil))) nil nil (pairlis (quote (winpos winsize)) (list (om-make-point 10 40) (om-make-point 335 275))) t nil nil nil) (om-load-boxcall (quote genfun) "OM-RANDOM" (quote om-random) (quote ((om-load-inputfun (quote input-funbox) "min" "LOW" 1) (om-load-inputfun (quote input-funbox) "max" "HIGH" 100))) (om-make-point 463 50) nil nil nil nil 1) (om-load-editor-box1 "TEXT-BOX" (quote text-box) (quote ((om-load-inputfun (quote input-funbox) "dialog-item text (string)" "text" "untitled"))) (om-make-point 114 232) (om-make-point 401 50) (om-make-dialog-item (quote text-box) (om-make-point 1 1) (om-make-point 381 23) "(1 1 1 1 1 1 1 1 1 1 1 1 1 1 1 1 1 1 1 1 1 1 1)" :font (om-make-font "DejaVu Sans" 10.998697916666666D0 :family "DejaVu Sans" :style (quote (:plain)) :mode (quote nil))) nil nil (pairlis (quote (winpos winsize)) (list (om-make-point 10 40) (om-make-point 335 275))) t nil nil nil) (om-load-boxcall (quote genfun) "CYCLO" (quote cyclo) (quote ((om-load-inputfun (quote input-funbox) "n" "N" 4))) (om-make-point 304 116) nil nil nil nil 1))) (quote ((10 0 0 2 nil 0) (2 0 1 2 nil 0) (10 0 2 0 nil 0) (4 0 3 0 nil 0) (6 0 5 0 nil 0) (3 0 6 1 nil 0) (8 0 7 0 nil 0) (10 0 9 0 nil 0) (7 0 10 0 nil 0))) nil 6.080003))