; OM File Header - Saved 2014/12/16 12:55:12
; (6.080003 :patc (om-make-point 172 10) (om-make-point 411 50) (om-make-point 1112 692) "" 183 0 "2014/12/16 12:53:55" "2014/12/16 12:55:12")
; End File Header
(in-package :om)(load-lib-for (quote nil))(setf *om-current-persistent* (om-load-patch1 "pclass" (quote ((om-load-boxout "output" 0 (om-make-point 83 379) (quote ((om-load-inputfun (quote input-funbox) "" "out" nil))) nil nil) (om-load-boxin "input" 0 (om-make-point 5 45) "" nil nil nil) (om-load-boxcall (quote genfun) "OM/" (quote om/) (quote ((om-load-inputfun (quote input-funbox) "number or list" "ARG1" 100) (om-load-inputfun (quote input-funbox) "number or list" "ARG2" 1))) (om-make-point 117 220) nil nil nil nil 1) (om-load-boxcall (quote bastype) "aux 2" (quote t) (quote nil) (om-make-point 163 132) (om-make-point 41 32) 100 "100" nil) (om-load-boxcall (quote genfun) "OM//" (quote om//) (quote ((om-load-inputfun (quote input-funbox) "number or list" "N" 1) (om-load-inputfun (quote input-funbox) "number or list" "DIVISOR" 1))) (om-make-point 72 306) nil nil nil nil 2) (om-load-boxcall (quote bastype) "aux" (quote t) (quote nil) (om-make-point 150 266) (om-make-point 34 32) 12 "12" nil))) (quote ((4 1 0 0 nil 0) (1 0 2 0 nil 0) (3 0 2 1 nil 0) (2 0 4 0 nil 0) (5 0 4 1 nil 0))) nil 6.080003))