; OM File Header - Saved 2015/03/10 16:35:22
; (6.080003 :patc (om-make-point 172 10) (om-make-point 0 0) (om-make-point 1061 591) "" 183 0 "2014/12/16 7:59:34" "2015/03/10 16:34:39")
; End File Header
(in-package :om)(load-lib-for (quote nil))(setf *om-current-persistent* (om-load-patch1 "simetria_intervalar" (quote ((om-load-editor-box1 "TEXT-BOX 2" (quote text-box) (quote ((om-load-inputfun (quote input-funbox) "dialog-item text (string)" "text" "untitled"))) (om-make-point 731 500) (om-make-point 122 50) (om-make-dialog-item (quote text-box) (om-make-point 1 1) (om-make-point 102 23) "(1 1 1 1 1 1 2 1 1)" :font (om-make-font "DejaVu Sans" 10.998697916666666D0 :family "DejaVu Sans" :style (quote (:plain)) :mode (quote nil))) nil nil (pairlis (quote (winpos winsize)) (list (om-make-point 10 40) (om-make-point 335 275))) t nil nil nil) (om-load-boxcall (quote genfun) "X->DX" (quote x->dx) (quote ((om-load-inputfun (quote input-funbox) "a list of numbers" "SELF" 0))) (om-make-point 718 438) nil nil nil nil 1) (om-load-boxcall (quote genfun) "SORT-LIST" (quote sort-list) (quote ((om-load-inputfun (quote input-funbox) "a list" "LST" nil))) (om-make-point 862 313) nil nil nil nil 1) (om-load-boxcall (quote genfun) "REMOVE-DUP" (quote remove-dup) (quote ((om-load-inputfun (quote input-funbox) "list" "LIST" (list 1 2 3 4)) (om-load-inputfun (quote input-funbox) "equality test (function or function name)" "TEST" (quote eq)) (om-load-inputfun (quote input-funbox) "an integer" "DEPTH" 1))) (om-make-point 768 254) nil nil nil nil 1) (om-load-boxcall (quote genfun) "FLAT" (quote flat) (quote ((om-load-inputfun (quote input-funbox) "a list" "LST" nil))) (om-make-point 686 172) nil nil nil nil 1) (om-load-boxcall (quote abstraction) "pclass" (om-load-patch-abs1 "pclass" (quote ((om-load-boxout "output" 0 (om-make-point 102 390) (quote ((om-load-inputfun (quote input-funbox) "" "out" nil))) nil nil) (om-load-boxin "input" 0 (om-make-point 5 45) "" nil nil nil) (om-load-boxcall (quote bastype) "aux 2" (quote t) (quote nil) (om-make-point 170 286) (om-make-point 34 32) 12 "12" nil) (om-load-boxcall (quote genfun) "OM//" (quote om//) (quote ((om-load-inputfun (quote input-funbox) "number or list" "N" 1) (om-load-inputfun (quote input-funbox) "number or list" "DIVISOR" 1))) (om-make-point 92 326) nil nil nil nil 2) (om-load-boxcall (quote bastype) "aux" (quote t) (quote nil) (om-make-point 183 152) (om-make-point 41 32) 100 "100" nil) (om-load-boxcall (quote genfun) "OM/" (quote om/) (quote ((om-load-inputfun (quote input-funbox) "number or list" "ARG1" 100) (om-load-inputfun (quote input-funbox) "number or list" "ARG2" 1))) (om-make-point 137 240) nil nil nil nil 1))) (quote ((3 1 0 0 nil 0) (5 0 3 0 nil 0) (2 0 3 1 nil 0) (1 0 5 0 nil 0) (4 0 5 1 nil 0))) 6.080003 nil "" (om-make-point 200 200) (om-make-point 500 400)) (quote ((om-load-inputfun (quote input-funbox) "" "input" nil))) (om-make-point 719 217) nil (list (list 4 4 6 2 5 3 7 1 9 11 10)) nil "pclass") (om-load-editor-box1 "TEXT-BOX" (quote text-box) (quote ((om-load-inputfun (quote input-funbox) "dialog-item text (string)" "text" "untitled"))) (om-make-point 667 368) (om-make-point 122 50) (om-make-dialog-item (quote text-box) (om-make-point 1 1) (om-make-point 102 23) "(1 2 3 4 5 6 7 9 10 11)" :font (om-make-font "DejaVu Sans" 10.998697916666666D0 :family "DejaVu Sans" :style (quote (:plain)) :mode (quote nil))) nil nil (pairlis (quote (winpos winsize)) (list (om-make-point 10 40) (om-make-point 335 275))) t nil nil nil) (om-load-editor-box1 "N-CERCLE 2" (quote n-cercle) (quote ((om-load-inputfun (quote input-funbox) "object" "self" nil) (om-load-inputfun (quote input-funbox) "" "n" 12) (om-load-inputfun (quote input-funbox) "" "puntos" (list 0 5 7)))) (om-make-point 952 140) (om-make-point 99 91) (if (find-class (quote n-cercle) nil) (make-instance (quote n-cercle) :n 12 :puntos (list (list 5100 7500) (list 5700 6900) (list 5300 7300) (list 5100 5900 6700 7500) (list 5500 7100) (list 5700 6900) (list 5300 7300) (list 5500 7100) (list 5700 6900) (list 5900 6700) (list 5100 7500) (list 5700 6900) (list 5300 7400) (list 5100 5900)) :from-file t)) nil nil (pairlis (quote (winpos winsize)) (list (om-make-point 10 40) (om-make-point 335 275))) t nil nil nil) (om-load-editor-box1 "N-CERCLE" (quote n-cercle) (quote ((om-load-inputfun (quote input-funbox) "object" "self" nil) (om-load-inputfun (quote input-funbox) "" "n" 12) (om-load-inputfun (quote input-funbox) "" "puntos" (list 0 5 7)))) (om-make-point 406 90) (om-make-point 99 91) (if (find-class (quote n-cercle) nil) (make-instance (quote n-cercle) :n 12 :puntos (list (list 6300) (list 7500 5100) (list 5700 6900) (list 5300 6100) (list 5900 6700) (list 5500 7100) (list 5700 6900) (list 5300 6100) (list 5500 7100) (list 5700 6900) (list 5900 6700)) :from-file t)) nil nil (pairlis (quote (winpos winsize)) (list (om-make-point 10 40) (om-make-point 335 275))) t nil nil nil) (om-load-boxcall (quote genfun) "N->MC 2" (quote n->mc) (quote ((om-load-inputfun (quote input-funbox) "note name or list of note names" "STRS" (list "C3")))) (om-make-point 81 348) nil nil nil nil 1) (om-load-editor-box1 "CHORD-SEQ 2" (quote chord-seq) (quote ((om-load-inputfun (quote input-funbox) "object" "self" nil) (om-load-inputfun (quote input-funbox) "pitches (mc): list or list of lists" "lmidic" (list 6000)) (om-load-inputfun (quote input-funbox) "onsets (ms): list" "lonset" (list 0 500)) (om-load-inputfun (quote input-funbox) "durations (ms): list or list of lists" "ldur" (list 1000)) (om-load-inputfun (quote input-funbox) "velocities (0-127): list or list of lists" "lvel" (list 100)) (om-load-inputfun (quote input-funbox) "offsets (ms): list or list of lists" "loffset" (list 0)) (om-load-inputfun (quote input-funbox) "MIDI channels (1-16): list or list of lists" "lchan" (list 1)) (om-load-inputfun (quote input-funbox) "relative chords duration (0-100)" "legato" 0))) (om-make-point 18 410) (om-make-point 357 90) (let ((newobj (when (find-class (quote chord-seq) nil) (let ((rep (make-instance (quote chord-seq) :lmidic (quote ((7600 6400) (6600 7400) (6500 7500) (6700 7300) (6900 7100) (7000))) :lonset (quote (0 500 1000 1500 2000 2500 3500)) :ldur (quote ((1000 1000) (1000 1000) (1000 1000) (1000 1000) (1000 1000) (1000))) :lvel (quote ((100 100) (100 100) (100 100) (100 100) (100 100) (100))) :loffset (quote ((0 0) (0 0) (0 0) (0 0) (0 0) (0))) :lchan (quote ((1 1) (1 1) (1 1) (1 1) (1 1) (1))) :legato 0))) (restore-tonalite rep (quote (((1 0) (make-instance (quote simple-tonalite) :tonnote (quote sol) :tonalt (quote bemol) :mode (quote (0 200 400 500 700 900 1100)))) ((2 1) (make-instance (quote simple-tonalite) :tonnote (quote mi) :tonalt (quote bemol) :mode (quote (0 200 400 500 700 900 1100)))) ((3 1) (make-instance (quote simple-tonalite) :tonnote (quote re) :tonalt (quote bemol) :mode (quote (0 200 400 500 700 900 1100)))) ((4 1) (make-instance (quote simple-tonalite) :tonnote (quote do) :tonalt (quote bemol) :mode (quote (0 200 400 500 700 900 1100)))) ((5 0) (make-instance (quote simple-tonalite) :tonnote (quote si) :tonalt (quote bemol) :mode (quote (0 200 400 500 700 900 1100))))))) rep)))) (load-port-info newobj (quote ((0 0) (0 0) (0 0) (0 0) (0 0) (0)))) (init-mus-color newobj (quote nil)) (set-extra-pairs newobj (quote nil)) (set-patch-pairs newobj (quote ((nil (om-load-patch-abs1 "patch" (quote nil) (quote nil) 6.080003 nil "" (om-make-point 200 200) (om-make-point 400 500))) ((1) (om-load-patch-abs1 "patch" (quote nil) (quote nil) 6.080003 nil "" (om-make-point 200 200) (om-make-point 400 500))) ((2) (om-load-patch-abs1 "patch" (quote nil) (quote nil) 6.080003 nil "" (om-make-point 200 200) (om-make-point 400 500))) ((3) (om-load-patch-abs1 "patch" (quote nil) (quote nil) 6.080003 nil "" (om-make-point 200 200) (om-make-point 400 500))) ((4) (om-load-patch-abs1 "patch" (quote nil) (quote nil) 6.080003 nil "" (om-make-point 200 200) (om-make-point 400 500))) ((5) (om-load-patch-abs1 "patch" (quote nil) (quote nil) 6.080003 nil "" (om-make-point 200 200) (om-make-point 400 500)))))) (set-name newobj nil) (set-tonalite newobj nil) newobj) "x" nil (pairlis (quote (approx fontsize staff cmnpref deltapict outport inport player zoom notechancolor? grillestep mode winsize winpos score-mode obj-mode cursor-mode show-stems scale)) (list 2 24 (quote g) (let ((newobj (make-instance (quote edition-values)))) (setf (paper-size newobj) (om-make-point 600 800)) (setf (top-margin newobj) 2) (setf (left-margin newobj) 1) (setf (right-margin newobj) 1) (setf (bottom-margin newobj) 1) (setf (orientation newobj) nil) (setf (scale newobj) nil) (setf (system-space newobj) (quote (1))) (setf (system-color newobj) (quote nil)) (setf (line-space newobj) 1) (setf (title newobj) nil) (setf (show-title? newobj) nil) (setf (show-page? newobj) nil) (setf (sheet-id newobj) nil) (setf (page-mode newobj) nil) newobj) (om-make-point 0 0) nil nil (quote :jackmidi) 1 nil 1000 0 (om-make-point 942 493) (om-make-point 0 0) 0 1 (quote :normal) (quote t) nil)) t nil nil nil) (om-load-boxcall (quote bastype) "list 2" (quote list) (quote nil) (om-make-point 44 289) (om-make-point 299 32) (list (list (quote fb4) (quote e3)) (list (quote gb3) (quote d4)) (list (quote f3) (quote eb4)) (list (quote g3) (quote db4)) (list (quote a3) (quote cb4)) (quote bb3)) "((Fb4 E3) (Gb3 D4)(F3 Eb4)(G3 Db4)(A3 Cb4) Bb3)" nil) (om-load-boxcomment "comment 2" (om-make-point 370 39) (quote "FIfth String Quartet mm217") "" (om-make-point 15 500) nil (om-make-color 0.9017315S0 0.049881697S0 0.049881697S0) (om-make-font "Courier" 15.998697916666666D0 :family "Courier" :style (quote (:bold)) :mode (quote nil))) (om-load-editor-box1 "CHORD-SEQ 3" (quote chord-seq) (quote ((om-load-inputfun (quote input-funbox) "object" "self" nil) (om-load-inputfun (quote input-funbox) "pitches (mc): list or list of lists" "lmidic" (list 6000)) (om-load-inputfun (quote input-funbox) "onsets (ms): list" "lonset" (list 0 500)) (om-load-inputfun (quote input-funbox) "durations (ms): list or list of lists" "ldur" (list 1000)) (om-load-inputfun (quote input-funbox) "velocities (0-127): list or list of lists" "lvel" (list 100)) (om-load-inputfun (quote input-funbox) "offsets (ms): list or list of lists" "loffset" (list 0)) (om-load-inputfun (quote input-funbox) "MIDI channels (1-16): list or list of lists" "lchan" (list 1)) (om-load-inputfun (quote input-funbox) "relative chords duration (0-100)" "legato" 0))) (om-make-point 524 38) (om-make-point 289 100) (let ((newobj (when (find-class (quote chord-seq) nil) (make-instance (quote chord-seq) :lmidic (quote ((5100 7500) (5700 6900) (5300 7300) (5100 5900 6700 7500) (5500 7100) (5700 6900) (5300 7300) (5500 7100) (5700 6900) (5900 6700) (5100 7500) (5700 6900) (5300 7400) (5100 5900))) :lonset (quote (0 500 750 1000 1500 1750 2000 2250 2500 2750 3000 3500 3750 4000 5998)) :ldur (quote ((998 998) (498 498) (498 498) (998 998 998 998) (498 498) (498 498) (498 498) (498 498) (498 498) (498 498) (998 998) (498 498) (498 498) (1998 1998))) :lvel (quote ((80 80) (80 80) (80 80) (80 80 80 80) (80 80) (80 80) (80 80) (80 80) (80 80) (80 80) (80 80) (80 80) (80 80) (80 80))) :loffset (quote ((0 0) (0 0) (0 0) (0 0 0 0) (0 0) (0 0) (0 0) (0 0) (0 0) (0 0) (0 0) (0 0) (0 0) (0 0))) :lchan (quote ((1 1) (1 1) (1 1) (1 1 1 1) (1 1) (1 1) (1 1) (1 1) (1 1) (1 1) (1 1) (1 1) (1 1) (1 1))) :legato 0)))) (load-port-info newobj (quote ((0 0) (0 0) (0 0) (0 0 0 0) (0 0) (0 0) (0 0) (0 0) (0 0) (0 0) (0 0) (0 0) (0 0) (0 0)))) (init-mus-color newobj (quote nil)) (set-extra-pairs newobj (quote nil)) (set-patch-pairs newobj (quote nil)) (set-name newobj nil) (set-tonalite newobj nil) newobj) "x" nil (pairlis (quote (approx fontsize staff cmnpref deltapict outport inport player zoom notechancolor? grillestep mode winsize winpos score-mode obj-mode cursor-mode show-stems scale)) (list 2 24 (quote g) (let ((newobj (make-instance (quote edition-values)))) (setf (paper-size newobj) (om-make-point 600 800)) (setf (top-margin newobj) 2) (setf (left-margin newobj) 1) (setf (right-margin newobj) 1) (setf (bottom-margin newobj) 1) (setf (orientation newobj) nil) (setf (scale newobj) nil) (setf (system-space newobj) (quote (1))) (setf (system-color newobj) (quote nil)) (setf (line-space newobj) 1) (setf (title newobj) nil) (setf (show-title? newobj) nil) (setf (show-page? newobj) nil) (setf (sheet-id newobj) nil) (setf (page-mode newobj) nil) newobj) (om-make-point 0 0) nil nil (quote :jackmidi) 1 nil 1000 0 (om-make-point 942 493) (om-make-point 0 0) 0 1 (quote :normal) (quote t) nil)) t nil nil nil) (om-load-boxcomment "comment" (om-make-point 557 43) (quote "Mikrokosmos n136 mm62-66  ROIG-FRANCOLÍ 2008 p.49") "" (om-make-point 28 227) nil (om-make-color 0.9017315S0 0.049881697S0 0.049881697S0) (om-make-font "Courier" 15.998697916666666D0 :family "Courier" :style (quote (:bold)) :mode (quote nil))) (om-load-boxcall (quote genfun) "N->MC" (quote n->mc) (quote ((om-load-inputfun (quote input-funbox) "note name or list of note names" "STRS" (list "C3")))) (om-make-point 119 49) nil nil nil nil 1) (om-load-boxcall (quote bastype) "list" (quote list) (quote nil) (om-make-point 61 2) (om-make-point 535 32) (list (quote eb3) (list (quote eb4) (quote eb2)) (list (quote a2) (quote a3)) (list (quote f2) (quote db3)) (list (quote b2) (quote g3)) (list (quote g2) (quote b3)) (list (quote a2) (quote a3)) (list (quote f2) (quote db3)) (list (quote g2) (quote b3)) (list (quote a2) (quote a3)) (list (quote b2) (quote g3))) "(Eb3 (Eb4 Eb2) (A2 A3) (F2 Db3) (B2 G3) (G2 B3) (A2 A3) (F2 Db3) (G2 B3) (A2 A3) (B2 G3))" nil) (om-load-editor-box1 "CHORD-SEQ" (quote chord-seq) (quote ((om-load-inputfun (quote input-funbox) "object" "self" nil) (om-load-inputfun (quote input-funbox) "pitches (mc): list or list of lists" "lmidic" (list 6000)) (om-load-inputfun (quote input-funbox) "onsets (ms): list" "lonset" (list 0 500)) (om-load-inputfun (quote input-funbox) "durations (ms): list or list of lists" "ldur" (list 1000)) (om-load-inputfun (quote input-funbox) "velocities (0-127): list or list of lists" "lvel" (list 100)) (om-load-inputfun (quote input-funbox) "offsets (ms): list or list of lists" "loffset" (list 0)) (om-load-inputfun (quote input-funbox) "MIDI channels (1-16): list or list of lists" "lchan" (list 1)) (om-load-inputfun (quote input-funbox) "relative chords duration (0-100)" "legato" 0))) (om-make-point 35 123) (om-make-point 357 90) (let ((newobj (when (find-class (quote chord-seq) nil) (let ((rep (make-instance (quote chord-seq) :lmidic (quote ((6300) (7500 5100) (5700 6900) (5300 6100) (5900 6700) (5500 7100) (5700 6900) (5300 6100) (5500 7100) (5700 6900) (5900 6700))) :lonset (quote (0 500 1000 1500 2000 2500 3000 3500 4000 4500 5000 6000)) :ldur (quote ((1000) (1000 1000) (1000 1000) (1000 1000) (1000 1000) (1000 1000) (1000 1000) (1000 1000) (1000 1000) (1000 1000) (1000 1000))) :lvel (quote ((100) (100 100) (100 100) (100 100) (100 100) (100 100) (100 100) (100 100) (100 100) (100 100) (100 100))) :loffset (quote ((0) (0 0) (0 0) (0 0) (0 0) (0 0) (0 0) (0 0) (0 0) (0 0) (0 0))) :lchan (quote ((1) (1 1) (1 1) (1 1) (1 1) (1 1) (1 1) (1 1) (1 1) (1 1) (1 1))) :legato 0))) (restore-tonalite rep (quote (((0 0) (make-instance (quote simple-tonalite) :tonnote (quote mi) :tonalt (quote bemol) :mode (quote (0 200 400 500 700 900 1100)))) ((1 0) (make-instance (quote simple-tonalite) :tonnote (quote mi) :tonalt (quote bemol) :mode (quote (0 200 400 500 700 900 1100)))) ((1 1) (make-instance (quote simple-tonalite) :tonnote (quote mi) :tonalt (quote bemol) :mode (quote (0 200 400 500 700 900 1100)))) ((3 1) (make-instance (quote simple-tonalite) :tonnote (quote re) :tonalt (quote bemol) :mode (quote (0 200 400 500 700 900 1100)))) ((7 1) (make-instance (quote simple-tonalite) :tonnote (quote re) :tonalt (quote bemol) :mode (quote (0 200 400 500 700 900 1100))))))) rep)))) (load-port-info newobj (quote ((0) (0 0) (0 0) (0 0) (0 0) (0 0) (0 0) (0 0) (0 0) (0 0) (0 0)))) (init-mus-color newobj (quote nil)) (set-extra-pairs newobj (quote nil)) (set-patch-pairs newobj (quote ((nil (om-load-patch-abs1 "patch" (quote nil) (quote nil) 6.080003 nil "" (om-make-point 200 200) (om-make-point 400 500)))))) (set-name newobj nil) (set-tonalite newobj nil) newobj) "x" nil (pairlis (quote (approx fontsize staff cmnpref deltapict outport inport player zoom notechancolor? grillestep mode winsize winpos score-mode obj-mode cursor-mode show-stems scale)) (list 2 24 (quote g) (let ((newobj (make-instance (quote edition-values)))) (setf (paper-size newobj) (om-make-point 600 800)) (setf (top-margin newobj) 2) (setf (left-margin newobj) 1) (setf (right-margin newobj) 1) (setf (bottom-margin newobj) 1) (setf (orientation newobj) nil) (setf (scale newobj) nil) (setf (system-space newobj) (quote (1))) (setf (system-color newobj) (quote nil)) (setf (line-space newobj) 1) (setf (title newobj) nil) (setf (show-title? newobj) nil) (setf (show-page? newobj) nil) (setf (sheet-id newobj) nil) (setf (page-mode newobj) nil) newobj) (om-make-point 0 0) nil nil (quote :jackmidi) 1 nil 1000 0 (om-make-point 942 493) (om-make-point 0 0) 0 1 (quote :normal) (quote t) nil)) t nil nil nil))) (quote ((1 0 0 0 nil 0) (6 0 1 0 nil 0) (3 0 2 0 nil 0) (5 0 3 0 nil 0) (8 2 4 0 nil 0) (4 0 5 0 nil 0) (2 0 6 0 nil 0) (13 1 7 2 nil 0) (17 1 8 2 nil 0) (11 0 9 0 nil 0) (9 0 10 1 nil 0) (16 0 15 0 nil 0) (15 0 17 1 nil 0))) nil 6.080003))
