; OM File Header - Saved 2015/02/21 17:43:57
; (6.080003 :patc (om-make-point 118 60) (om-make-point 0 50) (om-make-point 1364 589) "" 183 0 "2015/02/10 0:32:48" "2015/02/21 17:43:57")
; End File Header
(in-package :om)(load-lib-for (quote nil))(setf *om-current-persistent* (om-load-patch1 "octatonismo_geradores" (quote ((om-load-boxcall (quote abstraction) "base_C4" (om-load-patch-abs1 "base_C4" (quote ((om-load-boxout "output" 0 (om-make-point 23 170) (quote ((om-load-inputfun (quote input-funbox) "" "out" nil))) nil nil) (om-load-boxcall (quote bastype) "aux 2" (quote t) (quote nil) (om-make-point 124 91) (om-make-point 48 32) 6000 "6000" nil) (om-load-boxcall (quote genfun) "OM+" (quote om+) (quote ((om-load-inputfun (quote input-funbox) "number or list" "ARG1" 0) (om-load-inputfun (quote input-funbox) "number or list" "ARG2" 0))) (om-make-point 63 124) nil nil nil nil 1) (om-load-boxcall (quote bastype) "aux" (quote t) (quote nil) (om-make-point 90 52) (om-make-point 41 32) 100 "100" nil) (om-load-boxcall (quote genfun) "OM*" (quote om*) (quote ((om-load-inputfun (quote input-funbox) "number or list" "ARG1" 0) (om-load-inputfun (quote input-funbox) "number or list" "ARG2" 0))) (om-make-point 36 108) nil nil nil nil 1) (om-load-boxin "input" 0 (om-make-point 5 45) "" nil nil nil))) (quote ((2 0 0 0 nil 0) (4 0 2 0 nil 0) (1 0 2 1 nil 0) (5 0 4 0 nil 0) (3 0 4 1 nil 0))) 6.080003 nil "" (om-make-point 0 0) (om-make-point 500 373)) (quote ((om-load-inputfun (quote input-funbox) "" "input" nil))) (om-make-point 807 360) nil (list (list 6000 6100 6300 6400 6600 6700 6900 7000)) nil "base_C4") (om-load-editor-box1 "CHORD-SEQ" (quote chord-seq) (quote ((om-load-inputfun (quote input-funbox) "object" "self" nil) (om-load-inputfun (quote input-funbox) "pitches (mc): list or list of lists" "lmidic" (list 6000)) (om-load-inputfun (quote input-funbox) "onsets (ms): list" "lonset" (list 0 300)) (om-load-inputfun (quote input-funbox) "durations (ms): list or list of lists" "ldur" (list 1000)) (om-load-inputfun (quote input-funbox) "velocities (0-127): list or list of lists" "lvel" (list 100)) (om-load-inputfun (quote input-funbox) "offsets (ms): list or list of lists" "loffset" (list 0)) (om-load-inputfun (quote input-funbox) "MIDI channels (1-16): list or list of lists" "lchan" (list 1)) (om-load-inputfun (quote input-funbox) "relative chords duration (0-100)" "legato" 0))) (om-make-point 793 455) (om-make-point 180 87) (let ((newobj (when (find-class (quote chord-seq) nil) (make-instance (quote chord-seq) :lmidic (quote ((6000) (6100) (6300) (6400) (6600) (6700) (6900) (7000))) :lonset (quote (0 300 600 900 1200 1500 1800 2100 3100)) :ldur (quote ((1000) (1000) (1000) (1000) (1000) (1000) (1000) (1000))) :lvel (quote ((100) (100) (100) (100) (100) (100) (100) (100))) :loffset (quote ((0) (0) (0) (0) (0) (0) (0) (0))) :lchan (quote ((1) (1) (1) (1) (1) (1) (1) (1))) :legato 0)))) (load-port-info newobj (quote ((0) (0) (0) (0) (0) (0) (0) (0)))) (init-mus-color newobj (quote nil)) (set-extra-pairs newobj (quote nil)) (set-patch-pairs newobj (quote nil)) (set-name newobj nil) (set-tonalite newobj nil) newobj) nil nil (pairlis (quote (scale show-stems cursor-mode obj-mode score-mode winpos winsize mode grillestep notechancolor? zoom player inport outport deltapict cmnpref staff fontsize approx)) (list nil (quote t) (quote :normal) 1 0 (om-make-point 0 0) (om-make-point 370 280) 0 1000 nil 1 (quote :jackmidi) nil nil (om-make-point 0 0) (let ((newobj (make-instance (quote edition-values)))) (setf (paper-size newobj) (om-make-point 600 800)) (setf (top-margin newobj) 2) (setf (left-margin newobj) 1) (setf (right-margin newobj) 1) (setf (bottom-margin newobj) 1) (setf (orientation newobj) nil) (setf (scale newobj) nil) (setf (system-space newobj) (quote (1))) (setf (system-color newobj) (quote nil)) (setf (line-space newobj) 1) (setf (title newobj) nil) (setf (show-title? newobj) nil) (setf (show-page? newobj) nil) (setf (sheet-id newobj) nil) (setf (page-mode newobj) nil) newobj) (quote g) 24 2)) t nil nil nil) (om-load-editor-box1 "N-CERCLE" (quote n-cercle) (quote ((om-load-inputfun (quote input-funbox) "object" "self" nil) (om-load-inputfun (quote input-funbox) "" "n" 12) (om-load-inputfun (quote input-funbox) "" "puntos" (list 0 5 7)))) (om-make-point 630 369) (om-make-point 159 174) (if (find-class (quote n-cercle) nil) (make-instance (quote n-cercle) :n 12 :puntos (list (list 0 1 3 4 6 7 9 10)) :from-file t)) "x" nil (pairlis (quote (winpos winsize)) (list (om-make-point 10 40) (om-make-point 335 275))) t nil nil nil) (om-load-boxcall (quote genfun) "DX->X 2" (quote dx->x) (quote ((om-load-inputfun (quote input-funbox) "a number" "START" 0) (om-load-inputfun (quote input-funbox) "a list of numbers" "LIST" (list 1 1)))) (om-make-point 631 102) nil nil nil nil 1) (om-load-boxcall (quote bastype) "aux 5" (quote t) (quote nil) (om-make-point 639 58) (om-make-point 27 32) 0 "0" nil) (om-load-editor-box1 "TEXT-BOX 6" (quote text-box) (quote ((om-load-inputfun (quote input-funbox) "dialog-item text (string)" "text" "untitled"))) (om-make-point 636 303) (om-make-point 124 50) (om-make-dialog-item (quote text-box) (om-make-point 1 1) (om-make-point 104 23) "(0 1 3 4 6 7 9 10)" :font (om-make-font "DejaVu Sans" 10.998697916666666D0 :family "DejaVu Sans" :style (quote (:plain)) :mode (quote nil))) nil nil (pairlis (quote (winsize winpos)) (list (om-make-point 335 275) (om-make-point 10 40))) t nil nil nil) (om-load-boxcall (quote bastype) "aux 4" (quote t) (quote nil) (om-make-point 749 90) (om-make-point 105 32) (list 1 2 1 2 1 2 1) "(1 2 1 2 1 2 1 )" nil) (om-load-boxcall (quote bastype) "aux 9" (quote t) (quote nil) (om-make-point 1076 81) (om-make-point 105 32) (list 2 1 2 1 2 1 2) "(2 1 2 1 2 1 2 )" nil) (om-load-editor-box1 "TEXT-BOX 10" (quote text-box) (quote ((om-load-inputfun (quote input-funbox) "dialog-item text (string)" "text" "untitled"))) (om-make-point 995 294) (om-make-point 124 50) (om-make-dialog-item (quote text-box) (om-make-point 1 1) (om-make-point 104 23) "(0 2 3 5 6 8 9 11)" :font (om-make-font "DejaVu Sans" 10.998697916666666D0 :family "DejaVu Sans" :style (quote (:plain)) :mode (quote nil))) nil nil (pairlis (quote (winsize winpos)) (list (om-make-point 335 275) (om-make-point 10 40))) t nil nil nil) (om-load-boxcall (quote bastype) "aux 6" (quote t) (quote nil) (om-make-point 976 65) (om-make-point 27 32) 0 "0" nil) (om-load-boxcall (quote genfun) "DX->X" (quote dx->x) (quote ((om-load-inputfun (quote input-funbox) "a number" "START" 0) (om-load-inputfun (quote input-funbox) "a list of numbers" "LIST" (list 1 1)))) (om-make-point 968 109) nil nil nil nil 1) (om-load-boxcall (quote bastype) "aux 3" (quote t) (quote nil) (om-make-point 197 406) (om-make-point 27 32) 9 "9" nil) (om-load-editor-box1 "TEXT-BOX 7" (quote text-box) (quote ((om-load-inputfun (quote input-funbox) "dialog-item text (string)" "text" "untitled"))) (om-make-point 231 351) (om-make-point 168 50) (om-make-dialog-item (quote text-box) (om-make-point 1 1) (om-make-point 148 23) "(0 1 3 4 6 7 9 10)" :font (om-make-font "DejaVu Sans" 10.998697916666666D0 :family "DejaVu Sans" :style (quote (:plain)) :mode (quote nil))) "x" nil (pairlis (quote (winsize winpos)) (list (om-make-point 335 275) (om-make-point 10 40))) t nil nil nil) (om-load-boxcomment "comment 22" (om-make-point 64 29) (quote "OCT0,1") "" (om-make-point 250 347) nil (om-make-color 0 0 0) (om-make-font "Bitstream Vera Sans" 12 :family "Bitstream Vera Sans" :style (quote (:plain)) :mode (quote nil))) (om-load-boxcomment "comment 21" (om-make-point 64 29) (quote "OCT0,1") "" (om-make-point 250 347) nil (om-make-color 0 0 0) (om-make-font "Bitstream Vera Sans" 12 :family "Bitstream Vera Sans" :style (quote (:plain)) :mode (quote nil))) (om-load-boxcomment "comment 20" (om-make-point 64 29) (quote "OCT0,1") "" (om-make-point 270 367) nil (om-make-color 0 0 0) (om-make-font "Bitstream Vera Sans" 12 :family "Bitstream Vera Sans" :style (quote (:plain)) :mode (quote nil))) (om-load-boxcomment "comment 19" (om-make-point 64 29) (quote "OCT0,1") "" (om-make-point 257 344) nil (om-make-color 0.82632065S0 0.20595074S0 0.20595074S0) (om-make-font "Bitstream Vera Sans" 12 :family "Bitstream Vera Sans" :style (quote (:plain)) :mode (quote nil))) (om-load-boxcomment "comment 18" (om-make-point 64 29) (quote "OCT0,1") "" (om-make-point 226 327) nil (om-make-color 0.82632065S0 0.20595074S0 0.20595074S0) (om-make-font "Bitstream Vera Sans" 12 :family "Bitstream Vera Sans" :style (quote (:plain)) :mode (quote nil))) (om-load-editor-box1 "TEXT-BOX 5" (quote text-box) (quote ((om-load-inputfun (quote input-funbox) "dialog-item text (string)" "text" "untitled"))) (om-make-point 144 541) (om-make-point 168 50) (om-make-dialog-item (quote text-box) (om-make-point 1 1) (om-make-point 148 23) "(9 10 0 1 3 4 6 7)" :font (om-make-font "DejaVu Sans" 10.998697916666666D0 :family "DejaVu Sans" :style (quote (:plain)) :mode (quote nil))) nil nil (pairlis (quote (winsize winpos)) (list (om-make-point 335 275) (om-make-point 10 40))) t nil nil nil) (om-load-boxcall (quote genfun) "TRANSP 3" (quote transp) (quote ((om-load-inputfunmenu1 (quote input-funmenu) "" "TYPE" (quote :integer) (list (list "integer" (quote :integer)) (list "pitch" (quote :pitch)))) (om-load-inputfun (quote input-funbox) "" "VALUE" 3) (om-load-inputfun (quote input-funbox) "" "SET" (list 0 1 3 4 5 7)))) (om-make-point 264 462) nil nil nil nil 1) (om-load-boxcall (quote bastype) "aux 2" (quote t) (quote nil) (om-make-point 354 135) (om-make-point 27 32) 6 "6" nil) (om-load-editor-box1 "TEXT-BOX 4" (quote text-box) (quote ((om-load-inputfun (quote input-funbox) "dialog-item text (string)" "text" "untitled"))) (om-make-point 388 80) (om-make-point 168 50) (om-make-dialog-item (quote text-box) (om-make-point 1 1) (om-make-point 148 23) "(0 1 3 4 6 7 9 10)" :font (om-make-font "DejaVu Sans" 10.998697916666666D0 :family "DejaVu Sans" :style (quote (:plain)) :mode (quote nil))) "x" nil (pairlis (quote (winsize winpos)) (list (om-make-point 335 275) (om-make-point 10 40))) t nil nil nil) (om-load-boxcomment "comment 17" (om-make-point 64 29) (quote "OCT0,1") "" (om-make-point 407 76) nil (om-make-color 0 0 0) (om-make-font "Bitstream Vera Sans" 12 :family "Bitstream Vera Sans" :style (quote (:plain)) :mode (quote nil))) (om-load-boxcomment "comment 16" (om-make-point 64 29) (quote "OCT0,1") "" (om-make-point 407 76) nil (om-make-color 0 0 0) (om-make-font "Bitstream Vera Sans" 12 :family "Bitstream Vera Sans" :style (quote (:plain)) :mode (quote nil))) (om-load-boxcomment "comment 15" (om-make-point 64 29) (quote "OCT0,1") "" (om-make-point 427 96) nil (om-make-color 0 0 0) (om-make-font "Bitstream Vera Sans" 12 :family "Bitstream Vera Sans" :style (quote (:plain)) :mode (quote nil))) (om-load-boxcomment "comment 14" (om-make-point 64 29) (quote "OCT0,1") "" (om-make-point 414 73) nil (om-make-color 0.82632065S0 0.20595074S0 0.20595074S0) (om-make-font "Bitstream Vera Sans" 12 :family "Bitstream Vera Sans" :style (quote (:plain)) :mode (quote nil))) (om-load-boxcomment "comment 13" (om-make-point 64 29) (quote "OCT0,1") "" (om-make-point 383 56) nil (om-make-color 0.82632065S0 0.20595074S0 0.20595074S0) (om-make-font "Bitstream Vera Sans" 12 :family "Bitstream Vera Sans" :style (quote (:plain)) :mode (quote nil))) (om-load-editor-box1 "TEXT-BOX 3" (quote text-box) (quote ((om-load-inputfun (quote input-funbox) "dialog-item text (string)" "text" "untitled"))) (om-make-point 301 281) (om-make-point 168 50) (om-make-dialog-item (quote text-box) (om-make-point 1 1) (om-make-point 148 23) "(6 7 9 10 0 1 3 4)" :font (om-make-font "DejaVu Sans" 10.998697916666666D0 :family "DejaVu Sans" :style (quote (:plain)) :mode (quote nil))) nil nil (pairlis (quote (winsize winpos)) (list (om-make-point 335 275) (om-make-point 10 40))) t nil nil nil) (om-load-boxcall (quote genfun) "TRANSP 2" (quote transp) (quote ((om-load-inputfunmenu1 (quote input-funmenu) "" "TYPE" (quote :integer) (list (list "integer" (quote :integer)) (list "pitch" (quote :pitch)))) (om-load-inputfun (quote input-funbox) "" "VALUE" 3) (om-load-inputfun (quote input-funbox) "" "SET" (list 0 1 3 4 5 7)))) (om-make-point 421 191) nil nil nil nil 1) (om-load-boxcall (quote bastype) "aux" (quote t) (quote nil) (om-make-point 73 130) (om-make-point 27 32) 3 "3" nil) (om-load-editor-box1 "TEXT-BOX 2" (quote text-box) (quote ((om-load-inputfun (quote input-funbox) "dialog-item text (string)" "text" "untitled"))) (om-make-point 107 75) (om-make-point 168 50) (om-make-dialog-item (quote text-box) (om-make-point 1 1) (om-make-point 148 23) "(0 1 3 4 6 7 9 10)" :font (om-make-font "DejaVu Sans" 10.998697916666666D0 :family "DejaVu Sans" :style (quote (:plain)) :mode (quote nil))) "x" nil (pairlis (quote (winsize winpos)) (list (om-make-point 335 275) (om-make-point 10 40))) t nil nil nil) (om-load-boxcomment "comment 12" (om-make-point 64 29) (quote "OCT0,1") "" (om-make-point 126 71) nil (om-make-color 0 0 0) (om-make-font "Bitstream Vera Sans" 12 :family "Bitstream Vera Sans" :style (quote (:plain)) :mode (quote nil))) (om-load-boxcomment "comment 11" (om-make-point 64 29) (quote "OCT0,1") "" (om-make-point 126 71) nil (om-make-color 0 0 0) (om-make-font "Bitstream Vera Sans" 12 :family "Bitstream Vera Sans" :style (quote (:plain)) :mode (quote nil))) (om-load-boxcomment "comment 10" (om-make-point 64 29) (quote "OCT0,1") "" (om-make-point 146 91) nil (om-make-color 0 0 0) (om-make-font "Bitstream Vera Sans" 12 :family "Bitstream Vera Sans" :style (quote (:plain)) :mode (quote nil))) (om-load-boxcomment "comment 9" (om-make-point 64 29) (quote "OCT0,1") "" (om-make-point 133 68) nil (om-make-color 0.82632065S0 0.20595074S0 0.20595074S0) (om-make-font "Bitstream Vera Sans" 12 :family "Bitstream Vera Sans" :style (quote (:plain)) :mode (quote nil))) (om-load-boxcomment "comment 8" (om-make-point 64 29) (quote "OCT0,1") "" (om-make-point 102 51) nil (om-make-color 0.82632065S0 0.20595074S0 0.20595074S0) (om-make-font "Bitstream Vera Sans" 12 :family "Bitstream Vera Sans" :style (quote (:plain)) :mode (quote nil))) (om-load-editor-box1 "TEXT-BOX" (quote text-box) (quote ((om-load-inputfun (quote input-funbox) "dialog-item text (string)" "text" "untitled"))) (om-make-point 20 276) (om-make-point 168 50) (om-make-dialog-item (quote text-box) (om-make-point 1 1) (om-make-point 148 23) "(3 4 6 7 9 10 0 1)" :font (om-make-font "DejaVu Sans" 10.998697916666666D0 :family "DejaVu Sans" :style (quote (:plain)) :mode (quote nil))) nil nil (pairlis (quote (winsize winpos)) (list (om-make-point 335 275) (om-make-point 10 40))) t nil nil nil) (om-load-boxcall (quote genfun) "TRANSP" (quote transp) (quote ((om-load-inputfunmenu1 (quote input-funmenu) "" "TYPE" (quote :integer) (list (list "integer" (quote :integer)) (list "pitch" (quote :pitch)))) (om-load-inputfun (quote input-funbox) "" "VALUE" 3) (om-load-inputfun (quote input-funbox) "" "SET" (list 0 1 3 4 5 7)))) (om-make-point 140 186) nil nil nil nil 1) (om-load-editor-box1 "N-CERCLE 3" (quote n-cercle) (quote ((om-load-inputfun (quote input-funbox) "object" "self" nil) (om-load-inputfun (quote input-funbox) "" "n" 12) (om-load-inputfun (quote input-funbox) "" "puntos" (list 0 5 7)))) (om-make-point 989 369) (om-make-point 159 174) (if (find-class (quote n-cercle) nil) (make-instance (quote n-cercle) :n 12 :puntos (list (list 0 2 3 5 6 8 9 11)) :from-file t)) nil nil (pairlis (quote (winpos winsize)) (list (om-make-point 10 40) (om-make-point 335 275))) t nil nil nil) (om-load-editor-box1 "CHORD-SEQ 5" (quote chord-seq) (quote ((om-load-inputfun (quote input-funbox) "object" "self" nil) (om-load-inputfun (quote input-funbox) "pitches (mc): list or list of lists" "lmidic" (list 6000)) (om-load-inputfun (quote input-funbox) "onsets (ms): list" "lonset" (list 0 300)) (om-load-inputfun (quote input-funbox) "durations (ms): list or list of lists" "ldur" (list 1000)) (om-load-inputfun (quote input-funbox) "velocities (0-127): list or list of lists" "lvel" (list 100)) (om-load-inputfun (quote input-funbox) "offsets (ms): list or list of lists" "loffset" (list 0)) (om-load-inputfun (quote input-funbox) "MIDI channels (1-16): list or list of lists" "lchan" (list 1)) (om-load-inputfun (quote input-funbox) "relative chords duration (0-100)" "legato" 0))) (om-make-point 1152 454) (om-make-point 180 87) (let ((newobj (when (find-class (quote chord-seq) nil) (make-instance (quote chord-seq) :lmidic (quote ((6000) (6200) (6300) (6500) (6600) (6800) (6900) (7100))) :lonset (quote (0 300 600 900 1200 1500 1800 2100 3100)) :ldur (quote ((1000) (1000) (1000) (1000) (1000) (1000) (1000) (1000))) :lvel (quote ((100) (100) (100) (100) (100) (100) (100) (100))) :loffset (quote ((0) (0) (0) (0) (0) (0) (0) (0))) :lchan (quote ((1) (1) (1) (1) (1) (1) (1) (1))) :legato 0)))) (load-port-info newobj (quote ((0) (0) (0) (0) (0) (0) (0) (0)))) (init-mus-color newobj (quote nil)) (set-extra-pairs newobj (quote nil)) (set-patch-pairs newobj (quote nil)) (set-name newobj nil) (set-tonalite newobj nil) newobj) nil nil (pairlis (quote (scale show-stems cursor-mode obj-mode score-mode winpos winsize mode grillestep notechancolor? zoom player inport outport deltapict cmnpref staff fontsize approx)) (list nil (quote t) (quote :normal) 1 0 (om-make-point 0 0) (om-make-point 370 280) 0 1000 nil 1 (quote :jackmidi) nil nil (om-make-point 0 0) (let ((newobj (make-instance (quote edition-values)))) (setf (paper-size newobj) (om-make-point 600 800)) (setf (top-margin newobj) 2) (setf (left-margin newobj) 1) (setf (right-margin newobj) 1) (setf (bottom-margin newobj) 1) (setf (orientation newobj) nil) (setf (scale newobj) nil) (setf (system-space newobj) (quote (1))) (setf (system-color newobj) (quote nil)) (setf (line-space newobj) 1) (setf (title newobj) nil) (setf (show-title? newobj) nil) (setf (show-page? newobj) nil) (setf (sheet-id newobj) nil) (setf (page-mode newobj) nil) newobj) (quote g) 24 2)) t nil nil nil) (om-load-boxcall (quote abstraction) "base_C4 4" (om-load-patch-abs1 "base_C4" (quote ((om-load-boxout "output" 0 (om-make-point 23 170) (quote ((om-load-inputfun (quote input-funbox) "" "out" nil))) nil nil) (om-load-boxcall (quote bastype) "aux 2" (quote t) (quote nil) (om-make-point 124 91) (om-make-point 48 32) 6000 "6000" nil) (om-load-boxcall (quote genfun) "OM+" (quote om+) (quote ((om-load-inputfun (quote input-funbox) "number or list" "ARG1" 0) (om-load-inputfun (quote input-funbox) "number or list" "ARG2" 0))) (om-make-point 63 124) nil nil nil nil 1) (om-load-boxcall (quote bastype) "aux" (quote t) (quote nil) (om-make-point 90 52) (om-make-point 41 32) 100 "100" nil) (om-load-boxcall (quote genfun) "OM*" (quote om*) (quote ((om-load-inputfun (quote input-funbox) "number or list" "ARG1" 0) (om-load-inputfun (quote input-funbox) "number or list" "ARG2" 0))) (om-make-point 36 108) nil nil nil nil 1) (om-load-boxin "input" 0 (om-make-point 5 45) "" nil nil nil))) (quote ((2 0 0 0 nil 0) (4 0 2 0 nil 0) (1 0 2 1 nil 0) (5 0 4 0 nil 0) (3 0 4 1 nil 0))) 6.080003 nil "" (om-make-point 200 200) (om-make-point 500 400)) (quote ((om-load-inputfun (quote input-funbox) "" "input" nil))) (om-make-point 1166 351) nil (list (list 6000 6200 6300 6500 6600 6800 6900 7100)) nil "base_C4") (om-load-boxcomment "comment 4" (om-make-point 64 29) (quote "OCT0,1") "" (om-make-point 745 59) nil (om-make-color 0 0 0) (om-make-font "Bitstream Vera Sans" 12 :family "Bitstream Vera Sans" :style (quote (:plain)) :mode (quote nil))) (om-load-boxcomment "comment" (om-make-point 64 29) (quote "OCT0,2") "" (om-make-point 1122 54) nil (om-make-color 0.15819025S0 0.62119294S0 0.16372919S0) (om-make-font "Bitstream Vera Sans" 12 :family "Bitstream Vera Sans" :style (quote (:plain)) :mode (quote nil))) (om-load-boxcomment "comment" (om-make-point 693 39) (quote "octatônica: transposições 3, 6,9 são rotações sem alteração de pclass") "" (om-make-point 64 4) nil (om-make-color 0.89829827S0 0.037186146S0 0.037186146S0) (om-make-font "DejaVu Sans" 18.666666666666665D0 :family "DejaVu Sans" :style (quote (:plain)) :mode (quote nil))))) (quote ((5 0 0 0 nil 0) (0 0 1 1 nil 0) (5 0 2 2 nil 0) (4 0 3 0 nil 0) (6 0 3 1 nil 0) (3 0 5 0 nil 0) (10 0 8 0 nil 0) (9 0 10 0 nil 0) (7 0 10 1 nil 0) (19 0 18 0 nil 0) (11 0 19 1 nil 0) (12 0 19 2 nil 0) (28 0 27 0 nil 0) (20 0 28 1 nil 0) (21 0 28 2 nil 0) (37 0 36 0 nil 0) (29 0 37 1 nil 0) (30 0 37 2 nil 0) (8 0 38 2 nil 0) (40 0 39 1 nil 0) (8 0 40 0 nil 0))) nil 6.080003))