; OM File Header - Saved 2014/12/17 16:21:51
; (6.010301 :patc (om-make-point 253 247) (om-make-point 50 50) (om-make-point 500 400) "No documentation " 183 0 nil nil)
; End File Header
; External resources 
; (list (list (quote :midi) "../../../../mus-cm-g4/Desktop/SOAL 3.0.0/examples/SOAL midi examples/blztxt02.MID" "../../../../mus-cm-g4/Desktop/SOAL 3.0.0/examples/SOAL midi examples/BlzTxt01_50BPM.MID"))
(in-package :om)(load-lib-for (quote ("SOAL")))(setf *om-current-persistent* (om-load-patch1 "SOAL sample analysis per onset" (quote ((om-load-editor-box1 "TEXTFILE 2" (quote textfile) (quote ((om-load-inputfun (quote input-funbox) "object or object list" "self" nil) (om-load-inputfun (quote input-funbox) "text to put in the file" "exp-list" nil) (om-load-inputfunmenu1 (quote input-funmenu) "append or supersede mode" "ed-mode" "supersede" (list (list "append" "append") (list "supersede" "supersede"))) (om-load-inputfunmenu1 (quote input-funmenu) "contents eval mode" "eval-mode" "text" (list (list "text" "text") (list "data list" "data") (list "list" "list"))))) (om-make-point 286 476) (om-make-point 70 50) (load-buffer-textfile (quote ("0.02" "0.09" "")) (quote textfile) "supersede" "text") "x" nil (pairlis (quote (winpos winsize)) (list (om-make-point 10 40) (om-make-point 335 275))) nil nil nil nil) (om-load-boxcall (quote genfun) "NOTES-PER-ONSET" (quote notes-per-onset) (quote ((om-load-inputfun (quote input-funbox) "list of notes (midicents)" "NOTES" (list (list 6000 6400 6700))) (om-load-inputfun (quote input-funbox) "list of onsets (ms)" "ONSETS" (list (list 0 1000 2000))))) (om-make-point 80 361) nil nil nil nil 6) (om-load-editor-box1 "TEXTFILE" (quote textfile) (quote ((om-load-inputfun (quote input-funbox) "object or object list" "self" nil) (om-load-inputfun (quote input-funbox) "text to put in the file" "exp-list" nil) (om-load-inputfunmenu1 (quote input-funmenu) "append or supersede mode" "ed-mode" "supersede" (list (list "append" "append") (list "supersede" "supersede"))) (om-load-inputfunmenu1 (quote input-funmenu) "contents eval mode" "eval-mode" "text" (list (list "text" "text") (list "data list" "data") (list "list" "list"))))) (om-make-point 148 592) (om-make-point 70 50) (load-buffer-textfile (quote ("795" "1570" "0" "0" "1620" "1500" "450" "4650" "4725" "0" "0" "75" "1500" "1500" "150" "150" "" "" "" "")) (quote textfile) "supersede" "text") "x" nil (pairlis (quote (winpos winsize)) (list (om-make-point 10 40) (om-make-point 335 275))) nil nil nil nil) (om-load-boxcall (quote genfun) "DENSITY-PER-ONSET" (quote density-per-onset) (quote ((om-load-inputfun (quote input-funbox) "list of notes (midicents)" "NOTES" (list (list 6000 6400 6700))) (om-load-inputfun (quote input-funbox) "list of onsets (ms)" "ONSETS" (list (list 0 1000 2000))))) (om-make-point 257 382) nil nil nil nil 6) (om-load-editor-box1 "MIDIFILE1" (quote midifile) (quote ((om-load-inputfun (quote input-funbox) "objs" "SELF" nil))) (om-make-point 240 45) (om-make-point 50 72) (let ((newobj (load-midi (om-make-pathname :directory (quote (:absolute "Users" "mus-cm-g4" "Desktop" "SOAL 3.0.0" "examples" "SOAL midi examples")) :device nil :host nil :name "blztxt02" :type "MID")))) (load-port-info newobj (quote nil)) (init-mus-color newobj (quote nil)) (set-extra-pairs newobj (quote nil)) (set-patch-pairs newobj (quote nil)) (set-name newobj nil) (set-tonalite newobj nil) newobj) "x" nil (pairlis (quote (show-stems inport outport deltapict cmnpref staff fontsize approx zoom palette-mode obj-mode notechancolor? grillestep mode winsize winpos player scale)) (list (quote t) 0 0 (om-make-point 0 0) (let ((newobj (make-instance (quote edition-values)))) (setf (paper-size newobj) (om-make-point 600 800)) (setf (top-margin newobj) 2) (setf (left-margin newobj) 1) (setf (right-margin newobj) 1) (setf (bottom-margin newobj) 1) (setf (orientation newobj) nil) (setf (scale newobj) nil) (setf (system-space newobj) (quote (1))) (setf (system-color newobj) (quote nil)) (setf (line-space newobj) 1) (setf (title newobj) nil) (setf (show-title? newobj) nil) (setf (show-page? newobj) nil) (setf (sheet-id newobj) nil) (setf (page-mode newobj) nil) newobj) (quote g) 24 2 1 0 0 nil 1000 0 18350450 2621450 (quote :midishare) nil)) t nil nil nil) (om-load-boxcall (quote genfun) "MULTI-MIDI-READER" (quote multi-midi-reader) (quote ((om-load-inputfun (quote input-funbox) "Quantification of onset and duration (in ms)" "QUANT" 5) (om-load-inputfun (quote input-funbox) "Click option-right-arrow to increment the number of Midifile inputs." "MIDIFILE" (list 6000 7200)) (om-load-inputfun (quote input-funbox) "Click option-right-arrow to increment the number of Midifile inputs." "MIDIFILES" (list 6000 7200)))) (om-make-point 128 159) nil nil nil nil 6) (om-load-editor-box1 "MIDIFILE" (quote midifile) (quote ((om-load-inputfun (quote input-funbox) "objs" "SELF" nil))) (om-make-point 161 45) (om-make-point 50 72) (let ((newobj (load-midi (om-make-pathname :directory (quote (:absolute "Users" "mus-cm-g4" "Desktop" "SOAL 3.0.0" "examples" "SOAL midi examples")) :device nil :host nil :name "BlzTxt01_50BPM" :type "MID")))) (load-port-info newobj (quote nil)) (init-mus-color newobj (quote nil)) (set-extra-pairs newobj (quote nil)) (set-patch-pairs newobj (quote nil)) (set-name newobj nil) (set-tonalite newobj nil) newobj) "x" nil (pairlis (quote (show-stems inport outport deltapict cmnpref staff fontsize approx zoom palette-mode obj-mode notechancolor? grillestep mode winsize winpos player scale)) (list (quote t) 0 0 (om-make-point 0 0) (let ((newobj (make-instance (quote edition-values)))) (setf (paper-size newobj) (om-make-point 600 800)) (setf (top-margin newobj) 2) (setf (left-margin newobj) 1) (setf (right-margin newobj) 1) (setf (bottom-margin newobj) 1) (setf (orientation newobj) nil) (setf (scale newobj) nil) (setf (system-space newobj) (quote (1))) (setf (system-color newobj) (quote nil)) (setf (line-space newobj) 1) (setf (title newobj) nil) (setf (show-title? newobj) nil) (setf (show-page? newobj) nil) (setf (sheet-id newobj) nil) (setf (page-mode newobj) nil) newobj) (quote g) 24 2 1 0 0 nil 1000 0 18350450 2621450 (quote :midishare) nil)) t nil nil nil) (om-load-boxcall (quote genfun) "SOAL-MULTILISTS-FLAT" (quote soal-multilists-flat) (quote ((om-load-inputfun (quote input-funbox) "data" "INFORMATION" (list (list (list 100 (list 795)) (list 62 (list 1570)) (list 69 (list 0)) (list 59 (list 0)) (list 65 (list 1620))) (list (list 69 (list 0)) (list 82 (list 0)) (list 59 (list 75)) (list 35 (list 1500))))))) (om-make-point 116 489) nil nil nil nil 4))) (quote ((3 1 0 1 nil 0) (5 0 1 0 nil 0) (5 1 1 1 nil 0) (7 1 2 1 nil 0) (5 0 3 0 nil 0) (5 1 3 1 nil 0) (6 0 5 1 nil 0) (4 0 5 2 nil 0) (1 0 7 0 nil 0))) nil 6.010301))
