; OM File Header - Saved 2014/12/17 16:21:51
; (6.010006 :patc (om-make-point 407 10) (om-make-point 312 8) (om-make-point 945 613) "" 183 0 nil nil)
; End File Header
(in-package :om)(load-lib-for (quote ("SOAL")))(setf *om-current-persistent* (om-load-patch1 "murail" (quote ((om-load-boxcomment "comment" (om-make-point 44 29) (quote "(0.15)") "" (om-make-point 264 487) nil (om-make-color 0.0 0.0 0.2509804) (om-make-font "MS Shell Dlg" 10 :family "MS Shell Dlg" :style (quote (:plain)) :mode (quote nil))) (om-load-boxcomment "comment" (om-make-point 153 29) (quote "Interval of Equidistance ") "" (om-make-point 390 488) nil (om-make-color 0.0 0.2509804 0.5019608) (om-make-font "MS Shell Dlg" 10 :family "MS Shell Dlg" :style (quote (:plain)) :mode (quote nil))) (om-load-boxcomment "comment" (om-make-point 58 30) (quote "(384.82)") "" (om-make-point 410 508) nil (om-make-color 0.0 0.0 0.2509804) (om-make-font "MS Shell Dlg" 10 :family "MS Shell Dlg" :style (quote (:plain)) :mode (quote nil))) (om-load-boxcomment "comment" (om-make-point 65 26) (quote "(2693.0)") "" (om-make-point 414 469) nil (om-make-color 0.0 0.0 0.2509804) (om-make-font "Microsoft Sans Serif" 10 :family "Microsoft Sans Serif" :style (quote (:plain)) :mode (quote nil))) (om-load-boxcomment "comment" (om-make-point 116 33) (quote "Smaller Impulse $$") "" (om-make-point 399 449) nil (om-make-color 0.0 0.2509804 0.5019608) (om-make-font "Microsoft Sans Serif" 10 :family "Microsoft Sans Serif" :style (quote (:plain)) :mode (quote nil))) (om-load-boxcall (quote genfun) "SMALLER-IMPULSE" (quote smaller-impulse) (quote ((om-load-inputfun (quote input-funbox) "list of onsets (ms)" "ONSETS" (list (list 0 1000 2000))) (om-load-inputfun (quote input-funbox) "list of durations (ms)" "DURS" (list (list 500 500 500))))) (om-make-point 406 383) nil nil nil nil 1) (om-load-boxcomment "comment" (om-make-point 153 84) (quote "means that the sequence elements are not equidistant, slightly irregular.") "" (om-make-point 240 505) nil (om-make-color 0 0 0) (om-make-font "Microsoft Sans Serif" 10 :family "Microsoft Sans Serif" :style (quote (:italic)) :mode (quote nil))) (om-load-boxcomment "comment" (om-make-point 102 30) (quote "Time Linearity ") "" (om-make-point 240 469) nil (om-make-color 0.0 0.2509804 0.5019608) (om-make-font "Microsoft Sans Serif" 10 :family "Microsoft Sans Serif" :style (quote (:plain)) :mode (quote nil))) (om-load-boxcall (quote genfun) "FLAT1" (quote flat) (quote ((om-load-inputfun (quote input-funbox) "a list" "LST" nil))) (om-make-point 408 238) nil nil nil nil 1) (om-load-boxcall (quote lispfun) "LIST1" (quote list) (quote ((om-load-inputfun (quote input-funbox) "add-input" "add-input" nil))) (om-make-point 406 305) nil nil nil nil 1) (om-load-boxcall (quote abstraction) "adjust-lonset" (om-load-patch-abs1 "adjust-lonset" (quote ((om-load-boxcall (quote lispfun) "LIST" (quote list) (quote ((om-load-inputfun (quote input-funbox) "add-input" "add-input" nil))) (om-make-point 210 157) nil nil "l" nil 1) (om-load-boxcall (quote lispfun) "BUTLAST" (quote butlast) (quote ((om-load-inputfun (quote input-funbox) "LIST" "LIST" nil))) (om-make-point 229 102) nil nil nil nil 1) (om-load-boxcall (quote lispfun) "LENGTH" (quote length) (quote ((om-load-inputfun (quote input-funbox) "SEQUENCE" "SEQUENCE" nil))) (om-make-point 97 201) nil nil "l" nil 1) (om-load-boxcall (quote lispfun) "MAPCAR" (quote mapcar) (quote ((om-load-inputfun (quote input-funbox) "FUNCTION" "FUNCTION" nil) (om-load-inputfun (quote input-funbox) "LIST" "LIST" nil))) (om-make-point 114 247) nil nil nil nil 1) (om-load-boxwithed1 (quote box-with-win) "OMLOOP1" (quote omloop) (quote ((om-load-inputfun (quote input-funbox) "loop input" "OPLIST" nil) (om-load-inputfun (quote input-funbox) "loop input" "OPLIST" nil))) (om-make-point 197 306) nil nil nil (list (om-load-boxcall (quote lispfun) "LIST" (quote list) (quote ((om-load-inputfun (quote input-funbox) "add-input" "add-input" nil))) (om-make-point 236 397) nil nil nil nil 1) (om-load-boxcall (quote genfun) "FLAT" (quote flat) (quote ((om-load-inputfun (quote input-funbox) "a list" "LST" nil))) (om-make-point 238 328) nil nil nil nil 1) (om-load-boxcall (quote genfun) "inlist1" (quote listloop) (quote ((om-load-inputfun (quote input-funbox) "list to iterate" "LIST" nil))) (om-make-point 226 107) nil nil nil nil 1) (om-load-boxcall (quote genfun) "collect" (quote listing) (quote ((om-load-inputfun (quote input-funbox) "no documentation" "WHAT?" nil))) (om-make-point 140 255) (om-make-point 157 59) nil nil nil 3) (om-load-boxcall (quote genfun) "REPEAT-N" (quote repeat-n) (quote ((om-load-inputfun (quote input-funbox) "something" "SELF" nil) (om-load-inputfun (quote input-funbox) "times" "N" 0))) (om-make-point 152 183) (om-make-point 137 59) nil nil nil 1) (om-load-boxcall (quote genfun) "inlist" (quote listloop) (quote ((om-load-inputfun (quote input-funbox) "list to iterate" "LIST" nil))) (om-make-point 180 110) nil nil nil nil 1) (om-load-boxin "lengths" 1 (om-make-point 228 46) "no documentation" "lengths" nil nil) (om-load-boxin "onsets" 0 (om-make-point 183 46) "no documentation" "onsets" nil nil) (om-load-seqbox "finally" (quote finaldo) (quote ((om-load-inputfun (quote input-funbox) "something" "OP" nil))) (om-make-point 230 448) nil nil nil 0) (om-load-seqbox "eachTime" (quote loopdo) (quote ((om-load-inputfun (quote input-funbox) "patch" "OP" nil))) (om-make-point 125 334) nil nil nil 0)) (quote ((1 0 0 0 nil 0) (3 1 1 0 nil 0) (6 0 2 0 nil 0) (4 0 3 0 nil 0) (5 0 4 0 nil 0) (2 0 4 1 nil 0) (7 0 5 0 nil 0) (0 0 8 0 nil 0) (3 0 9 0 nil 0))) 1 "omloop1" nil) (om-load-boxcall (quote lispfun) "MAPCAR1" (quote mapcar) (quote ((om-load-inputfun (quote input-funbox) "FUNCTION" "FUNCTION" nil) (om-load-inputfun (quote input-funbox) "LIST" "LIST" nil))) (om-make-point 239 201) nil nil nil nil 1) (om-load-boxout "output" 0 (om-make-point 197 400) (quote ((om-load-inputfun (quote input-funbox) "out" "out" nil))) nil nil) (om-load-boxin "lonset" 1 (om-make-point 232 33) "no documentation" "lonset" nil nil) (om-load-boxin "lmidc" 0 (om-make-point 128 144) "no documentation" "lmidc" nil nil))) (quote ((7 0 1 0 nil 0) (2 0 3 0 nil 0) (8 0 3 1 nil 0) (5 0 4 0 nil 0) (3 0 4 1 nil 0) (0 0 5 0 nil 0) (1 0 5 1 nil 0) (4 0 6 0 nil 0))) 6.010006 nil "") (quote ((om-load-inputfun (quote input-funbox) "no documentation" "input" nil) (om-load-inputfun (quote input-funbox) "no documentation" "input1" nil))) (om-make-point 308 273) nil nil nil "adjust-lonset") (om-load-boxcall (quote genfun) "FILE-DURATION" (quote file-duration) (quote ((om-load-inputfun (quote input-funbox) "list of onsets (ms)" "ONSETS" (list (list 0 1000 2000))) (om-load-inputfun (quote input-funbox) "list of durations (ms)" "DURATIONS" (list (list 500 500 500))))) (om-make-point 348 348) nil nil nil nil 2) (om-load-boxcall (quote genfun) "TIME-LINEARITY" (quote time-linearity) (quote ((om-load-inputfun (quote input-funbox) "list of onsets (ms)" "ONSETS" (list (list 0 1000 2000))) (om-load-inputfun (quote input-funbox) "the time unit to work with (ms)" "STEP" 1) (om-load-inputfun (quote input-funbox) "file-duration first output" "DURATION" (list 5000)))) (om-make-point 285 410) nil nil nil nil 2) (om-load-boxcall (quote genfun) "HARMONICITY" (quote harmonicity) (quote ((om-load-inputfun (quote input-funbox) "list of midicents" "NOTES" (list (list 6000 6400 6700))) (om-load-inputfun (quote input-funbox) "a single integer, which informs the number of harmonics to be taken in account for the building of the paradigmatic harmonic spectrum the input file will be compared to. Recommended values: 10 to 16 (default)." "RANGE" 29) (om-load-inputfunmenu1 (quote input-funmenu) "if YES (1) (default),  the virtual fundamental detection algorithm is activated. If NO (0),  the fundamental will be considered to be the lowest pitch of the input file. " "USE-VIRTUAL-FUNDAMENTAL?" 0 (list (list "use" 1) (list "don't" 0))) (om-load-inputfun (quote input-funbox) "a pitch in midicents to be use as the fundamental. If different of 0 (default) all other fundamental options are bypassed." "USER-FUNDAMENTAL" 0) (om-load-inputfun (quote input-funbox) "a single value in midicents, used by the virtual fundamental algorithm; avoids transposing any pitch below this threshold, and other restrictions. Default (3500) well suited  for piano music." "THRESHOLD" 3500) (om-load-inputfunmenu1 (quote input-funmenu) "if YES (1) (default), the paradigmatic harmonic object is chromatically rounded. If NO (0),  no." "ROUND-HARMONIC-OBJECT?" 0 (list (list "use" 1) (list "don't" 0))) (om-load-inputfunmenu1 (quote input-funmenu) "if YES (1) (default),  the e-deviation  algorithm transposes down the input pitches which are situated outside the user-defined harmonic range, in such a way there are also considered for harmonic quality evaluation. If NO (0), these pitches are not considered." "TRANSPOSE-PITCHES?" 0 (list (list "use" 1) (list "don't" 0))) (om-load-inputfunmenu1 (quote input-funmenu) "if YES (1) (default,  recommended), all duplicated input pitches are removed for analysis. If NO (0), they are not removed." "REMOVE-DUPLICATES?" 0 (list (list "use" 1) (list "don't" 0))))) (om-make-point 131 305) nil nil nil nil 5) (om-load-editor-box1 "BPF" (quote bpf) (quote ((om-load-inputfun (quote input-funbox) "object" "SELF" nil) (om-load-inputfun (quote input-funbox) "X coordinates (list)" "X-POINTS" (list 0 100)) (om-load-inputfun (quote input-funbox) "Y coordinates (list)" "Y-POINTS" (list 0 100)) (om-load-inputfun (quote input-funbox) "precision (integer)" "DECIMALS" 8))) (om-make-point 60 377) (om-make-point 176 102) (let ((newobj (when (find-class (quote bpf) nil) (let ((newbpf (simple-bpf-from-list (quote (0.0 100.0 200.0 300.0 400.0 500.0 600.0 700.0 800.0)) (quote (0.25 0.51 0.51 0.51 0.51 0.51 0.51 0.51 0.51)) (quote bpf) 8))) (setf (bpfcolor newbpf) (om-make-color 0 0 0)) (set-name newbpf nil) newbpf)))) newobj) nil nil (pairlis (quote (picture winpos winsize)) (list nil (om-make-point 10 40) (om-make-point 951 416))) t nil nil nil) (om-load-boxcomment "comment" (om-make-point 146 124) (quote "a natural spectrum is stretched proportionally, becoming less and less harmonic.$Eight chords are built this way.$") "" (om-make-point 55 79) nil (om-make-color 0 0 0) (om-make-font "Arial" 10 :family "Arial" :style (quote (:italic)) :mode (quote nil))) (om-load-editor-box1 "BPF" (quote bpf) (quote ((om-load-inputfun (quote input-funbox) "object" "SELF" nil) (om-load-inputfun (quote input-funbox) "X coordinates (list)" "X-POINTS" (list 0 100)) (om-load-inputfun (quote input-funbox) "Y coordinates (list)" "Y-POINTS" (list 0 100)) (om-load-inputfun (quote input-funbox) "precision (integer)" "DECIMALS" 8))) (om-make-point 548 374) (om-make-point 176 102) (let ((newobj (when (find-class (quote bpf) nil) (let ((newbpf (simple-bpf-from-list (quote (0.0 100.0 200.0 300.0 400.0 500.0 600.0 700.0 800.0)) (quote (0.21 0.31 0.39 0.46 0.52 0.57 0.6 0.63 0.65)) (quote bpf) 8))) (setf (bpfcolor newbpf) (om-make-color 0 0 0)) (set-name newbpf nil) newbpf)))) newobj) nil nil (pairlis (quote (picture winpos winsize)) (list nil (om-make-point 10 40) (om-make-point 951 416))) t nil nil nil) (om-load-editor-box1 "BPF" (quote bpf) (quote ((om-load-inputfun (quote input-funbox) "object" "SELF" nil) (om-load-inputfun (quote input-funbox) "X coordinates (list)" "X-POINTS" (list 0 100)) (om-load-inputfun (quote input-funbox) "Y coordinates (list)" "Y-POINTS" (list 0 100)) (om-load-inputfun (quote input-funbox) "precision (integer)" "DECIMALS" 8))) (om-make-point 741 337) (om-make-point 176 102) (let ((newobj (when (find-class (quote bpf) nil) (let ((newbpf (simple-bpf-from-list (quote (0.0 100.0 200.0 300.0 400.0 500.0 600.0 700.0 800.0)) (quote (0.19 0.18 0.18 0.18 0.18 0.18 0.17 0.17 0.17)) (quote bpf) 8))) (setf (bpfcolor newbpf) (om-make-color 0 0 0)) (set-name newbpf nil) newbpf)))) newobj) nil nil (pairlis (quote (picture winpos winsize)) (list nil (om-make-point 10 40) (om-make-point 951 416))) t nil nil nil) (om-load-boxcall (quote genfun) "SPATIAL-DENSITY" (quote spatial-density) (quote ((om-load-inputfun (quote input-funbox) "list of notes (midicents)" "NOTES" (list (list 6000 6400 6700))) (om-load-inputfunmenu1 (quote input-funmenu) "if YES (1) (default,  recommended), all duplicated input pitches are removed for analysis. If NO (0), they are not removed." "REMOVE-DUPLICATES?" 1 (list (list "use" 1) (list "don't" 0))))) (om-make-point 812 275) nil nil nil nil 1) (om-load-boxcall (quote genfun) "VELOCITY-RATE" (quote velocity-rate) (quote ((om-load-inputfun (quote input-funbox) "velocity list" "VELOCITY" (list (list 69 69 69))) (om-load-inputfun (quote input-funbox) "paradigmatic value (divider)" "VELO-PARAG" 127) (om-load-inputfunmenu1 (quote input-funmenu) "output choice (mode or average)" "AVERAGE" 0 (list (list "mode" 1) (list "mean" 0))) (om-load-inputfun (quote input-funbox) "round" "ROUNDING" 2))) (om-make-point 634 310) nil nil nil nil 2) (om-load-boxcomment "comment" (om-make-point 198 123) (quote "Open this editor and select the \"offset\" item in the bottom-right menu. You should play it on a Midi device with the 4 first midi channels detuned by a 1/8 tone step.") "" (om-make-point 707 85) nil (om-make-color 0 0 0) (om-make-font "Arial" 10 :family "Arial" :style (quote (:italic)) :mode (quote nil))) (om-load-boxcomment "comment" (om-make-point 485 41) (quote "From Désintégration by Tristan Murail") "" (om-make-point 223 22) nil (om-make-color 0.0 0.2509804 0.5019608) (om-make-font "Arial" 18 :family "Arial" :style (quote (:bold)) :mode (quote nil))) (om-load-editor-box1 "CHORD-SEQ" (quote chord-seq) (quote ((om-load-inputfun (quote input-funbox) "objs" "SELF" nil) (om-load-inputfun (quote input-funbox) "LMIDIC" "LMIDIC" (list 6000)) (om-load-inputfun (quote input-funbox) "LONSET" "LONSET" (list 0 1000)) (om-load-inputfun (quote input-funbox) "LDUR" "LDUR" (list 1000)) (om-load-inputfun (quote input-funbox) "LVEL" "LVEL" (list 100)) (om-load-inputfun (quote input-funbox) "LOFFSET" "LOFFSET" (list 0)) (om-load-inputfun (quote input-funbox) "LCHAN" "LCHAN" (list 1)) (om-load-inputfun (quote input-funbox) "LEGATO" "LEGATO" 0))) (om-make-point 202 70) (om-make-point 499 158) (let ((newobj (when (find-class (quote chord-seq) nil) (make-instance (quote chord-seq) :lmidic (quote ((2800 4702 5586 6168 6604 7102 7488 7804 8070 8372 8630) (2800 4724 5618 6207 6648 7152 7542 7862 8131 8437 8698) (2800 4746 5651 6246 6692 7202 7597 7920 8193 8502 8766) (2800 4768 5683 6285 6737 7252 7651 7978 8254 8566 8833) (2800 4790 5716 6325 6781 7302 7706 8037 8315 8631 8901) (2800 4813 5748 6364 6825 7352 7760 8095 8376 8696 8969) (2800 4835 5780 6403 6869 7402 7815 8153 8438 8761 9037) (2800 4857 5813 6442 6913 7452 7869 8211 8499 8825 9104) (2800 4879 5845 6481 6958 7502 7924 8269 8560 8890 9172))) :lonset (quote (0 6000 11843 17423 22636 27376 31539 35019 37712 39512)) :ldur (quote ((12000 12000 12000 12000 12000 12000 12000 12000 12000 12000 12000) (11686 11686 11686 11686 11686 11686 11686 11686 11686 11686 11686) (11160 11160 11160 11160 11160 11160 11160 11160 11160 11160 11160) (10426 10426 10426 10426 10426 10426 10426 10426 10426 10426 10426) (9480 9480 9480 9480 9480 9480 9480 9480 9480 9480 9480) (8326 8326 8326 8326 8326 8326 8326 8326 8326 8326 8326) (6960 6960 6960 6960 6960 6960 6960 6960 6960 6960 6960) (5386 5386 5386 5386 5386 5386 5386 5386 5386 5386 5386) (3600 3600 3600 3600 3600 3600 3600 3600 3600 3600 3600))) :lvel (quote ((67 51 41 33 27 22 18 14 11 8 5) (79 62 53 45 39 34 30 26 23 19 17) (89 73 63 55 49 44 40 36 33 30 27) (98 82 72 64 58 53 49 45 42 39 36) (106 89 79 72 66 60 57 53 49 46 44) (112 95 86 78 72 67 63 59 56 52 50) (117 100 90 83 77 71 68 64 60 57 55) (120 104 94 86 80 75 71 67 64 61 58) (122 106 96 88 82 77 73 69 66 63 60))) :loffset (quote ((0 1500 2400 3120 3660 4140 4500 4860 5160 5460 5700) (0 1461 2337 3038 3564 4032 4382 4733 5025 5317 5551) (0 1395 2232 2902 3404 3850 4185 4520 4799 5078 5301) (0 1303 2085 2711 3180 3597 3910 4223 4483 4744 4952) (0 1185 1896 2465 2891 3271 3555 3839 4076 4313 4503) (0 1041 1665 2165 2539 2872 3122 3372 3580 3788 3955) (0 870 1392 1810 2123 2401 2610 2819 2993 3167 3306) (0 673 1077 1400 1643 1858 2020 2181 2316 2451 2558) (0 450 720 936 1098 1242 1350 1458 1548 1638 1710))) :lchan (quote ((1 1 1 1 1 1 1 1 1 1 1) (1 1 1 1 1 1 1 1 1 1 1) (1 1 1 1 1 1 1 1 1 1 1) (1 1 1 1 1 1 1 1 1 1 1) (1 1 1 1 1 1 1 1 1 1 1) (1 1 1 1 1 1 1 1 1 1 1) (1 1 1 1 1 1 1 1 1 1 1) (1 1 1 1 1 1 1 1 1 1 1) (1 1 1 1 1 1 1 1 1 1 1))) :legato 0)))) (load-port-info newobj (quote ((nil nil nil nil nil nil nil nil nil nil nil) (nil nil nil nil nil nil nil nil nil nil nil) (nil nil nil nil nil nil nil nil nil nil nil) (nil nil nil nil nil nil nil nil nil nil nil) (nil nil nil nil nil nil nil nil nil nil nil) (nil nil nil nil nil nil nil nil nil nil nil) (nil nil nil nil nil nil nil nil nil nil nil) (nil nil nil nil nil nil nil nil nil nil nil) (nil nil nil nil nil nil nil nil nil nil nil)))) (init-mus-color newobj (quote nil)) (set-extra-pairs newobj (quote nil)) (set-patch-pairs newobj (quote ((nil (om-load-patch-abs1 "patch" (quote nil) (quote nil) 6.010006 nil ""))))) (set-name newobj nil) (set-tonalite newobj nil) newobj) "x" nil (pairlis (quote (scale microplay obj-mode palette-mode winpos winsize mode grillestep notechancolor? zoom inport outport approx fontsize staff cmnpref deltapict show-stems player)) (list nil nil 0 0 (om-make-point 10 40) (om-make-point 1345 421) 4 1000 nil 19/50 0 0 8 24 (quote gff) (let ((newobj (make-instance (quote edition-values)))) (setf (paper-size newobj) (om-make-point 600 800)) (setf (top-margin newobj) 2) (setf (left-margin newobj) 1) (setf (right-margin newobj) 1) (setf (bottom-margin newobj) 1) (setf (orientation newobj) nil) (setf (scale newobj) nil) (setf (system-space newobj) (quote (1))) (setf (system-color newobj) (quote nil)) (setf (line-space newobj) 1) (setf (title newobj) nil) (setf (show-title? newobj) nil) (setf (show-page? newobj) nil) (setf (sheet-id newobj) nil) (setf (page-mode newobj) nil) newobj) (om-make-point 0 10) (quote t) (quote :midishare))) t nil nil nil))) (quote ((10 0 5 0 nil 1) (9 0 5 1 nil 0) (22 3 8 0 nil 0) (8 0 9 0 nil 0) (22 1 10 0 nil 2) (22 2 10 1 nil 2) (10 0 11 0 nil 0) (9 0 11 1 nil 0) (10 0 12 0 nil 0) (11 0 12 2 nil 0) (22 1 13 0 nil 8) (13 0 14 2 nil 0) (19 0 16 2 nil 0) (18 0 17 2 nil 0) (22 1 18 0 nil 15) (22 4 19 0 nil 3))) nil 6.010006))
