; OM File Header - Saved 2014/12/17 16:21:51
; (6.010006 :patc (om-make-point 124 10) (om-make-point 328 20) (om-make-point 711 638) "" 183 0 nil nil)
; End File Header
(in-package :om)(load-lib-for (quote ("SOAL")))(setf *om-current-persistent* (om-load-patch1 "sonance" (quote ((om-load-boxcomment "comment" (om-make-point 433 44) (quote "((0.41) (0.36) (0.46) (0.82) (0.74) (0.43))") "" (om-make-point 199 210) nil (om-make-color 0.0 0.0 0.627451) (om-make-font "Microsoft Sans Serif" 10 :family "Microsoft Sans Serif" :style (quote (:bold)) :mode (quote nil))) (om-load-boxcomment "comment" (om-make-point 75 36) (quote "(0.45)") "" (om-make-point 208 473) nil (om-make-color 0.0 0.2509804 0.5019608) (om-make-font "Microsoft Sans Serif" 10 :family "Microsoft Sans Serif" :style (quote (:bold)) :mode (quote nil))) (om-load-boxcomment "comment" (om-make-point 61 36) (quote "(0.45)") "" (om-make-point 131 454) nil (om-make-color 0.0 0.2509804 0.5019608) (om-make-font "Microsoft Sans Serif" 10 :family "Microsoft Sans Serif" :style (quote (:bold)) :mode (quote nil))) (om-load-boxcomment "comment" (om-make-point 69 36) (quote "(0.45)") "" (om-make-point 45 484) nil (om-make-color 0.0 0.2509804 0.5019608) (om-make-font "Microsoft Sans Serif" 10 :family "Microsoft Sans Serif" :style (quote (:bold)) :mode (quote nil))) (om-load-boxcomment "comment" (om-make-point 76 30) (quote "german 6th") "" (om-make-point 226 319) nil (om-make-color 0 0 0) (om-make-font "Microsoft Sans Serif" 10 :family "Microsoft Sans Serif" :style (quote (:italic)) :mode (quote nil))) (om-load-boxcomment "comment" (om-make-point 76 24) (quote "french 6th") "" (om-make-point 128 309) nil (om-make-color 0 0 0) (om-make-font "Microsoft Sans Serif" 10 :family "Microsoft Sans Serif" :style (quote (:italic)) :mode (quote nil))) (om-load-boxcomment "comment" (om-make-point 72 33) (quote "italian 6th") "" (om-make-point 30 336) nil (om-make-color 0 0 0) (om-make-font "Microsoft Sans Serif" 10 :family "Microsoft Sans Serif" :style (quote (:italic)) :mode (quote nil))) (om-load-boxcall (quote genfun) "COGNITIVE-SONANCE" (quote cognitive-sonance) (quote ((om-load-inputfun (quote input-funbox) "midicents" "MIDICENTS" (list (list 6000 6400 6700))) (om-load-inputfun (quote input-funbox) "intervals" "INTERVALS" (list 12 7 5 4 9 8 3 6 10 2 11 1)))) (om-make-point 164 543) nil nil nil nil 3) (om-load-boxcall (quote lispfun) "LIST1" (quote list) (quote ((om-load-inputfun (quote input-funbox) "add-input" "add-input" nil) (om-load-inputfun (quote input-funbox) "add-input" "add-input" nil) (om-load-inputfun (quote input-funbox) "add-input" "add-input" nil))) (om-make-point 141 496) (om-make-point 62 43) nil nil nil 1) (om-load-editor-box1 "CHORD" (quote chord) (quote ((om-load-inputfun (quote input-funbox) "object" "SELF" nil) (om-load-inputfun (quote input-funbox) "pitches (list of midicents)" "LMIDIC" (list 6000)) (om-load-inputfun (quote input-funbox) "velocities (list of values 0-127)" "LVEL" (list 100)) (om-load-inputfun (quote input-funbox) "offsets (list of values in ms)" "LOFFSET" (list 0)) (om-load-inputfun (quote input-funbox) "durations (list of values in ms)" "LDUR" (list 1000)) (om-load-inputfun (quote input-funbox) "MIDI channels (list of values 0-16)" "LCHAN" (list 1)))) (om-make-point 575 88) (om-make-point 86 122) (let ((thechord (make-instance (quote chord) :lmidic (quote (6400 7100 7300 7700 8000)) :ldur (quote (1000 1000 1000 1000 1000)) :lvel (quote (80 80 80 80 80)) :loffset (quote (0 0 0 0 0)) :lchan (quote (1 1 1 1 1))))) (restore-tonalite thechord (quote ((2 (make-instance (quote simple-tonalite) :tonnote (quote re) :tonalt (quote bemol) :mode (quote (0 200 400 500 700 900 1100)))) (4 (make-instance (quote simple-tonalite) :tonnote (quote la) :tonalt (quote bemol) :mode (quote (0 200 400 500 700 900 1100))))))) (load-port-info thechord (quote (0 0 0 0 0))) (init-mus-color thechord (quote nil)) (set-extra-pairs thechord (quote nil)) thechord) "x" nil (pairlis (quote (approx fontsize staff cmnpref deltapict outport inport player zoom notechancolor? grillestep mode winsize winpos score-mode obj-mode show-stems scale palette-mode)) (list 2 24 (quote g) (let ((newobj (make-instance (quote edition-values)))) (setf (paper-size newobj) (om-make-point 600 800)) (setf (top-margin newobj) 2) (setf (left-margin newobj) 1) (setf (right-margin newobj) 1) (setf (bottom-margin newobj) 1) (setf (orientation newobj) nil) (setf (scale newobj) nil) (setf (system-space newobj) (quote (1))) (setf (system-color newobj) (quote nil)) (setf (line-space newobj) 1) (setf (title newobj) nil) (setf (show-title? newobj) nil) (setf (show-page? newobj) nil) (setf (sheet-id newobj) nil) (setf (page-mode newobj) nil) newobj) (om-make-point 0 9) nil 0 (quote :midishare) 1 nil 1000 0 (om-make-point 674 260) (om-make-point 400 20) 0 0 (quote t) nil 0)) t nil nil nil) (om-load-editor-box1 "CHORD" (quote chord) (quote ((om-load-inputfun (quote input-funbox) "object" "SELF" nil) (om-load-inputfun (quote input-funbox) "pitches (list of midicents)" "LMIDIC" (list 6000)) (om-load-inputfun (quote input-funbox) "velocities (list of values 0-127)" "LVEL" (list 100)) (om-load-inputfun (quote input-funbox) "offsets (list of values in ms)" "LOFFSET" (list 0)) (om-load-inputfun (quote input-funbox) "durations (list of values in ms)" "LDUR" (list 1000)) (om-load-inputfun (quote input-funbox) "MIDI channels (list of values 0-16)" "LCHAN" (list 1)))) (om-make-point 220 350) (om-make-point 86 122) (let ((thechord (make-instance (quote chord) :lmidic (quote (6000 6300 6600 5600)) :ldur (quote (1000 1000 1000 1000)) :lvel (quote (80 80 80 80)) :loffset (quote (0 0 0 0)) :lchan (quote (1 1 1 1))))) (restore-tonalite thechord (quote ((1 (make-instance (quote simple-tonalite) :tonnote (quote mi) :tonalt (quote bemol) :mode (quote (0 200 400 500 700 900 1100)))) (3 (make-instance (quote simple-tonalite) :tonnote (quote la) :tonalt (quote bemol) :mode (quote (0 200 400 500 700 900 1100))))))) (load-port-info thechord (quote (0 0 0 0))) (init-mus-color thechord (quote nil)) (set-extra-pairs thechord (quote nil)) thechord) "x" nil (pairlis (quote (approx fontsize staff cmnpref deltapict outport inport player zoom notechancolor? grillestep mode winsize winpos score-mode obj-mode show-stems scale palette-mode)) (list 2 24 (quote gf) (let ((newobj (make-instance (quote edition-values)))) (setf (paper-size newobj) (om-make-point 600 800)) (setf (top-margin newobj) 2) (setf (left-margin newobj) 1) (setf (right-margin newobj) 1) (setf (bottom-margin newobj) 1) (setf (orientation newobj) nil) (setf (scale newobj) nil) (setf (system-space newobj) (quote (1))) (setf (system-color newobj) (quote nil)) (setf (line-space newobj) 1) (setf (title newobj) nil) (setf (show-title? newobj) nil) (setf (show-page? newobj) nil) (setf (sheet-id newobj) nil) (setf (page-mode newobj) nil) newobj) (om-make-point 0 8) nil 0 (quote :midishare) 1 nil 1000 0 (om-make-point 674 260) (om-make-point 400 20) 0 0 (quote t) nil 0)) t nil nil nil) (om-load-editor-box1 "CHORD" (quote chord) (quote ((om-load-inputfun (quote input-funbox) "object" "SELF" nil) (om-load-inputfun (quote input-funbox) "pitches (list of midicents)" "LMIDIC" (list 6000)) (om-load-inputfun (quote input-funbox) "velocities (list of values 0-127)" "LVEL" (list 100)) (om-load-inputfun (quote input-funbox) "offsets (list of values in ms)" "LOFFSET" (list 0)) (om-load-inputfun (quote input-funbox) "durations (list of values in ms)" "LDUR" (list 1000)) (om-load-inputfun (quote input-funbox) "MIDI channels (list of values 0-16)" "LCHAN" (list 1)))) (om-make-point 119 337) (om-make-point 86 122) (let ((thechord (make-instance (quote chord) :lmidic (quote (6000 6200 6600 5600)) :ldur (quote (1000 1000 1000 1000)) :lvel (quote (80 80 80 80)) :loffset (quote (0 0 0 0)) :lchan (quote (1 1 1 1))))) (restore-tonalite thechord (quote ((3 (make-instance (quote simple-tonalite) :tonnote (quote la) :tonalt (quote bemol) :mode (quote (0 200 400 500 700 900 1100))))))) (load-port-info thechord (quote (0 0 0 0))) (init-mus-color thechord (quote nil)) (set-extra-pairs thechord (quote nil)) thechord) "x" nil (pairlis (quote (approx fontsize staff cmnpref deltapict outport inport player zoom notechancolor? grillestep mode winsize winpos score-mode obj-mode show-stems scale palette-mode)) (list 2 24 (quote gf) (let ((newobj (make-instance (quote edition-values)))) (setf (paper-size newobj) (om-make-point 600 800)) (setf (top-margin newobj) 2) (setf (left-margin newobj) 1) (setf (right-margin newobj) 1) (setf (bottom-margin newobj) 1) (setf (orientation newobj) nil) (setf (scale newobj) nil) (setf (system-space newobj) (quote (1))) (setf (system-color newobj) (quote nil)) (setf (line-space newobj) 1) (setf (title newobj) nil) (setf (show-title? newobj) nil) (setf (show-page? newobj) nil) (setf (sheet-id newobj) nil) (setf (page-mode newobj) nil) newobj) (om-make-point 0 8) nil 0 (quote :midishare) 1 nil 1000 0 (om-make-point 674 260) (om-make-point 400 20) 0 0 (quote t) nil 0)) t nil nil nil) (om-load-editor-box1 "CHORD" (quote chord) (quote ((om-load-inputfun (quote input-funbox) "object" "SELF" nil) (om-load-inputfun (quote input-funbox) "pitches (list of midicents)" "LMIDIC" (list 6000)) (om-load-inputfun (quote input-funbox) "velocities (list of values 0-127)" "LVEL" (list 100)) (om-load-inputfun (quote input-funbox) "offsets (list of values in ms)" "LOFFSET" (list 0)) (om-load-inputfun (quote input-funbox) "durations (list of values in ms)" "LDUR" (list 1000)) (om-load-inputfun (quote input-funbox) "MIDI channels (list of values 0-16)" "LCHAN" (list 1)))) (om-make-point 25 365) (om-make-point 86 122) (let ((thechord (make-instance (quote chord) :lmidic (quote (5600 6000 6600)) :ldur (quote (1000 1000 1000)) :lvel (quote (80 80 80)) :loffset (quote (0 0 0)) :lchan (quote (1 1 1))))) (restore-tonalite thechord (quote ((0 (make-instance (quote simple-tonalite) :tonnote (quote la) :tonalt (quote bemol) :mode (quote (0 200 400 500 700 900 1100))))))) (load-port-info thechord (quote (0 0 0))) (init-mus-color thechord (quote nil)) (set-extra-pairs thechord (quote nil)) thechord) "x" nil (pairlis (quote (approx fontsize staff cmnpref deltapict outport inport player zoom notechancolor? grillestep mode winsize winpos score-mode obj-mode show-stems scale palette-mode)) (list 2 24 (quote gf) (let ((newobj (make-instance (quote edition-values)))) (setf (paper-size newobj) (om-make-point 600 800)) (setf (top-margin newobj) 2) (setf (left-margin newobj) 1) (setf (right-margin newobj) 1) (setf (bottom-margin newobj) 1) (setf (orientation newobj) nil) (setf (scale newobj) nil) (setf (system-space newobj) (quote (1))) (setf (system-color newobj) (quote nil)) (setf (line-space newobj) 1) (setf (title newobj) nil) (setf (show-title? newobj) nil) (setf (show-page? newobj) nil) (setf (sheet-id newobj) nil) (setf (page-mode newobj) nil) newobj) (om-make-point 0 8) nil 0 (quote :midishare) 1 nil 1000 1 (om-make-point 807 415) (om-make-point 400 20) 0 0 (quote t) nil 0)) t nil nil nil) (om-load-boxcomment "comment" (om-make-point 64 33) (quote "Elektra") "" (om-make-point 578 58) nil (om-make-color 0 0 0) (om-make-font "Microsoft Sans Serif" 10 :family "Microsoft Sans Serif" :style (quote (:italic)) :mode (quote nil))) (om-load-boxcomment "comment" (om-make-point 76 26) (quote "Petrushka") "" (om-make-point 485 42) nil (om-make-color 0 0 0) (om-make-font "Microsoft Sans Serif" 10 :family "Microsoft Sans Serif" :style (quote (:italic)) :mode (quote nil))) (om-load-editor-box1 "CHORD" (quote chord) (quote ((om-load-inputfun (quote input-funbox) "object" "SELF" nil) (om-load-inputfun (quote input-funbox) "pitches (list of midicents)" "LMIDIC" (list 6000)) (om-load-inputfun (quote input-funbox) "velocities (list of values 0-127)" "LVEL" (list 100)) (om-load-inputfun (quote input-funbox) "offsets (list of values in ms)" "LOFFSET" (list 0)) (om-load-inputfun (quote input-funbox) "durations (list of values in ms)" "LDUR" (list 1000)) (om-load-inputfun (quote input-funbox) "MIDI channels (list of values 0-16)" "LCHAN" (list 1)))) (om-make-point 478 69) (om-make-point 86 122) (let ((thechord (make-instance (quote chord) :lmidic (quote (6100 6400 6600 6700 7000 7200)) :ldur (quote (1000 1000 1000 1000 1000 1000)) :lvel (quote (80 80 80 80 80 80)) :loffset (quote (0 0 0 0 0 0)) :lchan (quote (1 1 1 1 1 1))))) (load-port-info thechord (quote (0 0 0 0 0 0))) (init-mus-color thechord (quote nil)) (set-extra-pairs thechord (quote nil)) thechord) "x" nil (pairlis (quote (approx fontsize staff cmnpref deltapict outport inport player zoom notechancolor? grillestep mode winsize winpos score-mode obj-mode show-stems scale palette-mode)) (list 2 24 (quote g) (let ((newobj (make-instance (quote edition-values)))) (setf (paper-size newobj) (om-make-point 600 800)) (setf (top-margin newobj) 2) (setf (left-margin newobj) 1) (setf (right-margin newobj) 1) (setf (bottom-margin newobj) 1) (setf (orientation newobj) nil) (setf (scale newobj) nil) (setf (system-space newobj) (quote (1))) (setf (system-color newobj) (quote nil)) (setf (line-space newobj) 1) (setf (title newobj) nil) (setf (show-title? newobj) nil) (setf (show-page? newobj) nil) (setf (sheet-id newobj) nil) (setf (page-mode newobj) nil) newobj) (om-make-point 0 8) nil 0 (quote :midishare) 1 nil 1000 1 (om-make-point 674 260) (om-make-point 400 20) 0 0 (quote t) nil 0)) t nil nil nil) (om-load-boxcomment "comment" (om-make-point 75 40) (quote "viennese trichord") "" (om-make-point 389 14) nil (om-make-color 0 0 0) (om-make-font "Microsoft Sans Serif" 10 :family "Microsoft Sans Serif" :style (quote (:italic)) :mode (quote nil))) (om-load-editor-box1 "CHORD" (quote chord) (quote ((om-load-inputfun (quote input-funbox) "object" "SELF" nil) (om-load-inputfun (quote input-funbox) "pitches (list of midicents)" "LMIDIC" (list 6000)) (om-load-inputfun (quote input-funbox) "velocities (list of values 0-127)" "LVEL" (list 100)) (om-load-inputfun (quote input-funbox) "offsets (list of values in ms)" "LOFFSET" (list 0)) (om-load-inputfun (quote input-funbox) "durations (list of values in ms)" "LDUR" (list 1000)) (om-load-inputfun (quote input-funbox) "MIDI channels (list of values 0-16)" "LCHAN" (list 1)))) (om-make-point 382 53) (om-make-point 86 122) (let ((thechord (make-instance (quote chord) :lmidic (quote (6000 6600 6700)) :ldur (quote (1000 1000 1000)) :lvel (quote (80 80 80)) :loffset (quote (0 0 0)) :lchan (quote (1 1 1))))) (load-port-info thechord (quote (0 0 0))) (init-mus-color thechord (quote nil)) (set-extra-pairs thechord (quote nil)) thechord) "x" nil (pairlis (quote (approx fontsize staff cmnpref deltapict outport inport player zoom notechancolor? grillestep mode winsize winpos score-mode obj-mode show-stems scale palette-mode)) (list 4 24 (quote g) (let ((newobj (make-instance (quote edition-values)))) (setf (paper-size newobj) (om-make-point 600 800)) (setf (top-margin newobj) 2) (setf (left-margin newobj) 1) (setf (right-margin newobj) 1) (setf (bottom-margin newobj) 1) (setf (orientation newobj) nil) (setf (scale newobj) nil) (setf (system-space newobj) (quote (1))) (setf (system-color newobj) (quote nil)) (setf (line-space newobj) 1) (setf (title newobj) nil) (setf (show-title? newobj) nil) (setf (show-page? newobj) nil) (setf (sheet-id newobj) nil) (setf (page-mode newobj) nil) newobj) (om-make-point 0 8) nil 0 (quote :midishare) 1 nil 1000 0 (om-make-point 674 260) (om-make-point 400 20) 0 0 (quote t) nil 0)) t nil nil nil) (om-load-boxcall (quote lispfun) "LIST" (quote list) (quote ((om-load-inputfun (quote input-funbox) "add-input" "add-input" nil) (om-load-inputfun (quote input-funbox) "add-input" "add-input" nil) (om-load-inputfun (quote input-funbox) "add-input" "add-input" nil) (om-load-inputfun (quote input-funbox) "add-input" "add-input" nil) (om-load-inputfun (quote input-funbox) "add-input" "add-input" nil) (om-load-inputfun (quote input-funbox) "add-input" "add-input" nil))) (om-make-point 294 250) (om-make-point 201 43) nil nil nil 1) (om-load-boxcall (quote genfun) "COGNITIVE-SONANCE" (quote cognitive-sonance) (quote ((om-load-inputfun (quote input-funbox) "midicents" "MIDICENTS" (list (list 6000 6400 6700))) (om-load-inputfun (quote input-funbox) "intervals" "INTERVALS" (list 12 7 5 4 9 8 3 6 10 2 11 1)))) (om-make-point 361 296) nil nil nil nil 3) (om-load-editor-box1 "CHORD" (quote chord) (quote ((om-load-inputfun (quote input-funbox) "object" "SELF" nil) (om-load-inputfun (quote input-funbox) "pitches (list of midicents)" "LMIDIC" (list 6000)) (om-load-inputfun (quote input-funbox) "velocities (list of values 0-127)" "LVEL" (list 100)) (om-load-inputfun (quote input-funbox) "offsets (list of values in ms)" "LOFFSET" (list 0)) (om-load-inputfun (quote input-funbox) "durations (list of values in ms)" "LDUR" (list 1000)) (om-load-inputfun (quote input-funbox) "MIDI channels (list of values 0-16)" "LCHAN" (list 1)))) (om-make-point 96 110) (om-make-point 86 122) (let ((thechord (make-instance (quote chord) :lmidic (quote (6000 6400 6700)) :ldur (quote (1000 1000 1000)) :lvel (quote (80 80 80)) :loffset (quote (0 0 0)) :lchan (quote (1 1 1))))) (load-port-info thechord (quote (0 0 0))) (init-mus-color thechord (quote nil)) (set-extra-pairs thechord (quote nil)) thechord) "x" nil (pairlis (quote (approx fontsize staff cmnpref deltapict outport inport player zoom notechancolor? grillestep mode winsize winpos score-mode obj-mode show-stems scale palette-mode)) (list 4 24 (quote g) (let ((newobj (make-instance (quote edition-values)))) (setf (paper-size newobj) (om-make-point 600 800)) (setf (top-margin newobj) 2) (setf (left-margin newobj) 1) (setf (right-margin newobj) 1) (setf (bottom-margin newobj) 1) (setf (orientation newobj) nil) (setf (scale newobj) nil) (setf (system-space newobj) (quote (1))) (setf (system-color newobj) (quote nil)) (setf (line-space newobj) 1) (setf (title newobj) nil) (setf (show-title? newobj) nil) (setf (show-page? newobj) nil) (setf (sheet-id newobj) nil) (setf (page-mode newobj) nil) newobj) (om-make-point 0 8) nil 0 (quote :midishare) 1 nil 1000 0 (om-make-point 674 260) (om-make-point 400 20) 0 0 (quote t) nil 0)) t nil nil nil) (om-load-boxcomment "comment" (om-make-point 91 63) (quote "Accord de la résonance $(Messiaen)") "" (om-make-point 282 12) nil (om-make-color 0 0 0) (om-make-font "Microsoft Sans Serif" 10 :family "Microsoft Sans Serif" :style (quote (:italic)) :mode (quote nil))) (om-load-boxcomment "comment" (om-make-point 100 30) (quote "Tristan Chord") "" (om-make-point 183 56) nil (om-make-color 0 0 0) (om-make-font "Microsoft Sans Serif" 10 :family "Microsoft Sans Serif" :style (quote (:italic)) :mode (quote nil))) (om-load-editor-box1 "CHORD" (quote chord) (quote ((om-load-inputfun (quote input-funbox) "object" "SELF" nil) (om-load-inputfun (quote input-funbox) "pitches (list of midicents)" "LMIDIC" (list 6000)) (om-load-inputfun (quote input-funbox) "velocities (list of values 0-127)" "LVEL" (list 100)) (om-load-inputfun (quote input-funbox) "offsets (list of values in ms)" "LOFFSET" (list 0)) (om-load-inputfun (quote input-funbox) "durations (list of values in ms)" "LDUR" (list 1000)) (om-load-inputfun (quote input-funbox) "MIDI channels (list of values 0-16)" "LCHAN" (list 1)))) (om-make-point 283 71) (om-make-point 86 122) (let ((thechord (make-instance (quote chord) :lmidic (quote (6000 6400 6700 7000 7400 7800 8000 8300)) :ldur (quote (1000 1000 1000 1000 1000 1000 1000 1000)) :lvel (quote (80 80 80 80 80 80 80 80)) :loffset (quote (0 0 0 0 0 0 0 0)) :lchan (quote (1 1 1 1 1 1 1 1))))) (restore-tonalite thechord (quote ((3 (make-instance (quote simple-tonalite) :tonnote (quote si) :tonalt (quote bemol) :mode (quote (0 200 400 500 700 900 1100))))))) (load-port-info thechord (quote (0 0 0 0 0 0 0 0))) (init-mus-color thechord (quote nil)) (set-extra-pairs thechord (quote nil)) thechord) "x" nil (pairlis (quote (approx fontsize staff cmnpref deltapict outport inport player zoom notechancolor? grillestep mode winsize winpos score-mode obj-mode show-stems scale palette-mode)) (list 2 24 (quote g) (let ((newobj (make-instance (quote edition-values)))) (setf (paper-size newobj) (om-make-point 600 800)) (setf (top-margin newobj) 2) (setf (left-margin newobj) 1) (setf (right-margin newobj) 1) (setf (bottom-margin newobj) 1) (setf (orientation newobj) nil) (setf (scale newobj) nil) (setf (system-space newobj) (quote (1))) (setf (system-color newobj) (quote nil)) (setf (line-space newobj) 1) (setf (title newobj) nil) (setf (show-title? newobj) nil) (setf (show-page? newobj) nil) (setf (sheet-id newobj) nil) (setf (page-mode newobj) nil) newobj) (om-make-point 0 12) nil 0 (quote :midishare) 1 nil 1000 0 (om-make-point 674 260) (om-make-point 400 20) 0 0 (quote t) nil 0)) t nil nil nil) (om-load-editor-box1 "CHORD" (quote chord) (quote ((om-load-inputfun (quote input-funbox) "object" "SELF" nil) (om-load-inputfun (quote input-funbox) "pitches (list of midicents)" "LMIDIC" (list 6000)) (om-load-inputfun (quote input-funbox) "velocities (list of values 0-127)" "LVEL" (list 100)) (om-load-inputfun (quote input-funbox) "offsets (list of values in ms)" "LOFFSET" (list 0)) (om-load-inputfun (quote input-funbox) "durations (list of values in ms)" "LDUR" (list 1000)) (om-load-inputfun (quote input-funbox) "MIDI channels (list of values 0-16)" "LCHAN" (list 1)))) (om-make-point 188 86) (om-make-point 86 122) (let ((thechord (make-instance (quote chord) :lmidic (quote (5300 5900 6300 6800)) :ldur (quote (1000 1000 1000 1000)) :lvel (quote (100 100 100 100)) :loffset (quote (0 0 0 0)) :lchan (quote (1 1 1 1))))) (load-port-info thechord (quote (0 0 0 0))) (init-mus-color thechord (quote nil)) (set-extra-pairs thechord (quote nil)) thechord) "x" nil (pairlis (quote (approx fontsize staff cmnpref deltapict outport inport player zoom notechancolor? grillestep mode winsize winpos score-mode obj-mode show-stems scale palette-mode)) (list 4 24 (quote gf) (let ((newobj (make-instance (quote edition-values)))) (setf (paper-size newobj) (om-make-point 600 800)) (setf (top-margin newobj) 2) (setf (left-margin newobj) 1) (setf (right-margin newobj) 1) (setf (bottom-margin newobj) 1) (setf (orientation newobj) nil) (setf (scale newobj) nil) (setf (system-space newobj) (quote (1))) (setf (system-color newobj) (quote nil)) (setf (line-space newobj) 1) (setf (title newobj) nil) (setf (show-title? newobj) nil) (setf (show-page? newobj) nil) (setf (sheet-id newobj) nil) (setf (page-mode newobj) nil) newobj) (om-make-point 0 0) nil 0 (quote :midishare) 1 nil 1000 0 (om-make-point 674 260) (om-make-point 400 20) 0 0 (quote t) nil 0)) t nil nil nil))) (quote ((8 0 7 0 nil 0) (12 1 8 0 nil 8) (11 1 8 1 nil 8) (10 1 8 2 nil 8) (20 1 18 0 nil 8) (24 1 18 1 nil 8) (23 1 18 2 nil 8) (17 1 18 3 nil 8) (15 1 18 4 nil 8) (9 1 18 5 nil 8) (18 0 19 0 nil 0))) nil 6.010006))
