; OM File Header - Saved 2014/08/18 21:22:07
; (6.080003 :patc (om-make-point 118 110) (om-make-point 0 0) (om-make-point 1018 672) "" 183 0 "2014/04/25 15:40:09" "2014/08/18 21:22:07")
; End File Header
(in-package :om)(load-lib-for (quote nil))(setf *om-current-persistent* (om-load-patch1 "acordes idempotentes" (quote ((om-load-editor-box1 "TEXT-VIEW 2" (quote text-view) (quote ((om-load-inputfun (quote input-funbox) "dialog-item text (string)" "text" "untitled"))) (om-make-point 492 566) (om-make-point 138 121) (let ((rep (om-make-dialog-item (quote text-view) (om-make-point 1 1) (om-make-point 126 92) "untitled"))) (om-set-dialog-item-text rep "(C3 E3 G#3)
(Eb3 G3 B3)
(E3 G#3 C4)
(G3 B3 Eb4)
(Bb3 D4 F#4)
") rep) nil nil (pairlis (quote (winsize winpos)) (list (om-make-point 335 275) (om-make-point 10 40))) t nil nil nil) (om-load-boxcall (quote genfun) "MC->N" (quote mc->n) (quote ((om-load-inputfun (quote input-funbox) "pitch or pitch list (midicents)" "MIDIC" (list 6000)))) (om-make-point 441 628) nil nil nil nil 1) (om-load-boxcomment "comment 3" (om-make-point 178 51) (quote "Nomenclatura de$Allen Forte") "" (om-make-point 1168 0) nil (om-make-color 0.81658555S0 0.0S0 0.11064315S0) (om-make-font "Courier 10 Pitch" 16.0D0 :family "Courier 10 Pitch" :style (quote (:plain)) :mode (quote nil))) (om-load-boxcall (quote bastype) "list 9" (quote list) (quote nil) (om-make-point 66 157) (om-make-point 57 32) (list 0 2 7) "(0 2 7)" nil) (om-load-boxcall (quote bastype) "aux 19" (quote t) (quote nil) (om-make-point 1234 48) (om-make-point 46 32) (quote |3-9|) "|3-9|" nil) (om-load-boxcall (quote bastype) "list 8" (quote list) (quote nil) (om-make-point 194 180) (om-make-point 57 32) (list 0 4 7) "(0 4 7)" nil) (om-load-boxcall (quote bastype) "list 7" (quote list) (quote nil) (om-make-point 96 111) (om-make-point 57 32) (list 0 3 7) "(0 3 7)" nil) (om-load-boxcall (quote bastype) "aux 17" (quote t) (quote nil) (om-make-point 1232 126) (om-make-point 53 32) (quote |3-11|) "|3-11|" nil) (om-load-boxcall (quote genfun) "DX->X 3" (quote dx->x) (quote ((om-load-inputfun (quote input-funbox) "a number" "START" 0) (om-load-inputfun (quote input-funbox) "a list of numbers" "LIST" (list 1 1)))) (om-make-point 1243 599) nil nil nil nil 1) (om-load-boxcall (quote bastype) "aux 18" (quote t) (quote nil) (om-make-point 1296 505) (om-make-point 34 32) 88 "88" nil) (om-load-boxcall (quote genfun) "OM*" (quote om*) (quote ((om-load-inputfun (quote input-funbox) "number or list" "ARG1" 0) (om-load-inputfun (quote input-funbox) "number or list" "ARG2" 0))) (om-make-point 1257 550) nil nil nil nil 1) (om-load-boxcall (quote genfun) "OM-RANDOM" (quote om-random) (quote ((om-load-inputfun (quote input-funbox) "min" "LOW" 1) (om-load-inputfun (quote input-funbox) "max" "HIGH" 2))) (om-make-point 1243 362) (om-make-point 74 60) nil nil nil 1) (om-load-boxcall (quote genfun) "REPEAT-N" (quote repeat-n) (quote ((om-load-inputfun (quote input-funbox) "something" "SELF" nil) (om-load-inputfun (quote input-funbox) "times" "N" 0))) (om-make-point 1234 469) nil nil nil nil 1) (om-load-boxcall (quote lispfun) "LENGTH" (quote length) (quote ((om-load-inputfun (quote input-funbox) "SEQUENCE" "SEQUENCE" nil))) (om-make-point 1188 409) nil nil nil nil 1) (om-load-boxcall (quote genfun) "FLAT" (quote flat) (quote ((om-load-inputfun (quote input-funbox) "a list" "LST" nil))) (om-make-point 1028 425) nil nil nil nil 1) (om-load-editor-box1 "CHORD-SEQ 3" (quote chord-seq) (quote ((om-load-inputfun (quote input-funbox) "object" "self" nil) (om-load-inputfun (quote input-funbox) "pitches (mc): list or list of lists" "lmidic" (list 6000)) (om-load-inputfun (quote input-funbox) "onsets (ms): list" "lonset" (list 0 1000)) (om-load-inputfun (quote input-funbox) "durations (ms): list or list of lists" "ldur" (list 1000)) (om-load-inputfun (quote input-funbox) "velocities (0-127): list or list of lists" "lvel" (list 100)) (om-load-inputfun (quote input-funbox) "offsets (ms): list or list of lists" "loffset" (list 0)) (om-load-inputfun (quote input-funbox) "MIDI channels (1-16): list or list of lists" "lchan" (list 1)) (om-load-inputfun (quote input-funbox) "relative chords duration (0-100)" "legato" 0))) (om-make-point 981 496) (om-make-point 202 182) (let ((newobj (when (find-class (quote chord-seq) nil) (make-instance (quote chord-seq) :lmidic (quote ((4800) (7600) (8000) (8700) (5500) (8300) (5200) (5600) (4800) (6700) (7100) (8700) (9400) (9800) (10200))) :lonset (quote (0 176 352 440 528 616 704 792 880 968 1056 1144 1320 1496 1584 2584)) :ldur (quote ((1000) (1000) (1000) (1000) (1000) (1000) (1000) (1000) (1000) (1000) (1000) (1000) (1000) (1000) (1000))) :lvel (quote ((100) (100) (100) (100) (100) (100) (100) (100) (100) (100) (100) (100) (100) (100) (100))) :loffset (quote ((0) (0) (0) (0) (0) (0) (0) (0) (0) (0) (0) (0) (0) (0) (0))) :lchan (quote ((1) (1) (1) (1) (1) (1) (1) (1) (1) (1) (1) (1) (1) (1) (1))) :legato 0)))) (load-port-info newobj (quote ((0) (0) (0) (0) (0) (0) (0) (0) (0) (0) (0) (0) (0) (0) (0)))) (init-mus-color newobj (quote nil)) (set-extra-pairs newobj (quote nil)) (set-patch-pairs newobj (quote nil)) (set-name newobj nil) (set-tonalite newobj nil) newobj) nil nil (pairlis (quote (approx fontsize staff cmnpref deltapict outport inport player zoom notechancolor? grillestep mode winsize winpos score-mode obj-mode cursor-mode show-stems scale)) (list 2 24 (quote ggff) (let ((newobj (make-instance (quote edition-values)))) (setf (paper-size newobj) (om-make-point 600 800)) (setf (top-margin newobj) 2) (setf (left-margin newobj) 1) (setf (right-margin newobj) 1) (setf (bottom-margin newobj) 1) (setf (orientation newobj) nil) (setf (scale newobj) nil) (setf (system-space newobj) (quote (1))) (setf (system-color newobj) (quote nil)) (setf (line-space newobj) 1) (setf (title newobj) nil) (setf (show-title? newobj) nil) (setf (show-page? newobj) nil) (setf (sheet-id newobj) nil) (setf (page-mode newobj) nil) newobj) (om-make-point 0 0) nil nil (quote :jackmidi) 467/100 nil 1000 0 (om-make-point 1278 368) (om-make-point 0 0) 3 1 (quote :normal) (quote t) nil)) t nil nil nil) (om-load-boxcall (quote bastype) "list 6" (quote list) (quote nil) (om-make-point 14 120) (om-make-point 68 32) (list 0 2 4 8) "(0 2 4 8)" nil) (om-load-boxcall (quote bastype) "aux 16" (quote t) (quote nil) (om-make-point 1112 14) (om-make-point 51 32) (quote :pitch) ":pitch" nil) (om-load-boxcall (quote bastype) "aux 15" (quote t) (quote nil) (om-make-point 1010 62) (om-make-point 60 32) (quote :vector) ":vector" nil) (om-load-boxcall (quote bastype) "aux 14" (quote t) (quote nil) (om-make-point 1033 3) (om-make-point 64 32) (quote :integer) ":integer" nil) (om-load-boxcall (quote bastype) "aux 13" (quote t) (quote nil) (om-make-point 1233 86) (om-make-point 53 32) (quote |4-24|) "|4-24|" nil) (om-load-editor-box1 "TEXT-BOX 4" (quote text-box) (quote ((om-load-inputfun (quote input-funbox) "dialog-item text (string)" "text" "untitled"))) (om-make-point 1058 157) (om-make-point 196 51) (om-make-dialog-item (quote text-box) (om-make-point 1 1) (om-make-point 176 24) "(0 2 0 3 0 1)" :font (om-make-font "DejaVu Sans" 11.0D0 :family "DejaVu Sans" :style (quote (:plain)) :mode (quote nil))) nil nil (pairlis (quote (winsize winpos)) (list (om-make-point 335 275) (om-make-point 10 40))) t nil nil nil) (om-load-boxcall (quote genfun) "PC-SET" (quote pc-set) (quote ((om-load-inputfunmenu1 (quote input-funmenu) "" "TYPE" (quote :pitch) (list (list "integer" (quote :integer)) (list "vector" (quote :vector)) (list "pitch" (quote :pitch)))) (om-load-inputfun (quote input-funbox) "" "FN-NAME" (quote |6-Z10|)))) (om-make-point 1162 72) nil nil nil nil 1) (om-load-boxcomment "comment 2" (om-make-point 125 31) (quote "tons inteiros") "" (om-make-point 866 65) nil (om-make-color 0 0 0) (om-make-font "Bitstream Vera Sans" 12 :family "Bitstream Vera Sans" :style (quote (:plain)) :mode (quote nil))) (om-load-boxcall (quote bastype) "aux 12" (quote t) (quote nil) (om-make-point 854 27) (om-make-point 90 32) (list 2 2 2 2 2 2) "(2 2 2 2 2 2)" nil) (om-load-editor-box1 "TEXT-BOX 3" (quote text-box) (quote ((om-load-inputfun (quote input-funbox) "dialog-item text (string)" "text" "untitled"))) (om-make-point 854 123) (om-make-point 196 51) (om-make-dialog-item (quote text-box) (om-make-point 1 1) (om-make-point 176 24) "(0 2 4 6 8 10 12)" :font (om-make-font "DejaVu Sans" 11.0D0 :family "DejaVu Sans" :style (quote (:plain)) :mode (quote nil))) nil nil (pairlis (quote (winsize winpos)) (list (om-make-point 335 275) (om-make-point 10 40))) t nil nil nil) (om-load-boxcall (quote genfun) "DX->X 2" (quote dx->x) (quote ((om-load-inputfun (quote input-funbox) "a number" "START" 0) (om-load-inputfun (quote input-funbox) "a list of numbers" "LIST" (list 1 1)))) (om-make-point 830 57) nil nil nil nil 1) (om-load-boxcomment "comment" (om-make-point 83 31) (quote "octatonica") "" (om-make-point 621 66) nil (om-make-color 0 0 0) (om-make-font "Bitstream Vera Sans" 12 :family "Bitstream Vera Sans" :style (quote (:plain)) :mode (quote nil))) (om-load-boxcall (quote bastype) "list 5" (quote list) (quote nil) (om-make-point 185 115) (om-make-point 79 32) (list 0 2 3 5 6) "(0 2 3 5 6)" nil) (om-load-editor-box1 "TEXT-BOX 2" (quote text-box) (quote ((om-load-inputfun (quote input-funbox) "dialog-item text (string)" "text" "untitled"))) (om-make-point 604 123) (om-make-point 196 51) (om-make-dialog-item (quote text-box) (om-make-point 1 1) (om-make-point 176 24) "(0 2 3 5 6 8 9 11 12)" :font (om-make-font "DejaVu Sans" 11.0D0 :family "DejaVu Sans" :style (quote (:plain)) :mode (quote nil))) nil nil (pairlis (quote (winsize winpos)) (list (om-make-point 335 275) (om-make-point 10 40))) t nil nil nil) (om-load-boxcall (quote bastype) "aux 11" (quote t) (quote nil) (om-make-point 604 27) (om-make-point 112 32) (list 2 1 2 1 2 1 2 1) "(2 1 2 1 2 1 2 1)" nil) (om-load-boxcall (quote genfun) "DX->X" (quote dx->x) (quote ((om-load-inputfun (quote input-funbox) "a number" "START" 0) (om-load-inputfun (quote input-funbox) "a list of numbers" "LIST" (list 1 1)))) (om-make-point 580 57) nil nil nil nil 1) (om-load-boxcall (quote bastype) "list 4" (quote list) (quote nil) (om-make-point 149 74) (om-make-point 61 32) (list 0 4 8) "(0 4 8 )" nil) (om-load-boxcall (quote bastype) "list 3" (quote list) (quote nil) (om-make-point 33 70) (om-make-point 57 32) (list 0 3 9) "(0 3 9)" nil) (om-load-boxcall (quote bastype) "list 2" (quote list) (quote nil) (om-make-point 56 31) (om-make-point 57 32) (list 0 4 7) "(0 4 7)" nil) (om-load-boxcall (quote bastype) "list" (quote list) (quote nil) (om-make-point 130 23) (om-make-point 61 32) (list 0 5 7) "(0 5 7 )" nil) (om-load-editor-box1 "TEXT-BOX" (quote text-box) (quote ((om-load-inputfun (quote input-funbox) "dialog-item text (string)" "text" "untitled"))) (om-make-point 421 124) (om-make-point 147 52) (om-make-dialog-item (quote text-box) (om-make-point 1 1) (om-make-point 127 25) "((0 4 8))" :font (om-make-font "DejaVu Sans" 11.0D0 :family "DejaVu Sans" :style (quote (:plain)) :mode (quote nil))) nil nil (pairlis (quote (winsize winpos)) (list (om-make-point 335 275) (om-make-point 10 40))) t nil nil nil) (om-load-boxcall (quote bastype) "aux 10" (quote t) (quote nil) (om-make-point 816 425) (om-make-point 60 32) (list 0 500) "(0 500)" nil) (om-load-editor-box1 "CHORD-SEQ 2" (quote chord-seq) (quote ((om-load-inputfun (quote input-funbox) "object" "self" nil) (om-load-inputfun (quote input-funbox) "pitches (mc): list or list of lists" "lmidic" (list 6000)) (om-load-inputfun (quote input-funbox) "onsets (ms): list" "lonset" (list 0 1000)) (om-load-inputfun (quote input-funbox) "durations (ms): list or list of lists" "ldur" (list 1000)) (om-load-inputfun (quote input-funbox) "velocities (0-127): list or list of lists" "lvel" (list 100)) (om-load-inputfun (quote input-funbox) "offsets (ms): list or list of lists" "loffset" (list 0)) (om-load-inputfun (quote input-funbox) "MIDI channels (1-16): list or list of lists" "lchan" (list 1)) (om-load-inputfun (quote input-funbox) "relative chords duration (0-100)" "legato" 0))) (om-make-point 718 498) (om-make-point 202 182) (let ((newobj (when (find-class (quote chord-seq) nil) (make-instance (quote chord-seq) :lmidic (quote ((3600 5200 6800) (3900 4300 8300) (7600 9200 8400) (4300 7100 6300) (9400 8600 6600))) :lonset (quote (0 500 1000 1500 2000 3000)) :ldur (quote ((1000 1000 1000) (1000 1000 1000) (1000 1000 1000) (1000 1000 1000) (1000 1000 1000))) :lvel (quote ((100 100 100) (100 100 100) (100 100 100) (100 100 100) (100 100 100))) :loffset (quote ((0 0 0) (0 0 0) (0 0 0) (0 0 0) (0 0 0))) :lchan (quote ((1 1 1) (1 1 1) (1 1 1) (1 1 1) (1 1 1))) :legato 0)))) (load-port-info newobj (quote ((0 0 0) (0 0 0) (0 0 0) (0 0 0) (0 0 0)))) (init-mus-color newobj (quote nil)) (set-extra-pairs newobj (quote nil)) (set-patch-pairs newobj (quote nil)) (set-name newobj nil) (set-tonalite newobj nil) newobj) nil nil (pairlis (quote (approx fontsize staff cmnpref deltapict outport inport player zoom notechancolor? grillestep mode winsize winpos score-mode obj-mode cursor-mode show-stems scale)) (list 2 24 (quote ggff) (let ((newobj (make-instance (quote edition-values)))) (setf (paper-size newobj) (om-make-point 600 800)) (setf (top-margin newobj) 2) (setf (left-margin newobj) 1) (setf (right-margin newobj) 1) (setf (bottom-margin newobj) 1) (setf (orientation newobj) nil) (setf (scale newobj) nil) (setf (system-space newobj) (quote (1))) (setf (system-color newobj) (quote nil)) (setf (line-space newobj) 1) (setf (title newobj) nil) (setf (show-title? newobj) nil) (setf (show-page? newobj) nil) (setf (sheet-id newobj) nil) (setf (page-mode newobj) nil) newobj) (om-make-point 0 0) nil nil (quote :jackmidi) 467/100 nil 1000 0 (om-make-point 1278 368) (om-make-point 0 0) 3 1 (quote :normal) (quote t) nil)) t nil nil nil) (om-load-boxcall (quote abstraction) "base_random" (om-load-patch-abs1 "base_random" (quote ((om-load-boxcall (quote lispfun) "MAPCAR" (quote mapcar) (quote ((om-load-inputfun (quote input-funbox) "FUNCTION" "FUNCTION" nil) (om-load-inputfun (quote input-funbox) "LIST" "LIST" nil))) (om-make-point 247 267) nil nil nil nil 1) (om-load-boxcall (quote abstraction) "recursivorandom" (om-load-patch-abs1 "recursivorandom" (quote ((om-load-boxout "output" 0 (om-make-point 189 229) (quote ((om-load-inputfun (quote input-funbox) "" "out" nil))) nil nil) (om-load-boxin "input" 0 (om-make-point 194 67) "" nil nil nil) (om-load-boxcall (quote lispfun) "MAPCAR" (quote mapcar) (quote ((om-load-inputfun (quote input-funbox) "FUNCTION" "FUNCTION" nil) (om-load-inputfun (quote input-funbox) "LIST" "LIST" nil))) (om-make-point 173 155) nil nil nil nil 1) (om-load-boxcall (quote abstraction) "randomC" (om-load-patch-abs1 "randomC" (quote ((om-load-boxout "output" 0 (om-make-point 65 419) (quote ((om-load-inputfun (quote input-funbox) "" "out" nil))) nil nil) (om-load-boxcall (quote genfun) "OM*" (quote om*) (quote ((om-load-inputfun (quote input-funbox) "number or list" "ARG1" 0) (om-load-inputfun (quote input-funbox) "number or list" "ARG2" 0))) (om-make-point 146 159) nil nil nil nil 1) (om-load-boxcall (quote bastype) "aux 4" (quote t) (quote nil) (om-make-point 226 129) (om-make-point 48 32) 1200 "1200" nil) (om-load-boxcall (quote genfun) "OM+" (quote om+) (quote ((om-load-inputfun (quote input-funbox) "number or list" "ARG1" 0) (om-load-inputfun (quote input-funbox) "number or list" "ARG2" 3600))) (om-make-point 115 213) (om-make-point 20 35) nil nil nil 1) (om-load-boxcall (quote bastype) "aux 3" (quote t) (quote nil) (om-make-point 205 184) (om-make-point 48 32) 2400 "2400" nil) (om-load-boxcall (quote bastype) "aux 2" (quote t) (quote nil) (om-make-point 147 8) (om-make-point 27 32) 1 "1" nil) (om-load-boxcall (quote bastype) "aux" (quote t) (quote nil) (om-make-point 244 38) (om-make-point 27 32) 5 "5" nil) (om-load-boxcall (quote genfun) "OM-RANDOM" (quote om-random) (quote ((om-load-inputfun (quote input-funbox) "min" "LOW" 0) (om-load-inputfun (quote input-funbox) "max" "HIGH" 1))) (om-make-point 126 74) nil nil nil nil 1))) (quote ((3 0 0 0 nil 0) (7 0 1 0 nil 0) (2 0 1 1 nil 0) (1 0 3 0 nil 0) (4 0 3 1 nil 0) (5 0 7 0 nil 0) (6 0 7 1 nil 0))) 6.080003 nil "" (om-make-point 0 0) (om-make-point 500 377)) (quote nil) (om-make-point 41 103) nil (list 9600) nil "randomC") (om-load-boxcall (quote genfun) "OM+" (quote om+) (quote ((om-load-inputfun (quote input-funbox) "number or list" "ARG1" 0) (om-load-inputfun (quote input-funbox) "number or list" "ARG2" 0))) (om-make-point 44 185) (om-make-point 46 35) nil "l" nil 1))) (quote ((2 0 0 0 nil 0) (4 0 2 0 nil 0) (1 0 2 1 nil 0) (3 0 4 1 nil 0))) 6.080003 nil "" (om-make-point 0 0) (om-make-point 400 408)) (quote ((om-load-inputfun (quote input-funbox) "" "input" nil))) (om-make-point 80 226) nil nil "l" "recursivorandom") (om-load-boxout "output" 0 (om-make-point 24 321) (quote ((om-load-inputfun (quote input-funbox) "" "out" nil))) nil nil) (om-load-boxcall (quote bastype) "aux" (quote t) (quote nil) (om-make-point 90 52) (om-make-point 41 32) 100 "100" nil) (om-load-boxcall (quote genfun) "OM*" (quote om*) (quote ((om-load-inputfun (quote input-funbox) "number or list" "ARG1" 0) (om-load-inputfun (quote input-funbox) "number or list" "ARG2" 0))) (om-make-point 36 108) nil nil nil nil 1) (om-load-boxin "input" 0 (om-make-point 5 45) "" nil nil nil))) (quote ((1 0 0 0 nil 0) (4 0 0 1 nil 0) (0 0 2 0 nil 0) (5 0 4 0 nil 0) (3 0 4 1 nil 0))) 6.080003 nil "" (om-make-point 0 0) (om-make-point 600 390)) (quote ((om-load-inputfun (quote input-funbox) "" "input" nil))) (om-make-point 736 421) nil (list (list (list 3600 5200 6800) (list 3900 4300 8300) (list 7600 9200 8400) (list 4300 7100 6300) (list 9400 8600 6600))) nil "base_random") (om-load-editor-box1 "N-CERCLE 5" (quote n-cercle) (quote ((om-load-inputfun (quote input-funbox) "object" "self" nil) (om-load-inputfun (quote input-funbox) "" "n" 12) (om-load-inputfun (quote input-funbox) "" "puntos" (list 1 5 7 9)))) (om-make-point 1098 236) (om-make-point 109 117) (if (find-class (quote n-cercle) nil) (make-instance (quote n-cercle) :n 12 :puntos (list (list 10 14 18)) :from-file t)) nil nil (pairlis (quote (winsize winpos)) (list (om-make-point 335 275) (om-make-point 10 40))) t nil nil nil) (om-load-boxcall (quote bastype) "aux 9" (quote t) (quote nil) (om-make-point 1024 247) (om-make-point 27 32) 3 "3" nil) (om-load-boxcall (quote genfun) "OM+ 4" (quote om+) (quote ((om-load-inputfun (quote input-funbox) "number or list" "ARG1" 0) (om-load-inputfun (quote input-funbox) "number or list" "ARG2" 0))) (om-make-point 999 307) nil nil nil nil 1) (om-load-editor-box1 "TEXT-VIEW" (quote text-view) (quote ((om-load-inputfun (quote input-funbox) "dialog-item text (string)" "text" "untitled"))) (om-make-point 606 456) (om-make-point 89 112) (let ((rep (om-make-dialog-item (quote text-view) (om-make-point 1 1) (om-make-point 77 83) "untitled"))) (om-set-dialog-item-text rep "(0 4 8)
(1 5 9)
(3 7 11)
(5 9 13)
(7 11 15)
") rep) nil nil (pairlis (quote (winsize winpos)) (list (om-make-point 335 275) (om-make-point 10 40))) t nil nil nil) (om-load-editor-box1 "N-CERCLE 4" (quote n-cercle) (quote ((om-load-inputfun (quote input-funbox) "object" "self" nil) (om-load-inputfun (quote input-funbox) "" "n" 12) (om-load-inputfun (quote input-funbox) "" "puntos" (list 1 5 7 9)))) (om-make-point 821 235) (om-make-point 109 117) (if (find-class (quote n-cercle) nil) (make-instance (quote n-cercle) :n 12 :puntos (list (list 7 11 15)) :from-file t)) nil nil (pairlis (quote (winsize winpos)) (list (om-make-point 335 275) (om-make-point 10 40))) t nil nil nil) (om-load-boxcall (quote bastype) "aux" (quote t) (quote nil) (om-make-point 747 246) (om-make-point 27 32) 3 "3" nil) (om-load-boxcall (quote genfun) "OM+ 3" (quote om+) (quote ((om-load-inputfun (quote input-funbox) "number or list" "ARG1" 0) (om-load-inputfun (quote input-funbox) "number or list" "ARG2" 0))) (om-make-point 722 306) nil nil nil nil 1) (om-load-boxcall (quote genfun) "X-APPEND" (quote x-append) (quote ((om-load-inputfun (quote input-funbox) "first element" "L1?" nil) (om-load-inputfun (quote input-funbox) "second element" "L2?" nil) (om-load-inputfun (quote input-funbox) "additional elements" "LST?" nil) (om-load-inputfun (quote input-funbox) "additional elements" "LST?" nil) (om-load-inputfun (quote input-funbox) "additional elements" "LST?" nil))) (om-make-point 197 423) (om-make-point 259 60) nil nil nil 1) (om-load-boxcall (quote bastype) "aux 8" (quote t) (quote nil) (om-make-point 300 35) (om-make-point 44 32) "tid" "\"tid\"" nil) (om-load-editor-box1 "N-CERCLE 3" (quote n-cercle) (quote ((om-load-inputfun (quote input-funbox) "object" "self" nil) (om-load-inputfun (quote input-funbox) "" "n" 12) (om-load-inputfun (quote input-funbox) "" "puntos" (list 1 5 7 9)))) (om-make-point 568 237) (om-make-point 109 117) (if (find-class (quote n-cercle) nil) (make-instance (quote n-cercle) :n 12 :puntos (list (list 4 8 12)) :from-file t)) nil nil (pairlis (quote (winsize winpos)) (list (om-make-point 335 275) (om-make-point 10 40))) t nil nil nil) (om-load-boxcall (quote bastype) "aux 7" (quote t) (quote nil) (om-make-point 494 248) (om-make-point 27 32) 1 "1" nil) (om-load-boxcall (quote genfun) "OM+ 2" (quote om+) (quote ((om-load-inputfun (quote input-funbox) "number or list" "ARG1" 0) (om-load-inputfun (quote input-funbox) "number or list" "ARG2" 0))) (om-make-point 469 308) nil nil nil nil 1) (om-load-editor-box1 "N-CERCLE 2" (quote n-cercle) (quote ((om-load-inputfun (quote input-funbox) "object" "self" nil) (om-load-inputfun (quote input-funbox) "" "n" 12) (om-load-inputfun (quote input-funbox) "" "puntos" (list 1 5 7 9)))) (om-make-point 328 235) (om-make-point 109 117) (if (find-class (quote n-cercle) nil) (make-instance (quote n-cercle) :n 12 :puntos (list (list 3 7 11)) :from-file t)) nil nil (pairlis (quote (winsize winpos)) (list (om-make-point 335 275) (om-make-point 0 0))) t nil nil nil) (om-load-boxcall (quote bastype) "aux 6" (quote t) (quote nil) (om-make-point 254 246) (om-make-point 27 32) 3 "3" nil) (om-load-boxcall (quote genfun) "OM+" (quote om+) (quote ((om-load-inputfun (quote input-funbox) "number or list" "ARG1" 0) (om-load-inputfun (quote input-funbox) "number or list" "ARG2" 0))) (om-make-point 229 306) nil nil nil nil 1) (om-load-boxcall (quote bastype) "aux 5" (quote t) (quote nil) (om-make-point 232 501) (om-make-point 60 32) (list 0 500) "(0 500)" nil) (om-load-editor-box1 "CHORD-SEQ" (quote chord-seq) (quote ((om-load-inputfun (quote input-funbox) "object" "self" nil) (om-load-inputfun (quote input-funbox) "pitches (mc): list or list of lists" "lmidic" (list 6000)) (om-load-inputfun (quote input-funbox) "onsets (ms): list" "lonset" (list 0 1000)) (om-load-inputfun (quote input-funbox) "durations (ms): list or list of lists" "ldur" (list 1000)) (om-load-inputfun (quote input-funbox) "velocities (0-127): list or list of lists" "lvel" (list 100)) (om-load-inputfun (quote input-funbox) "offsets (ms): list or list of lists" "loffset" (list 0)) (om-load-inputfun (quote input-funbox) "MIDI channels (1-16): list or list of lists" "lchan" (list 1)) (om-load-inputfun (quote input-funbox) "relative chords duration (0-100)" "legato" 0))) (om-make-point 101 542) (om-make-point 335 121) (let ((newobj (when (find-class (quote chord-seq) nil) (make-instance (quote chord-seq) :lmidic (quote ((6000 6400 6800) (6300 6700 7100) (6400 6800 7200) (6700 7100 7500) (7000 7400 7800))) :lonset (quote (0 500 1000 1500 2000 3000)) :ldur (quote ((1000 1000 1000) (1000 1000 1000) (1000 1000 1000) (1000 1000 1000) (1000 1000 1000))) :lvel (quote ((100 100 100) (100 100 100) (100 100 100) (100 100 100) (100 100 100))) :loffset (quote ((0 0 0) (0 0 0) (0 0 0) (0 0 0) (0 0 0))) :lchan (quote ((1 1 1) (1 1 1) (1 1 1) (1 1 1) (1 1 1))) :legato 0)))) (load-port-info newobj (quote ((0 0 0) (0 0 0) (0 0 0) (0 0 0) (0 0 0)))) (init-mus-color newobj (quote nil)) (set-extra-pairs newobj (quote nil)) (set-patch-pairs newobj (quote nil)) (set-name newobj nil) (set-tonalite newobj nil) newobj) nil nil (pairlis (quote (approx fontsize staff cmnpref deltapict outport inport player zoom notechancolor? grillestep mode winsize winpos score-mode obj-mode cursor-mode show-stems scale)) (list 2 24 (quote g) (let ((newobj (make-instance (quote edition-values)))) (setf (paper-size newobj) (om-make-point 600 800)) (setf (top-margin newobj) 2) (setf (left-margin newobj) 1) (setf (right-margin newobj) 1) (setf (bottom-margin newobj) 1) (setf (orientation newobj) nil) (setf (scale newobj) nil) (setf (system-space newobj) (quote (1))) (setf (system-color newobj) (quote nil)) (setf (line-space newobj) 1) (setf (title newobj) nil) (setf (show-title? newobj) nil) (setf (show-page? newobj) nil) (setf (sheet-id newobj) nil) (setf (page-mode newobj) nil) newobj) (om-make-point 0 0) nil nil (quote :jackmidi) 1 nil 1000 0 (om-make-point 370 280) (om-make-point 400 20) 0 1 (quote :normal) (quote t) nil)) t nil nil nil) (om-load-boxcall (quote abstraction) "base_C4" (om-load-patch-abs1 "base_C4" (quote ((om-load-boxout "output" 0 (om-make-point 23 170) (quote ((om-load-inputfun (quote input-funbox) "" "out" nil))) nil nil) (om-load-boxcall (quote bastype) "aux 2" (quote t) (quote nil) (om-make-point 124 91) (om-make-point 48 32) 6000 "6000" nil) (om-load-boxcall (quote genfun) "OM+" (quote om+) (quote ((om-load-inputfun (quote input-funbox) "number or list" "ARG1" 0) (om-load-inputfun (quote input-funbox) "number or list" "ARG2" 0))) (om-make-point 63 124) nil nil nil nil 1) (om-load-boxcall (quote bastype) "aux" (quote t) (quote nil) (om-make-point 90 52) (om-make-point 41 32) 100 "100" nil) (om-load-boxcall (quote genfun) "OM*" (quote om*) (quote ((om-load-inputfun (quote input-funbox) "number or list" "ARG1" 0) (om-load-inputfun (quote input-funbox) "number or list" "ARG2" 0))) (om-make-point 36 108) nil nil nil nil 1) (om-load-boxin "input" 0 (om-make-point 5 45) "" nil nil nil))) (quote ((2 0 0 0 nil 0) (4 0 2 0 nil 0) (1 0 2 1 nil 0) (5 0 4 0 nil 0) (3 0 4 1 nil 0))) 6.080003 nil "" (om-make-point 0 0) (om-make-point 500 377)) (quote ((om-load-inputfun (quote input-funbox) "" "input" nil))) (om-make-point 16 494) nil (list (list (list 6000 6400 6800) (list 6300 6700 7100) (list 6400 6800 7200) (list 6700 7100 7500) (list 7000 7400 7800))) nil "base_C4") (om-load-boxcall (quote bastype) "aux 4" (quote t) (quote nil) (om-make-point 464 65) (om-make-point 27 32) 1 "1" nil) (om-load-boxcall (quote bastype) "aux 3" (quote t) (quote nil) (om-make-point 385 18) (om-make-point 27 32) 3 "3" nil) (om-load-boxcall (quote bastype) "aux 2" (quote t) (quote nil) (om-make-point 252 52) (om-make-point 34 32) 12 "12" nil) (om-load-editor-box1 "N-CERCLE" (quote n-cercle) (quote ((om-load-inputfun (quote input-funbox) "object" "self" nil) (om-load-inputfun (quote input-funbox) "" "n" 12) (om-load-inputfun (quote input-funbox) "" "puntos" (list 1 5 7 9)))) (om-make-point 75 229) (om-make-point 109 117) (if (find-class (quote n-cercle) nil) (make-instance (quote n-cercle) :n 12 :puntos (list (list 0 4 8)) :from-file t)) nil nil (pairlis (quote (winsize winpos)) (list (om-make-point 335 275) (om-make-point 10 40))) t nil nil nil) (om-load-boxcall (quote genfun) "FAMILLE" (quote famille) (quote ((om-load-inputfun (quote input-funbox) "Zn" "N" 12) (om-load-inputfunmenu1 (quote input-funmenu) "familly" "FAMILLY" "tid" (list (list "tac" "tac") (list "tai" "tai") (list "tic" "tic") (list "ttl" "ttl") (list "tp" "tp") (list "tid" "tid"))) (om-load-inputfun (quote input-funbox) "number of elements" "K" 6) (om-load-inputfun (quote input-funbox) "howmany answers" "HOWMANY" 5))) (om-make-point 305 82) nil nil nil nil 1))) (quote ((1 0 0 0 nil 0) (56 1 1 0 nil 0) (10 0 8 1 nil 0) (12 0 10 0 nil 0) (9 0 10 1 nil 0) (11 0 12 0 nil 0) (13 0 12 1 nil 0) (14 0 13 0 nil 0) (38 1 14 0 nil 0) (14 0 15 1 nil 0) (8 0 15 2 nil 0) (22 0 21 0 nil 0) (18 0 22 0 nil 0) (20 0 22 1 nil 0) (26 0 25 0 nil 0) (24 0 26 1 nil 0) (31 0 29 0 nil 0) (30 0 31 1 nil 0) (62 0 36 0 nil 0) (39 0 38 1 nil 0) (37 0 38 2 nil 0) (47 0 39 0 nil 0) (42 0 40 2 nil 5) (44 2 42 0 nil 4) (41 0 42 1 nil 0) (47 0 43 0 nil 0) (46 0 44 2 nil 4) (49 2 46 0 nil 3) (45 0 46 1 nil 0) (61 2 47 0 nil 1) (52 2 47 1 ((om-make-point 407 350) (om-make-point 319 387) (om-make-point 283 386) (om-make-point 283 423)) 2) (49 2 47 2 ((om-make-point 647 352) (om-make-point 626 366) (om-make-point 406 369) (om-make-point 326 423)) 3) (44 2 47 3 ((om-make-point 900 350) (om-make-point 832 380) (om-make-point 493 380) (om-make-point 369 423)) 4) (40 2 47 4 ((om-make-point 1177 351) (om-make-point 1177 387) (om-make-point 505 394) (om-make-point 412 423)) 5) (51 0 49 2 nil 3) (52 2 51 0 nil 2) (50 0 51 1 nil 0) (54 0 52 2 nil 2) (61 2 54 0 nil 1) (53 0 54 1 nil 0) (57 0 56 1 nil 0) (55 0 56 2 nil 0) (47 0 57 0 nil 0) (32 0 61 2 nil 0) (60 0 62 0 nil 0) (48 0 62 1 nil 0) (59 0 62 2 nil 0) (58 0 62 3 nil 0))) nil 6.080003))