; OM File Header - Saved 2014/04/25 13:30:11
; (6.080003 :patc (om-make-point 10 10) (om-make-point 0 21) (om-make-point 1360 698) "" 183 0 "2014/04/24 21:48:20" "2014/04/25 13:30:11")
; End File Header
(in-package :om)(load-lib-for (quote nil))(setf *om-current-persistent* (om-load-patch1 "escalas_por_intervalos" (quote ((om-load-editor-box1 "CHORD-SEQ 7" (quote chord-seq) (quote ((om-load-inputfun (quote input-funbox) "object" "self" nil) (om-load-inputfun (quote input-funbox) "pitches (mc): list or list of lists" "lmidic" (list 6000)) (om-load-inputfun (quote input-funbox) "onsets (ms): list" "lonset" (list 0 300)) (om-load-inputfun (quote input-funbox) "durations (ms): list or list of lists" "ldur" (list 1000)) (om-load-inputfun (quote input-funbox) "velocities (0-127): list or list of lists" "lvel" (list 100)) (om-load-inputfun (quote input-funbox) "offsets (ms): list or list of lists" "loffset" (list 0)) (om-load-inputfun (quote input-funbox) "MIDI channels (1-16): list or list of lists" "lchan" (list 1)) (om-load-inputfun (quote input-funbox) "relative chords duration (0-100)" "legato" 0))) (om-make-point 1069 582) (om-make-point 180 87) (let ((newobj (when (find-class (quote chord-seq) nil) (make-instance (quote chord-seq) :lmidic (quote ((6800) (6300) (7000) (6500) (6000) (6700) (6200) (6900) (6400) (7100) (6600) (6100) (6800))) :lonset (quote (0 300 600 900 1200 1500 1800 2100 2400 2700 3000 3300 3600 4600)) :ldur (quote ((1000) (1000) (1000) (1000) (1000) (1000) (1000) (1000) (1000) (1000) (1000) (1000) (1000))) :lvel (quote ((100) (100) (100) (100) (100) (100) (100) (100) (100) (100) (100) (100) (100))) :loffset (quote ((0) (0) (0) (0) (0) (0) (0) (0) (0) (0) (0) (0) (0))) :lchan (quote ((1) (1) (1) (1) (1) (1) (1) (1) (1) (1) (1) (1) (1))) :legato 0)))) (load-port-info newobj (quote ((0) (0) (0) (0) (0) (0) (0) (0) (0) (0) (0) (0) (0)))) (init-mus-color newobj (quote nil)) (set-extra-pairs newobj (quote nil)) (set-patch-pairs newobj (quote nil)) (set-name newobj nil) (set-tonalite newobj nil) newobj) nil nil (pairlis (quote (scale show-stems cursor-mode obj-mode score-mode winpos winsize mode grillestep notechancolor? zoom player inport outport deltapict cmnpref staff fontsize approx)) (list nil (quote t) (quote :normal) 1 0 (om-make-point 400 20) (om-make-point 370 280) 0 1000 nil 1 (quote :jackmidi) nil nil (om-make-point 0 0) (let ((newobj (make-instance (quote edition-values)))) (setf (paper-size newobj) (om-make-point 600 800)) (setf (top-margin newobj) 2) (setf (left-margin newobj) 1) (setf (right-margin newobj) 1) (setf (bottom-margin newobj) 1) (setf (orientation newobj) nil) (setf (scale newobj) nil) (setf (system-space newobj) (quote (1))) (setf (system-color newobj) (quote nil)) (setf (line-space newobj) 1) (setf (title newobj) nil) (setf (show-title? newobj) nil) (setf (show-page? newobj) nil) (setf (sheet-id newobj) nil) (setf (page-mode newobj) nil) newobj) (quote g) 24 2)) t nil nil nil) (om-load-boxcall (quote abstraction) "base_C4 6" (om-load-patch-abs1 "base_C4" (quote ((om-load-boxout "output" 0 (om-make-point 23 170) (quote ((om-load-inputfun (quote input-funbox) "" "out" nil))) nil nil) (om-load-boxcall (quote bastype) "aux 2" (quote t) (quote nil) (om-make-point 124 91) (om-make-point 48 32) 6000 "6000" nil) (om-load-boxcall (quote genfun) "OM+" (quote om+) (quote ((om-load-inputfun (quote input-funbox) "number or list" "ARG1" 0) (om-load-inputfun (quote input-funbox) "number or list" "ARG2" 0))) (om-make-point 63 124) nil nil nil nil 1) (om-load-boxcall (quote bastype) "aux" (quote t) (quote nil) (om-make-point 90 52) (om-make-point 41 32) 100 "100" nil) (om-load-boxcall (quote genfun) "OM*" (quote om*) (quote ((om-load-inputfun (quote input-funbox) "number or list" "ARG1" 0) (om-load-inputfun (quote input-funbox) "number or list" "ARG2" 0))) (om-make-point 36 108) nil nil nil nil 1) (om-load-boxin "input" 0 (om-make-point 5 45) "" nil nil nil))) (quote ((2 0 0 0 nil 0) (4 0 2 0 nil 0) (1 0 2 1 nil 0) (5 0 4 0 nil 0) (3 0 4 1 nil 0))) 6.080003 nil "" (om-make-point 200 200) (om-make-point 500 400)) (quote ((om-load-inputfun (quote input-funbox) "" "input" nil))) (om-make-point 966 597) nil (list (list 6800 6300 7000 6500 6000 6700 6200 6900 6400 7100 6600 6100 6800)) nil "base_C4") (om-load-boxcall (quote abstraction) "base_C4 5" (om-load-patch-abs1 "base_C4" (quote ((om-load-boxout "output" 0 (om-make-point 23 170) (quote ((om-load-inputfun (quote input-funbox) "" "out" nil))) nil nil) (om-load-boxcall (quote bastype) "aux 2" (quote t) (quote nil) (om-make-point 124 91) (om-make-point 48 32) 6000 "6000" nil) (om-load-boxcall (quote genfun) "OM+" (quote om+) (quote ((om-load-inputfun (quote input-funbox) "number or list" "ARG1" 0) (om-load-inputfun (quote input-funbox) "number or list" "ARG2" 0))) (om-make-point 63 124) nil nil nil nil 1) (om-load-boxcall (quote bastype) "aux" (quote t) (quote nil) (om-make-point 90 52) (om-make-point 41 32) 100 "100" nil) (om-load-boxcall (quote genfun) "OM*" (quote om*) (quote ((om-load-inputfun (quote input-funbox) "number or list" "ARG1" 0) (om-load-inputfun (quote input-funbox) "number or list" "ARG2" 0))) (om-make-point 36 108) nil nil nil nil 1) (om-load-boxin "input" 0 (om-make-point 5 45) "" nil nil nil))) (quote ((2 0 0 0 nil 0) (4 0 2 0 nil 0) (1 0 2 1 nil 0) (5 0 4 0 nil 0) (3 0 4 1 nil 0))) 6.080003 nil "" (om-make-point 200 200) (om-make-point 500 400)) (quote ((om-load-inputfun (quote input-funbox) "" "input" nil))) (om-make-point 288 487) nil (list (list 6000 6400 6800 7200)) nil "base_C4") (om-load-editor-box1 "CHORD-SEQ 6" (quote chord-seq) (quote ((om-load-inputfun (quote input-funbox) "object" "self" nil) (om-load-inputfun (quote input-funbox) "pitches (mc): list or list of lists" "lmidic" (list 6000)) (om-load-inputfun (quote input-funbox) "onsets (ms): list" "lonset" (list 0 300)) (om-load-inputfun (quote input-funbox) "durations (ms): list or list of lists" "ldur" (list 1000)) (om-load-inputfun (quote input-funbox) "velocities (0-127): list or list of lists" "lvel" (list 100)) (om-load-inputfun (quote input-funbox) "offsets (ms): list or list of lists" "loffset" (list 0)) (om-load-inputfun (quote input-funbox) "MIDI channels (1-16): list or list of lists" "lchan" (list 1)) (om-load-inputfun (quote input-funbox) "relative chords duration (0-100)" "legato" 0))) (om-make-point 339 573) (om-make-point 115 82) (let ((newobj (when (find-class (quote chord-seq) nil) (make-instance (quote chord-seq) :lmidic (quote ((6000) (6400) (6800) (7200))) :lonset (quote (0 300 600 900 1900)) :ldur (quote ((1000) (1000) (1000) (1000))) :lvel (quote ((100) (100) (100) (100))) :loffset (quote ((0) (0) (0) (0))) :lchan (quote ((1) (1) (1) (1))) :legato 0)))) (load-port-info newobj (quote ((0) (0) (0) (0)))) (init-mus-color newobj (quote nil)) (set-extra-pairs newobj (quote nil)) (set-patch-pairs newobj (quote nil)) (set-name newobj nil) (set-tonalite newobj nil) newobj) nil nil (pairlis (quote (scale show-stems cursor-mode obj-mode score-mode winpos winsize mode grillestep notechancolor? zoom player inport outport deltapict cmnpref staff fontsize approx)) (list nil (quote t) (quote :normal) 1 0 (om-make-point 400 20) (om-make-point 370 280) 0 1000 nil 1 (quote :jackmidi) nil nil (om-make-point 0 0) (let ((newobj (make-instance (quote edition-values)))) (setf (paper-size newobj) (om-make-point 600 800)) (setf (top-margin newobj) 2) (setf (left-margin newobj) 1) (setf (right-margin newobj) 1) (setf (bottom-margin newobj) 1) (setf (orientation newobj) nil) (setf (scale newobj) nil) (setf (system-space newobj) (quote (1))) (setf (system-color newobj) (quote nil)) (setf (line-space newobj) 1) (setf (title newobj) nil) (setf (show-title? newobj) nil) (setf (show-page? newobj) nil) (setf (sheet-id newobj) nil) (setf (page-mode newobj) nil) newobj) (quote g) 24 2)) t nil nil nil) (om-load-boxcall (quote genfun) "X->DX" (quote x->dx) (quote ((om-load-inputfun (quote input-funbox) "a list of numbers" "SELF" 0))) (om-make-point 1262 549) nil nil nil nil 1) (om-load-boxcall (quote lispfun) "MAPCAR 3" (quote mapcar) (quote ((om-load-inputfun (quote input-funbox) "FUNCTION" "FUNCTION" nil) (om-load-inputfun (quote input-funbox) "LIST" "LIST" nil))) (om-make-point 827 629) nil nil nil nil 1) (om-load-boxcall (quote bastype) "aux 18" (quote t) (quote nil) (om-make-point 537 111) (om-make-point 27 32) 2 "2" nil) (om-load-editor-box1 "TEXT-BOX 11" (quote text-box) (quote ((om-load-inputfun (quote input-funbox) "dialog-item text (string)" "text" "untitled"))) (om-make-point 451 169) (om-make-point 103 50) (om-make-dialog-item (quote text-box) (om-make-point 1 1) (om-make-point 83 23) "(2 5 8 11)" :font (om-make-font "DejaVu Sans" 11.0D0 :family "DejaVu Sans" :style (quote (:plain)) :mode (quote nil))) nil nil (pairlis (quote (winsize winpos)) (list (om-make-point 335 275) (om-make-point 10 40))) t nil nil nil) (om-load-boxcall (quote genfun) "OM+ 3" (quote om+) (quote ((om-load-inputfun (quote input-funbox) "number or list" "ARG1" 0) (om-load-inputfun (quote input-funbox) "number or list" "ARG2" 0))) (om-make-point 489 123) nil nil nil nil 1) (om-load-boxcall (quote bastype) "aux 17" (quote t) (quote nil) (om-make-point 877 578) (om-make-point 34 32) 12 "12" nil) (om-load-boxcall (quote lispfun) "MOD 3" (quote mod) (quote ((om-load-inputfun (quote input-funbox) "X" "X" nil) (om-load-inputfun (quote input-funbox) "Y" "Y" 12))) (om-make-point 830 577) nil nil "l" nil 1) (om-load-boxcall (quote bastype) "aux 16" (quote t) (quote nil) (om-make-point 790 581) (om-make-point 27 32) 8 "8" nil) (om-load-boxcall (quote genfun) "OM+ 2" (quote om+) (quote ((om-load-inputfun (quote input-funbox) "number or list" "ARG1" 0) (om-load-inputfun (quote input-funbox) "number or list" "ARG2" 0))) (om-make-point 780 611) (om-make-point 23 35) nil nil nil 1) (om-load-editor-box1 "TEXT-BOX 9" (quote text-box) (quote ((om-load-inputfun (quote input-funbox) "dialog-item text (string)" "text" "untitled"))) (om-make-point 317 255) (om-make-point 103 50) (om-make-dialog-item (quote text-box) (om-make-point 1 1) (om-make-point 83 23) "(1 4 7 10)" :font (om-make-font "DejaVu Sans" 11.0D0 :family "DejaVu Sans" :style (quote (:plain)) :mode (quote nil))) nil nil (pairlis (quote (winsize winpos)) (list (om-make-point 335 275) (om-make-point 10 40))) t nil nil nil) (om-load-boxcall (quote bastype) "aux 15" (quote t) (quote nil) (om-make-point 403 197) (om-make-point 27 32) 1 "1" nil) (om-load-boxcall (quote genfun) "OM+" (quote om+) (quote ((om-load-inputfun (quote input-funbox) "number or list" "ARG1" 0) (om-load-inputfun (quote input-funbox) "number or list" "ARG2" 0))) (om-make-point 355 209) nil nil nil nil 1) (om-load-boxcall (quote genfun) "INV" (quote inv) (quote ((om-load-inputfunmenu1 (quote input-funmenu) "" "TYPE" (quote :integer) (list (list "integer" (quote :integer)) (list "pitch" (quote :pitch)))) (om-load-inputfun (quote input-funbox) "" "SET" (list 0 1 2 7)))) (om-make-point 580 435) nil nil nil nil 1) (om-load-editor-box1 "TEXT-BOX 8" (quote text-box) (quote ((om-load-inputfun (quote input-funbox) "dialog-item text (string)" "text" "untitled"))) (om-make-point 531 580) (om-make-point 203 53) (om-make-dialog-item (quote text-box) (om-make-point 1 1) (om-make-point 183 26) "(0 7 2 9 4 11 6 1 8 3 10 5 0)" :font (om-make-font "DejaVu Sans" 11.0D0 :family "DejaVu Sans" :style (quote (:plain)) :mode (quote nil))) nil nil (pairlis (quote (winsize winpos)) (list (om-make-point 335 275) (om-make-point 10 40))) t nil nil nil) (om-load-editor-box1 "CHORD-SEQ 5" (quote chord-seq) (quote ((om-load-inputfun (quote input-funbox) "object" "self" nil) (om-load-inputfun (quote input-funbox) "pitches (mc): list or list of lists" "lmidic" (list 6000)) (om-load-inputfun (quote input-funbox) "onsets (ms): list" "lonset" (list 0 300)) (om-load-inputfun (quote input-funbox) "durations (ms): list or list of lists" "ldur" (list 1000)) (om-load-inputfun (quote input-funbox) "velocities (0-127): list or list of lists" "lvel" (list 100)) (om-load-inputfun (quote input-funbox) "offsets (ms): list or list of lists" "loffset" (list 0)) (om-load-inputfun (quote input-funbox) "MIDI channels (1-16): list or list of lists" "lchan" (list 1)) (om-load-inputfun (quote input-funbox) "relative chords duration (0-100)" "legato" 0))) (om-make-point 722 464) (om-make-point 259 99) (let ((newobj (when (find-class (quote chord-seq) nil) (make-instance (quote chord-seq) :lmidic (quote ((6000) (6500) (7000) (6300) (6800) (6100) (6600) (7100) (6400) (6900) (6200) (6700) (6000))) :lonset (quote (0 300 600 900 1200 1500 1800 2100 2400 2700 3000 3300 3600 4600)) :ldur (quote ((1000) (1000) (1000) (1000) (1000) (1000) (1000) (1000) (1000) (1000) (1000) (1000) (1000))) :lvel (quote ((100) (100) (100) (100) (100) (100) (100) (100) (100) (100) (100) (100) (100))) :loffset (quote ((0) (0) (0) (0) (0) (0) (0) (0) (0) (0) (0) (0) (0))) :lchan (quote ((1) (1) (1) (1) (1) (1) (1) (1) (1) (1) (1) (1) (1))) :legato 0)))) (load-port-info newobj (quote ((0) (0) (0) (0) (0) (0) (0) (0) (0) (0) (0) (0) (0)))) (init-mus-color newobj (quote nil)) (set-extra-pairs newobj (quote nil)) (set-patch-pairs newobj (quote nil)) (set-name newobj nil) (set-tonalite newobj nil) newobj) "x" nil (pairlis (quote (scale show-stems cursor-mode obj-mode score-mode winpos winsize mode grillestep notechancolor? zoom player inport outport deltapict cmnpref staff fontsize approx)) (list nil (quote t) (quote :normal) 1 0 (om-make-point 400 20) (om-make-point 370 280) 0 1000 nil 1 (quote :jackmidi) nil nil (om-make-point 0 0) (let ((newobj (make-instance (quote edition-values)))) (setf (paper-size newobj) (om-make-point 600 800)) (setf (top-margin newobj) 2) (setf (left-margin newobj) 1) (setf (right-margin newobj) 1) (setf (bottom-margin newobj) 1) (setf (orientation newobj) nil) (setf (scale newobj) nil) (setf (system-space newobj) (quote (1))) (setf (system-color newobj) (quote nil)) (setf (line-space newobj) 1) (setf (title newobj) nil) (setf (show-title? newobj) nil) (setf (show-page? newobj) nil) (setf (sheet-id newobj) nil) (setf (page-mode newobj) nil) newobj) (quote g) 24 2)) t nil nil nil) (om-load-boxcall (quote lispfun) "REVERSE" (quote reverse) (quote ((om-load-inputfun (quote input-funbox) "SEQUENCE" "SEQUENCE" nil))) (om-make-point 1129 526) nil nil nil nil 1) (om-load-editor-box1 "TEXT-BOX 7" (quote text-box) (quote ((om-load-inputfun (quote input-funbox) "dialog-item text (string)" "text" "untitled"))) (om-make-point 804 241) (om-make-point 45 50) (om-make-dialog-item (quote text-box) (om-make-point 1 1) (om-make-point 25 23) "13" :font (om-make-font "DejaVu Sans" 11.0D0 :family "DejaVu Sans" :style (quote (:plain)) :mode (quote nil))) "x" nil (pairlis (quote (winsize winpos)) (list (om-make-point 335 275) (om-make-point 10 40))) t nil nil nil) (om-load-boxcall (quote lispfun) "LENGTH" (quote length) (quote ((om-load-inputfun (quote input-funbox) "SEQUENCE" "SEQUENCE" nil))) (om-make-point 859 210) nil nil nil nil 1) (om-load-boxcomment "comment 5" (om-make-point 240 43) (quote "serie por quartas justas") "" (om-make-point 644 17) nil (om-make-color 0.89829827S0 0.037186146S0 0.037186146S0) (om-make-font "DejaVu Sans" 18.666666666666665D0 :family "DejaVu Sans" :style (quote (:plain)) :mode (quote nil))) (om-load-boxcall (quote abstraction) "base_C4 4" (om-load-patch-abs1 "base_C4" (quote ((om-load-boxout "output" 0 (om-make-point 23 170) (quote ((om-load-inputfun (quote input-funbox) "" "out" nil))) nil nil) (om-load-boxcall (quote bastype) "aux 2" (quote t) (quote nil) (om-make-point 124 91) (om-make-point 48 32) 6000 "6000" nil) (om-load-boxcall (quote genfun) "OM+" (quote om+) (quote ((om-load-inputfun (quote input-funbox) "number or list" "ARG1" 0) (om-load-inputfun (quote input-funbox) "number or list" "ARG2" 0))) (om-make-point 63 124) nil nil nil nil 1) (om-load-boxcall (quote bastype) "aux" (quote t) (quote nil) (om-make-point 90 52) (om-make-point 41 32) 100 "100" nil) (om-load-boxcall (quote genfun) "OM*" (quote om*) (quote ((om-load-inputfun (quote input-funbox) "number or list" "ARG1" 0) (om-load-inputfun (quote input-funbox) "number or list" "ARG2" 0))) (om-make-point 36 108) nil nil nil nil 1) (om-load-boxin "input" 0 (om-make-point 5 45) "" nil nil nil))) (quote ((2 0 0 0 nil 0) (4 0 2 0 nil 0) (1 0 2 1 nil 0) (5 0 4 0 nil 0) (3 0 4 1 nil 0))) 6.080003 nil "" (om-make-point 200 200) (om-make-point 500 400)) (quote ((om-load-inputfun (quote input-funbox) "" "input" nil))) (om-make-point 1174 336) nil (list (list 6000 6700 6200 6900 6400 7100 6600 6100 6800 6300 7000 6500 6000)) nil "base_C4") (om-load-editor-box1 "CHORD-SEQ 4" (quote chord-seq) (quote ((om-load-inputfun (quote input-funbox) "object" "self" nil) (om-load-inputfun (quote input-funbox) "pitches (mc): list or list of lists" "lmidic" (list 6000)) (om-load-inputfun (quote input-funbox) "onsets (ms): list" "lonset" (list 0 300)) (om-load-inputfun (quote input-funbox) "durations (ms): list or list of lists" "ldur" (list 1000)) (om-load-inputfun (quote input-funbox) "velocities (0-127): list or list of lists" "lvel" (list 100)) (om-load-inputfun (quote input-funbox) "offsets (ms): list or list of lists" "loffset" (list 0)) (om-load-inputfun (quote input-funbox) "MIDI channels (1-16): list or list of lists" "lchan" (list 1)) (om-load-inputfun (quote input-funbox) "relative chords duration (0-100)" "legato" 0))) (om-make-point 1048 414) (om-make-point 259 99) (let ((newobj (when (find-class (quote chord-seq) nil) (make-instance (quote chord-seq) :lmidic (quote ((6000) (6700) (6200) (6900) (6400) (7100) (6600) (6100) (6800) (6300) (7000) (6500) (6000))) :lonset (quote (0 300 600 900 1200 1500 1800 2100 2400 2700 3000 3300 3600 4600)) :ldur (quote ((1000) (1000) (1000) (1000) (1000) (1000) (1000) (1000) (1000) (1000) (1000) (1000) (1000))) :lvel (quote ((100) (100) (100) (100) (100) (100) (100) (100) (100) (100) (100) (100) (100))) :loffset (quote ((0) (0) (0) (0) (0) (0) (0) (0) (0) (0) (0) (0) (0))) :lchan (quote ((1) (1) (1) (1) (1) (1) (1) (1) (1) (1) (1) (1) (1))) :legato 0)))) (load-port-info newobj (quote ((0) (0) (0) (0) (0) (0) (0) (0) (0) (0) (0) (0) (0)))) (init-mus-color newobj (quote nil)) (set-extra-pairs newobj (quote nil)) (set-patch-pairs newobj (quote nil)) (set-name newobj nil) (set-tonalite newobj nil) newobj) "x" nil (pairlis (quote (scale show-stems cursor-mode obj-mode score-mode winpos winsize mode grillestep notechancolor? zoom player inport outport deltapict cmnpref staff fontsize approx)) (list nil (quote t) (quote :normal) 1 0 (om-make-point 400 20) (om-make-point 370 280) 0 1000 nil 1 (quote :jackmidi) nil nil (om-make-point 0 0) (let ((newobj (make-instance (quote edition-values)))) (setf (paper-size newobj) (om-make-point 600 800)) (setf (top-margin newobj) 2) (setf (left-margin newobj) 1) (setf (right-margin newobj) 1) (setf (bottom-margin newobj) 1) (setf (orientation newobj) nil) (setf (scale newobj) nil) (setf (system-space newobj) (quote (1))) (setf (system-color newobj) (quote nil)) (setf (line-space newobj) 1) (setf (title newobj) nil) (setf (show-title? newobj) nil) (setf (show-page? newobj) nil) (setf (sheet-id newobj) nil) (setf (page-mode newobj) nil) newobj) (quote g) 24 2)) t nil nil nil) (om-load-boxcall (quote bastype) "aux 14" (quote t) (quote nil) (om-make-point 1137 86) (om-make-point 160 32) (list 7 7 7 7 7 7 7 7 7 7 7 7) "(7 7 7 7 7 7 7 7 7 7 7 7 )" nil) (om-load-boxcall (quote bastype) "aux 13" (quote t) (quote nil) (om-make-point 964 121) (om-make-point 34 32) 12 "12" nil) (om-load-boxcall (quote lispfun) "MAPCAR 2" (quote mapcar) (quote ((om-load-inputfun (quote input-funbox) "FUNCTION" "FUNCTION" nil) (om-load-inputfun (quote input-funbox) "LIST" "LIST" nil))) (om-make-point 1120 213) nil nil nil nil 1) (om-load-boxcall (quote lispfun) "MOD 2" (quote mod) (quote ((om-load-inputfun (quote input-funbox) "X" "X" nil) (om-load-inputfun (quote input-funbox) "Y" "Y" 12))) (om-make-point 1062 183) nil nil "l" nil 1) (om-load-boxcall (quote genfun) "DX->X 6" (quote dx->x) (quote ((om-load-inputfun (quote input-funbox) "a number" "START" 0) (om-load-inputfun (quote input-funbox) "a list of numbers" "LIST" (list 1 1)))) (om-make-point 1184 139) nil nil nil nil 1) (om-load-boxcall (quote bastype) "aux 12" (quote t) (quote nil) (om-make-point 1103 109) (om-make-point 27 32) 0 "0" nil) (om-load-editor-box1 "TEXT-BOX 6" (quote text-box) (quote ((om-load-inputfun (quote input-funbox) "dialog-item text (string)" "text" "untitled"))) (om-make-point 1021 282) (om-make-point 260 50) (om-make-dialog-item (quote text-box) (om-make-point 1 1) (om-make-point 240 23) "(0 7 2 9 4 11 6 1 8 3 10 5 0)" :font (om-make-font "DejaVu Sans" 11.0D0 :family "DejaVu Sans" :style (quote (:plain)) :mode (quote nil))) "x" nil (pairlis (quote (winsize winpos)) (list (om-make-point 335 275) (om-make-point 10 40))) t nil nil nil) (om-load-boxcomment "comment 6" (om-make-point 240 43) (quote "serie por quintas justas") "" (om-make-point 956 25) nil (om-make-color 0.89829827S0 0.037186146S0 0.037186146S0) (om-make-font "DejaVu Sans" 18.666666666666665D0 :family "DejaVu Sans" :style (quote (:plain)) :mode (quote nil))) (om-load-boxcall (quote abstraction) "base_C4 3" (om-load-patch-abs1 "base_C4" (quote ((om-load-boxout "output" 0 (om-make-point 23 170) (quote ((om-load-inputfun (quote input-funbox) "" "out" nil))) nil nil) (om-load-boxcall (quote bastype) "aux 2" (quote t) (quote nil) (om-make-point 124 91) (om-make-point 48 32) 6000 "6000" nil) (om-load-boxcall (quote genfun) "OM+" (quote om+) (quote ((om-load-inputfun (quote input-funbox) "number or list" "ARG1" 0) (om-load-inputfun (quote input-funbox) "number or list" "ARG2" 0))) (om-make-point 63 124) nil nil nil nil 1) (om-load-boxcall (quote bastype) "aux" (quote t) (quote nil) (om-make-point 90 52) (om-make-point 41 32) 100 "100" nil) (om-load-boxcall (quote genfun) "OM*" (quote om*) (quote ((om-load-inputfun (quote input-funbox) "number or list" "ARG1" 0) (om-load-inputfun (quote input-funbox) "number or list" "ARG2" 0))) (om-make-point 36 108) nil nil nil nil 1) (om-load-boxin "input" 0 (om-make-point 5 45) "" nil nil nil))) (quote ((2 0 0 0 nil 0) (4 0 2 0 nil 0) (1 0 2 1 nil 0) (5 0 4 0 nil 0) (3 0 4 1 nil 0))) 6.080003 nil "" (om-make-point 200 200) (om-make-point 500 400)) (quote ((om-load-inputfun (quote input-funbox) "" "input" nil))) (om-make-point 624 337) nil (list (list 6000 6500 7000 6300 6800 6100 6600 7100 6400 6900 6200 6700 6000)) nil "base_C4") (om-load-editor-box1 "CHORD-SEQ 3" (quote chord-seq) (quote ((om-load-inputfun (quote input-funbox) "object" "self" nil) (om-load-inputfun (quote input-funbox) "pitches (mc): list or list of lists" "lmidic" (list 6000)) (om-load-inputfun (quote input-funbox) "onsets (ms): list" "lonset" (list 0 300)) (om-load-inputfun (quote input-funbox) "durations (ms): list or list of lists" "ldur" (list 1000)) (om-load-inputfun (quote input-funbox) "velocities (0-127): list or list of lists" "lvel" (list 100)) (om-load-inputfun (quote input-funbox) "offsets (ms): list or list of lists" "loffset" (list 0)) (om-load-inputfun (quote input-funbox) "MIDI channels (1-16): list or list of lists" "lchan" (list 1)) (om-load-inputfun (quote input-funbox) "relative chords duration (0-100)" "legato" 0))) (om-make-point 722 344) (om-make-point 259 99) (let ((newobj (when (find-class (quote chord-seq) nil) (make-instance (quote chord-seq) :lmidic (quote ((6000) (6500) (7000) (6300) (6800) (6100) (6600) (7100) (6400) (6900) (6200) (6700) (6000))) :lonset (quote (0 300 600 900 1200 1500 1800 2100 2400 2700 3000 3300 3600 4600)) :ldur (quote ((1000) (1000) (1000) (1000) (1000) (1000) (1000) (1000) (1000) (1000) (1000) (1000) (1000))) :lvel (quote ((100) (100) (100) (100) (100) (100) (100) (100) (100) (100) (100) (100) (100))) :loffset (quote ((0) (0) (0) (0) (0) (0) (0) (0) (0) (0) (0) (0) (0))) :lchan (quote ((1) (1) (1) (1) (1) (1) (1) (1) (1) (1) (1) (1) (1))) :legato 0)))) (load-port-info newobj (quote ((0) (0) (0) (0) (0) (0) (0) (0) (0) (0) (0) (0) (0)))) (init-mus-color newobj (quote nil)) (set-extra-pairs newobj (quote nil)) (set-patch-pairs newobj (quote nil)) (set-name newobj nil) (set-tonalite newobj nil) newobj) "x" nil (pairlis (quote (scale show-stems cursor-mode obj-mode score-mode winpos winsize mode grillestep notechancolor? zoom player inport outport deltapict cmnpref staff fontsize approx)) (list nil (quote t) (quote :normal) 1 0 (om-make-point 400 20) (om-make-point 370 280) 0 1000 nil 1 (quote :jackmidi) nil nil (om-make-point 0 0) (let ((newobj (make-instance (quote edition-values)))) (setf (paper-size newobj) (om-make-point 600 800)) (setf (top-margin newobj) 2) (setf (left-margin newobj) 1) (setf (right-margin newobj) 1) (setf (bottom-margin newobj) 1) (setf (orientation newobj) nil) (setf (scale newobj) nil) (setf (system-space newobj) (quote (1))) (setf (system-color newobj) (quote nil)) (setf (line-space newobj) 1) (setf (title newobj) nil) (setf (show-title? newobj) nil) (setf (show-page? newobj) nil) (setf (sheet-id newobj) nil) (setf (page-mode newobj) nil) newobj) (quote g) 24 2)) t nil nil nil) (om-load-boxcall (quote bastype) "aux 11" (quote t) (quote nil) (om-make-point 616 102) (om-make-point 34 32) 12 "12" nil) (om-load-boxcall (quote lispfun) "MAPCAR" (quote mapcar) (quote ((om-load-inputfun (quote input-funbox) "FUNCTION" "FUNCTION" nil) (om-load-inputfun (quote input-funbox) "LIST" "LIST" nil))) (om-make-point 697 185) (om-make-point 51 44) nil nil nil 1) (om-load-boxcall (quote lispfun) "MOD" (quote mod) (quote ((om-load-inputfun (quote input-funbox) "X" "X" nil) (om-load-inputfun (quote input-funbox) "Y" "Y" 12))) (om-make-point 590 163) nil nil "l" nil 1) (om-load-boxcall (quote genfun) "DX->X 5" (quote dx->x) (quote ((om-load-inputfun (quote input-funbox) "a number" "START" 0) (om-load-inputfun (quote input-funbox) "a list of numbers" "LIST" (list 1 1)))) (om-make-point 695 113) nil nil nil nil 1) (om-load-boxcall (quote bastype) "aux 10" (quote t) (quote nil) (om-make-point 653 58) (om-make-point 27 32) 0 "0" nil) (om-load-editor-box1 "TEXT-BOX 5" (quote text-box) (quote ((om-load-inputfun (quote input-funbox) "dialog-item text (string)" "text" "untitled"))) (om-make-point 520 239) (om-make-point 203 53) (om-make-dialog-item (quote text-box) (om-make-point 1 1) (om-make-point 183 26) "(0 5 10 3 8 1 6 11 4 9 2 7 0)" :font (om-make-font "DejaVu Sans" 11.0D0 :family "DejaVu Sans" :style (quote (:plain)) :mode (quote nil))) "x" nil (pairlis (quote (winsize winpos)) (list (om-make-point 335 275) (om-make-point 10 40))) t nil nil nil) (om-load-boxcall (quote bastype) "aux 9" (quote t) (quote nil) (om-make-point 721 66) (om-make-point 160 32) (list 5 5 5 5 5 5 5 5 5 5 5 5) "(5 5 5 5 5 5 5 5 5 5 5 5 )" nil) (om-load-boxcall (quote abstraction) "base_C4 2" (om-load-patch-abs1 "base_C4" (quote ((om-load-boxout "output" 0 (om-make-point 23 170) (quote ((om-load-inputfun (quote input-funbox) "" "out" nil))) nil nil) (om-load-boxcall (quote bastype) "aux 2" (quote t) (quote nil) (om-make-point 124 91) (om-make-point 48 32) 6000 "6000" nil) (om-load-boxcall (quote genfun) "OM+" (quote om+) (quote ((om-load-inputfun (quote input-funbox) "number or list" "ARG1" 0) (om-load-inputfun (quote input-funbox) "number or list" "ARG2" 0))) (om-make-point 63 124) nil nil nil nil 1) (om-load-boxcall (quote bastype) "aux" (quote t) (quote nil) (om-make-point 90 52) (om-make-point 41 32) 100 "100" nil) (om-load-boxcall (quote genfun) "OM*" (quote om*) (quote ((om-load-inputfun (quote input-funbox) "number or list" "ARG1" 0) (om-load-inputfun (quote input-funbox) "number or list" "ARG2" 0))) (om-make-point 36 108) nil nil nil nil 1) (om-load-boxin "input" 0 (om-make-point 5 45) "" nil nil nil))) (quote ((2 0 0 0 nil 0) (4 0 2 0 nil 0) (1 0 2 1 nil 0) (5 0 4 0 nil 0) (3 0 4 1 nil 0))) 6.080003 nil "" (om-make-point 200 200) (om-make-point 500 400)) (quote ((om-load-inputfun (quote input-funbox) "" "input" nil))) (om-make-point 21 576) nil (list (list 6000 6200 6400 6600 6800 7000 7200)) nil "base_C4") (om-load-editor-box1 "CHORD-SEQ 2" (quote chord-seq) (quote ((om-load-inputfun (quote input-funbox) "object" "self" nil) (om-load-inputfun (quote input-funbox) "pitches (mc): list or list of lists" "lmidic" (list 6000)) (om-load-inputfun (quote input-funbox) "onsets (ms): list" "lonset" (list 0 300)) (om-load-inputfun (quote input-funbox) "durations (ms): list or list of lists" "ldur" (list 1000)) (om-load-inputfun (quote input-funbox) "velocities (0-127): list or list of lists" "lvel" (list 100)) (om-load-inputfun (quote input-funbox) "offsets (ms): list or list of lists" "loffset" (list 0)) (om-load-inputfun (quote input-funbox) "MIDI channels (1-16): list or list of lists" "lchan" (list 1)) (om-load-inputfun (quote input-funbox) "relative chords duration (0-100)" "legato" 0))) (om-make-point 103 566) (om-make-point 180 87) (let ((newobj (when (find-class (quote chord-seq) nil) (make-instance (quote chord-seq) :lmidic (quote ((6000) (6200) (6400) (6600) (6800) (7000) (7200))) :lonset (quote (0 300 600 900 1200 1500 1800 2800)) :ldur (quote ((1000) (1000) (1000) (1000) (1000) (1000) (1000))) :lvel (quote ((100) (100) (100) (100) (100) (100) (100))) :loffset (quote ((0) (0) (0) (0) (0) (0) (0))) :lchan (quote ((1) (1) (1) (1) (1) (1) (1))) :legato 0)))) (load-port-info newobj (quote ((0) (0) (0) (0) (0) (0) (0)))) (init-mus-color newobj (quote nil)) (set-extra-pairs newobj (quote nil)) (set-patch-pairs newobj (quote nil)) (set-name newobj nil) (set-tonalite newobj nil) newobj) "x" nil (pairlis (quote (scale show-stems cursor-mode obj-mode score-mode winpos winsize mode grillestep notechancolor? zoom player inport outport deltapict cmnpref staff fontsize approx)) (list nil (quote t) (quote :normal) 1 0 (om-make-point 400 20) (om-make-point 370 280) 0 1000 nil 1 (quote :jackmidi) nil nil (om-make-point 0 0) (let ((newobj (make-instance (quote edition-values)))) (setf (paper-size newobj) (om-make-point 600 800)) (setf (top-margin newobj) 2) (setf (left-margin newobj) 1) (setf (right-margin newobj) 1) (setf (bottom-margin newobj) 1) (setf (orientation newobj) nil) (setf (scale newobj) nil) (setf (system-space newobj) (quote (1))) (setf (system-color newobj) (quote nil)) (setf (line-space newobj) 1) (setf (title newobj) nil) (setf (show-title? newobj) nil) (setf (show-page? newobj) nil) (setf (sheet-id newobj) nil) (setf (page-mode newobj) nil) newobj) (quote g) 24 2)) t nil nil nil) (om-load-boxcall (quote abstraction) "base_C4" (om-load-patch-abs1 "base_C4" (quote ((om-load-boxout "output" 0 (om-make-point 23 170) (quote ((om-load-inputfun (quote input-funbox) "" "out" nil))) nil nil) (om-load-boxcall (quote bastype) "aux 2" (quote t) (quote nil) (om-make-point 124 91) (om-make-point 48 32) 6000 "6000" nil) (om-load-boxcall (quote genfun) "OM+" (quote om+) (quote ((om-load-inputfun (quote input-funbox) "number or list" "ARG1" 0) (om-load-inputfun (quote input-funbox) "number or list" "ARG2" 0))) (om-make-point 63 124) nil nil nil nil 1) (om-load-boxcall (quote bastype) "aux" (quote t) (quote nil) (om-make-point 90 52) (om-make-point 41 32) 100 "100" nil) (om-load-boxcall (quote genfun) "OM*" (quote om*) (quote ((om-load-inputfun (quote input-funbox) "number or list" "ARG1" 0) (om-load-inputfun (quote input-funbox) "number or list" "ARG2" 0))) (om-make-point 36 108) nil nil nil nil 1) (om-load-boxin "input" 0 (om-make-point 5 45) "" nil nil nil))) (quote ((2 0 0 0 nil 0) (4 0 2 0 nil 0) (1 0 2 1 nil 0) (5 0 4 0 nil 0) (3 0 4 1 nil 0))) 6.080003 nil "" (om-make-point 0 0) (om-make-point 295 188)) (quote ((om-load-inputfun (quote input-funbox) "" "input" nil))) (om-make-point 17 245) nil (list (list 6000 6200 6300 6500 6600 6800 6900 7100 7200)) nil "base_C4") (om-load-editor-box1 "CHORD-SEQ" (quote chord-seq) (quote ((om-load-inputfun (quote input-funbox) "object" "self" nil) (om-load-inputfun (quote input-funbox) "pitches (mc): list or list of lists" "lmidic" (list 6000)) (om-load-inputfun (quote input-funbox) "onsets (ms): list" "lonset" (list 0 300)) (om-load-inputfun (quote input-funbox) "durations (ms): list or list of lists" "ldur" (list 1000)) (om-load-inputfun (quote input-funbox) "velocities (0-127): list or list of lists" "lvel" (list 100)) (om-load-inputfun (quote input-funbox) "offsets (ms): list or list of lists" "loffset" (list 0)) (om-load-inputfun (quote input-funbox) "MIDI channels (1-16): list or list of lists" "lchan" (list 1)) (om-load-inputfun (quote input-funbox) "relative chords duration (0-100)" "legato" 0))) (om-make-point 111 235) (om-make-point 180 87) (let ((newobj (when (find-class (quote chord-seq) nil) (make-instance (quote chord-seq) :lmidic (quote ((6000) (6200) (6300) (6500) (6600) (6800) (6900) (7100) (7200))) :lonset (quote (0 300 600 900 1200 1500 1800 2100 2400 3400)) :ldur (quote ((1000) (1000) (1000) (1000) (1000) (1000) (1000) (1000) (1000))) :lvel (quote ((100) (100) (100) (100) (100) (100) (100) (100) (100))) :loffset (quote ((0) (0) (0) (0) (0) (0) (0) (0) (0))) :lchan (quote ((1) (1) (1) (1) (1) (1) (1) (1) (1))) :legato 0)))) (load-port-info newobj (quote ((0) (0) (0) (0) (0) (0) (0) (0) (0)))) (init-mus-color newobj (quote nil)) (set-extra-pairs newobj (quote nil)) (set-patch-pairs newobj (quote ((nil (om-load-patch-abs1 "patch" (quote nil) (quote nil) 6.080003 nil "" (om-make-point 200 200) (om-make-point 400 500)))))) (set-name newobj nil) (set-tonalite newobj nil) newobj) "x" nil (pairlis (quote (scale show-stems cursor-mode obj-mode score-mode winpos winsize mode grillestep notechancolor? zoom player inport outport deltapict cmnpref staff fontsize approx)) (list nil (quote t) (quote :normal) 1 0 (om-make-point 0 0) (om-make-point 370 280) 0 1000 nil 1 (quote :jackmidi) nil nil (om-make-point 0 0) (let ((newobj (make-instance (quote edition-values)))) (setf (paper-size newobj) (om-make-point 600 800)) (setf (top-margin newobj) 2) (setf (left-margin newobj) 1) (setf (right-margin newobj) 1) (setf (bottom-margin newobj) 1) (setf (orientation newobj) nil) (setf (scale newobj) nil) (setf (system-space newobj) (quote (1))) (setf (system-color newobj) (quote nil)) (setf (line-space newobj) 1) (setf (title newobj) nil) (setf (show-title? newobj) nil) (setf (show-page? newobj) nil) (setf (sheet-id newobj) nil) (setf (page-mode newobj) nil) newobj) (quote g) 24 2)) t nil nil nil) (om-load-boxcall (quote bastype) "aux 8" (quote t) (quote nil) (om-make-point 382 354) (om-make-point 57 32) (list 4 4 4) "(4 4 4)" nil) (om-load-boxcomment "comment 4" (om-make-point 150 43) (quote "terças maiores") "" (om-make-point 342 315) nil (om-make-color 0.89829827S0 0.037186146S0 0.037186146S0) (om-make-font "DejaVu Sans" 18.666666666666665D0 :family "DejaVu Sans" :style (quote (:plain)) :mode (quote nil))) (om-load-editor-box1 "TEXT-BOX 4" (quote text-box) (quote ((om-load-inputfun (quote input-funbox) "dialog-item text (string)" "text" "untitled"))) (om-make-point 402 459) (om-make-point 85 50) (om-make-dialog-item (quote text-box) (om-make-point 1 1) (om-make-point 65 23) "(0 4 8 12)" :font (om-make-font "DejaVu Sans" 11.0D0 :family "DejaVu Sans" :style (quote (:plain)) :mode (quote nil))) nil nil (pairlis (quote (winsize winpos)) (list (om-make-point 335 275) (om-make-point 10 40))) t nil nil nil) (om-load-boxcall (quote bastype) "aux 7" (quote t) (quote nil) (om-make-point 330 358) (om-make-point 27 32) 0 "0" nil) (om-load-boxcall (quote genfun) "DX->X 4" (quote dx->x) (quote ((om-load-inputfun (quote input-funbox) "a number" "START" 0) (om-load-inputfun (quote input-funbox) "a list of numbers" "LIST" (list 1 1)))) (om-make-point 320 398) nil nil nil nil 1) (om-load-boxcall (quote bastype) "aux 6" (quote t) (quote nil) (om-make-point 430 76) (om-make-point 61 32) (list 3 3 3) "(3 3 3 )" nil) (om-load-boxcomment "comment 3" (om-make-point 150 43) (quote "terças menores") "" (om-make-point 380 27) nil (om-make-color 0.89829827S0 0.037186146S0 0.037186146S0) (om-make-font "DejaVu Sans" 18.666666666666665D0 :family "DejaVu Sans" :style (quote (:plain)) :mode (quote nil))) (om-load-editor-box1 "TEXT-BOX 3" (quote text-box) (quote ((om-load-inputfun (quote input-funbox) "dialog-item text (string)" "text" "untitled"))) (om-make-point 295 132) (om-make-point 103 50) (om-make-dialog-item (quote text-box) (om-make-point 1 1) (om-make-point 83 23) "(0 3 6 9)" :font (om-make-font "DejaVu Sans" 11.0D0 :family "DejaVu Sans" :style (quote (:plain)) :mode (quote nil))) nil nil (pairlis (quote (winsize winpos)) (list (om-make-point 335 275) (om-make-point 10 40))) t nil nil nil) (om-load-boxcall (quote bastype) "aux 5" (quote t) (quote nil) (om-make-point 349 13) (om-make-point 27 32) 0 "0" nil) (om-load-boxcall (quote genfun) "DX->X 3" (quote dx->x) (quote ((om-load-inputfun (quote input-funbox) "a number" "START" 0) (om-load-inputfun (quote input-funbox) "a list of numbers" "LIST" (list 1 1)))) (om-make-point 341 68) nil nil nil nil 1) (om-load-boxcall (quote bastype) "aux 4" (quote t) (quote nil) (om-make-point 152 385) (om-make-point 90 32) (list 2 2 2 2 2 2) "(2 2 2 2 2 2)" nil) (om-load-boxcomment "comment 2" (om-make-point 135 45) (quote "tons inteiros") "" (om-make-point 128 337) nil (om-make-color 0.89829827S0 0.037186146S0 0.037186146S0) (om-make-font "DejaVu Sans" 18.666666666666665D0 :family "DejaVu Sans" :style (quote (:plain)) :mode (quote nil))) (om-load-editor-box1 "TEXT-BOX 2" (quote text-box) (quote ((om-load-inputfun (quote input-funbox) "dialog-item text (string)" "text" "untitled"))) (om-make-point 39 490) (om-make-point 168 50) (om-make-dialog-item (quote text-box) (om-make-point 1 1) (om-make-point 148 23) "(0 2 4 6 8 10 12)" :font (om-make-font "DejaVu Sans" 11.0D0 :family "DejaVu Sans" :style (quote (:plain)) :mode (quote nil))) nil nil (pairlis (quote (winsize winpos)) (list (om-make-point 335 275) (om-make-point 10 40))) t nil nil nil) (om-load-boxcall (quote bastype) "aux 3" (quote t) (quote nil) (om-make-point 84 377) (om-make-point 27 32) 0 "0" nil) (om-load-boxcall (quote genfun) "DX->X 2" (quote dx->x) (quote ((om-load-inputfun (quote input-funbox) "a number" "START" 0) (om-load-inputfun (quote input-funbox) "a list of numbers" "LIST" (list 1 1)))) (om-make-point 86 422) nil nil nil nil 1) (om-load-boxcomment "comment" (om-make-point 113 40) (quote "octatônica") "" (om-make-point 146 9) nil (om-make-color 0.89829827S0 0.037186146S0 0.037186146S0) (om-make-font "DejaVu Sans" 18.666666666666665D0 :family "DejaVu Sans" :style (quote (:plain)) :mode (quote nil))) (om-load-boxcall (quote bastype) "aux 2" (quote t) (quote nil) (om-make-point 154 57) (om-make-point 112 32) (list 2 1 2 1 2 1 2 1) "(2 1 2 1 2 1 2 1)" nil) (om-load-editor-box1 "TEXT-BOX" (quote text-box) (quote ((om-load-inputfun (quote input-funbox) "dialog-item text (string)" "text" "untitled"))) (om-make-point 69 166) (om-make-point 168 50) (om-make-dialog-item (quote text-box) (om-make-point 1 1) (om-make-point 148 23) "(0 2 3 5 6 8 9 11 12)" :font (om-make-font "DejaVu Sans" 11.0D0 :family "DejaVu Sans" :style (quote (:plain)) :mode (quote nil))) nil nil (pairlis (quote (winsize winpos)) (list (om-make-point 335 275) (om-make-point 10 40))) t nil nil nil) (om-load-boxcall (quote bastype) "aux" (quote t) (quote nil) (om-make-point 87 49) (om-make-point 27 32) 0 "0" nil) (om-load-boxcall (quote genfun) "DX->X" (quote dx->x) (quote ((om-load-inputfun (quote input-funbox) "a number" "START" 0) (om-load-inputfun (quote input-funbox) "a list of numbers" "LIST" (list 1 1)))) (om-make-point 123 89) nil nil nil nil 1))) (quote ((1 0 0 1 nil 0) (5 0 1 0 nil 0) (48 0 2 0 nil 0) (2 0 3 1 nil 0) (10 0 5 0 nil 0) (12 0 5 1 nil 0) (8 0 7 0 nil 0) (53 0 8 0 nil 0) (6 0 8 1 nil 0) (9 0 10 1 nil 0) (17 0 12 0 nil 0) (11 0 12 1 nil 0) (15 0 13 0 nil 0) (53 0 15 0 nil 0) (14 0 15 1 nil 0) (40 0 16 1 nil 0) (16 0 17 0 nil 0) (19 0 18 1 nil 0) (24 1 19 0 nil 0) (21 0 20 0 nil 0) (40 0 21 0 ((om-make-point 620 290) (om-make-point 739 316) (om-make-point 766 189) (om-make-point 901 189) (om-make-point 881 210)) 0) (31 0 23 0 nil 0) (23 0 24 1 nil 0) (28 0 27 0 nil 0) (29 0 27 1 nil 0) (26 0 28 1 nil 0) (30 0 29 0 nil 0) (25 0 29 1 nil 0) (27 0 31 0 nil 0) (40 0 33 0 nil 0) (33 0 34 1 nil 0) (37 0 36 0 nil 0) (38 0 36 1 nil 0) (35 0 37 1 nil 0) (39 0 38 0 nil 0) (41 0 38 1 nil 0) (36 0 40 0 nil 0) (58 0 42 0 nil 0) (42 0 43 1 nil 0) (63 0 44 0 ((om-make-point 151 214) (om-make-point 150 224) (om-make-point 48 224) (om-make-point 45 245)) 0) (44 0 45 1 nil 0) (50 0 48 0 nil 0) (49 0 50 0 nil 0) (46 0 50 1 nil 0) (55 0 53 0 nil 0) (54 0 55 0 nil 0) (51 0 55 1 nil 0) (60 0 58 0 nil 0) (59 0 60 0 nil 0) (56 0 60 1 nil 0) (65 0 63 0 nil 0) (64 0 65 0 nil 0) (62 0 65 1 nil 0))) nil 6.080003))