; OM File Header - Saved 2015/03/10 18:12:03
; (6.080003 :patc (om-make-point 231 195) (om-make-point 0 0) (om-make-point 1364 612) "" 183 0 "2015/02/21 22:11:00" "2015/03/10 18:12:03")
; End File Header
(in-package :om)(load-lib-for (quote ("omlily")))(setf *om-current-persistent* (om-load-patch1 "mikro41_pentatonica" (quote ((om-load-boxcall (quote genfun) "OM->LILY" (quote om->lily) (quote ((om-load-inputfun (quote input-funbox) "self" "SELF" (quote t)))) (om-make-point 1458 550) nil nil nil nil 1) (om-load-boxcomment "comment 2" (om-make-point 339 96) (quote "Rotação 3 2 3 2 2 $Pentatônica Si") "" (om-make-point 539 2) nil (om-make-color 0 0 0) (om-make-font "DejaVu Sans" 31.998697916666665D0 :family "DejaVu Sans" :style (quote (:plain)) :mode (quote nil))) (om-load-boxcall (quote bastype) "aux 7" (quote t) (quote nil) (om-make-point 1770 376) (om-make-point 41 32) 120 "120" nil) (om-load-boxcall (quote bastype) "aux 6" (quote t) (quote nil) (om-make-point 1305 271) (om-make-point 38 32) 1/8 "1/8" nil) (om-load-boxcall (quote lispfun) "LENGTH" (quote length) (quote ((om-load-inputfun (quote input-funbox) "SEQUENCE" "SEQUENCE" nil))) (om-make-point 1479 362) nil nil nil nil 1) (om-load-boxcall (quote genfun) "REPEAT-N 3" (quote repeat-n) (quote ((om-load-inputfun (quote input-funbox) "something" "SELF" nil) (om-load-inputfun (quote input-funbox) "times" "N" 0))) (om-make-point 1255 320) nil nil nil nil 1) (om-load-boxcall (quote bastype) "aux 5" (quote t) (quote nil) (om-make-point 1340 403) (om-make-point 46 32) (list 3 4) "(3 4)" nil) (om-load-boxcall (quote genfun) "MKTREE" (quote mktree) (quote ((om-load-inputfun (quote input-funbox) "list of integer ratios" "RHYTHM" (list 1/4 1/4 1/4 1/4)) (om-load-inputfun (quote input-funbox) "list of time signatures" "TIMESIGNS" (list 3 4)))) (om-make-point 1274 393) nil nil nil nil 1) (om-load-editor-box1 "VOICE" (quote voice) (quote ((om-load-inputfun (quote input-funbox) "object" "self" nil) (om-load-inputfun (quote input-funbox) "a list representing a rhythm tree" "tree" (list (quote ?) (list (list (list 4 4) (list 1 1 1 1))))) (om-load-inputfun (quote input-funbox) "a chord object, a list of chords, a list of midics, a list of lists of midics..." "chords" (list (let ((thechord (make-instance (quote chord) :lmidic (quote (6000)) :ldur (quote (1000)) :lvel (quote (100)) :loffset (quote (0)) :lchan (quote (1))))) (load-port-info thechord (quote (0))) (init-mus-color thechord (quote nil)) (set-extra-pairs thechord (quote nil)) (set-tonalite thechord nil) thechord))) (om-load-inputfun (quote input-funbox) "frequency of the quarter-note (default 60/mn)" "tempo" 60) (om-load-inputfun (quote input-funbox) "overlapping percentage between every successive chords, calculated from the second chord's duration" "legato" 100) (om-load-inputfun (quote input-funbox) "sub lists (one sub list per chord) indicating notes to be tied to notes of the same value, in a next chord" "ties" nil))) (om-make-point 1463 436) (om-make-point 537 103) (let ((newobj (when (find-class (quote voice) nil) (make-instance (quote voice) :tree (quote (9 (((3 4) ((1 (1 1)) (1 (1 1)) (1 (1 1)))) ((3 4) ((1 (1 1)) (1 (1 1)) (1 (1 1)))) ((3 4) ((1 (1 1)) (1 (1 1)) (1 (1 1)))) ((3 4) ((1 (1 1)) (1 (1 1)) (1 (1 1)))) ((3 4) ((1 (1 1)) (1 (1 1)) (1 (1 1)))) ((3 4) ((1 (1 1)) (1 (1 1)) (1 (1 1)))) ((3 4) ((1 (1 1)) (1 (1 1)) (1 (1 1)))) ((3 4) ((1 (1 1)) (1 (1 1)) (1 (1 1)))) ((3 4) ((1 (1 1)) (1 (1 1)) (1 (1 1)))) ((3 4) ((1 (1 1)) (1 (1 1)) (1 (1 1)))) ((3 4) ((1 (1 1)) (1 (1 1)) (1 (1 1)))) ((3 4) ((1 (1 1)) (1 (1 -1)) -1))))) :chords (load-obj-list-from-save (quote ((let ((thechord (make-instance (quote chord) :lmidic (quote (6200 5500 7100)) :ldur (quote (250 250 250)) :lvel (quote (100 100 100)) :loffset (quote (0 0 0)) :lchan (quote (1 1 1))))) (load-port-info thechord (quote (0 0 0))) (init-mus-color thechord (quote nil)) (set-extra-pairs thechord (quote nil)) (set-tonalite thechord nil) thechord) (let ((thechord (make-instance (quote chord) :lmidic (quote (6200 5900)) :ldur (quote (250 250)) :lvel (quote (100 100)) :loffset (quote (0 0)) :lchan (quote (1 1))))) (load-port-info thechord (quote (0 0))) (init-mus-color thechord (quote nil)) (set-extra-pairs thechord (quote nil)) (set-tonalite thechord nil) thechord) (let ((thechord (make-instance (quote chord) :lmidic (quote (6200 7700)) :ldur (quote (250 250)) :lvel (quote (100 100)) :loffset (quote (0 0)) :lchan (quote (1 1))))) (load-port-info thechord (quote (0 0))) (init-mus-color thechord (quote nil)) (set-extra-pairs thechord (quote nil)) (set-tonalite thechord nil) thechord) (let ((thechord (make-instance (quote chord) :lmidic (quote (6100 7600)) :ldur (quote (250 250)) :lvel (quote (100 100)) :loffset (quote (0 0)) :lchan (quote (1 1))))) (load-port-info thechord (quote (0 0))) (init-mus-color thechord (quote nil)) (set-extra-pairs thechord (quote nil)) (set-tonalite thechord nil) thechord) (let ((thechord (make-instance (quote chord) :lmidic (quote (6200 7100)) :ldur (quote (250 250)) :lvel (quote (100 100)) :loffset (quote (0 0)) :lchan (quote (1 1))))) (load-port-info thechord (quote (0 0))) (init-mus-color thechord (quote nil)) (set-extra-pairs thechord (quote nil)) (set-tonalite thechord nil) thechord) (let ((thechord (make-instance (quote chord) :lmidic (quote (6100 7600)) :ldur (quote (250 250)) :lvel (quote (100 100)) :loffset (quote (0 0)) :lchan (quote (1 1))))) (load-port-info thechord (quote (0 0))) (init-mus-color thechord (quote nil)) (set-extra-pairs thechord (quote nil)) (set-tonalite thechord nil) thechord) (let ((thechord (make-instance (quote chord) :lmidic (quote (5700)) :ldur (quote (250)) :lvel (quote (100)) :loffset (quote (0)) :lchan (quote (1))))) (load-port-info thechord (quote (0))) (init-mus-color thechord (quote nil)) (set-extra-pairs thechord (quote nil)) (set-tonalite thechord nil) thechord) (let ((thechord (make-instance (quote chord) :lmidic (quote (6200)) :ldur (quote (250)) :lvel (quote (100)) :loffset (quote (0)) :lchan (quote (1))))) (load-port-info thechord (quote (0))) (init-mus-color thechord (quote nil)) (set-extra-pairs thechord (quote nil)) (set-tonalite thechord nil) thechord) (let ((thechord (make-instance (quote chord) :lmidic (quote (5700)) :ldur (quote (250)) :lvel (quote (100)) :loffset (quote (0)) :lchan (quote (1))))) (load-port-info thechord (quote (0))) (init-mus-color thechord (quote nil)) (set-extra-pairs thechord (quote nil)) (set-tonalite thechord nil) thechord) (let ((thechord (make-instance (quote chord) :lmidic (quote (5900 7400)) :ldur (quote (250 250)) :lvel (quote (100 100)) :loffset (quote (0 0)) :lchan (quote (1 1))))) (load-port-info thechord (quote (0 0))) (init-mus-color thechord (quote nil)) (set-extra-pairs thechord (quote nil)) (set-tonalite thechord nil) thechord) (let ((thechord (make-instance (quote chord) :lmidic (quote (7300)) :ldur (quote (250)) :lvel (quote (100)) :loffset (quote (0)) :lchan (quote (1))))) (load-port-info thechord (quote (0))) (init-mus-color thechord (quote nil)) (set-extra-pairs thechord (quote nil)) (set-tonalite thechord nil) thechord) (let ((thechord (make-instance (quote chord) :lmidic (quote (6100 7900)) :ldur (quote (250 250)) :lvel (quote (100 100)) :loffset (quote (0 0)) :lchan (quote (1 1))))) (load-port-info thechord (quote (0 0))) (init-mus-color thechord (quote nil)) (set-extra-pairs thechord (quote nil)) (set-tonalite thechord nil) thechord) (let ((thechord (make-instance (quote chord) :lmidic (quote (5900 7400)) :ldur (quote (250 250)) :lvel (quote (100 100)) :loffset (quote (0 0)) :lchan (quote (1 1))))) (load-port-info thechord (quote (0 0))) (init-mus-color thechord (quote nil)) (set-extra-pairs thechord (quote nil)) (set-tonalite thechord nil) thechord) (let ((thechord (make-instance (quote chord) :lmidic (quote (7100)) :ldur (quote (250)) :lvel (quote (100)) :loffset (quote (0)) :lchan (quote (1))))) (load-port-info thechord (quote (0))) (init-mus-color thechord (quote nil)) (set-extra-pairs thechord (quote nil)) (set-tonalite thechord nil) thechord) (let ((thechord (make-instance (quote chord) :lmidic (quote (6200 5900)) :ldur (quote (250 250)) :lvel (quote (100 100)) :loffset (quote (0 0)) :lchan (quote (1 1))))) (load-port-info thechord (quote (0 0))) (init-mus-color thechord (quote nil)) (set-extra-pairs thechord (quote nil)) (set-tonalite thechord nil) thechord) (let ((thechord (make-instance (quote chord) :lmidic (quote (6200 5500 7100)) :ldur (quote (250 250 250)) :lvel (quote (100 100 100)) :loffset (quote (0 0 0)) :lchan (quote (1 1 1))))) (load-port-info thechord (quote (0 0 0))) (init-mus-color thechord (quote nil)) (set-extra-pairs thechord (quote nil)) (set-tonalite thechord nil) thechord) (let ((thechord (make-instance (quote chord) :lmidic (quote (6200 7100)) :ldur (quote (250 250)) :lvel (quote (100 100)) :loffset (quote (0 0)) :lchan (quote (1 1))))) (load-port-info thechord (quote (0 0))) (init-mus-color thechord (quote nil)) (set-extra-pairs thechord (quote nil)) (set-tonalite thechord nil) thechord) (let ((thechord (make-instance (quote chord) :lmidic (quote (6200)) :ldur (quote (250)) :lvel (quote (100)) :loffset (quote (0)) :lchan (quote (1))))) (load-port-info thechord (quote (0))) (init-mus-color thechord (quote nil)) (set-extra-pairs thechord (quote nil)) (set-tonalite thechord nil) thechord) (let ((thechord (make-instance (quote chord) :lmidic (quote (5900)) :ldur (quote (250)) :lvel (quote (100)) :loffset (quote (0)) :lchan (quote (1))))) (load-port-info thechord (quote (0))) (init-mus-color thechord (quote nil)) (set-extra-pairs thechord (quote nil)) (set-tonalite thechord nil) thechord) (let ((thechord (make-instance (quote chord) :lmidic (quote (6200 5500 7100)) :ldur (quote (250 250 250)) :lvel (quote (100 100 100)) :loffset (quote (0 0 0)) :lchan (quote (1 1 1))))) (load-port-info thechord (quote (0 0 0))) (init-mus-color thechord (quote nil)) (set-extra-pairs thechord (quote nil)) (set-tonalite thechord nil) thechord) (let ((thechord (make-instance (quote chord) :lmidic (quote (6700)) :ldur (quote (250)) :lvel (quote (100)) :loffset (quote (0)) :lchan (quote (1))))) (load-port-info thechord (quote (0))) (init-mus-color thechord (quote nil)) (set-extra-pairs thechord (quote nil)) (set-tonalite thechord nil) thechord) (let ((thechord (make-instance (quote chord) :lmidic (quote (6100 7600)) :ldur (quote (250 250)) :lvel (quote (100 100)) :loffset (quote (0 0)) :lchan (quote (1 1))))) (load-port-info thechord (quote (0 0))) (init-mus-color thechord (quote nil)) (set-extra-pairs thechord (quote nil)) (set-tonalite thechord nil) thechord) (let ((thechord (make-instance (quote chord) :lmidic (quote (5900)) :ldur (quote (250)) :lvel (quote (100)) :loffset (quote (0)) :lchan (quote (1))))) (load-port-info thechord (quote (0))) (init-mus-color thechord (quote nil)) (set-extra-pairs thechord (quote nil)) (set-tonalite thechord nil) thechord) (let ((thechord (make-instance (quote chord) :lmidic (quote (6200 8300 6700)) :ldur (quote (250 250 250)) :lvel (quote (100 100 100)) :loffset (quote (0 0 0)) :lchan (quote (1 1 1))))) (load-port-info thechord (quote (0 0 0))) (init-mus-color thechord (quote nil)) (set-extra-pairs thechord (quote nil)) (set-tonalite thechord nil) thechord) (let ((thechord (make-instance (quote chord) :lmidic (quote (6200 7100)) :ldur (quote (250 250)) :lvel (quote (100 100)) :loffset (quote (0 0)) :lchan (quote (1 1))))) (load-port-info thechord (quote (0 0))) (init-mus-color thechord (quote nil)) (set-extra-pairs thechord (quote nil)) (set-tonalite thechord nil) thechord) (let ((thechord (make-instance (quote chord) :lmidic (quote (6200 8300 6700)) :ldur (quote (250 250 250)) :lvel (quote (100 100 100)) :loffset (quote (0 0 0)) :lchan (quote (1 1 1))))) (load-port-info thechord (quote (0 0 0))) (init-mus-color thechord (quote nil)) (set-extra-pairs thechord (quote nil)) (set-tonalite thechord nil) thechord) (let ((thechord (make-instance (quote chord) :lmidic (quote (5900)) :ldur (quote (250)) :lvel (quote (100)) :loffset (quote (0)) :lchan (quote (1))))) (load-port-info thechord (quote (0))) (init-mus-color thechord (quote nil)) (set-extra-pairs thechord (quote nil)) (set-tonalite thechord nil) thechord) (let ((thechord (make-instance (quote chord) :lmidic (quote (6200 7700)) :ldur (quote (250 250)) :lvel (quote (100 100)) :loffset (quote (0 0)) :lchan (quote (1 1))))) (load-port-info thechord (quote (0 0))) (init-mus-color thechord (quote nil)) (set-extra-pairs thechord (quote nil)) (set-tonalite thechord nil) thechord) (let ((thechord (make-instance (quote chord) :lmidic (quote (5700)) :ldur (quote (250)) :lvel (quote (100)) :loffset (quote (0)) :lchan (quote (1))))) (load-port-info thechord (quote (0))) (init-mus-color thechord (quote nil)) (set-extra-pairs thechord (quote nil)) (set-tonalite thechord nil) thechord) (let ((thechord (make-instance (quote chord) :lmidic (quote (7100)) :ldur (quote (250)) :lvel (quote (100)) :loffset (quote (0)) :lchan (quote (1))))) (load-port-info thechord (quote (0))) (init-mus-color thechord (quote nil)) (set-extra-pairs thechord (quote nil)) (set-tonalite thechord nil) thechord) (let ((thechord (make-instance (quote chord) :lmidic (quote (7100)) :ldur (quote (250)) :lvel (quote (100)) :loffset (quote (0)) :lchan (quote (1))))) (load-port-info thechord (quote (0))) (init-mus-color thechord (quote nil)) (set-extra-pairs thechord (quote nil)) (set-tonalite thechord nil) thechord) (let ((thechord (make-instance (quote chord) :lmidic (quote (6200 8300 6700)) :ldur (quote (250 250 250)) :lvel (quote (100 100 100)) :loffset (quote (0 0 0)) :lchan (quote (1 1 1))))) (load-port-info thechord (quote (0 0 0))) (init-mus-color thechord (quote nil)) (set-extra-pairs thechord (quote nil)) (set-tonalite thechord nil) thechord) (let ((thechord (make-instance (quote chord) :lmidic (quote (5700)) :ldur (quote (250)) :lvel (quote (100)) :loffset (quote (0)) :lchan (quote (1))))) (load-port-info thechord (quote (0))) (init-mus-color thechord (quote nil)) (set-extra-pairs thechord (quote nil)) (set-tonalite thechord nil) thechord) (let ((thechord (make-instance (quote chord) :lmidic (quote (6900)) :ldur (quote (250)) :lvel (quote (100)) :loffset (quote (0)) :lchan (quote (1))))) (load-port-info thechord (quote (0))) (init-mus-color thechord (quote nil)) (set-extra-pairs thechord (quote nil)) (set-tonalite thechord nil) thechord) (let ((thechord (make-instance (quote chord) :lmidic (quote (7100)) :ldur (quote (250)) :lvel (quote (100)) :loffset (quote (0)) :lchan (quote (1))))) (load-port-info thechord (quote (0))) (init-mus-color thechord (quote nil)) (set-extra-pairs thechord (quote nil)) (set-tonalite thechord nil) thechord) (let ((thechord (make-instance (quote chord) :lmidic (quote (7100)) :ldur (quote (250)) :lvel (quote (100)) :loffset (quote (0)) :lchan (quote (1))))) (load-port-info thechord (quote (0))) (init-mus-color thechord (quote nil)) (set-extra-pairs thechord (quote nil)) (set-tonalite thechord nil) thechord) (let ((thechord (make-instance (quote chord) :lmidic (quote (5500 7600)) :ldur (quote (250 250)) :lvel (quote (100 100)) :loffset (quote (0 0)) :lchan (quote (1 1))))) (load-port-info thechord (quote (0 0))) (init-mus-color thechord (quote nil)) (set-extra-pairs thechord (quote nil)) (set-tonalite thechord nil) thechord) (let ((thechord (make-instance (quote chord) :lmidic (quote (6100 7900)) :ldur (quote (250 250)) :lvel (quote (100 100)) :loffset (quote (0 0)) :lchan (quote (1 1))))) (load-port-info thechord (quote (0 0))) (init-mus-color thechord (quote nil)) (set-extra-pairs thechord (quote nil)) (set-tonalite thechord nil) thechord) (let ((thechord (make-instance (quote chord) :lmidic (quote (5900 7400)) :ldur (quote (250 250)) :lvel (quote (100 100)) :loffset (quote (0 0)) :lchan (quote (1 1))))) (load-port-info thechord (quote (0 0))) (init-mus-color thechord (quote nil)) (set-extra-pairs thechord (quote nil)) (set-tonalite thechord nil) thechord) (let ((thechord (make-instance (quote chord) :lmidic (quote (6200)) :ldur (quote (250)) :lvel (quote (100)) :loffset (quote (0)) :lchan (quote (1))))) (load-port-info thechord (quote (0))) (init-mus-color thechord (quote nil)) (set-extra-pairs thechord (quote nil)) (set-tonalite thechord nil) thechord) (let ((thechord (make-instance (quote chord) :lmidic (quote (5500 7600)) :ldur (quote (250 250)) :lvel (quote (100 100)) :loffset (quote (0 0)) :lchan (quote (1 1))))) (load-port-info thechord (quote (0 0))) (init-mus-color thechord (quote nil)) (set-extra-pairs thechord (quote nil)) (set-tonalite thechord nil) thechord) (let ((thechord (make-instance (quote chord) :lmidic (quote (6400)) :ldur (quote (250)) :lvel (quote (100)) :loffset (quote (0)) :lchan (quote (1))))) (load-port-info thechord (quote (0))) (init-mus-color thechord (quote nil)) (set-extra-pairs thechord (quote nil)) (set-tonalite thechord nil) thechord) (let ((thechord (make-instance (quote chord) :lmidic (quote (6400)) :ldur (quote (250)) :lvel (quote (100)) :loffset (quote (0)) :lchan (quote (1))))) (load-port-info thechord (quote (0))) (init-mus-color thechord (quote nil)) (set-extra-pairs thechord (quote nil)) (set-tonalite thechord nil) thechord) (let ((thechord (make-instance (quote chord) :lmidic (quote (6900)) :ldur (quote (250)) :lvel (quote (100)) :loffset (quote (0)) :lchan (quote (1))))) (load-port-info thechord (quote (0))) (init-mus-color thechord (quote nil)) (set-extra-pairs thechord (quote nil)) (set-tonalite thechord nil) thechord) (let ((thechord (make-instance (quote chord) :lmidic (quote (6700)) :ldur (quote (250)) :lvel (quote (100)) :loffset (quote (0)) :lchan (quote (1))))) (load-port-info thechord (quote (0))) (init-mus-color thechord (quote nil)) (set-extra-pairs thechord (quote nil)) (set-tonalite thechord nil) thechord) (let ((thechord (make-instance (quote chord) :lmidic (quote (6200 5900)) :ldur (quote (250 250)) :lvel (quote (100 100)) :loffset (quote (0 0)) :lchan (quote (1 1))))) (load-port-info thechord (quote (0 0))) (init-mus-color thechord (quote nil)) (set-extra-pairs thechord (quote nil)) (set-tonalite thechord nil) thechord) (let ((thechord (make-instance (quote chord) :lmidic (quote (7700 6500)) :ldur (quote (250 250)) :lvel (quote (100 100)) :loffset (quote (0 0)) :lchan (quote (1 1))))) (load-port-info thechord (quote (0 0))) (init-mus-color thechord (quote nil)) (set-extra-pairs thechord (quote nil)) (set-tonalite thechord nil) thechord) (let ((thechord (make-instance (quote chord) :lmidic (quote (6700)) :ldur (quote (250)) :lvel (quote (100)) :loffset (quote (0)) :lchan (quote (1))))) (load-port-info thechord (quote (0))) (init-mus-color thechord (quote nil)) (set-extra-pairs thechord (quote nil)) (set-tonalite thechord nil) thechord) (let ((thechord (make-instance (quote chord) :lmidic (quote (6400)) :ldur (quote (250)) :lvel (quote (100)) :loffset (quote (0)) :lchan (quote (1))))) (load-port-info thechord (quote (0))) (init-mus-color thechord (quote nil)) (set-extra-pairs thechord (quote nil)) (set-tonalite thechord nil) thechord) (let ((thechord (make-instance (quote chord) :lmidic (quote (6100 7300)) :ldur (quote (250 250)) :lvel (quote (100 100)) :loffset (quote (0 0)) :lchan (quote (1 1))))) (load-port-info thechord (quote (0 0))) (init-mus-color thechord (quote nil)) (set-extra-pairs thechord (quote nil)) (set-tonalite thechord nil) thechord) (let ((thechord (make-instance (quote chord) :lmidic (quote (5700)) :ldur (quote (250)) :lvel (quote (100)) :loffset (quote (0)) :lchan (quote (1))))) (load-port-info thechord (quote (0))) (init-mus-color thechord (quote nil)) (set-extra-pairs thechord (quote nil)) (set-tonalite thechord nil) thechord) (let ((thechord (make-instance (quote chord) :lmidic (quote (5900)) :ldur (quote (250)) :lvel (quote (100)) :loffset (quote (0)) :lchan (quote (1))))) (load-port-info thechord (quote (0))) (init-mus-color thechord (quote nil)) (set-extra-pairs thechord (quote nil)) (set-tonalite thechord nil) thechord) (let ((thechord (make-instance (quote chord) :lmidic (quote (6200)) :ldur (quote (250)) :lvel (quote (100)) :loffset (quote (0)) :lchan (quote (1))))) (load-port-info thechord (quote (0))) (init-mus-color thechord (quote nil)) (set-extra-pairs thechord (quote nil)) (set-tonalite thechord nil) thechord) (let ((thechord (make-instance (quote chord) :lmidic (quote (7700 6500)) :ldur (quote (250 250)) :lvel (quote (100 100)) :loffset (quote (0 0)) :lchan (quote (1 1))))) (load-port-info thechord (quote (0 0))) (init-mus-color thechord (quote nil)) (set-extra-pairs thechord (quote nil)) (set-tonalite thechord nil) thechord) (let ((thechord (make-instance (quote chord) :lmidic (quote (6200 7700)) :ldur (quote (250 250)) :lvel (quote (100 100)) :loffset (quote (0 0)) :lchan (quote (1 1))))) (load-port-info thechord (quote (0 0))) (init-mus-color thechord (quote nil)) (set-extra-pairs thechord (quote nil)) (set-tonalite thechord nil) thechord) (let ((thechord (make-instance (quote chord) :lmidic (quote (5700)) :ldur (quote (250)) :lvel (quote (100)) :loffset (quote (0)) :lchan (quote (1))))) (load-port-info thechord (quote (0))) (init-mus-color thechord (quote nil)) (set-extra-pairs thechord (quote nil)) (set-tonalite thechord nil) thechord) (let ((thechord (make-instance (quote chord) :lmidic (quote (6100 7300)) :ldur (quote (250 250)) :lvel (quote (100 100)) :loffset (quote (0 0)) :lchan (quote (1 1))))) (load-port-info thechord (quote (0 0))) (init-mus-color thechord (quote nil)) (set-extra-pairs thechord (quote nil)) (set-tonalite thechord nil) thechord) (let ((thechord (make-instance (quote chord) :lmidic (quote (7300)) :ldur (quote (250)) :lvel (quote (100)) :loffset (quote (0)) :lchan (quote (1))))) (load-port-info thechord (quote (0))) (init-mus-color thechord (quote nil)) (set-extra-pairs thechord (quote nil)) (set-tonalite thechord nil) thechord) (let ((thechord (make-instance (quote chord) :lmidic (quote (6900)) :ldur (quote (250)) :lvel (quote (100)) :loffset (quote (0)) :lchan (quote (1))))) (load-port-info thechord (quote (0))) (init-mus-color thechord (quote nil)) (set-extra-pairs thechord (quote nil)) (set-tonalite thechord nil) thechord) (let ((thechord (make-instance (quote chord) :lmidic (quote (7100)) :ldur (quote (250)) :lvel (quote (100)) :loffset (quote (0)) :lchan (quote (1))))) (load-port-info thechord (quote (0))) (init-mus-color thechord (quote nil)) (set-extra-pairs thechord (quote nil)) (set-tonalite thechord nil) thechord) (let ((thechord (make-instance (quote chord) :lmidic (quote (6200)) :ldur (quote (250)) :lvel (quote (100)) :loffset (quote (0)) :lchan (quote (1))))) (load-port-info thechord (quote (0))) (init-mus-color thechord (quote nil)) (set-extra-pairs thechord (quote nil)) (set-tonalite thechord nil) thechord) (let ((thechord (make-instance (quote chord) :lmidic (quote (6200)) :ldur (quote (250)) :lvel (quote (100)) :loffset (quote (0)) :lchan (quote (1))))) (load-port-info thechord (quote (0))) (init-mus-color thechord (quote nil)) (set-extra-pairs thechord (quote nil)) (set-tonalite thechord nil) thechord) (let ((thechord (make-instance (quote chord) :lmidic (quote (6100 7300)) :ldur (quote (250 250)) :lvel (quote (100 100)) :loffset (quote (0 0)) :lchan (quote (1 1))))) (load-port-info thechord (quote (0 0))) (init-mus-color thechord (quote nil)) (set-extra-pairs thechord (quote nil)) (set-tonalite thechord nil) thechord) (let ((thechord (make-instance (quote chord) :lmidic (quote (7300)) :ldur (quote (250)) :lvel (quote (100)) :loffset (quote (0)) :lchan (quote (1))))) (load-port-info thechord (quote (0))) (init-mus-color thechord (quote nil)) (set-extra-pairs thechord (quote nil)) (set-tonalite thechord nil) thechord) (let ((thechord (make-instance (quote chord) :lmidic (quote (6100 7900)) :ldur (quote (250 250)) :lvel (quote (100 100)) :loffset (quote (0 0)) :lchan (quote (1 1))))) (load-port-info thechord (quote (0 0))) (init-mus-color thechord (quote nil)) (set-extra-pairs thechord (quote nil)) (set-tonalite thechord nil) thechord) (let ((thechord (make-instance (quote chord) :lmidic (quote (7700 6500)) :ldur (quote (250 250)) :lvel (quote (100 100)) :loffset (quote (0 0)) :lchan (quote (1 1))))) (load-port-info thechord (quote (0 0))) (init-mus-color thechord (quote nil)) (set-extra-pairs thechord (quote nil)) (set-tonalite thechord nil) thechord) (let ((thechord (make-instance (quote chord) :lmidic (quote (5900)) :ldur (quote (250)) :lvel (quote (100)) :loffset (quote (0)) :lchan (quote (1))))) (load-port-info thechord (quote (0))) (init-mus-color thechord (quote nil)) (set-extra-pairs thechord (quote nil)) (set-tonalite thechord nil) thechord) (let ((thechord (make-instance (quote chord) :lmidic (quote (5500 7600)) :ldur (quote (250 250)) :lvel (quote (100 100)) :loffset (quote (0 0)) :lchan (quote (1 1))))) (load-port-info thechord (quote (0 0))) (init-mus-color thechord (quote nil)) (set-extra-pairs thechord (quote nil)) (set-tonalite thechord nil) thechord) (let ((thechord (make-instance (quote chord) :lmidic (quote (5900)) :ldur (quote (250)) :lvel (quote (100)) :loffset (quote (0)) :lchan (quote (1))))) (load-port-info thechord (quote (0))) (init-mus-color thechord (quote nil)) (set-extra-pairs thechord (quote nil)) (set-tonalite thechord nil) thechord)))) :tempo (quote ((1/4 120) nil)) :legato 100 :ties (quote (nil nil nil nil nil nil nil nil nil nil nil nil nil nil nil nil nil nil nil nil nil nil nil nil nil nil nil nil nil nil nil nil nil nil nil nil nil nil nil nil nil nil nil nil nil nil nil nil nil nil nil nil nil nil nil nil nil nil nil nil nil nil nil nil nil nil nil nil nil)))))) (load-port-info newobj (quote nil)) (init-mus-color newobj (quote nil)) (set-extra-pairs newobj (quote nil)) (set-patch-pairs newobj (quote nil)) (set-name newobj nil) (set-tonalite newobj nil) newobj) "x" nil (pairlis (quote (scale show-stems cursor-mode obj-mode score-mode winpos winsize mode grillestep notechancolor? zoom player inport outport deltapict cmnpref staff fontsize approx)) (list nil (quote t) (quote :normal) 1 0 (om-make-point 400 20) (om-make-point 370 280) 0 1000 nil 1 (quote :jackmidi) nil nil (om-make-point 0 0) (let ((newobj (make-instance (quote edition-values)))) (setf (paper-size newobj) (om-make-point 600 800)) (setf (top-margin newobj) 2) (setf (left-margin newobj) 1) (setf (right-margin newobj) 1) (setf (bottom-margin newobj) 1) (setf (orientation newobj) nil) (setf (scale newobj) nil) (setf (system-space newobj) (quote (1))) (setf (system-color newobj) (quote nil)) (setf (line-space newobj) 1) (setf (title newobj) nil) (setf (show-title? newobj) nil) (setf (show-page? newobj) nil) (setf (sheet-id newobj) nil) (setf (page-mode newobj) nil) newobj) (quote g) 24 2)) t nil nil nil) (om-load-editor-box1 "CHORD-SEQ 5" (quote chord-seq) (quote ((om-load-inputfun (quote input-funbox) "object" "self" nil) (om-load-inputfun (quote input-funbox) "pitches (mc): list or list of lists" "lmidic" (list 6000)) (om-load-inputfun (quote input-funbox) "onsets (ms): list" "lonset" (list 0 1000)) (om-load-inputfun (quote input-funbox) "durations (ms): list or list of lists" "ldur" (list 1000)) (om-load-inputfun (quote input-funbox) "velocities (0-127): list or list of lists" "lvel" (list 100)) (om-load-inputfun (quote input-funbox) "offsets (ms): list or list of lists" "loffset" (list 0)) (om-load-inputfun (quote input-funbox) "MIDI channels (1-16): list or list of lists" "lchan" (list 1)) (om-load-inputfun (quote input-funbox) "relative chords duration (0-100)" "legato" 0))) (om-make-point 1386 194) (om-make-point 681 94) (let ((newobj (when (find-class (quote chord-seq) nil) (make-instance (quote chord-seq) :lmidic (quote ((6200 5500 7100) (6200 5900) (6200 7700) (6100 7600) (6200 7100) (6100 7600) (5700) (6200) (5700) (5900 7400) (7300) (6100 7900) (5900 7400) (7100) (6200 5900) (6200 5500 7100) (6200 7100) (6200) (5900) (6200 5500 7100) (6700) (6100 7600) (5900) (6200 8300 6700) (6200 7100) (6200 8300 6700) (5900) (6200 7700) (5700) (7100) (7100) (6200 8300 6700) (5700) (6900) (7100) (7100) (5500 7600) (6100 7900) (5900 7400) (6200) (5500 7600) (6400) (6400) (6900) (6700) (6200 5900) (7700 6500) (6700) (6400) (6100 7300) (5700) (5900) (6200) (7700 6500) (6200 7700) (5700) (6100 7300) (7300) (6900) (7100) (6200) (6200) (6100 7300) (7300) (6100 7900) (7700 6500) (5900) (5500 7600) (5900))) :lonset (quote (0 227 483 710 937 1164 1392 1619 1846 2073 2301 2528 2755 2983 3210 3437 3664 3891 4147 4374 4601 4828 5056 5283 5510 5737 5965 6192 6419 6647 6874 7101 7328 7555 7811 8038 8265 8492 8720 8947 9174 9401 9629 9856 10083 10311 10538 10765 10992 11219 11475 11702 11929 12156 12384 12611 12838 13065 13293 13520 13747 13975 14202 14429 14656 14883 15139 15366 15593 16593)) :ldur (quote ((1000 1000 1000) (1000 1000) (1000 1000) (1000 1000) (1000 1000) (1000 1000) (1000) (1000) (1000) (1000 1000) (1000) (1000 1000) (1000 1000) (1000) (1000 1000) (1000 1000 1000) (1000 1000) (1000) (1000) (1000 1000 1000) (1000) (1000 1000) (1000) (1000 1000 1000) (1000 1000) (1000 1000 1000) (1000) (1000 1000) (1000) (1000) (1000) (1000 1000 1000) (1000) (1000) (1000) (1000) (1000 1000) (1000 1000) (1000 1000) (1000) (1000 1000) (1000) (1000) (1000) (1000) (1000 1000) (1000 1000) (1000) (1000) (1000 1000) (1000) (1000) (1000) (1000 1000) (1000 1000) (1000) (1000 1000) (1000) (1000) (1000) (1000) (1000) (1000 1000) (1000) (1000 1000) (1000 1000) (1000) (1000 1000) (1000))) :lvel (quote ((100 100 100) (100 100) (100 100) (100 100) (100 100) (100 100) (100) (100) (100) (100 100) (100) (100 100) (100 100) (100) (100 100) (100 100 100) (100 100) (100) (100) (100 100 100) (100) (100 100) (100) (100 100 100) (100 100) (100 100 100) (100) (100 100) (100) (100) (100) (100 100 100) (100) (100) (100) (100) (100 100) (100 100) (100 100) (100) (100 100) (100) (100) (100) (100) (100 100) (100 100) (100) (100) (100 100) (100) (100) (100) (100 100) (100 100) (100) (100 100) (100) (100) (100) (100) (100) (100 100) (100) (100 100) (100 100) (100) (100 100) (100))) :loffset (quote ((0 0 0) (0 0) (0 0) (0 0) (0 0) (0 0) (0) (0) (0) (0 0) (0) (0 0) (0 0) (0) (0 0) (0 0 0) (0 0) (0) (0) (0 0 0) (0) (0 0) (0) (0 0 0) (0 0) (0 0 0) (0) (0 0) (0) (0) (0) (0 0 0) (0) (0) (0) (0) (0 0) (0 0) (0 0) (0) (0 0) (0) (0) (0) (0) (0 0) (0 0) (0) (0) (0 0) (0) (0) (0) (0 0) (0 0) (0) (0 0) (0) (0) (0) (0) (0) (0 0) (0) (0 0) (0 0) (0) (0 0) (0))) :lchan (quote ((1 1 1) (1 1) (1 1) (1 1) (1 1) (1 1) (1) (1) (1) (1 1) (1) (1 1) (1 1) (1) (1 1) (1 1 1) (1 1) (1) (1) (1 1 1) (1) (1 1) (1) (1 1 1) (1 1) (1 1 1) (1) (1 1) (1) (1) (1) (1 1 1) (1) (1) (1) (1) (1 1) (1 1) (1 1) (1) (1 1) (1) (1) (1) (1) (1 1) (1 1) (1) (1) (1 1) (1) (1) (1) (1 1) (1 1) (1) (1 1) (1) (1) (1) (1) (1) (1 1) (1) (1 1) (1 1) (1) (1 1) (1))) :legato 0)))) (load-port-info newobj (quote ((0 0 0) (0 0) (0 0) (0 0) (0 0) (0 0) (0) (0) (0) (0 0) (0) (0 0) (0 0) (0) (0 0) (0 0 0) (0 0) (0) (0) (0 0 0) (0) (0 0) (0) (0 0 0) (0 0) (0 0 0) (0) (0 0) (0) (0) (0) (0 0 0) (0) (0) (0) (0) (0 0) (0 0) (0 0) (0) (0 0) (0) (0) (0) (0) (0 0) (0 0) (0) (0) (0 0) (0) (0) (0) (0 0) (0 0) (0) (0 0) (0) (0) (0) (0) (0) (0 0) (0) (0 0) (0 0) (0) (0 0) (0)))) (init-mus-color newobj (quote nil)) (set-extra-pairs newobj (quote nil)) (set-patch-pairs newobj (quote nil)) (set-name newobj nil) (set-tonalite newobj nil) newobj) "x" nil (pairlis (quote (approx fontsize staff cmnpref deltapict outport inport player zoom notechancolor? grillestep mode winsize winpos score-mode obj-mode cursor-mode show-stems scale)) (list 2 24 (quote g) (let ((newobj (make-instance (quote edition-values)))) (setf (paper-size newobj) (om-make-point 600 800)) (setf (top-margin newobj) 2) (setf (left-margin newobj) 1) (setf (right-margin newobj) 1) (setf (bottom-margin newobj) 1) (setf (orientation newobj) nil) (setf (scale newobj) nil) (setf (system-space newobj) (quote (1))) (setf (system-color newobj) (quote nil)) (setf (line-space newobj) 1) (setf (title newobj) nil) (setf (show-title? newobj) nil) (setf (show-page? newobj) nil) (setf (sheet-id newobj) nil) (setf (page-mode newobj) nil) newobj) (om-make-point 0 0) nil nil (quote :jackmidi) 1 nil 1000 0 (om-make-point 370 280) (om-make-point 0 0) 0 1 (quote :normal) (quote t) nil)) t nil nil nil) (om-load-boxcomment "comment" (om-make-point 434 54) (quote "Segmentos Mikrokosmos 41") "" (om-make-point 897 13) nil (om-make-color 0 0 0) (om-make-font "DejaVu Sans" 29.333333333333332D0 :family "DejaVu Sans" :style (quote (:plain)) :mode (quote nil))) (om-load-boxcall (quote bastype) "aux 4" (quote t) (quote nil) (om-make-point 686 377) (om-make-point 27 32) 1 "1" nil) (om-load-boxcall (quote genfun) "FLAT 2" (quote flat) (quote ((om-load-inputfun (quote input-funbox) "a list" "LST" nil) (om-load-inputfun (quote input-funbox) "level of parenthesis" "LEVEL" nil))) (om-make-point 643 369) nil nil nil nil 1) (om-load-boxcall (quote bastype) "aux 3" (quote t) (quote nil) (om-make-point 824 345) (om-make-point 27 32) 3 "3" nil) (om-load-boxcall (quote genfun) "REPEAT-N 2" (quote repeat-n) (quote ((om-load-inputfun (quote input-funbox) "something" "SELF" nil) (om-load-inputfun (quote input-funbox) "times" "N" 5))) (om-make-point 752 332) nil nil nil nil 1) (om-load-editor-box1 "CHORD-SEQ 6" (quote chord-seq) (quote ((om-load-inputfun (quote input-funbox) "objs" "SELF" nil) (om-load-inputfun (quote input-funbox) "no documentation" "LMIDIC" (list 6000)) (om-load-inputfun (quote input-funbox) "no documentation" "LONSET" (list 0 1000)) (om-load-inputfun (quote input-funbox) "no documentation" "LDUR" (list 1000)) (om-load-inputfun (quote input-funbox) "no documentation" "LVEL" (list 100)) (om-load-inputfun (quote input-funbox) "no documentation" "LOFFSET" (list 0)) (om-load-inputfun (quote input-funbox) "no documentation" "LCHAN" (list 1)) (om-load-inputfun (quote input-funbox) "no documentation" "LEGATO" 0))) (om-make-point 897 271) (om-make-point 131 62) (let ((newobj (when (find-class (quote chord-seq) nil) (make-instance (quote chord-seq) :lmidic (quote ((6700 6200 5900 5200 4800 4300) (7400 6900 6500) (7200 6700 6400 5500 5200 4700) (7400 6900 6500 5700 5300 4800) (7600 7100 6700 5900 5500 5000) (6000 5700 5200) (7600 7100 6700 5900 5500 5000) (7700 7200 6900 6000 5700 5200) (7900 7400 7100 6200 5900 5300) (8100 7600 7200) (7900 7400 7100 6200 5900 5300) (6400 6000 5500) (7900 7400 7100 6200 5900 5300) (7700 7200 6900) (7900 7400 7100 6200 5900 5300) (6000 5700 5200))) :lonset (quote (0 227 483 710 937 1164 1392 1619 1846 2073 2301 2528 2755 2983 3210 3437 3664)) :ldur (quote ((227 227 227 227 227 227) (256 256 256) (227 227 227 227 227 227) (227 227 227 227 227 227) (227 227 227 227 227 227) (228 228 228) (227 227 227 227 227 227) (227 227 227 227 227 227) (227 227 227 227 227 227) (228 228 228) (227 227 227 227 227 227) (227 227 227) (228 228 228 228 228 228) (227 227 227) (227 227 227 227 227 227) (227 227 227))) :lvel (quote ((78 78 78 78 78 78) (78 78 78) (78 78 78 78 78 78) (78 78 78 78 78 78) (78 78 78 78 78 78) (78 78 78) (78 78 78 78 78 78) (78 78 78 78 78 78) (78 78 78 78 78 78) (78 78 78) (78 78 78 78 78 78) (78 78 78) (78 78 78 78 78 78) (78 78 78) (78 78 78 78 78 78) (78 78 78))) :loffset (quote ((0 0 0 0 0 0) (0 0 0) (0 0 0 0 0 0) (0 0 0 0 0 0) (0 0 0 0 0 0) (0 0 0) (0 0 0 0 0 0) (0 0 0 0 0 0) (0 0 0 0 0 0) (0 0 0) (0 0 0 0 0 0) (0 0 0) (0 0 0 0 0 0) (0 0 0) (0 0 0 0 0 0) (0 0 0))) :lchan (quote ((1 1 1 1 1 1) (1 1 1) (1 1 1 1 1 1) (1 1 1 1 1 1) (1 1 1 1 1 1) (1 1 1) (1 1 1 1 1 1) (1 1 1 1 1 1) (1 1 1 1 1 1) (1 1 1) (1 1 1 1 1 1) (1 1 1) (1 1 1 1 1 1) (1 1 1) (1 1 1 1 1 1) (1 1 1))) :legato 0)))) (load-port-info newobj (quote ((0 0 0 0 0 0) (0 0 0) (0 0 0 0 0 0) (0 0 0 0 0 0) (0 0 0 0 0 0) (0 0 0) (0 0 0 0 0 0) (0 0 0 0 0 0) (0 0 0 0 0 0) (0 0 0) (0 0 0 0 0 0) (0 0 0) (0 0 0 0 0 0) (0 0 0) (0 0 0 0 0 0) (0 0 0)))) (init-mus-color newobj (quote nil)) (set-extra-pairs newobj (quote nil)) (set-patch-pairs newobj (quote ((nil (om-load-patch-abs1 "patch" (quote nil) (quote nil) 6.080003 nil "" (om-make-point 200 200) (om-make-point 400 500)))))) (set-name newobj nil) (set-tonalite newobj nil) newobj) "x" nil (pairlis (quote (cursor-mode player obj-mode palette-mode approx fontsize staff cmnpref deltapict outport inport zoom notechancolor? grillestep mode winsize winpos show-stems microplay scale)) (list (quote :normal) (quote :midishare) 0 0 4 24 (quote g) (let ((newobj (make-instance (quote edition-values)))) (setf (paper-size newobj) (om-make-point 600 800)) (setf (top-margin newobj) 2) (setf (left-margin newobj) 1) (setf (right-margin newobj) 1) (setf (bottom-margin newobj) 1) (setf (orientation newobj) nil) (setf (scale newobj) nil) (setf (system-space newobj) (quote (1))) (setf (system-color newobj) (quote nil)) (setf (line-space newobj) 1) (setf (title newobj) nil) (setf (show-title? newobj) nil) (setf (show-page? newobj) nil) (setf (sheet-id newobj) nil) (setf (page-mode newobj) nil) newobj) (om-make-point 0 0) 0 0 1 nil 1000 0 (om-make-point 500 280) (om-make-point 0 0) (quote t) nil nil)) nil nil nil nil) (om-load-editor-box1 "dragged 3" (quote chord-seq) (quote ((om-load-inputfun (quote input-funbox) "object" "self" nil) (om-load-inputfun (quote input-funbox) "pitches (mc): list or list of lists" "lmidic" (list 6000)) (om-load-inputfun (quote input-funbox) "onsets (ms): list" "lonset" (list 0 1000)) (om-load-inputfun (quote input-funbox) "durations (ms): list or list of lists" "ldur" (list 1000)) (om-load-inputfun (quote input-funbox) "velocities (0-127): list or list of lists" "lvel" (list 100)) (om-load-inputfun (quote input-funbox) "offsets (ms): list or list of lists" "loffset" (list 0)) (om-load-inputfun (quote input-funbox) "MIDI channels (1-16): list or list of lists" "lchan" (list 1)) (om-load-inputfun (quote input-funbox) "relative chords duration (0-100)" "legato" 0))) (om-make-point 113 449) (om-make-point 103 66) (let ((newobj (when (find-class (quote chord-seq) nil) (make-instance (quote chord-seq) :lmidic (quote ((8500 7300 5700 4500) (5000) (7900 6700 5600 4400) (8100 6900 5700 4500) (7000 5000) (7100) (8400 7200 5600 4400) (5000))) :lonset (quote (0 144 288 432 576 648 720 864 2304)) :ldur (quote ((288 288 144 144) (144) (144 144 144 144) (144 144 144 144) (72 144) (72) (1584 1584 144 144) (144))) :lvel (quote ((94 94 85 85) (85) (94 94 85 85) (94 94 85 85) (94 85) (94) (94 94 85 85) (85))) :loffset (quote ((0 0 0 0) (0) (0 0 0 0) (0 0 0 0) (0 0) (0) (0 0 0 0) (0))) :lchan (quote ((1 1 1 1) (1) (1 1 1 1) (1 1 1 1) (1 1) (1) (1 1 1 1) (1))) :legato 0)))) (load-port-info newobj (quote ((0 0 0 0) (0) (0 0 0 0) (0 0 0 0) (0 0) (0) (0 0 0 0) (0)))) (init-mus-color newobj (quote nil)) (set-extra-pairs newobj (quote nil)) (set-patch-pairs newobj (quote nil)) (set-name newobj nil) (set-tonalite newobj nil) newobj) "x" nil (pairlis (quote (approx fontsize staff cmnpref deltapict outport inport player zoom notechancolor? grillestep mode winsize winpos score-mode obj-mode cursor-mode show-stems scale)) (list 2 24 (quote g) (let ((newobj (make-instance (quote edition-values)))) (setf (paper-size newobj) (om-make-point 600 800)) (setf (top-margin newobj) 2) (setf (left-margin newobj) 1) (setf (right-margin newobj) 1) (setf (bottom-margin newobj) 1) (setf (orientation newobj) nil) (setf (scale newobj) nil) (setf (system-space newobj) (quote (1))) (setf (system-color newobj) (quote nil)) (setf (line-space newobj) 1) (setf (title newobj) nil) (setf (show-title? newobj) nil) (setf (show-page? newobj) nil) (setf (sheet-id newobj) nil) (setf (page-mode newobj) nil) newobj) (om-make-point 0 0) nil nil (quote :jackmidi) 1 nil 1000 0 (om-make-point 370 280) (om-make-point 400 20) 0 1 (quote :normal) (quote t) nil)) nil nil nil nil) (om-load-boxcall (quote genfun) "FLAT" (quote flat) (quote ((om-load-inputfun (quote input-funbox) "a list" "LST" nil))) (om-make-point 933 441) nil nil nil nil 1) (om-load-boxcall (quote genfun) "X-APPEND" (quote x-append) (quote ((om-load-inputfun (quote input-funbox) "first element" "L1?" nil) (om-load-inputfun (quote input-funbox) "second element" "L2?" nil) (om-load-inputfun (quote input-funbox) "additional elements" "LST?" nil))) (om-make-point 728 236) nil nil nil nil 1) (om-load-boxcall (quote bastype) "aux 2" (quote t) (quote nil) (om-make-point 1060 341) (om-make-point 27 32) 5 "5" nil) (om-load-boxcall (quote genfun) "REPEAT-N" (quote repeat-n) (quote ((om-load-inputfun (quote input-funbox) "something" "SELF" nil) (om-load-inputfun (quote input-funbox) "times" "N" 5))) (om-make-point 1026 371) nil nil nil nil 1) (om-load-boxcall (quote genfun) "X->DX" (quote x->dx) (quote ((om-load-inputfun (quote input-funbox) "a list of numbers" "SELF" 0))) (om-make-point 970 339) nil nil nil nil 1) (om-load-boxcall (quote genfun) "DX->X" (quote dx->x) (quote ((om-load-inputfun (quote input-funbox) "a number" "START" 0) (om-load-inputfun (quote input-funbox) "a list of numbers" "LIST" (list 1 1)))) (om-make-point 826 452) nil nil nil nil 1) (om-load-boxcall (quote genfun) "PERMUT-RANDOM" (quote permut-random) (quote ((om-load-inputfun (quote input-funbox) "a list" "LIST" nil))) (om-make-point 612 446) nil nil nil nil 1) (om-load-editor-box1 "CHORD-SEQ 4" (quote chord-seq) (quote ((om-load-inputfun (quote input-funbox) "object" "self" nil) (om-load-inputfun (quote input-funbox) "pitches (mc): list or list of lists" "lmidic" (list 6000)) (om-load-inputfun (quote input-funbox) "onsets (ms): list" "lonset" (list 0 1000)) (om-load-inputfun (quote input-funbox) "durations (ms): list or list of lists" "ldur" (list 1000)) (om-load-inputfun (quote input-funbox) "velocities (0-127): list or list of lists" "lvel" (list 100)) (om-load-inputfun (quote input-funbox) "offsets (ms): list or list of lists" "loffset" (list 0)) (om-load-inputfun (quote input-funbox) "MIDI channels (1-16): list or list of lists" "lchan" (list 1)) (om-load-inputfun (quote input-funbox) "relative chords duration (0-100)" "legato" 0))) (om-make-point 649 513) (om-make-point 681 94) (let ((newobj (when (find-class (quote chord-seq) nil) (make-instance (quote chord-seq) :lmidic (quote ((6200 5500 7100) (6200 5900) (6200 7700) (6100 7600) (6200 7100) (6100 7600) (5700) (6200) (5700) (5900 7400) (7300) (6100 7900) (5900 7400) (7100) (6200 5900) (6200 5500 7100) (6200 7100) (6200) (5900) (6200 5500 7100) (6700) (6100 7600) (5900) (6200 8300 6700) (6200 7100) (6200 8300 6700) (5900) (6200 7700) (5700) (7100) (7100) (6200 8300 6700) (5700) (6900) (7100) (7100) (5500 7600) (6100 7900) (5900 7400) (6200) (5500 7600) (6400) (6400) (6900) (6700) (6200 5900) (7700 6500) (6700) (6400) (6100 7300) (5700) (5900) (6200) (7700 6500) (6200 7700) (5700) (6100 7300) (7300) (6900) (7100) (6200) (6200) (6100 7300) (7300) (6100 7900) (7700 6500) (5900) (5500 7600) (5900))) :lonset (quote (0 227 483 710 937 1164 1392 1619 1846 2073 2301 2528 2755 2983 3210 3437 3664 3891 4147 4374 4601 4828 5056 5283 5510 5737 5965 6192 6419 6647 6874 7101 7328 7555 7811 8038 8265 8492 8720 8947 9174 9401 9629 9856 10083 10311 10538 10765 10992 11219 11475 11702 11929 12156 12384 12611 12838 13065 13293 13520 13747 13975 14202 14429 14656 14883 15139 15366 15593 16593)) :ldur (quote ((1000 1000 1000) (1000 1000) (1000 1000) (1000 1000) (1000 1000) (1000 1000) (1000) (1000) (1000) (1000 1000) (1000) (1000 1000) (1000 1000) (1000) (1000 1000) (1000 1000 1000) (1000 1000) (1000) (1000) (1000 1000 1000) (1000) (1000 1000) (1000) (1000 1000 1000) (1000 1000) (1000 1000 1000) (1000) (1000 1000) (1000) (1000) (1000) (1000 1000 1000) (1000) (1000) (1000) (1000) (1000 1000) (1000 1000) (1000 1000) (1000) (1000 1000) (1000) (1000) (1000) (1000) (1000 1000) (1000 1000) (1000) (1000) (1000 1000) (1000) (1000) (1000) (1000 1000) (1000 1000) (1000) (1000 1000) (1000) (1000) (1000) (1000) (1000) (1000 1000) (1000) (1000 1000) (1000 1000) (1000) (1000 1000) (1000))) :lvel (quote ((100 100 100) (100 100) (100 100) (100 100) (100 100) (100 100) (100) (100) (100) (100 100) (100) (100 100) (100 100) (100) (100 100) (100 100 100) (100 100) (100) (100) (100 100 100) (100) (100 100) (100) (100 100 100) (100 100) (100 100 100) (100) (100 100) (100) (100) (100) (100 100 100) (100) (100) (100) (100) (100 100) (100 100) (100 100) (100) (100 100) (100) (100) (100) (100) (100 100) (100 100) (100) (100) (100 100) (100) (100) (100) (100 100) (100 100) (100) (100 100) (100) (100) (100) (100) (100) (100 100) (100) (100 100) (100 100) (100) (100 100) (100))) :loffset (quote ((0 0 0) (0 0) (0 0) (0 0) (0 0) (0 0) (0) (0) (0) (0 0) (0) (0 0) (0 0) (0) (0 0) (0 0 0) (0 0) (0) (0) (0 0 0) (0) (0 0) (0) (0 0 0) (0 0) (0 0 0) (0) (0 0) (0) (0) (0) (0 0 0) (0) (0) (0) (0) (0 0) (0 0) (0 0) (0) (0 0) (0) (0) (0) (0) (0 0) (0 0) (0) (0) (0 0) (0) (0) (0) (0 0) (0 0) (0) (0 0) (0) (0) (0) (0) (0) (0 0) (0) (0 0) (0 0) (0) (0 0) (0))) :lchan (quote ((1 1 1) (1 1) (1 1) (1 1) (1 1) (1 1) (1) (1) (1) (1 1) (1) (1 1) (1 1) (1) (1 1) (1 1 1) (1 1) (1) (1) (1 1 1) (1) (1 1) (1) (1 1 1) (1 1) (1 1 1) (1) (1 1) (1) (1) (1) (1 1 1) (1) (1) (1) (1) (1 1) (1 1) (1 1) (1) (1 1) (1) (1) (1) (1) (1 1) (1 1) (1) (1) (1 1) (1) (1) (1) (1 1) (1 1) (1) (1 1) (1) (1) (1) (1) (1) (1 1) (1) (1 1) (1 1) (1) (1 1) (1))) :legato 0)))) (load-port-info newobj (quote ((0 0 0) (0 0) (0 0) (0 0) (0 0) (0 0) (0) (0) (0) (0 0) (0) (0 0) (0 0) (0) (0 0) (0 0 0) (0 0) (0) (0) (0 0 0) (0) (0 0) (0) (0 0 0) (0 0) (0 0 0) (0) (0 0) (0) (0) (0) (0 0 0) (0) (0) (0) (0) (0 0) (0 0) (0 0) (0) (0 0) (0) (0) (0) (0) (0 0) (0 0) (0) (0) (0 0) (0) (0) (0) (0 0) (0 0) (0) (0 0) (0) (0) (0) (0) (0) (0 0) (0) (0 0) (0 0) (0) (0 0) (0)))) (init-mus-color newobj (quote nil)) (set-extra-pairs newobj (quote nil)) (set-patch-pairs newobj (quote nil)) (set-name newobj nil) (set-tonalite newobj nil) newobj) nil nil (pairlis (quote (approx fontsize staff cmnpref deltapict outport inport player zoom notechancolor? grillestep mode winsize winpos score-mode obj-mode cursor-mode show-stems scale)) (list 2 24 (quote g) (let ((newobj (make-instance (quote edition-values)))) (setf (paper-size newobj) (om-make-point 600 800)) (setf (top-margin newobj) 2) (setf (left-margin newobj) 1) (setf (right-margin newobj) 1) (setf (bottom-margin newobj) 1) (setf (orientation newobj) nil) (setf (scale newobj) nil) (setf (system-space newobj) (quote (1))) (setf (system-color newobj) (quote nil)) (setf (line-space newobj) 1) (setf (title newobj) nil) (setf (show-title? newobj) nil) (setf (show-page? newobj) nil) (setf (sheet-id newobj) nil) (setf (page-mode newobj) nil) newobj) (om-make-point 0 0) nil nil (quote :jackmidi) 1 nil 1000 0 (om-make-point 370 280) (om-make-point 0 0) 0 1 (quote :normal) (quote t) nil)) t nil nil nil) (om-load-editor-box1 "dragged 2" (quote chord-seq) (quote ((om-load-inputfun (quote input-funbox) "object" "self" nil) (om-load-inputfun (quote input-funbox) "pitches (mc): list or list of lists" "lmidic" (list 6000)) (om-load-inputfun (quote input-funbox) "onsets (ms): list" "lonset" (list 0 1000)) (om-load-inputfun (quote input-funbox) "durations (ms): list or list of lists" "ldur" (list 1000)) (om-load-inputfun (quote input-funbox) "velocities (0-127): list or list of lists" "lvel" (list 100)) (om-load-inputfun (quote input-funbox) "offsets (ms): list or list of lists" "loffset" (list 0)) (om-load-inputfun (quote input-funbox) "MIDI channels (1-16): list or list of lists" "lchan" (list 1)) (om-load-inputfun (quote input-funbox) "relative chords duration (0-100)" "legato" 0))) (om-make-point 902 78) (om-make-point 200 96) (let ((newobj (when (find-class (quote chord-seq) nil) (make-instance (quote chord-seq) :lmidic (quote ((5700) (6100 7300) (6200 7100) (6200 5900) (6200 5500 7100))) :lonset (quote (0 454 909 1363 2726 5452)) :ldur (quote ((454) (455 455) (454 1817) (1363 1363) (2726 2726 2726))) :lvel (quote ((80) (80 80) (80 80) (80 80) (80 80 80))) :loffset (quote ((0) (0 0) (0 0) (0 0) (0 0 0))) :lchan (quote ((2) (2 1) (2 1) (2 2) (2 2 1))) :legato 0)))) (load-port-info newobj (quote ((0) (0 0) (0 0) (0 0) (0 0 0)))) (init-mus-color newobj (quote nil)) (set-extra-pairs newobj (quote nil)) (set-patch-pairs newobj (quote nil)) (set-name newobj nil) (set-tonalite newobj nil) newobj) "x" nil (pairlis (quote (approx fontsize staff cmnpref deltapict outport inport player zoom notechancolor? grillestep mode winsize winpos score-mode obj-mode cursor-mode show-stems scale)) (list 2 24 (quote g) (let ((newobj (make-instance (quote edition-values)))) (setf (paper-size newobj) (om-make-point 600 800)) (setf (top-margin newobj) 2) (setf (left-margin newobj) 1) (setf (right-margin newobj) 1) (setf (bottom-margin newobj) 1) (setf (orientation newobj) nil) (setf (scale newobj) nil) (setf (system-space newobj) (quote (1))) (setf (system-color newobj) (quote nil)) (setf (line-space newobj) 1) (setf (title newobj) nil) (setf (show-title? newobj) nil) (setf (show-page? newobj) nil) (setf (sheet-id newobj) nil) (setf (page-mode newobj) nil) newobj) (om-make-point 0 0) nil nil (quote :jackmidi) 1 nil 1000 0 (om-make-point 370 280) (om-make-point 400 20) 0 1 (quote :normal) (quote t) nil)) t nil nil nil) (om-load-editor-box1 "dragged" (quote chord-seq) (quote ((om-load-inputfun (quote input-funbox) "object" "self" nil) (om-load-inputfun (quote input-funbox) "pitches (mc): list or list of lists" "lmidic" (list 6000)) (om-load-inputfun (quote input-funbox) "onsets (ms): list" "lonset" (list 0 1000)) (om-load-inputfun (quote input-funbox) "durations (ms): list or list of lists" "ldur" (list 1000)) (om-load-inputfun (quote input-funbox) "velocities (0-127): list or list of lists" "lvel" (list 100)) (om-load-inputfun (quote input-funbox) "offsets (ms): list or list of lists" "loffset" (list 0)) (om-load-inputfun (quote input-funbox) "MIDI channels (1-16): list or list of lists" "lchan" (list 1)) (om-load-inputfun (quote input-funbox) "relative chords duration (0-100)" "legato" 0))) (om-make-point 1119 71) (om-make-point 204 117) (let ((newobj (when (find-class (quote chord-seq) nil) (make-instance (quote chord-seq) :lmidic (quote ((5900) (6200 7700) (5500 7600) (7300) (5700) (6100 7600) (6200) (5900 7400))) :lonset (quote (0 454 909 1364 1818 2273 2727 3182 3636)) :ldur (quote ((454) (455 455) (455 455) (909) (455) (454 454) (455) (454 454))) :lvel (quote ((80) (80 80) (80 80) (80) (80) (80 80) (80) (80 80))) :loffset (quote ((0) (0 0) (0 0) (0) (0) (0 0) (0) (0 0))) :lchan (quote ((2) (2 1) (2 1) (1) (2) (2 1) (2) (2 1))) :legato 0)))) (load-port-info newobj (quote ((0) (0 0) (0 0) (0) (0) (0 0) (0) (0 0)))) (init-mus-color newobj (quote nil)) (set-extra-pairs newobj (quote nil)) (set-patch-pairs newobj (quote nil)) (set-name newobj nil) (set-tonalite newobj nil) newobj) "x" nil (pairlis (quote (approx fontsize staff cmnpref deltapict outport inport player zoom notechancolor? grillestep mode winsize winpos score-mode obj-mode cursor-mode show-stems scale)) (list 2 24 (quote g) (let ((newobj (make-instance (quote edition-values)))) (setf (paper-size newobj) (om-make-point 600 800)) (setf (top-margin newobj) 2) (setf (left-margin newobj) 1) (setf (right-margin newobj) 1) (setf (bottom-margin newobj) 1) (setf (orientation newobj) nil) (setf (scale newobj) nil) (setf (system-space newobj) (quote (1))) (setf (system-color newobj) (quote nil)) (setf (line-space newobj) 1) (setf (title newobj) nil) (setf (show-title? newobj) nil) (setf (show-page? newobj) nil) (setf (sheet-id newobj) nil) (setf (page-mode newobj) nil) newobj) (om-make-point 0 0) nil nil (quote :jackmidi) 1 nil 1000 0 (om-make-point 370 280) (om-make-point 400 20) 0 1 (quote :normal) (quote t) nil)) t nil nil nil) (om-load-editor-box1 "CHORD-SEQ 3" (quote chord-seq) (quote ((om-load-inputfun (quote input-funbox) "objs" "SELF" nil) (om-load-inputfun (quote input-funbox) "no documentation" "LMIDIC" (list 6000)) (om-load-inputfun (quote input-funbox) "no documentation" "LONSET" (list 0 1000)) (om-load-inputfun (quote input-funbox) "no documentation" "LDUR" (list 1000)) (om-load-inputfun (quote input-funbox) "no documentation" "LVEL" (list 100)) (om-load-inputfun (quote input-funbox) "no documentation" "LOFFSET" (list 0)) (om-load-inputfun (quote input-funbox) "no documentation" "LCHAN" (list 1)) (om-load-inputfun (quote input-funbox) "no documentation" "LEGATO" 0))) (om-make-point 546 105) (om-make-point 216 93) (let ((newobj (when (find-class (quote chord-seq) nil) (make-instance (quote chord-seq) :lmidic (quote ((5900) (6200) (6400) (6700) (6900) (7100) (7100) (7700 6500) (6100 7900) (6200 8300 6700))) :lonset (quote (0 217 435 653 870 1304 1614 1971 2370 2693 3693)) :ldur (quote ((1000) (1000) (1000) (1000) (1000) (1000) (1000) (1000 1000) (1000 1000) (1000 1000 1000))) :lvel (quote ((100) (100) (100) (100) (100) (100) (100) (100 100) (100 100) (100 100 100))) :loffset (quote ((0) (0) (0) (0) (0) (0) (0) (0 0) (0 0) (0 0 0))) :lchan (quote ((1) (1) (1) (1) (1) (1) (1) (1 1) (1 1) (1 1 1))) :legato 0)))) (load-port-info newobj (quote ((0) (0) (0) (0) (0) (0) (0) (0 0) (0 0) (0 0 0)))) (init-mus-color newobj (quote nil)) (set-extra-pairs newobj (quote nil)) (set-patch-pairs newobj (quote ((nil (om-load-patch-abs1 "patch" (quote nil) (quote nil) 6.080003 nil "" (om-make-point 200 200) (om-make-point 400 500))) ((7) (om-load-patch-abs1 "patch" (quote nil) (quote nil) 6.080003 nil "" (om-make-point 200 200) (om-make-point 400 500))) ((8) (om-load-patch-abs1 "patch" (quote nil) (quote nil) 6.080003 nil "" (om-make-point 200 200) (om-make-point 400 500))) ((9) (om-load-patch-abs1 "patch" (quote nil) (quote nil) 6.080003 nil "" (om-make-point 200 200) (om-make-point 400 500)))))) (set-name newobj nil) (set-tonalite newobj nil) newobj) "x" nil (pairlis (quote (scale microplay show-stems winpos winsize mode grillestep notechancolor? zoom inport outport deltapict cmnpref staff fontsize approx palette-mode obj-mode player cursor-mode)) (list nil nil (quote t) (om-make-point 0 0) (om-make-point 615 298) 0 1000 nil 109/100 0 0 (om-make-point 0 0) (let ((newobj (make-instance (quote edition-values)))) (setf (paper-size newobj) (om-make-point 600 800)) (setf (top-margin newobj) 2) (setf (left-margin newobj) 1) (setf (right-margin newobj) 1) (setf (bottom-margin newobj) 1) (setf (orientation newobj) nil) (setf (scale newobj) nil) (setf (system-space newobj) (quote (1))) (setf (system-color newobj) (quote nil)) (setf (line-space newobj) 1) (setf (title newobj) nil) (setf (show-title? newobj) nil) (setf (show-page? newobj) nil) (setf (sheet-id newobj) nil) (setf (page-mode newobj) nil) newobj) (quote g) 36 2 0 0 (quote :midishare) (quote :normal))) t nil nil nil) (om-load-boxcall (quote bastype) "aux" (quote t) (quote nil) (om-make-point 261 151) (om-make-point 41 32) 100 "100" nil) (om-load-boxcall (quote genfun) "OM-" (quote om-) (quote ((om-load-inputfun (quote input-funbox) "number or list" "ARG1" 0) (om-load-inputfun (quote input-funbox) "number or list" "ARG2" 0))) (om-make-point 198 172) nil nil nil nil 1) (om-load-editor-box1 "CHORD-SEQ 2" (quote chord-seq) (quote ((om-load-inputfun (quote input-funbox) "objs" "SELF" nil) (om-load-inputfun (quote input-funbox) "no documentation" "LMIDIC" (list 6000)) (om-load-inputfun (quote input-funbox) "no documentation" "LONSET" (list 0 1000)) (om-load-inputfun (quote input-funbox) "no documentation" "LDUR" (list 1000)) (om-load-inputfun (quote input-funbox) "no documentation" "LVEL" (list 100)) (om-load-inputfun (quote input-funbox) "no documentation" "LOFFSET" (list 0)) (om-load-inputfun (quote input-funbox) "no documentation" "LCHAN" (list 1)) (om-load-inputfun (quote input-funbox) "no documentation" "LEGATO" 0))) (om-make-point 203 297) (om-make-point 132 93) (let ((newobj (when (find-class (quote chord-seq) nil) (make-instance (quote chord-seq) :lmidic (quote ((5900) (6200) (6400) (6700) (6900) (7100))) :lonset (quote (0 217 435 653 870 1304 2304)) :ldur (quote ((1000) (1000) (1000) (1000) (1000) (1000))) :lvel (quote ((100) (100) (100) (100) (100) (100))) :loffset (quote ((0) (0) (0) (0) (0) (0))) :lchan (quote ((1) (1) (1) (1) (1) (1))) :legato 0)))) (load-port-info newobj (quote ((0) (0) (0) (0) (0) (0)))) (init-mus-color newobj (quote nil)) (set-extra-pairs newobj (quote nil)) (set-patch-pairs newobj (quote nil)) (set-name newobj nil) (set-tonalite newobj nil) newobj) nil nil (pairlis (quote (scale microplay show-stems winpos winsize mode grillestep notechancolor? zoom inport outport deltapict cmnpref staff fontsize approx palette-mode obj-mode player cursor-mode)) (list nil nil (quote t) (om-make-point 0 0) (om-make-point 615 298) 0 1000 nil 109/100 0 0 (om-make-point 0 0) (let ((newobj (make-instance (quote edition-values)))) (setf (paper-size newobj) (om-make-point 600 800)) (setf (top-margin newobj) 2) (setf (left-margin newobj) 1) (setf (right-margin newobj) 1) (setf (bottom-margin newobj) 1) (setf (orientation newobj) nil) (setf (scale newobj) nil) (setf (system-space newobj) (quote (1))) (setf (system-color newobj) (quote nil)) (setf (line-space newobj) 1) (setf (title newobj) nil) (setf (show-title? newobj) nil) (setf (show-page? newobj) nil) (setf (sheet-id newobj) nil) (setf (page-mode newobj) nil) newobj) (quote g) 36 2 0 0 (quote :midishare) (quote :normal))) t nil nil nil) (om-load-boxcall (quote abstraction) "RotaPentatonica 2" (om-load-patch-abs1 "RotaPentatonica" (quote ((om-load-boxcall (quote genfun) "FLAT" (quote flat) (quote ((om-load-inputfun (quote input-funbox) "a list" "LST" nil))) (om-make-point 56 92) nil nil nil nil 1) (om-load-boxout "output 2" 1 (om-make-point 280 244) (quote ((om-load-inputfun (quote input-funbox) "" "out" nil))) nil nil) (om-load-boxout "output" 0 (om-make-point 84 360) (quote ((om-load-inputfun (quote input-funbox) "" "out" nil))) nil nil) (om-load-boxcall (quote genfun) "MC->N" (quote mc->n) (quote ((om-load-inputfun (quote input-funbox) "pitch or pitch list (midicents)" "MIDIC" (list 6000)))) (om-make-point 271 165) nil nil nil nil 1) (om-load-boxin "input" 0 (om-make-point 76 30) "" nil nil nil) (om-load-boxcall (quote genfun) "X->DX" (quote x->dx) (quote ((om-load-inputfun (quote input-funbox) "a list of numbers" "SELF" 0))) (om-make-point 108 293) nil nil nil nil 1) (om-load-boxcall (quote bastype) "aux" (quote t) (quote nil) (om-make-point 93 203) (om-make-point 41 32) 100 "100" nil) (om-load-boxcall (quote genfun) "OM/" (quote om/) (quote ((om-load-inputfun (quote input-funbox) "number or list" "ARG1" 1) (om-load-inputfun (quote input-funbox) "number or list" "ARG2" 1))) (om-make-point 36 247) nil nil nil nil 1))) (quote ((4 0 0 0 nil 0) (3 0 1 0 nil 0) (5 0 2 0 nil 0) (0 0 3 0 nil 0) (7 0 5 0 nil 0) (0 0 7 0 nil 0) (6 0 7 1 nil 0))) 6.080003 nil "" (om-make-point 200 200) (om-make-point 500 400)) (quote ((om-load-inputfun (quote input-funbox) "" "input" nil))) (om-make-point 235 413) nil (list (list 3 2 3 2 2) (list "B2" "D3" "E3" "G3" "A3" "B3")) nil "RotaPentatonica") (om-load-editor-box1 "TEXT-BOX 4" (quote text-box) (quote ((om-load-inputfun (quote input-funbox) "dialog-item text (string)" "text" "untitled"))) (om-make-point 253 502) (om-make-point 82 50) (om-make-dialog-item (quote text-box) (om-make-point 1 1) (om-make-point 62 23) "(3 2 3 2 2)" :font (om-make-font "DejaVu Sans" 10.998697916666666D0 :family "DejaVu Sans" :style (quote (:plain)) :mode (quote nil))) nil nil (pairlis (quote (winsize winpos)) (list (om-make-point 335 275) (om-make-point 10 40))) t nil nil nil) (om-load-editor-box1 "TEXT-BOX 3" (quote text-box) (quote ((om-load-inputfun (quote input-funbox) "dialog-item text (string)" "text" "untitled"))) (om-make-point 340 503) (om-make-point 174 50) (om-make-dialog-item (quote text-box) (om-make-point 1 1) (om-make-point 154 23) "(B2 D3 E3 G3 A3 B3)" :font (om-make-font "DejaVu Sans" 10.998697916666666D0 :family "DejaVu Sans" :style (quote (:plain)) :mode (quote nil))) nil nil (pairlis (quote (winsize winpos)) (list (om-make-point 335 275) (om-make-point 10 40))) t nil nil nil) (om-load-editor-box1 "CHORD-SEQ" (quote chord-seq) (quote ((om-load-inputfun (quote input-funbox) "objs" "SELF" nil) (om-load-inputfun (quote input-funbox) "no documentation" "LMIDIC" (list 6000)) (om-load-inputfun (quote input-funbox) "no documentation" "LONSET" (list 0 1000)) (om-load-inputfun (quote input-funbox) "no documentation" "LDUR" (list 1000)) (om-load-inputfun (quote input-funbox) "no documentation" "LVEL" (list 100)) (om-load-inputfun (quote input-funbox) "no documentation" "LOFFSET" (list 0)) (om-load-inputfun (quote input-funbox) "no documentation" "LCHAN" (list 1)) (om-load-inputfun (quote input-funbox) "no documentation" "LEGATO" 0))) (om-make-point 338 10) (om-make-point 132 93) (let ((newobj (when (find-class (quote chord-seq) nil) (make-instance (quote chord-seq) :lmidic (quote ((6000) (6300) (6500) (6800) (7000) (7200))) :lonset (quote (0 217 435 653 870 1304 2304)) :ldur (quote ((1000) (1000) (1000) (1000) (1000) (1000))) :lvel (quote ((100) (100) (100) (100) (100) (100))) :loffset (quote ((0) (0) (0) (0) (0) (0))) :lchan (quote ((1) (1) (1) (1) (1) (1))) :legato 0)))) (load-port-info newobj (quote ((0) (0) (0) (0) (0) (0)))) (init-mus-color newobj (quote nil)) (set-extra-pairs newobj (quote nil)) (set-patch-pairs newobj (quote nil)) (set-name newobj nil) (set-tonalite newobj nil) newobj) "x" nil (pairlis (quote (scale microplay show-stems winpos winsize mode grillestep notechancolor? zoom inport outport deltapict cmnpref staff fontsize approx palette-mode obj-mode player cursor-mode)) (list nil nil (quote t) (om-make-point 0 0) (om-make-point 615 298) 0 1000 nil 109/100 0 0 (om-make-point 0 0) (let ((newobj (make-instance (quote edition-values)))) (setf (paper-size newobj) (om-make-point 600 800)) (setf (top-margin newobj) 2) (setf (left-margin newobj) 1) (setf (right-margin newobj) 1) (setf (bottom-margin newobj) 1) (setf (orientation newobj) nil) (setf (scale newobj) nil) (setf (system-space newobj) (quote (1))) (setf (system-color newobj) (quote nil)) (setf (line-space newobj) 1) (setf (title newobj) nil) (setf (show-title? newobj) nil) (setf (show-page? newobj) nil) (setf (sheet-id newobj) nil) (setf (page-mode newobj) nil) newobj) (quote g) 36 2 0 0 (quote :midishare) (quote :normal))) t nil nil nil) (om-load-boxcall (quote abstraction) "RotaPentatonica" (om-load-patch-abs1 "RotaPentatonica" (quote ((om-load-boxcall (quote genfun) "FLAT" (quote flat) (quote ((om-load-inputfun (quote input-funbox) "a list" "LST" nil))) (om-make-point 56 92) nil nil nil nil 1) (om-load-boxout "output 2" 1 (om-make-point 280 244) (quote ((om-load-inputfun (quote input-funbox) "" "out" nil))) nil nil) (om-load-boxout "output" 0 (om-make-point 84 360) (quote ((om-load-inputfun (quote input-funbox) "" "out" nil))) nil nil) (om-load-boxcall (quote genfun) "MC->N" (quote mc->n) (quote ((om-load-inputfun (quote input-funbox) "pitch or pitch list (midicents)" "MIDIC" (list 6000)))) (om-make-point 271 165) nil nil nil nil 1) (om-load-boxin "input" 0 (om-make-point 76 30) "" nil nil nil) (om-load-boxcall (quote genfun) "X->DX" (quote x->dx) (quote ((om-load-inputfun (quote input-funbox) "a list of numbers" "SELF" 0))) (om-make-point 108 293) nil nil nil nil 1) (om-load-boxcall (quote bastype) "aux" (quote t) (quote nil) (om-make-point 93 203) (om-make-point 41 32) 100 "100" nil) (om-load-boxcall (quote genfun) "OM/" (quote om/) (quote ((om-load-inputfun (quote input-funbox) "number or list" "ARG1" 1) (om-load-inputfun (quote input-funbox) "number or list" "ARG2" 1))) (om-make-point 36 247) nil nil nil nil 1))) (quote ((4 0 0 0 nil 0) (3 0 1 0 nil 0) (5 0 2 0 nil 0) (0 0 3 0 nil 0) (7 0 5 0 nil 0) (0 0 7 0 nil 0) (6 0 7 1 nil 0))) 6.080003 nil "" (om-make-point 200 200) (om-make-point 500 400)) (quote ((om-load-inputfun (quote input-funbox) "" "input" nil))) (om-make-point 404 140) nil (list (list 3 2 3 2 2) (list "C3" "Eb3" "F3" "G#3" "Bb3" "C4")) nil "RotaPentatonica") (om-load-editor-box1 "TEXT-BOX 2" (quote text-box) (quote ((om-load-inputfun (quote input-funbox) "dialog-item text (string)" "text" "untitled"))) (om-make-point 332 221) (om-make-point 82 50) (om-make-dialog-item (quote text-box) (om-make-point 1 1) (om-make-point 62 23) "(3 2 3 2 2)" :font (om-make-font "DejaVu Sans" 10.998697916666666D0 :family "DejaVu Sans" :style (quote (:plain)) :mode (quote nil))) nil nil (pairlis (quote (winsize winpos)) (list (om-make-point 335 275) (om-make-point 10 40))) t nil nil nil) (om-load-editor-box1 "TEXT-BOX" (quote text-box) (quote ((om-load-inputfun (quote input-funbox) "dialog-item text (string)" "text" "untitled"))) (om-make-point 371 281) (om-make-point 174 50) (om-make-dialog-item (quote text-box) (om-make-point 1 1) (om-make-point 154 23) "(C3 Eb3 F3 G#3 Bb3 C4)" :font (om-make-font "DejaVu Sans" 10.998697916666666D0 :family "DejaVu Sans" :style (quote (:plain)) :mode (quote nil))) nil nil (pairlis (quote (winsize winpos)) (list (om-make-point 335 275) (om-make-point 10 40))) t nil nil nil))) (quote ((8 0 0 0 nil 0) (9 1 4 0 nil 0) (3 0 5 0 nil 0) (4 0 5 1 nil 0) (5 0 7 0 nil 0) (6 0 7 1 nil 0) (7 0 8 1 nil 0) (9 1 8 2 nil 0) (2 0 8 3 nil 0) (14 0 12 0 nil 0) (11 0 12 1 nil 0) (18 0 14 0 nil 0) (13 0 14 1 nil 0) (20 0 17 0 nil 0) (27 1 18 0 nil 0) (25 1 18 1 nil 0) (26 1 18 2 nil 0) (21 0 20 0 nil 0) (19 0 20 1 nil 0) (15 2 21 0 nil 0) (17 0 22 1 nil 0) (12 0 23 0 nil 0) (23 0 24 1 nil 0) (22 0 24 2 nil 0) (34 1 29 0 nil 0) (28 0 29 1 nil 0) (29 0 30 1 nil 0) (34 2 30 2 nil 0) (30 1 31 0 nil 0) (31 0 32 0 nil 0) (31 1 33 0 nil 0) (34 1 35 0 nil 0) (35 0 36 0 nil 0) (35 1 37 0 nil 0))) nil 6.080003))
