; OM File Header - Saved 2015/02/21 0:55:47
; (6.080003 :patc (om-make-point 229 421) (om-make-point 50 50) (om-make-point 741 596) "" 183 0 "2015/02/20 23:21:46" "2015/02/21 0:55:47")
; End File Header
(in-package :om)(load-lib-for (quote nil))(setf *om-current-persistent* (om-load-patch1 "sem_segundamenor" (quote ((om-load-boxcall (quote bastype) "aux 2" (quote t) (quote nil) (om-make-point 487 89) (om-make-point 27 32) 3 "3" nil) (om-load-boxcall (quote bastype) "aux" (quote t) (quote nil) (om-make-point 434 108) (om-make-point 27 32) 4 "4" nil) (om-load-boxcall (quote lispfun) "NTH 2" (quote nth) (quote ((om-load-inputfun (quote input-funbox) "ORIG-N" "ORIG-N" nil) (om-load-inputfun (quote input-funbox) "ORIG-LIST" "ORIG-LIST" nil))) (om-make-point 501 166) nil nil nil nil 1) (om-load-boxcall (quote lispfun) "NTH" (quote nth) (quote ((om-load-inputfun (quote input-funbox) "ORIG-N" "ORIG-N" nil) (om-load-inputfun (quote input-funbox) "ORIG-LIST" "ORIG-LIST" nil))) (om-make-point 452 164) nil nil nil nil 1) (om-load-boxcall (quote lispfun) "LIST 2" (quote list) (quote ((om-load-inputfun (quote input-funbox) "add-input" "add-input" nil) (om-load-inputfun (quote input-funbox) "add-input" "add-input" nil))) (om-make-point 479 229) nil nil nil nil 1) (om-load-editor-box1 "CHORD-SEQ 3" (quote chord-seq) (quote ((om-load-inputfun (quote input-funbox) "objs" "SELF" nil) (om-load-inputfun (quote input-funbox) "no documentation" "LMIDIC" (list 6000)) (om-load-inputfun (quote input-funbox) "no documentation" "LONSET" (list 0 1000)) (om-load-inputfun (quote input-funbox) "no documentation" "LDUR" (list 1000)) (om-load-inputfun (quote input-funbox) "no documentation" "LVEL" (list 100)) (om-load-inputfun (quote input-funbox) "no documentation" "LOFFSET" (list 0)) (om-load-inputfun (quote input-funbox) "no documentation" "LCHAN" (list 1)) (om-load-inputfun (quote input-funbox) "no documentation" "LEGATO" 0))) (om-make-point 653 291) (om-make-point 218 108) (let ((newobj (when (find-class (quote chord-seq) nil) (make-instance (quote chord-seq) :lmidic (quote ((6000 6200 6600))) :lonset (quote (0 1000)) :ldur (quote ((1000 1000 1000))) :lvel (quote ((100 100 100))) :loffset (quote ((0 0 0))) :lchan (quote ((1 1 1))) :legato 0)))) (load-port-info newobj (quote ((0 0 0)))) (init-mus-color newobj (quote nil)) (set-extra-pairs newobj (quote nil)) (set-patch-pairs newobj (quote nil)) (set-name newobj nil) (set-tonalite newobj nil) newobj) nil nil (pairlis (quote (scale obj-mode palette-mode winpos winsize mode grillestep notechancolor? zoom inport outport deltapict cmnpref staff fontsize approx show-stems)) (list nil 0 0 2621450 18350450 0 1000 nil 1 0 0 (om-make-point 0 0) (let ((newobj (make-instance (quote edition-values)))) (setf (paper-size newobj) (om-make-point 600 800)) (setf (top-margin newobj) 2) (setf (left-margin newobj) 1) (setf (right-margin newobj) 1) (setf (bottom-margin newobj) 1) (setf (orientation newobj) nil) (setf (scale newobj) nil) (setf (system-space newobj) (quote (1))) (setf (system-color newobj) (quote nil)) (setf (line-space newobj) 1) (setf (title newobj) nil) (setf (show-title? newobj) nil) (setf (show-page? newobj) nil) (setf (sheet-id newobj) nil) (setf (page-mode newobj) nil) newobj) (quote g) 24 2 (quote t))) t nil nil nil) (om-load-boxcall (quote genfun) "C2CHORD-SEQ 2" (quote c2chord-seq) (quote ((om-load-inputfun (quote input-funbox) "the cercle" "SELF" nil) (om-load-inputfun (quote input-funbox) "initial value" "BASE" 6000) (om-load-inputfun (quote input-funbox) "approx" "APPROX" 100))) (om-make-point 687 224) nil nil nil nil 1) (om-load-boxcall (quote genfun) "SUB-REL" (quote sub-rel) (quote ((om-load-inputfunmenu1 (quote input-funmenu) "no documentation" "TYPE" (quote :integer) (list (list "fn" (quote :fn)) (list "integer" (quote :integer)) (list "vector" (quote :vector)) (list "pitch" (quote :pitch)))) (om-load-inputfun (quote input-funbox) "no documentation" "LOW" 3) (om-load-inputfun (quote input-funbox) "no documentation" "HIGH" 4) (om-load-inputfun (quote input-funbox) "no documentation" "SET" (list (list 10 11 1 3 4) (list 10 0 1 3 4))))) (om-make-point 708 31) nil nil nil nil 1) (om-load-boxcall (quote bastype) "aux3" (quote t) (quote nil) (om-make-point 556 126) (om-make-point 27 32) 1 "1" nil) (om-load-boxcall (quote bastype) "aux4" (quote t) (quote nil) (om-make-point 594 15) (om-make-point 27 32) 4 "4" nil) (om-load-editor-box1 "N-CERCLE" (quote n-cercle) (quote ((om-load-inputfun (quote input-funbox) "objs" "SELF" nil) (om-load-inputfun (quote input-funbox) "no documentation" "N" 12) (om-load-inputfun (quote input-funbox) "no documentation" "PUNTOS" (list 0 5 7)))) (om-make-point 693 118) (om-make-point 88 87) (if (find-class (quote n-cercle) nil) (make-instance (quote n-cercle) :n 12 :puntos (list (list 0 2 6)) :from-file t)) nil nil (pairlis (quote (deltapict outport inport zoom palette-mode obj-mode cmnpref notechancolor? grillestep mode winsize winpos show-stems)) (list (om-make-point 0 0) 0 0 1 0 0 (let ((newobj (make-instance (quote edition-values)))) (setf (paper-size newobj) (om-make-point 600 800)) (setf (top-margin newobj) 2) (setf (left-margin newobj) 1) (setf (right-margin newobj) 1) (setf (bottom-margin newobj) 1) (setf (orientation newobj) nil) (setf (scale newobj) nil) (setf (system-space newobj) (quote (1))) (setf (system-color newobj) (quote nil)) (setf (line-space newobj) 1) (setf (title newobj) nil) (setf (show-title? newobj) nil) (setf (show-page? newobj) nil) (setf (sheet-id newobj) nil) (setf (page-mode newobj) nil) newobj) nil 1000 0 (om-make-point 370 280) (om-make-point 10 40) (quote t))) t nil nil nil) (om-load-boxcomment "comment 2" (om-make-point 28 22) (quote "k1") "" (om-make-point 537 118) nil (om-make-color 0 0 0) (om-make-font "Geneva" 10 :family "Geneva" :style (quote (:plain)) :mode (quote nil))) (om-load-boxcomment "comment" (om-make-point 28 22) (quote "k2") "" (om-make-point 563 30) nil (om-make-color 0 0 0) (om-make-font "Geneva" 10 :family "Geneva" :style (quote (:plain)) :mode (quote nil))) (om-load-boxcall (quote genfun) "MC->N" (quote mc->n) (quote ((om-load-inputfun (quote input-funbox) "pitch or pitch list (midicents)" "MIDIC" (list 6000)))) (om-make-point 936 279) nil nil nil nil 1) (om-load-editor-box1 "TEXT-BOX" (quote text-box) (quote ((om-load-inputfun (quote input-funbox) "dialog-item text (string)" "text" "untitled"))) (om-make-point 902 337) (om-make-point 271 59) (om-make-dialog-item (quote text-box) (om-make-point 1 1) (om-make-point 251 32) "((C3 Eb3 G3) (C3 D3 F3) (C3 Eb3 F3 G#3))" :font (om-make-font "DejaVu Sans" 10.998697916666666D0 :family "DejaVu Sans" :style (quote (:plain)) :mode (quote nil))) nil nil (pairlis (quote (winsize winpos)) (list (om-make-point 335 275) (om-make-point 10 40))) t nil nil nil) (om-load-editor-box1 "CHORD-SEQ 2" (quote chord-seq) (quote ((om-load-inputfun (quote input-funbox) "object" "self" nil) (om-load-inputfun (quote input-funbox) "pitches (mc): list or list of lists" "lmidic" (list 6000)) (om-load-inputfun (quote input-funbox) "onsets (ms): list" "lonset" (list 0 1000)) (om-load-inputfun (quote input-funbox) "durations (ms): list or list of lists" "ldur" (list 1000)) (om-load-inputfun (quote input-funbox) "velocities (0-127): list or list of lists" "lvel" (list 100)) (om-load-inputfun (quote input-funbox) "offsets (ms): list or list of lists" "loffset" (list 0)) (om-load-inputfun (quote input-funbox) "MIDI channels (1-16): list or list of lists" "lchan" (list 1)) (om-load-inputfun (quote input-funbox) "relative chords duration (0-100)" "legato" 0))) (om-make-point 507 440) (om-make-point 378 104) (let ((newobj (when (find-class (quote chord-seq) nil) (make-instance (quote chord-seq) :lmidic (quote ((6000 6200 6400 6600) (6000 6200 6400 6700) (6000 6200 6500 6700) (6000 6200 6400 6800) (6000 6200 6600 6800) (6000 6300 6500 6800) (6000 6200 6500 6800) (6000 6300 6600 6900))) :lonset (quote (0 1000 2000 3000 4000 5000 6000 7000 8000)) :ldur (quote ((1000 1000 1000 1000) (1000 1000 1000 1000) (1000 1000 1000 1000) (1000 1000 1000 1000) (1000 1000 1000 1000) (1000 1000 1000 1000) (1000 1000 1000 1000) (1000 1000 1000 1000))) :lvel (quote ((100 100 100 100) (100 100 100 100) (100 100 100 100) (100 100 100 100) (100 100 100 100) (100 100 100 100) (100 100 100 100) (100 100 100 100))) :loffset (quote ((0 0 0 0) (0 0 0 0) (0 0 0 0) (0 0 0 0) (0 0 0 0) (0 0 0 0) (0 0 0 0) (0 0 0 0))) :lchan (quote ((1 1 1 1) (1 1 1 1) (1 1 1 1) (1 1 1 1) (1 1 1 1) (1 1 1 1) (1 1 1 1) (1 1 1 1))) :legato 0)))) (load-port-info newobj (quote ((0 0 0 0) (0 0 0 0) (0 0 0 0) (0 0 0 0) (0 0 0 0) (0 0 0 0) (0 0 0 0) (0 0 0 0)))) (init-mus-color newobj (quote nil)) (set-extra-pairs newobj (quote nil)) (set-patch-pairs newobj (quote nil)) (set-name newobj nil) (set-tonalite newobj nil) newobj) nil nil (pairlis (quote (approx fontsize staff cmnpref deltapict outport inport player zoom notechancolor? grillestep mode winsize winpos score-mode obj-mode cursor-mode show-stems scale)) (list 2 24 (quote g) (let ((newobj (make-instance (quote edition-values)))) (setf (paper-size newobj) (om-make-point 600 800)) (setf (top-margin newobj) 2) (setf (left-margin newobj) 1) (setf (right-margin newobj) 1) (setf (bottom-margin newobj) 1) (setf (orientation newobj) nil) (setf (scale newobj) nil) (setf (system-space newobj) (quote (1))) (setf (system-color newobj) (quote nil)) (setf (line-space newobj) 1) (setf (title newobj) nil) (setf (show-title? newobj) nil) (setf (show-page? newobj) nil) (setf (sheet-id newobj) nil) (setf (page-mode newobj) nil) newobj) (om-make-point 0 0) nil nil (quote :jackmidi) 1 nil 1000 0 (om-make-point 370 280) (om-make-point 400 20) 0 1 (quote :normal) (quote t) nil)) t nil nil nil) (om-load-editor-box1 "CHORD-SEQ" (quote chord-seq) (quote ((om-load-inputfun (quote input-funbox) "object" "self" nil) (om-load-inputfun (quote input-funbox) "pitches (mc): list or list of lists" "lmidic" (list 6000)) (om-load-inputfun (quote input-funbox) "onsets (ms): list" "lonset" (list 0 1000)) (om-load-inputfun (quote input-funbox) "durations (ms): list or list of lists" "ldur" (list 1000)) (om-load-inputfun (quote input-funbox) "velocities (0-127): list or list of lists" "lvel" (list 100)) (om-load-inputfun (quote input-funbox) "offsets (ms): list or list of lists" "loffset" (list 0)) (om-load-inputfun (quote input-funbox) "MIDI channels (1-16): list or list of lists" "lchan" (list 1)) (om-load-inputfun (quote input-funbox) "relative chords duration (0-100)" "legato" 0))) (om-make-point 95 438) (om-make-point 378 104) (let ((newobj (when (find-class (quote chord-seq) nil) (make-instance (quote chord-seq) :lmidic (quote ((6000 6200 6400 6600) (6000 6200 6400 6700) (6000 6200 6500 6700) (6000 6200 6400 6800) (6000 6200 6600 6800) (6000 6300 6500 6800) (6000 6200 6500 6800) (6000 6300 6600 6900))) :lonset (quote (0 1000 2000 3000 4000 5000 6000 7000 8000)) :ldur (quote ((1000 1000 1000 1000) (1000 1000 1000 1000) (1000 1000 1000 1000) (1000 1000 1000 1000) (1000 1000 1000 1000) (1000 1000 1000 1000) (1000 1000 1000 1000) (1000 1000 1000 1000))) :lvel (quote ((100 100 100 100) (100 100 100 100) (100 100 100 100) (100 100 100 100) (100 100 100 100) (100 100 100 100) (100 100 100 100) (100 100 100 100))) :loffset (quote ((0 0 0 0) (0 0 0 0) (0 0 0 0) (0 0 0 0) (0 0 0 0) (0 0 0 0) (0 0 0 0) (0 0 0 0))) :lchan (quote ((1 1 1 1) (1 1 1 1) (1 1 1 1) (1 1 1 1) (1 1 1 1) (1 1 1 1) (1 1 1 1) (1 1 1 1))) :legato 0)))) (load-port-info newobj (quote ((0 0 0 0) (0 0 0 0) (0 0 0 0) (0 0 0 0) (0 0 0 0) (0 0 0 0) (0 0 0 0) (0 0 0 0)))) (init-mus-color newobj (quote nil)) (set-extra-pairs newobj (quote nil)) (set-patch-pairs newobj (quote nil)) (set-name newobj nil) (set-tonalite newobj nil) newobj) nil nil (pairlis (quote (approx fontsize staff cmnpref deltapict outport inport player zoom notechancolor? grillestep mode winsize winpos score-mode obj-mode cursor-mode show-stems scale)) (list 2 24 (quote g) (let ((newobj (make-instance (quote edition-values)))) (setf (paper-size newobj) (om-make-point 600 800)) (setf (top-margin newobj) 2) (setf (left-margin newobj) 1) (setf (right-margin newobj) 1) (setf (bottom-margin newobj) 1) (setf (orientation newobj) nil) (setf (scale newobj) nil) (setf (system-space newobj) (quote (1))) (setf (system-color newobj) (quote nil)) (setf (line-space newobj) 1) (setf (title newobj) nil) (setf (show-title? newobj) nil) (setf (show-page? newobj) nil) (setf (sheet-id newobj) nil) (setf (page-mode newobj) nil) newobj) (om-make-point 0 0) nil nil (quote :jackmidi) 1 nil 1000 0 (om-make-point 370 280) (om-make-point 400 20) 0 1 (quote :normal) (quote t) nil)) t nil nil nil) (om-load-boxcall (quote genfun) "C2CHORD-SEQ" (quote c2chord-seq) (quote ((om-load-inputfun (quote input-funbox) "the cercle" "SELF" nil) (om-load-inputfun (quote input-funbox) "initial value" "BASE" 6000) (om-load-inputfun (quote input-funbox) "approx" "APPROX" 100))) (om-make-point 271 344) nil nil nil nil 1) (om-load-boxcall (quote genfun) "PC-SET" (quote pc-set) (quote ((om-load-inputfunmenu1 (quote input-funmenu) "no documentation" "TYPE" (quote :integer) (list (list "integer" (quote :integer)) (list "vector" (quote :vector)) (list "pitch" (quote :pitch)))) (om-load-inputfun (quote input-funbox) "no documentation" "FN-NAME" (quote |6-Z10|)))) (om-make-point 318 87) nil nil nil nil 1) (om-load-editor-box1 "N-CERCLE1" (quote n-cercle) (quote ((om-load-inputfun (quote input-funbox) "objs" "SELF" nil) (om-load-inputfun (quote input-funbox) "no documentation" "N" 12) (om-load-inputfun (quote input-funbox) "no documentation" "PUNTOS" (list 0 5 7)))) (om-make-point 277 194) (om-make-point 119 138) (if (find-class (quote n-cercle) nil) (make-instance (quote n-cercle) :n 12 :puntos (list (list 0 2 4 6) (list 0 2 4 7) (list 0 2 5 7) (list 0 2 4 8) (list 0 2 6 8) (list 0 3 5 8) (list 0 2 5 8) (list 0 3 6 9)) :from-file t)) nil nil (pairlis (quote (show-stems obj-mode palette-mode deltapict outport inport zoom cmnpref notechancolor? grillestep mode winsize winpos)) (list (quote t) 0 0 (om-make-point 0 0) 0 0 1 (let ((newobj (make-instance (quote edition-values)))) (setf (paper-size newobj) (om-make-point 600 800)) (setf (top-margin newobj) 2) (setf (left-margin newobj) 1) (setf (right-margin newobj) 1) (setf (bottom-margin newobj) 1) (setf (orientation newobj) nil) (setf (scale newobj) nil) (setf (system-space newobj) (quote (1))) (setf (system-color newobj) (quote nil)) (setf (line-space newobj) 1) (setf (title newobj) nil) (setf (show-title? newobj) nil) (setf (show-page? newobj) nil) (setf (sheet-id newobj) nil) (setf (page-mode newobj) nil) newobj) nil 1000 0 18350450 2621450)) t nil nil nil) (om-load-boxcall (quote bastype) "list" (quote list) (quote nil) (om-make-point 235 37) (om-make-point 260 32) (list (quote |4-21|) (quote |4-22|) (quote |4-23|) (quote |4-24|) (quote |4-25|) (quote |4-26|) (quote |4-27|) (quote |4-28|)) "(4-21 4-22 4-23 4-24 4-25 4-26 4-27 4-28 )" nil))) (quote ((0 0 2 0 nil 0) (18 0 2 1 nil 0) (1 0 3 0 nil 0) (18 0 3 1 nil 0) (3 0 4 0 nil 0) (2 0 4 1 nil 0) (6 0 5 0 nil 0) (10 0 6 0 nil 0) (8 0 7 1 nil 0) (9 0 7 2 nil 0) (4 0 7 3 nil 0) (7 0 10 2 nil 0) (5 1 13 0 nil 0) (13 0 14 0 nil 0) (17 0 16 0 nil 0) (19 0 17 0 nil 0) (20 0 18 1 nil 0) (18 0 19 2 nil 0))) nil 6.080003))