; OM File Header - Saved 2014/06/23 18:59:09
; (6.080003 :patc (om-make-point 118 60) (om-make-point 50 50) (om-make-point 1018 649) "" 183 0 "2014/06/23 18:58:50" "2014/06/23 18:58:50")
; End File Header
(in-package :om)(load-lib-for (quote nil))(setf *om-current-persistent* (om-load-patch1 "formanormal" (quote ((om-load-editor-box1 "dragged 6" (quote chord-seq) (quote ((om-load-inputfun (quote input-funbox) "object" "self" nil) (om-load-inputfun (quote input-funbox) "pitches (mc): list or list of lists" "lmidic" (list 6000)) (om-load-inputfun (quote input-funbox) "onsets (ms): list" "lonset" (list 0 500)) (om-load-inputfun (quote input-funbox) "durations (ms): list or list of lists" "ldur" (list 1000)) (om-load-inputfun (quote input-funbox) "velocities (0-127): list or list of lists" "lvel" (list 100)) (om-load-inputfun (quote input-funbox) "offsets (ms): list or list of lists" "loffset" (list 0)) (om-load-inputfun (quote input-funbox) "MIDI channels (1-16): list or list of lists" "lchan" (list 1)) (om-load-inputfun (quote input-funbox) "relative chords duration (0-100)" "legato" 0))) (om-make-point 560 540) (om-make-point 165 107) (let ((newobj (when (find-class (quote chord-seq) nil) (make-instance (quote chord-seq) :lmidic (quote ((6200) (6900) (7100) (7200))) :lonset (quote (0 500 1000 1500 2500)) :ldur (quote ((1000) (1000) (1000) (1000))) :lvel (quote ((100) (100) (100) (100))) :loffset (quote ((0) (0) (0) (0))) :lchan (quote ((1) (1) (1) (1))) :legato 0)))) (load-port-info newobj (quote ((0) (0) (0) (0)))) (init-mus-color newobj (quote nil)) (set-extra-pairs newobj (quote nil)) (set-patch-pairs newobj (quote nil)) (set-name newobj nil) (set-tonalite newobj nil) newobj) nil nil (pairlis (quote (scale show-stems cursor-mode obj-mode score-mode winpos winsize mode grillestep notechancolor? zoom player inport outport deltapict cmnpref staff fontsize approx)) (list nil (quote t) (quote :normal) 1 0 (om-make-point 0 0) (om-make-point 370 280) 0 1000 nil 1 (quote :jackmidi) nil nil (om-make-point 0 0) (let ((newobj (make-instance (quote edition-values)))) (setf (paper-size newobj) (om-make-point 600 800)) (setf (top-margin newobj) 2) (setf (left-margin newobj) 1) (setf (right-margin newobj) 1) (setf (bottom-margin newobj) 1) (setf (orientation newobj) nil) (setf (scale newobj) nil) (setf (system-space newobj) (quote (1))) (setf (system-color newobj) (quote nil)) (setf (line-space newobj) 1) (setf (title newobj) nil) (setf (show-title? newobj) nil) (setf (show-page? newobj) nil) (setf (sheet-id newobj) nil) (setf (page-mode newobj) nil) newobj) (quote g) 24 2)) t nil nil nil) (om-load-boxcall (quote abstraction) "rotate_and_octave 3" (om-load-patch-abs1 "rotate_and_octave" (quote ((om-load-boxcall (quote genfun) "ROTATE" (quote rotate) (quote ((om-load-inputfun (quote input-funbox) "the list" "LIST" nil))) (om-make-point 156 301) nil nil nil nil 1) (om-load-boxcall (quote bastype) "aux 2" (quote t) (quote nil) (om-make-point 268 163) (om-make-point 48 32) 1200 "1200" nil) (om-load-boxcall (quote genfun) "OM+" (quote om+) (quote ((om-load-inputfun (quote input-funbox) "number or list" "ARG1" 0) (om-load-inputfun (quote input-funbox) "number or list" "ARG2" 0))) (om-make-point 215 193) nil nil nil nil 1) (om-load-boxcall (quote bastype) "aux" (quote t) (quote nil) (om-make-point 140 98) (om-make-point 27 32) 0 "0" nil) (om-load-boxout "output" 0 (om-make-point 157 361) (quote ((om-load-inputfun (quote input-funbox) "" "out" nil))) nil nil) (om-load-boxcall (quote genfun) "SUBS-POSN" (quote subs-posn) (quote ((om-load-inputfun (quote input-funbox) "a list" "LIS1" (list 0 1 2 3)) (om-load-inputfun (quote input-funbox) "a list of indices" "POSN" 1) (om-load-inputfun (quote input-funbox) "a list or value" "VAL" (list (quote a) (quote b))))) (om-make-point 146 242) nil nil nil nil 1) (om-load-boxin "input" 0 (om-make-point 34 41) "" nil nil nil) (om-load-boxcall (quote lispfun) "FIRST" (quote first) (quote ((om-load-inputfun (quote input-funbox) "LIST" "LIST" nil))) (om-make-point 184 88) nil nil nil nil 1))) (quote ((5 0 0 0 nil 0) (7 0 2 0 nil 0) (1 0 2 1 nil 0) (0 0 4 0 nil 0) (6 0 5 0 ((om-make-point 50 99) (om-make-point 50 129) (om-make-point 124 151) (om-make-point 162 242)) 0) (3 0 5 1 nil 0) (2 0 5 2 nil 0) (6 0 7 0 nil 0))) 6.080003 nil "" (om-make-point 200 200) (om-make-point 500 400)) (quote ((om-load-inputfun (quote input-funbox) "" "input" nil))) (om-make-point 443 527) nil (list (list (list 6200) (list 6900) (list 7100) (list 7200))) nil "rotate_and_octave") (om-load-boxcall (quote abstraction) "rotate_and_octave 2" (om-load-patch-abs1 "rotate_and_octave" (quote ((om-load-boxcall (quote genfun) "ROTATE" (quote rotate) (quote ((om-load-inputfun (quote input-funbox) "the list" "LIST" nil))) (om-make-point 156 301) nil nil nil nil 1) (om-load-boxcall (quote bastype) "aux 2" (quote t) (quote nil) (om-make-point 268 163) (om-make-point 48 32) 1200 "1200" nil) (om-load-boxcall (quote genfun) "OM+" (quote om+) (quote ((om-load-inputfun (quote input-funbox) "number or list" "ARG1" 0) (om-load-inputfun (quote input-funbox) "number or list" "ARG2" 0))) (om-make-point 215 193) nil nil nil nil 1) (om-load-boxcall (quote bastype) "aux" (quote t) (quote nil) (om-make-point 140 98) (om-make-point 27 32) 0 "0" nil) (om-load-boxout "output" 0 (om-make-point 157 361) (quote ((om-load-inputfun (quote input-funbox) "" "out" nil))) nil nil) (om-load-boxcall (quote genfun) "SUBS-POSN" (quote subs-posn) (quote ((om-load-inputfun (quote input-funbox) "a list" "LIS1" (list 0 1 2 3)) (om-load-inputfun (quote input-funbox) "a list of indices" "POSN" 1) (om-load-inputfun (quote input-funbox) "a list or value" "VAL" (list (quote a) (quote b))))) (om-make-point 146 242) nil nil nil nil 1) (om-load-boxin "input" 0 (om-make-point 34 41) "" nil nil nil) (om-load-boxcall (quote lispfun) "FIRST" (quote first) (quote ((om-load-inputfun (quote input-funbox) "LIST" "LIST" nil))) (om-make-point 184 88) nil nil nil nil 1))) (quote ((5 0 0 0 nil 0) (7 0 2 0 nil 0) (1 0 2 1 nil 0) (0 0 4 0 nil 0) (6 0 5 0 ((om-make-point 50 99) (om-make-point 50 129) (om-make-point 124 151) (om-make-point 162 242)) 0) (3 0 5 1 nil 0) (2 0 5 2 nil 0) (6 0 7 0 nil 0))) 6.080003 nil "" (om-make-point 200 200) (om-make-point 500 400)) (quote ((om-load-inputfun (quote input-funbox) "" "input" nil))) (om-make-point 342 344) nil (list (list (list 6000) (list 6200) (list 6900) (list 7100))) nil "rotate_and_octave") (om-load-editor-box1 "dragged 5" (quote chord-seq) (quote ((om-load-inputfun (quote input-funbox) "object" "self" nil) (om-load-inputfun (quote input-funbox) "pitches (mc): list or list of lists" "lmidic" (list 6000)) (om-load-inputfun (quote input-funbox) "onsets (ms): list" "lonset" (list 0 500)) (om-load-inputfun (quote input-funbox) "durations (ms): list or list of lists" "ldur" (list 1000)) (om-load-inputfun (quote input-funbox) "velocities (0-127): list or list of lists" "lvel" (list 100)) (om-load-inputfun (quote input-funbox) "offsets (ms): list or list of lists" "loffset" (list 0)) (om-load-inputfun (quote input-funbox) "MIDI channels (1-16): list or list of lists" "lchan" (list 1)) (om-load-inputfun (quote input-funbox) "relative chords duration (0-100)" "legato" 0))) (om-make-point 457 412) (om-make-point 165 107) (let ((newobj (when (find-class (quote chord-seq) nil) (make-instance (quote chord-seq) :lmidic (quote ((6000) (6200) (6900) (7100))) :lonset (quote (0 500 1000 1500 2500)) :ldur (quote ((1000) (1000) (1000) (1000))) :lvel (quote ((100) (100) (100) (100))) :loffset (quote ((0) (0) (0) (0))) :lchan (quote ((1) (1) (1) (1))) :legato 0)))) (load-port-info newobj (quote ((0) (0) (0) (0)))) (init-mus-color newobj (quote nil)) (set-extra-pairs newobj (quote nil)) (set-patch-pairs newobj (quote nil)) (set-name newobj nil) (set-tonalite newobj nil) newobj) nil nil (pairlis (quote (scale show-stems cursor-mode obj-mode score-mode winpos winsize mode grillestep notechancolor? zoom player inport outport deltapict cmnpref staff fontsize approx)) (list nil (quote t) (quote :normal) 1 0 (om-make-point 0 0) (om-make-point 370 280) 0 1000 nil 1 (quote :jackmidi) nil nil (om-make-point 0 0) (let ((newobj (make-instance (quote edition-values)))) (setf (paper-size newobj) (om-make-point 600 800)) (setf (top-margin newobj) 2) (setf (left-margin newobj) 1) (setf (right-margin newobj) 1) (setf (bottom-margin newobj) 1) (setf (orientation newobj) nil) (setf (scale newobj) nil) (setf (system-space newobj) (quote (1))) (setf (system-color newobj) (quote nil)) (setf (line-space newobj) 1) (setf (title newobj) nil) (setf (show-title? newobj) nil) (setf (show-page? newobj) nil) (setf (sheet-id newobj) nil) (setf (page-mode newobj) nil) newobj) (quote g) 24 2)) t nil nil nil) (om-load-editor-box1 "dragged 4" (quote chord-seq) (quote ((om-load-inputfun (quote input-funbox) "object" "self" nil) (om-load-inputfun (quote input-funbox) "pitches (mc): list or list of lists" "lmidic" (list 6000)) (om-load-inputfun (quote input-funbox) "onsets (ms): list" "lonset" (list 0 500)) (om-load-inputfun (quote input-funbox) "durations (ms): list or list of lists" "ldur" (list 1000)) (om-load-inputfun (quote input-funbox) "velocities (0-127): list or list of lists" "lvel" (list 100)) (om-load-inputfun (quote input-funbox) "offsets (ms): list or list of lists" "loffset" (list 0)) (om-load-inputfun (quote input-funbox) "MIDI channels (1-16): list or list of lists" "lchan" (list 1)) (om-load-inputfun (quote input-funbox) "relative chords duration (0-100)" "legato" 0))) (om-make-point 442 286) (om-make-point 165 107) (let ((newobj (when (find-class (quote chord-seq) nil) (make-instance (quote chord-seq) :lmidic (quote ((5900) (6000) (6200) (6900))) :lonset (quote (0 500 1000 1500 2500)) :ldur (quote ((1000) (1000) (1000) (1000))) :lvel (quote ((100) (100) (100) (100))) :loffset (quote ((0) (0) (0) (0))) :lchan (quote ((1) (1) (1) (1))) :legato 0)))) (load-port-info newobj (quote ((0) (0) (0) (0)))) (init-mus-color newobj (quote nil)) (set-extra-pairs newobj (quote nil)) (set-patch-pairs newobj (quote nil)) (set-name newobj nil) (set-tonalite newobj nil) newobj) nil nil (pairlis (quote (scale show-stems cursor-mode obj-mode score-mode winpos winsize mode grillestep notechancolor? zoom player inport outport deltapict cmnpref staff fontsize approx)) (list nil (quote t) (quote :normal) 1 0 (om-make-point 0 0) (om-make-point 370 280) 0 1000 nil 1 (quote :jackmidi) nil nil (om-make-point 0 0) (let ((newobj (make-instance (quote edition-values)))) (setf (paper-size newobj) (om-make-point 600 800)) (setf (top-margin newobj) 2) (setf (left-margin newobj) 1) (setf (right-margin newobj) 1) (setf (bottom-margin newobj) 1) (setf (orientation newobj) nil) (setf (scale newobj) nil) (setf (system-space newobj) (quote (1))) (setf (system-color newobj) (quote nil)) (setf (line-space newobj) 1) (setf (title newobj) nil) (setf (show-title? newobj) nil) (setf (show-page? newobj) nil) (setf (sheet-id newobj) nil) (setf (page-mode newobj) nil) newobj) (quote g) 24 2)) t nil nil nil) (om-load-boxcall (quote abstraction) "rotate_and_octave" (om-load-patch-abs1 "rotate_and_octave" (quote ((om-load-boxcall (quote genfun) "ROTATE" (quote rotate) (quote ((om-load-inputfun (quote input-funbox) "the list" "LIST" nil))) (om-make-point 156 301) nil nil nil nil 1) (om-load-boxcall (quote bastype) "aux 2" (quote t) (quote nil) (om-make-point 268 163) (om-make-point 48 32) 1200 "1200" nil) (om-load-boxcall (quote genfun) "OM+" (quote om+) (quote ((om-load-inputfun (quote input-funbox) "number or list" "ARG1" 0) (om-load-inputfun (quote input-funbox) "number or list" "ARG2" 0))) (om-make-point 215 193) nil nil nil nil 1) (om-load-boxcall (quote bastype) "aux" (quote t) (quote nil) (om-make-point 140 98) (om-make-point 27 32) 0 "0" nil) (om-load-boxout "output" 0 (om-make-point 157 361) (quote ((om-load-inputfun (quote input-funbox) "" "out" nil))) nil nil) (om-load-boxcall (quote genfun) "SUBS-POSN" (quote subs-posn) (quote ((om-load-inputfun (quote input-funbox) "a list" "LIS1" (list 0 1 2 3)) (om-load-inputfun (quote input-funbox) "a list of indices" "POSN" 1) (om-load-inputfun (quote input-funbox) "a list or value" "VAL" (list (quote a) (quote b))))) (om-make-point 146 242) nil nil nil nil 1) (om-load-boxin "input" 0 (om-make-point 34 41) "" nil nil nil) (om-load-boxcall (quote lispfun) "FIRST" (quote first) (quote ((om-load-inputfun (quote input-funbox) "LIST" "LIST" nil))) (om-make-point 184 88) nil nil nil nil 1))) (quote ((5 0 0 0 nil 0) (7 0 2 0 nil 0) (1 0 2 1 nil 0) (0 0 4 0 nil 0) (6 0 5 0 ((om-make-point 50 99) (om-make-point 50 129) (om-make-point 124 151) (om-make-point 162 242)) 0) (3 0 5 1 nil 0) (2 0 5 2 nil 0) (6 0 7 0 nil 0))) 6.080003 nil "" (om-make-point 200 200) (om-make-point 500 400)) (quote ((om-load-inputfun (quote input-funbox) "" "input" nil))) (om-make-point 321 243) nil (list (list (list 5900) (list 6000) (list 6200) (list 6900))) nil "rotate_and_octave") (om-load-boxcall (quote genfun) "SORT-LIST" (quote sort-list) (quote ((om-load-inputfun (quote input-funbox) "a list" "LST" nil))) (om-make-point 352 161) nil nil nil nil 1) (om-load-editor-box1 "CHORD 3" (quote chord) (quote ((om-load-inputfun (quote input-funbox) "object" "self" nil) (om-load-inputfun (quote input-funbox) "pitches (list of midicents)" "lmidic" (list 6000)) (om-load-inputfun (quote input-funbox) "velocities (list of values 0-127)" "lvel" (list 100)) (om-load-inputfun (quote input-funbox) "offsets (list of values in ms)" "loffset" (list 0)) (om-load-inputfun (quote input-funbox) "durations (list of values in ms)" "ldur" (list 1000)) (om-load-inputfun (quote input-funbox) "MIDI channels (list of values 0-16)" "lchan" (list 1)))) (om-make-point 343 13) (om-make-point 71 114) (let ((thechord (make-instance (quote chord) :lmidic (quote (6200 6000 5900 5700)) :ldur (quote (1000 1000 1000 1000)) :lvel (quote (100 100 100 100)) :loffset (quote (0 0 0 0)) :lchan (quote (1 1 1 1))))) (load-port-info thechord (quote (0 0 0 0))) (init-mus-color thechord (quote nil)) (set-extra-pairs thechord (quote nil)) (set-tonalite thechord nil) thechord) "x" nil (pairlis (quote (approx fontsize staff cmnpref deltapict outport inport player zoom notechancolor? grillestep mode winsize winpos score-mode obj-mode cursor-mode show-stems scale)) (list 2 24 (quote g) (let ((newobj (make-instance (quote edition-values)))) (setf (paper-size newobj) (om-make-point 600 800)) (setf (top-margin newobj) 2) (setf (left-margin newobj) 1) (setf (right-margin newobj) 1) (setf (bottom-margin newobj) 1) (setf (orientation newobj) nil) (setf (scale newobj) nil) (setf (system-space newobj) (quote (1))) (setf (system-color newobj) (quote nil)) (setf (line-space newobj) 1) (setf (title newobj) nil) (setf (show-title? newobj) nil) (setf (show-page? newobj) nil) (setf (sheet-id newobj) nil) (setf (page-mode newobj) nil) newobj) (om-make-point 0 0) nil nil (quote :jackmidi) 1 nil 1000 0 (om-make-point 370 280) (om-make-point 400 20) 0 0 (quote :normal) (quote t) nil)) t nil nil nil) (om-load-boxcall (quote bastype) "aux 3" (quote t) (quote nil) (om-make-point 498 25) (om-make-point 60 32) (list 0 500) "(0 500)" nil) (om-load-editor-box1 "dragged 3" (quote chord-seq) (quote ((om-load-inputfun (quote input-funbox) "object" "self" nil) (om-load-inputfun (quote input-funbox) "pitches (mc): list or list of lists" "lmidic" (list 6000)) (om-load-inputfun (quote input-funbox) "onsets (ms): list" "lonset" (list 0 1000)) (om-load-inputfun (quote input-funbox) "durations (ms): list or list of lists" "ldur" (list 1000)) (om-load-inputfun (quote input-funbox) "velocities (0-127): list or list of lists" "lvel" (list 100)) (om-load-inputfun (quote input-funbox) "offsets (ms): list or list of lists" "loffset" (list 0)) (om-load-inputfun (quote input-funbox) "MIDI channels (1-16): list or list of lists" "lchan" (list 1)) (om-load-inputfun (quote input-funbox) "relative chords duration (0-100)" "legato" 0))) (om-make-point 429 133) (om-make-point 165 107) (let ((newobj (when (find-class (quote chord-seq) nil) (make-instance (quote chord-seq) :lmidic (quote ((5700) (5900) (6000) (6200))) :lonset (quote (0 500 1000 1500 2500)) :ldur (quote ((1000) (1000) (1000) (1000))) :lvel (quote ((100) (100) (100) (100))) :loffset (quote ((0) (0) (0) (0))) :lchan (quote ((1) (1) (1) (1))) :legato 0)))) (load-port-info newobj (quote ((0) (0) (0) (0)))) (init-mus-color newobj (quote nil)) (set-extra-pairs newobj (quote nil)) (set-patch-pairs newobj (quote nil)) (set-name newobj nil) (set-tonalite newobj nil) newobj) nil nil (pairlis (quote (scale show-stems cursor-mode obj-mode score-mode winpos winsize mode grillestep notechancolor? zoom player inport outport deltapict cmnpref staff fontsize approx)) (list nil (quote t) (quote :normal) 1 0 (om-make-point 0 0) (om-make-point 370 280) 0 1000 nil 1 (quote :jackmidi) nil nil (om-make-point 0 0) (let ((newobj (make-instance (quote edition-values)))) (setf (paper-size newobj) (om-make-point 600 800)) (setf (top-margin newobj) 2) (setf (left-margin newobj) 1) (setf (right-margin newobj) 1) (setf (bottom-margin newobj) 1) (setf (orientation newobj) nil) (setf (scale newobj) nil) (setf (system-space newobj) (quote (1))) (setf (system-color newobj) (quote nil)) (setf (line-space newobj) 1) (setf (title newobj) nil) (setf (show-title? newobj) nil) (setf (show-page? newobj) nil) (setf (sheet-id newobj) nil) (setf (page-mode newobj) nil) newobj) (quote g) 24 2)) t nil nil nil) (om-load-boxcall (quote bastype) "aux 2" (quote t) (quote nil) (om-make-point 39 484) (om-make-point 60 32) (quote :vector) ":vector" nil) (om-load-boxcall (quote bastype) "aux" (quote t) (quote nil) (om-make-point 246 470) (om-make-point 64 32) (quote :integer) ":integer" nil) (om-load-editor-box1 "TEXT-BOX 4" (quote text-box) (quote ((om-load-inputfun (quote input-funbox) "dialog-item text (string)" "text" "untitled"))) (om-make-point 299 584) (om-make-point 130 50) (om-make-dialog-item (quote text-box) (om-make-point 1 1) (om-make-point 110 23) "((0 2 3 5))" :font (om-make-font "DejaVu Sans" 11.0D0 :family "DejaVu Sans" :style (quote (:plain)) :mode (quote nil))) nil nil (pairlis (quote (winpos winsize)) (list (om-make-point 10 40) (om-make-point 335 275))) t nil nil nil) (om-load-boxcall (quote genfun) "P-FORM 3" (quote p-form) (quote ((om-load-inputfunmenu1 (quote input-funmenu) "" "TYPE" (quote :integer) (list (list "fn" (quote :fn)) (list "integer" (quote :integer)) (list "pitch" (quote :pitch)))) (om-load-inputfun (quote input-funbox) "" "SET" (list 3 9 6 5 0)))) (om-make-point 333 488) nil nil nil nil 1) (om-load-editor-box1 "TEXT-BOX 3" (quote text-box) (quote ((om-load-inputfun (quote input-funbox) "dialog-item text (string)" "text" "untitled"))) (om-make-point 49 587) (om-make-point 130 50) (om-make-dialog-item (quote text-box) (om-make-point 1 1) (om-make-point 110 23) "((1 2 2 0 1 0))" :font (om-make-font "DejaVu Sans" 11.0D0 :family "DejaVu Sans" :style (quote (:plain)) :mode (quote nil))) nil nil (pairlis (quote (winpos winsize)) (list (om-make-point 10 40) (om-make-point 335 275))) t nil nil nil) (om-load-boxcall (quote genfun) "PC-SET" (quote pc-set) (quote ((om-load-inputfunmenu1 (quote input-funmenu) "" "TYPE" (quote :vector) (list (list "integer" (quote :integer)) (list "vector" (quote :vector)) (list "pitch" (quote :pitch)))) (om-load-inputfun (quote input-funbox) "" "FN-NAME" (quote |6-Z10|)))) (om-make-point 95 514) nil nil nil nil 1) (om-load-editor-box1 "TEXT-BOX" (quote text-box) (quote ((om-load-inputfun (quote input-funbox) "dialog-item text (string)" "text" "untitled"))) (om-make-point 919 529) (om-make-point 130 50) (om-make-dialog-item (quote text-box) (om-make-point 1 1) (om-make-point 110 23) "((0 2 3 5 8))" :font (om-make-font "DejaVu Sans" 11.0D0 :family "DejaVu Sans" :style (quote (:plain)) :mode (quote nil))) nil nil (pairlis (quote (winpos winsize)) (list (om-make-point 10 40) (om-make-point 335 275))) t nil nil nil) (om-load-boxcall (quote genfun) "P-FORM 2" (quote p-form) (quote ((om-load-inputfunmenu1 (quote input-funmenu) "" "TYPE" (quote :integer) (list (list "fn" (quote :fn)) (list "integer" (quote :integer)) (list "pitch" (quote :pitch)))) (om-load-inputfun (quote input-funbox) "" "SET" (list 3 9 6 5 0)))) (om-make-point 963 398) nil nil nil nil 1) (om-load-editor-box1 "TEXT-BOX 2" (quote text-box) (quote ((om-load-inputfun (quote input-funbox) "dialog-item text (string)" "text" "untitled"))) (om-make-point 159 526) (om-make-point 130 50) (om-make-dialog-item (quote text-box) (om-make-point 1 1) (om-make-point 110 23) "(4-10)" :font (om-make-font "DejaVu Sans" 11.0D0 :family "DejaVu Sans" :style (quote (:plain)) :mode (quote nil))) nil nil (pairlis (quote (winpos winsize)) (list (om-make-point 10 40) (om-make-point 335 275))) t nil nil nil) (om-load-boxcall (quote genfun) "P-FORM" (quote p-form) (quote ((om-load-inputfunmenu1 (quote input-funmenu) "" "TYPE" (quote :fn) (list (list "fn" (quote :fn)) (list "integer" (quote :integer)) (list "pitch" (quote :pitch)))) (om-load-inputfun (quote input-funbox) "" "SET" (list 3 9 6 5 0)))) (om-make-point 193 430) nil nil nil nil 1) (om-load-editor-box1 "TEXT-VIEW 2" (quote text-view) (quote ((om-load-inputfun (quote input-funbox) "dialog-item text (string)" "text" "untitled"))) (om-make-point 814 387) (om-make-point 134 50) (let ((rep (om-make-dialog-item (quote text-view) (om-make-point 1 1) (om-make-point 122 21) "untitled"))) (om-set-dialog-item-text rep "(3 5 6 8 11)
") rep) nil nil (pairlis (quote (winsize winpos)) (list (om-make-point 335 275) (om-make-point 10 40))) t nil nil nil) (om-load-editor-box1 "CHORD 2" (quote chord) (quote ((om-load-inputfun (quote input-funbox) "object" "self" nil) (om-load-inputfun (quote input-funbox) "pitches (list of midicents)" "lmidic" (list 6000)) (om-load-inputfun (quote input-funbox) "velocities (list of values 0-127)" "lvel" (list 100)) (om-load-inputfun (quote input-funbox) "offsets (list of values in ms)" "loffset" (list 0)) (om-load-inputfun (quote input-funbox) "durations (list of values in ms)" "ldur" (list 1000)) (om-load-inputfun (quote input-funbox) "MIDI channels (list of values 0-16)" "lchan" (list 1)))) (om-make-point 712 258) (om-make-point 71 114) (let ((thechord (make-instance (quote chord) :lmidic (quote (7100 6500 6800 6600 6300)) :ldur (quote (1000 1000 1000 1000 1000)) :lvel (quote (100 100 100 100 100)) :loffset (quote (0 0 0 0 0)) :lchan (quote (1 1 1 1 1))))) (load-port-info thechord (quote (0 0 0 0 0))) (init-mus-color thechord (quote nil)) (set-extra-pairs thechord (quote nil)) (set-tonalite thechord nil) thechord) nil nil (pairlis (quote (approx fontsize staff cmnpref deltapict outport inport player zoom notechancolor? grillestep mode winsize winpos score-mode obj-mode cursor-mode show-stems scale)) (list 2 24 (quote g) (let ((newobj (make-instance (quote edition-values)))) (setf (paper-size newobj) (om-make-point 600 800)) (setf (top-margin newobj) 2) (setf (left-margin newobj) 1) (setf (right-margin newobj) 1) (setf (bottom-margin newobj) 1) (setf (orientation newobj) nil) (setf (scale newobj) nil) (setf (system-space newobj) (quote (1))) (setf (system-color newobj) (quote nil)) (setf (line-space newobj) 1) (setf (title newobj) nil) (setf (show-title? newobj) nil) (setf (show-page? newobj) nil) (setf (sheet-id newobj) nil) (setf (page-mode newobj) nil) newobj) (om-make-point 0 0) nil nil (quote :jackmidi) 1 nil 1000 0 (om-make-point 370 280) (om-make-point 400 20) 0 0 (quote :normal) (quote t) nil)) t nil nil nil) (om-load-editor-box1 "N-CERCLE 2" (quote n-cercle) (quote ((om-load-inputfun (quote input-funbox) "object" "self" nil) (om-load-inputfun (quote input-funbox) "" "n" 12) (om-load-inputfun (quote input-funbox) "" "puntos" (list 0 5 7)))) (om-make-point 810 227) (om-make-point 143 149) (if (find-class (quote n-cercle) nil) (make-instance (quote n-cercle) :n 12 :puntos (list (list 3 5 6 8 11)) :from-file t)) nil nil (pairlis (quote (winsize winpos)) (list (om-make-point 335 275) (om-make-point 0 0))) t nil nil nil) (om-load-boxcall (quote genfun) "CHORD2C 2" (quote chord2c) (quote ((om-load-inputfun (quote input-funbox) "the chord" "SELF" nil) (om-load-inputfun (quote input-funbox) "approx" "APPROX" 2))) (om-make-point 851 159) nil nil nil nil 1) (om-load-boxcall (quote genfun) "REMOVE-DUP 2" (quote remove-dup) (quote ((om-load-inputfun (quote input-funbox) "list" "LIST" (list 1 2 3 4)) (om-load-inputfun (quote input-funbox) "equality test (function or function name)" "TEST" (quote eq)) (om-load-inputfun (quote input-funbox) "an integer" "DEPTH" 1))) (om-make-point 725 172) nil nil nil nil 1) (om-load-boxcall (quote genfun) "FLAT 2" (quote flat) (quote ((om-load-inputfun (quote input-funbox) "a list" "LST" nil))) (om-make-point 659 174) nil nil nil nil 1) (om-load-editor-box1 "TEXT-VIEW" (quote text-view) (quote ((om-load-inputfun (quote input-funbox) "dialog-item text (string)" "text" "untitled"))) (om-make-point 36 422) (om-make-point 134 50) (let ((rep (om-make-dialog-item (quote text-view) (om-make-point 1 1) (om-make-point 122 21) "untitled"))) (om-set-dialog-item-text rep "(0 2 9 11)
") rep) nil nil (pairlis (quote (winsize winpos)) (list (om-make-point 335 275) (om-make-point 10 40))) t nil nil nil) (om-load-editor-box1 "CHORD" (quote chord) (quote ((om-load-inputfun (quote input-funbox) "object" "self" nil) (om-load-inputfun (quote input-funbox) "pitches (list of midicents)" "lmidic" (list 6000)) (om-load-inputfun (quote input-funbox) "velocities (list of values 0-127)" "lvel" (list 100)) (om-load-inputfun (quote input-funbox) "offsets (list of values in ms)" "loffset" (list 0)) (om-load-inputfun (quote input-funbox) "durations (list of values in ms)" "ldur" (list 1000)) (om-load-inputfun (quote input-funbox) "MIDI channels (list of values 0-16)" "lchan" (list 1)))) (om-make-point 53 291) (om-make-point 71 114) (let ((thechord (make-instance (quote chord) :lmidic (quote (6200 6000 5900 5700)) :ldur (quote (1000 1000 1000 1000)) :lvel (quote (100 100 100 100)) :loffset (quote (0 0 0 0)) :lchan (quote (1 1 1 1))))) (load-port-info thechord (quote (0 0 0 0))) (init-mus-color thechord (quote nil)) (set-extra-pairs thechord (quote nil)) (set-tonalite thechord nil) thechord) nil nil (pairlis (quote (approx fontsize staff cmnpref deltapict outport inport player zoom notechancolor? grillestep mode winsize winpos score-mode obj-mode cursor-mode show-stems scale)) (list 2 24 (quote g) (let ((newobj (make-instance (quote edition-values)))) (setf (paper-size newobj) (om-make-point 600 800)) (setf (top-margin newobj) 2) (setf (left-margin newobj) 1) (setf (right-margin newobj) 1) (setf (bottom-margin newobj) 1) (setf (orientation newobj) nil) (setf (scale newobj) nil) (setf (system-space newobj) (quote (1))) (setf (system-color newobj) (quote nil)) (setf (line-space newobj) 1) (setf (title newobj) nil) (setf (show-title? newobj) nil) (setf (show-page? newobj) nil) (setf (sheet-id newobj) nil) (setf (page-mode newobj) nil) newobj) (om-make-point 0 0) nil nil (quote :jackmidi) 1 nil 1000 0 (om-make-point 370 280) (om-make-point 400 20) 0 0 (quote :normal) (quote t) nil)) t nil nil nil) (om-load-editor-box1 "N-CERCLE" (quote n-cercle) (quote ((om-load-inputfun (quote input-funbox) "object" "self" nil) (om-load-inputfun (quote input-funbox) "" "n" 12) (om-load-inputfun (quote input-funbox) "" "puntos" (list 0 5 7)))) (om-make-point 151 260) (om-make-point 143 149) (if (find-class (quote n-cercle) nil) (make-instance (quote n-cercle) :n 12 :puntos (list (list 0 2 9 11)) :from-file t)) nil nil (pairlis (quote (winsize winpos)) (list (om-make-point 335 275) (om-make-point 10 40))) t nil nil nil) (om-load-boxcall (quote genfun) "CHORD2C" (quote chord2c) (quote ((om-load-inputfun (quote input-funbox) "the chord" "SELF" nil) (om-load-inputfun (quote input-funbox) "approx" "APPROX" 2))) (om-make-point 192 192) nil nil nil nil 1) (om-load-boxcall (quote genfun) "REMOVE-DUP" (quote remove-dup) (quote ((om-load-inputfun (quote input-funbox) "list" "LIST" (list 1 2 3 4)) (om-load-inputfun (quote input-funbox) "equality test (function or function name)" "TEST" (quote eq)) (om-load-inputfun (quote input-funbox) "an integer" "DEPTH" 1))) (om-make-point 73 197) (om-make-point 44 60) nil nil nil 1) (om-load-boxcall (quote genfun) "FLAT" (quote flat) (quote ((om-load-inputfun (quote input-funbox) "a list" "LST" nil))) (om-make-point 13 187) (om-make-point 35 60) nil nil nil 1) (om-load-editor-box1 "dragged 2" (quote chord-seq) (quote ((om-load-inputfun (quote input-funbox) "object" "self" nil) (om-load-inputfun (quote input-funbox) "pitches (mc): list or list of lists" "lmidic" (list 6000)) (om-load-inputfun (quote input-funbox) "onsets (ms): list" "lonset" (list 0 1000)) (om-load-inputfun (quote input-funbox) "durations (ms): list or list of lists" "ldur" (list 1000)) (om-load-inputfun (quote input-funbox) "velocities (0-127): list or list of lists" "lvel" (list 100)) (om-load-inputfun (quote input-funbox) "offsets (ms): list or list of lists" "loffset" (list 0)) (om-load-inputfun (quote input-funbox) "MIDI channels (1-16): list or list of lists" "lchan" (list 1)) (om-load-inputfun (quote input-funbox) "relative chords duration (0-100)" "legato" 0))) (om-make-point 17 75) (om-make-point 277 107) (let ((newobj (when (find-class (quote chord-seq) nil) (make-instance (quote chord-seq) :lmidic (quote ((5700) (5900) (6000) (6200) (5700) (5700) (5700) (5900) (6000) (6200) (6000) (5900) (5700) (6000) (5900) (5700))) :lonset (quote (0 250 500 750 1250 1750 2000 2250 2500 2750 3000 3250 3500 3750 4000 4250 4499)) :ldur (quote ((249) (249) (249) (499) (499) (249) (249) (249) (249) (249) (249) (249) (249) (249) (249) (249))) :lvel (quote ((49) (49) (49) (49) (49) (49) (49) (49) (49) (49) (49) (49) (49) (49) (49) (49))) :loffset (quote ((0) (0) (0) (0) (0) (0) (0) (0) (0) (0) (0) (0) (0) (0) (0) (0))) :lchan (quote ((3) (3) (3) (3) (3) (3) (3) (3) (3) (3) (3) (3) (3) (3) (3) (3))) :legato 0)))) (load-port-info newobj (quote ((0) (0) (0) (0) (0) (0) (0) (0) (0) (0) (0) (0) (0) (0) (0) (0)))) (init-mus-color newobj (quote nil)) (set-extra-pairs newobj (quote nil)) (set-patch-pairs newobj (quote ((nil (om-load-patch-abs1 "patch" (quote nil) (quote nil) 6.080003 nil "" (om-make-point 200 200) (om-make-point 400 500)))))) (set-name newobj nil) (set-tonalite newobj nil) newobj) "x" nil (pairlis (quote (scale show-stems cursor-mode obj-mode score-mode winpos winsize mode grillestep notechancolor? zoom player inport outport deltapict cmnpref staff fontsize approx)) (list nil (quote t) (quote :normal) 1 0 (om-make-point 0 0) (om-make-point 370 280) 0 1000 nil 1 (quote :jackmidi) nil nil (om-make-point 0 0) (let ((newobj (make-instance (quote edition-values)))) (setf (paper-size newobj) (om-make-point 600 800)) (setf (top-margin newobj) 2) (setf (left-margin newobj) 1) (setf (right-margin newobj) 1) (setf (bottom-margin newobj) 1) (setf (orientation newobj) nil) (setf (scale newobj) nil) (setf (system-space newobj) (quote (1))) (setf (system-color newobj) (quote nil)) (setf (line-space newobj) 1) (setf (title newobj) nil) (setf (show-title? newobj) nil) (setf (show-page? newobj) nil) (setf (sheet-id newobj) nil) (setf (page-mode newobj) nil) newobj) (quote g) 24 2)) t nil nil nil) (om-load-editor-box1 "dragged" (quote chord-seq) (quote ((om-load-inputfun (quote input-funbox) "object" "self" nil) (om-load-inputfun (quote input-funbox) "pitches (mc): list or list of lists" "lmidic" (list 6000)) (om-load-inputfun (quote input-funbox) "onsets (ms): list" "lonset" (list 0 1000)) (om-load-inputfun (quote input-funbox) "durations (ms): list or list of lists" "ldur" (list 1000)) (om-load-inputfun (quote input-funbox) "velocities (0-127): list or list of lists" "lvel" (list 100)) (om-load-inputfun (quote input-funbox) "offsets (ms): list or list of lists" "loffset" (list 0)) (om-load-inputfun (quote input-funbox) "MIDI channels (1-16): list or list of lists" "lchan" (list 1)) (om-load-inputfun (quote input-funbox) "relative chords duration (0-100)" "legato" 0))) (om-make-point 677 40) (om-make-point 292 107) (let ((newobj (when (find-class (quote chord-seq) nil) (make-instance (quote chord-seq) :lmidic (quote ((6300) (6500) (6600) (7100) (6300) (6300) (6300) (6500) (6600) (6800) (6600) (6500) (6300) (6500) (6600) (6500) (6300) (6800) (6600) (6300))) :lonset (quote (0 250 500 750 1250 1750 2000 2250 2500 2750 3000 3250 3500 3750 4000 4250 4500 4750 5000 5250 5499)) :ldur (quote ((249) (249) (249) (499) (499) (249) (249) (249) (249) (249) (249) (249) (249) (249) (249) (249) (249) (249) (249) (249))) :lvel (quote ((49) (49) (49) (49) (49) (49) (49) (49) (49) (49) (49) (49) (49) (49) (49) (49) (49) (49) (49) (49))) :loffset (quote ((0) (0) (0) (0) (0) (0) (0) (0) (0) (0) (0) (0) (0) (0) (0) (0) (0) (0) (0) (0))) :lchan (quote ((3) (3) (3) (3) (3) (3) (3) (3) (3) (3) (3) (3) (3) (3) (3) (3) (3) (3) (3) (3))) :legato 0)))) (load-port-info newobj (quote ((0) (0) (0) (0) (0) (0) (0) (0) (0) (0) (0) (0) (0) (0) (0) (0) (0) (0) (0) (0)))) (init-mus-color newobj (quote nil)) (set-extra-pairs newobj (quote nil)) (set-patch-pairs newobj (quote ((nil (om-load-patch-abs1 "patch" (quote nil) (quote nil) 6.080003 nil "" (om-make-point 200 200) (om-make-point 400 500)))))) (set-name newobj nil) (set-tonalite newobj nil) newobj) "x" nil (pairlis (quote (scale show-stems cursor-mode obj-mode score-mode winpos winsize mode grillestep notechancolor? zoom player inport outport deltapict cmnpref staff fontsize approx)) (list nil (quote t) (quote :normal) 1 0 (om-make-point 0 0) (om-make-point 736 463) 0 1000 nil 1 (quote :jackmidi) nil nil (om-make-point 0 0) (let ((newobj (make-instance (quote edition-values)))) (setf (paper-size newobj) (om-make-point 600 800)) (setf (top-margin newobj) 2) (setf (left-margin newobj) 1) (setf (right-margin newobj) 1) (setf (bottom-margin newobj) 1) (setf (orientation newobj) nil) (setf (scale newobj) nil) (setf (system-space newobj) (quote (1))) (setf (system-color newobj) (quote nil)) (setf (line-space newobj) 1) (setf (title newobj) nil) (setf (show-title? newobj) nil) (setf (show-page? newobj) nil) (setf (sheet-id newobj) nil) (setf (page-mode newobj) nil) newobj) (quote g) 24 2)) t nil nil nil))) (quote ((1 0 0 1 nil 0) (3 1 1 0 nil 0) (4 1 2 0 nil 0) (2 0 3 1 nil 0) (5 0 4 1 nil 0) (9 1 5 0 nil 0) (7 1 6 0 nil 0) (6 0 9 1 nil 0) (8 0 9 2 nil 0) (13 0 12 0 nil 0) (11 0 13 0 nil 0) (28 2 13 1 nil 0) (15 0 14 0 nil 0) (10 0 15 0 nil 0) (19 0 15 1 nil 0) (17 0 16 0 nil 0) (22 2 17 1 nil 0) (19 0 18 0 nil 0) (28 2 19 1 nil 0) (22 2 20 0 nil 0) (24 0 21 0 nil 0) (23 0 22 0 nil 0) (21 0 23 0 nil 0) (25 0 24 0 nil 0) (33 1 25 0 nil 0) (28 2 26 0 nil 0) (30 0 27 0 nil 0) (29 0 28 0 nil 0) (27 0 29 0 nil 0) (31 0 30 0 nil 0) (32 1 31 0 nil 0))) nil 6.080003))
