; OM File Header - Saved 2015/03/10 18:12:03
; (6.080003 :patc (om-make-point 242 409) (om-make-point 0 50) (om-make-point 1366 639) "" 183 0 "2015/03/10 18:05:27" "2015/03/10 18:12:03")
; End File Header
(in-package :om)(load-lib-for (quote nil))(setf *om-current-persistent* (om-load-patch1 "fig56_todas_triades" (quote ((om-load-editor-box1 "N-CERCLE" (quote n-cercle) (quote ((om-load-inputfun (quote input-funbox) "object" "self" nil) (om-load-inputfun (quote input-funbox) "" "n" 12) (om-load-inputfun (quote input-funbox) "" "puntos" (list 0 5 7)))) (om-make-point 1004 543) (om-make-point 149 140) (if (find-class (quote n-cercle) nil) (make-instance (quote n-cercle) :n 12 :puntos (list (list 0 1 2) (list 0 1 3) (list 0 1 4) (list 0 1 5) (list 0 1 6) (list 0 2 4) (list 0 2 5) (list 0 2 6) (list 0 2 7) (list 0 3 6) (list 0 3 7) (list 0 4 8)) :from-file t)) nil nil (pairlis (quote (winpos winsize)) (list (om-make-point 10 40) (om-make-point 335 275))) t nil nil nil) (om-load-editor-box1 "CHORD-SEQ 5" (quote chord-seq) (quote ((om-load-inputfun (quote input-funbox) "object" "self" nil) (om-load-inputfun (quote input-funbox) "pitches (mc): list or list of lists" "lmidic" (list 6000)) (om-load-inputfun (quote input-funbox) "onsets (ms): list" "lonset" (list 0 250)) (om-load-inputfun (quote input-funbox) "durations (ms): list or list of lists" "ldur" (list 1000)) (om-load-inputfun (quote input-funbox) "velocities (0-127): list or list of lists" "lvel" (list 100)) (om-load-inputfun (quote input-funbox) "offsets (ms): list or list of lists" "loffset" (list 0)) (om-load-inputfun (quote input-funbox) "MIDI channels (1-16): list or list of lists" "lchan" (list 1)) (om-load-inputfun (quote input-funbox) "relative chords duration (0-100)" "legato" 0))) (om-make-point 884 855) (om-make-point 507 187) (let ((newobj (when (find-class (quote chord-seq) nil) (make-instance (quote chord-seq) :lmidic (quote ((6000 6100 6200) (6000 6100 6300) (6000 6100 6400) (6000 6100 6500) (6000 6100 6600) (6000 6200 6400) (6000 6200 6500) (6000 6200 6600) (6000 6200 6700) (6000 6300 6600) (6000 6300 6700) (6000 6400 6800) (6000 3700 6200) (3600 6100 7500) (7200 8500 5200) (8400 8500 8900) (6000 6100 6600) (4800 8600 7600) (4800 8600 5300) (3600 3800 7800) (4800 7400 5500) (3600 6300 9000) (4800 8700 6700) (6000 4000 9200) (6000 6100 6200) (7200 8500 3800) (6000 6100 6400) (8400 6100 8700) (6000 6100 6600) (3600 7300 8800) (6000 6200 6500) (4800 4900 4100) (6000 6200 6700) (8400 4900 7800) (6000 6300 6700) (4800 5000 6400))) :lonset (quote (0 250 500 750 1000 1250 1500 1750 2000 2250 2500 2750 3000 3250 3500 3750 4000 4250 4500 4750 5000 5250 5500 5750 6000 6250 6500 6750 7000 7250 7500 7750 8000 8250 8500 8750 9750)) :ldur (quote ((1000 1000 1000) (1000 1000 1000) (1000 1000 1000) (1000 1000 1000) (1000 1000 1000) (1000 1000 1000) (1000 1000 1000) (1000 1000 1000) (1000 1000 1000) (1000 1000 1000) (1000 1000 1000) (1000 1000 1000) (1000 1000 1000) (1000 1000 1000) (1000 1000 1000) (1000 1000 1000) (1000 1000 1000) (1000 1000 1000) (1000 1000 1000) (1000 1000 1000) (1000 1000 1000) (1000 1000 1000) (1000 1000 1000) (1000 1000 1000) (1000 1000 1000) (1000 1000 1000) (1000 1000 1000) (1000 1000 1000) (1000 1000 1000) (1000 1000 1000) (1000 1000 1000) (1000 1000 1000) (1000 1000 1000) (1000 1000 1000) (1000 1000 1000) (1000 1000 1000))) :lvel (quote ((100 100 100) (100 100 100) (100 100 100) (100 100 100) (100 100 100) (100 100 100) (100 100 100) (100 100 100) (100 100 100) (100 100 100) (100 100 100) (100 100 100) (100 100 100) (100 100 100) (100 100 100) (100 100 100) (100 100 100) (100 100 100) (100 100 100) (100 100 100) (100 100 100) (100 100 100) (100 100 100) (100 100 100) (100 100 100) (100 100 100) (100 100 100) (100 100 100) (100 100 100) (100 100 100) (100 100 100) (100 100 100) (100 100 100) (100 100 100) (100 100 100) (100 100 100))) :loffset (quote ((0 0 0) (0 0 0) (0 0 0) (0 0 0) (0 0 0) (0 0 0) (0 0 0) (0 0 0) (0 0 0) (0 0 0) (0 0 0) (0 0 0) (0 0 0) (0 0 0) (0 0 0) (0 0 0) (0 0 0) (0 0 0) (0 0 0) (0 0 0) (0 0 0) (0 0 0) (0 0 0) (0 0 0) (0 0 0) (0 0 0) (0 0 0) (0 0 0) (0 0 0) (0 0 0) (0 0 0) (0 0 0) (0 0 0) (0 0 0) (0 0 0) (0 0 0))) :lchan (quote ((1 1 1) (1 1 1) (1 1 1) (1 1 1) (1 1 1) (1 1 1) (1 1 1) (1 1 1) (1 1 1) (1 1 1) (1 1 1) (1 1 1) (1 1 1) (1 1 1) (1 1 1) (1 1 1) (1 1 1) (1 1 1) (1 1 1) (1 1 1) (1 1 1) (1 1 1) (1 1 1) (1 1 1) (1 1 1) (1 1 1) (1 1 1) (1 1 1) (1 1 1) (1 1 1) (1 1 1) (1 1 1) (1 1 1) (1 1 1) (1 1 1) (1 1 1))) :legato 0)))) (load-port-info newobj (quote ((0 0 0) (0 0 0) (0 0 0) (0 0 0) (0 0 0) (0 0 0) (0 0 0) (0 0 0) (0 0 0) (0 0 0) (0 0 0) (0 0 0) (0 0 0) (0 0 0) (0 0 0) (0 0 0) (0 0 0) (0 0 0) (0 0 0) (0 0 0) (0 0 0) (0 0 0) (0 0 0) (0 0 0) (0 0 0) (0 0 0) (0 0 0) (0 0 0) (0 0 0) (0 0 0) (0 0 0) (0 0 0) (0 0 0) (0 0 0) (0 0 0) (0 0 0)))) (init-mus-color newobj (quote nil)) (set-extra-pairs newobj (quote nil)) (set-patch-pairs newobj (quote nil)) (set-name newobj nil) (set-tonalite newobj nil) newobj) nil nil (pairlis (quote (approx fontsize staff cmnpref deltapict outport inport player zoom notechancolor? grillestep mode winsize winpos score-mode obj-mode cursor-mode show-stems scale)) (list 2 24 (quote ggff) (let ((newobj (make-instance (quote edition-values)))) (setf (paper-size newobj) (om-make-point 600 800)) (setf (top-margin newobj) 2) (setf (left-margin newobj) 1) (setf (right-margin newobj) 1) (setf (bottom-margin newobj) 1) (setf (orientation newobj) nil) (setf (scale newobj) nil) (setf (system-space newobj) (quote (1))) (setf (system-color newobj) (quote nil)) (setf (line-space newobj) 1) (setf (title newobj) nil) (setf (show-title? newobj) nil) (setf (show-page? newobj) nil) (setf (sheet-id newobj) nil) (setf (page-mode newobj) nil) newobj) (om-make-point 0 0) nil nil (quote :jackmidi) 1 nil 1000 0 (om-make-point 624 309) (om-make-point 0 0) 0 1 (quote :normal) (quote t) nil)) t nil nil nil) (om-load-boxcall (quote abstraction) "base_C4" (om-load-patch-abs1 "base_C4" (quote ((om-load-boxout "output" 0 (om-make-point 23 170) (quote ((om-load-inputfun (quote input-funbox) "" "out" nil))) nil nil) (om-load-boxcall (quote bastype) "aux 2" (quote t) (quote nil) (om-make-point 124 91) (om-make-point 48 32) 6000 "6000" nil) (om-load-boxcall (quote genfun) "OM+" (quote om+) (quote ((om-load-inputfun (quote input-funbox) "number or list" "ARG1" 0) (om-load-inputfun (quote input-funbox) "number or list" "ARG2" 0))) (om-make-point 63 124) nil nil nil nil 1) (om-load-boxcall (quote bastype) "aux" (quote t) (quote nil) (om-make-point 90 52) (om-make-point 41 32) 100 "100" nil) (om-load-boxcall (quote genfun) "OM*" (quote om*) (quote ((om-load-inputfun (quote input-funbox) "number or list" "ARG1" 0) (om-load-inputfun (quote input-funbox) "number or list" "ARG2" 0))) (om-make-point 36 108) nil nil nil nil 1) (om-load-boxin "input" 0 (om-make-point 5 45) "" nil nil nil))) (quote ((2 0 0 0 nil 0) (4 0 2 0 nil 0) (1 0 2 1 nil 0) (5 0 4 0 nil 0) (3 0 4 1 nil 0))) 6.080003 nil "" (om-make-point 200 200) (om-make-point 500 400)) (quote ((om-load-inputfun (quote input-funbox) "" "input" nil))) (om-make-point 1018 733) nil (list (list (list 6000 6100 6200) (list 6000 6100 6300) (list 6000 6100 6400) (list 6000 6100 6500) (list 6000 6100 6600) (list 6000 6200 6400) (list 6000 6200 6500) (list 6000 6200 6600) (list 6000 6200 6700) (list 6000 6300 6600) (list 6000 6300 6700) (list 6000 6400 6800))) nil "base_C4") (om-load-boxcall (quote abstraction) "base_random" (om-load-patch-abs1 "base_random" (quote ((om-load-boxcall (quote lispfun) "MAPCAR" (quote mapcar) (quote ((om-load-inputfun (quote input-funbox) "FUNCTION" "FUNCTION" nil) (om-load-inputfun (quote input-funbox) "LIST" "LIST" nil))) (om-make-point 247 267) nil nil nil nil 1) (om-load-boxcall (quote abstraction) "recursivorandom" (om-load-patch-abs1 "recursivorandom" (quote ((om-load-boxout "output" 0 (om-make-point 189 229) (quote ((om-load-inputfun (quote input-funbox) "" "out" nil))) nil nil) (om-load-boxin "input" 0 (om-make-point 194 67) "" nil nil nil) (om-load-boxcall (quote lispfun) "MAPCAR" (quote mapcar) (quote ((om-load-inputfun (quote input-funbox) "FUNCTION" "FUNCTION" nil) (om-load-inputfun (quote input-funbox) "LIST" "LIST" nil))) (om-make-point 173 155) nil nil nil nil 1) (om-load-boxcall (quote abstraction) "randomC" (om-load-patch-abs1 "randomC" (quote ((om-load-boxout "output" 0 (om-make-point 65 419) (quote ((om-load-inputfun (quote input-funbox) "" "out" nil))) nil nil) (om-load-boxcall (quote genfun) "OM*" (quote om*) (quote ((om-load-inputfun (quote input-funbox) "number or list" "ARG1" 0) (om-load-inputfun (quote input-funbox) "number or list" "ARG2" 0))) (om-make-point 146 159) nil nil nil nil 1) (om-load-boxcall (quote bastype) "aux 4" (quote t) (quote nil) (om-make-point 226 129) (om-make-point 48 32) 1200 "1200" nil) (om-load-boxcall (quote genfun) "OM+" (quote om+) (quote ((om-load-inputfun (quote input-funbox) "number or list" "ARG1" 0) (om-load-inputfun (quote input-funbox) "number or list" "ARG2" 3600))) (om-make-point 115 213) (om-make-point 20 35) nil nil nil 1) (om-load-boxcall (quote bastype) "aux 3" (quote t) (quote nil) (om-make-point 205 184) (om-make-point 48 32) 2400 "2400" nil) (om-load-boxcall (quote bastype) "aux 2" (quote t) (quote nil) (om-make-point 147 8) (om-make-point 27 32) 1 "1" nil) (om-load-boxcall (quote bastype) "aux" (quote t) (quote nil) (om-make-point 244 38) (om-make-point 27 32) 5 "5" nil) (om-load-boxcall (quote genfun) "OM-RANDOM" (quote om-random) (quote ((om-load-inputfun (quote input-funbox) "min" "LOW" 0) (om-load-inputfun (quote input-funbox) "max" "HIGH" 1))) (om-make-point 126 74) nil nil nil nil 1))) (quote ((3 0 0 0 nil 0) (7 0 1 0 nil 0) (2 0 1 1 nil 0) (1 0 3 0 nil 0) (4 0 3 1 nil 0) (5 0 7 0 nil 0) (6 0 7 1 nil 0))) 6.080003 nil "" (om-make-point 200 200) (om-make-point 500 400)) (quote nil) (om-make-point 41 103) nil (list 9600) nil "randomC") (om-load-boxcall (quote genfun) "OM+" (quote om+) (quote ((om-load-inputfun (quote input-funbox) "number or list" "ARG1" 0) (om-load-inputfun (quote input-funbox) "number or list" "ARG2" 0))) (om-make-point 44 185) (om-make-point 46 35) nil "l" nil 1))) (quote ((2 0 0 0 nil 0) (4 0 2 0 nil 0) (1 0 2 1 nil 0) (3 0 4 1 nil 0))) 6.080003 nil "" (om-make-point 200 200) (om-make-point 500 400)) (quote ((om-load-inputfun (quote input-funbox) "" "input" nil))) (om-make-point 80 226) nil nil "l" "recursivorandom") (om-load-boxout "output" 0 (om-make-point 24 321) (quote ((om-load-inputfun (quote input-funbox) "" "out" nil))) nil nil) (om-load-boxcall (quote bastype) "aux" (quote t) (quote nil) (om-make-point 90 52) (om-make-point 41 32) 100 "100" nil) (om-load-boxcall (quote genfun) "OM*" (quote om*) (quote ((om-load-inputfun (quote input-funbox) "number or list" "ARG1" 0) (om-load-inputfun (quote input-funbox) "number or list" "ARG2" 0))) (om-make-point 36 108) nil nil nil nil 1) (om-load-boxin "input" 0 (om-make-point 5 45) "" nil nil nil))) (quote ((1 0 0 0 nil 0) (4 0 0 1 nil 0) (0 0 2 0 nil 0) (5 0 4 0 nil 0) (3 0 4 1 nil 0))) 6.080003 nil "" (om-make-point 0 0) (om-make-point 500 373)) (quote ((om-load-inputfun (quote input-funbox) "" "input" nil))) (om-make-point 1094 702) nil (list (list (list 7200 8500 3800) (list 8400 6100 8700) (list 3600 7300 8800) (list 4800 4900 4100) (list 8400 4900 7800) (list 4800 5000 6400) (list 3600 5000 8900) (list 8400 3800 5400) (list 6000 8600 9100) (list 3600 6300 7800) (list 3600 3900 7900) (list 6000 8800 5600))) nil "base_random") (om-load-boxcall (quote genfun) "X-APPEND 2" (quote x-append) (quote ((om-load-inputfun (quote input-funbox) "first element" "L1?" nil) (om-load-inputfun (quote input-funbox) "second element" "L2?" nil) (om-load-inputfun (quote input-funbox) "additional elements" "LST?" nil))) (om-make-point 1039 799) (om-make-point 298 60) nil nil nil 1) (om-load-boxcall (quote genfun) "SUBS-POSN" (quote subs-posn) (quote ((om-load-inputfun (quote input-funbox) "a list" "LIS1" (list 0 1 2 3)) (om-load-inputfun (quote input-funbox) "a list of indices" "POSN" (list 1 3 5 7 9 11)) (om-load-inputfun (quote input-funbox) "a list or value" "VAL" (list (quote a) (quote b))))) (om-make-point 1220 731) nil nil nil nil 1) (om-load-boxcall (quote genfun) "FLAT" (quote flat) (quote ((om-load-inputfun (quote input-funbox) "a list" "LST" nil))) (om-make-point 1303 691) nil nil nil nil 1) (om-load-editor-box1 "CHORD-SEQ 4" (quote chord-seq) (quote ((om-load-inputfun (quote input-funbox) "object" "self" nil) (om-load-inputfun (quote input-funbox) "pitches (mc): list or list of lists" "lmidic" (list 6000)) (om-load-inputfun (quote input-funbox) "onsets (ms): list" "lonset" (list 0 75)) (om-load-inputfun (quote input-funbox) "durations (ms): list or list of lists" "ldur" (list 1000)) (om-load-inputfun (quote input-funbox) "velocities (0-127): list or list of lists" "lvel" (list 100)) (om-load-inputfun (quote input-funbox) "offsets (ms): list or list of lists" "loffset" (list 0)) (om-load-inputfun (quote input-funbox) "MIDI channels (1-16): list or list of lists" "lchan" (list 1)) (om-load-inputfun (quote input-funbox) "relative chords duration (0-100)" "legato" 0))) (om-make-point 1393 854) (om-make-point 207 149) (let ((newobj (when (find-class (quote chord-seq) nil) (make-instance (quote chord-seq) :lmidic (quote ((6000) (6100) (6200) (6000) (6100) (6300) (6000) (6100) (6400) (6000) (6100) (6500) (6000) (6100) (6600) (6000) (6200) (6400) (6000) (6200) (6500) (6000) (6200) (6600) (6000) (6200) (6700) (6000) (6300) (6600) (6000) (6300) (6700) (6000) (6400) (6800))) :lonset (quote (0 75 150 225 300 375 450 525 600 675 750 825 900 975 1050 1125 1200 1275 1350 1425 1500 1575 1650 1725 1800 1875 1950 2025 2100 2175 2250 2325 2400 2475 2550 2625 3625)) :ldur (quote ((1000) (1000) (1000) (1000) (1000) (1000) (1000) (1000) (1000) (1000) (1000) (1000) (1000) (1000) (1000) (1000) (1000) (1000) (1000) (1000) (1000) (1000) (1000) (1000) (1000) (1000) (1000) (1000) (1000) (1000) (1000) (1000) (1000) (1000) (1000) (1000))) :lvel (quote ((100) (100) (100) (100) (100) (100) (100) (100) (100) (100) (100) (100) (100) (100) (100) (100) (100) (100) (100) (100) (100) (100) (100) (100) (100) (100) (100) (100) (100) (100) (100) (100) (100) (100) (100) (100))) :loffset (quote ((0) (0) (0) (0) (0) (0) (0) (0) (0) (0) (0) (0) (0) (0) (0) (0) (0) (0) (0) (0) (0) (0) (0) (0) (0) (0) (0) (0) (0) (0) (0) (0) (0) (0) (0) (0))) :lchan (quote ((1) (1) (1) (1) (1) (1) (1) (1) (1) (1) (1) (1) (1) (1) (1) (1) (1) (1) (1) (1) (1) (1) (1) (1) (1) (1) (1) (1) (1) (1) (1) (1) (1) (1) (1) (1))) :legato 0)))) (load-port-info newobj (quote ((0) (0) (0) (0) (0) (0) (0) (0) (0) (0) (0) (0) (0) (0) (0) (0) (0) (0) (0) (0) (0) (0) (0) (0) (0) (0) (0) (0) (0) (0) (0) (0) (0) (0) (0) (0)))) (init-mus-color newobj (quote nil)) (set-extra-pairs newobj (quote nil)) (set-patch-pairs newobj (quote nil)) (set-name newobj nil) (set-tonalite newobj nil) newobj) nil nil (pairlis (quote (approx fontsize staff cmnpref deltapict outport inport player zoom notechancolor? grillestep mode winsize winpos score-mode obj-mode cursor-mode show-stems scale)) (list 2 24 (quote ggff) (let ((newobj (make-instance (quote edition-values)))) (setf (paper-size newobj) (om-make-point 600 800)) (setf (top-margin newobj) 2) (setf (left-margin newobj) 1) (setf (right-margin newobj) 1) (setf (bottom-margin newobj) 1) (setf (orientation newobj) nil) (setf (scale newobj) nil) (setf (system-space newobj) (quote (1))) (setf (system-color newobj) (quote nil)) (setf (line-space newobj) 1) (setf (title newobj) nil) (setf (show-title? newobj) nil) (setf (show-page? newobj) nil) (setf (sheet-id newobj) nil) (setf (page-mode newobj) nil) newobj) (om-make-point 0 0) nil nil (quote :jackmidi) 1 nil 1000 0 (om-make-point 624 309) (om-make-point 0 0) 0 1 (quote :normal) (quote t) nil)) t nil nil nil) (om-load-boxcall (quote bastype) "aux 7" (quote t) (quote nil) (om-make-point 1120 374) (om-make-point 60 32) (list 0 300) "(0 300)" nil) (om-load-boxcall (quote genfun) "C2CHORD-SEQ 2" (quote c2chord-seq) (quote ((om-load-inputfun (quote input-funbox) "the cercle" "SELF" nil) (om-load-inputfun (quote input-funbox) "initial value" "BASE" 6000) (om-load-inputfun (quote input-funbox) "approx" "APPROX" 100))) (om-make-point 1044 210) nil nil nil nil 1) (om-load-editor-box1 "CHORD-SEQ 2" (quote chord-seq) (quote ((om-load-inputfun (quote input-funbox) "object" "self" nil) (om-load-inputfun (quote input-funbox) "pitches (mc): list or list of lists" "lmidic" (list 6000)) (om-load-inputfun (quote input-funbox) "onsets (ms): list" "lonset" (list 0 1000)) (om-load-inputfun (quote input-funbox) "durations (ms): list or list of lists" "ldur" (list 1000)) (om-load-inputfun (quote input-funbox) "velocities (0-127): list or list of lists" "lvel" (list 100)) (om-load-inputfun (quote input-funbox) "offsets (ms): list or list of lists" "loffset" (list 0)) (om-load-inputfun (quote input-funbox) "MIDI channels (1-16): list or list of lists" "lchan" (list 1)) (om-load-inputfun (quote input-funbox) "relative chords duration (0-100)" "legato" 0))) (om-make-point 1034 278) (om-make-point 85 73) (let ((newobj (when (find-class (quote chord-seq) nil) (make-instance (quote chord-seq) :lmidic (quote ((6000 6100 6200) (6000 6100 6300) (6000 6100 6400) (6000 6100 6500) (6000 6100 6600) (6000 6200 6400) (6000 6200 6500) (6000 6200 6600) (6000 6200 6700) (6000 6300 6600) (6000 6300 6700) (6000 6400 6800))) :lonset (quote (0 1000 2000 3000 4000 5000 6000 7000 8000 9000 10000 11000 12000)) :ldur (quote ((1000 1000 1000) (1000 1000 1000) (1000 1000 1000) (1000 1000 1000) (1000 1000 1000) (1000 1000 1000) (1000 1000 1000) (1000 1000 1000) (1000 1000 1000) (1000 1000 1000) (1000 1000 1000) (1000 1000 1000))) :lvel (quote ((100 100 100) (100 100 100) (100 100 100) (100 100 100) (100 100 100) (100 100 100) (100 100 100) (100 100 100) (100 100 100) (100 100 100) (100 100 100) (100 100 100))) :loffset (quote ((0 0 0) (0 0 0) (0 0 0) (0 0 0) (0 0 0) (0 0 0) (0 0 0) (0 0 0) (0 0 0) (0 0 0) (0 0 0) (0 0 0))) :lchan (quote ((1 1 1) (1 1 1) (1 1 1) (1 1 1) (1 1 1) (1 1 1) (1 1 1) (1 1 1) (1 1 1) (1 1 1) (1 1 1) (1 1 1))) :legato 0)))) (load-port-info newobj (quote ((0 0 0) (0 0 0) (0 0 0) (0 0 0) (0 0 0) (0 0 0) (0 0 0) (0 0 0) (0 0 0) (0 0 0) (0 0 0) (0 0 0)))) (init-mus-color newobj (quote nil)) (set-extra-pairs newobj (quote nil)) (set-patch-pairs newobj (quote nil)) (set-name newobj nil) (set-tonalite newobj nil) newobj) nil nil (pairlis (quote (approx fontsize staff cmnpref deltapict outport inport player zoom notechancolor? grillestep mode winsize winpos score-mode obj-mode cursor-mode show-stems scale)) (list 2 24 (quote g) (let ((newobj (make-instance (quote edition-values)))) (setf (paper-size newobj) (om-make-point 600 800)) (setf (top-margin newobj) 2) (setf (left-margin newobj) 1) (setf (right-margin newobj) 1) (setf (bottom-margin newobj) 1) (setf (orientation newobj) nil) (setf (scale newobj) nil) (setf (system-space newobj) (quote (1))) (setf (system-color newobj) (quote nil)) (setf (line-space newobj) 1) (setf (title newobj) nil) (setf (show-title? newobj) nil) (setf (show-page? newobj) nil) (setf (sheet-id newobj) nil) (setf (page-mode newobj) nil) newobj) (om-make-point 0 0) nil nil (quote :jackmidi) 1 nil 1000 0 (om-make-point 370 280) (om-make-point 400 20) 0 1 (quote :normal) (quote t) nil)) nil nil nil nil) (om-load-editor-box1 "CHORD-SEQ 3" (quote chord-seq) (quote ((om-load-inputfun (quote input-funbox) "object" "self" nil) (om-load-inputfun (quote input-funbox) "pitches (mc): list or list of lists" "lmidic" (list 6000)) (om-load-inputfun (quote input-funbox) "onsets (ms): list" "lonset" (list 0 1000)) (om-load-inputfun (quote input-funbox) "durations (ms): list or list of lists" "ldur" (list 1000)) (om-load-inputfun (quote input-funbox) "velocities (0-127): list or list of lists" "lvel" (list 100)) (om-load-inputfun (quote input-funbox) "offsets (ms): list or list of lists" "loffset" (list 0)) (om-load-inputfun (quote input-funbox) "MIDI channels (1-16): list or list of lists" "lchan" (list 1)) (om-load-inputfun (quote input-funbox) "relative chords duration (0-100)" "legato" 0))) (om-make-point 1043 404) (om-make-point 246 87) (let ((newobj (when (find-class (quote chord-seq) nil) (make-instance (quote chord-seq) :lmidic (quote ((6000 6100 6200) (6000 6100 6300) (6000 6100 6400) (6000 6100 6500) (6000 6100 6600) (6000 6200 6400) (6000 6200 6500) (6000 6200 6600) (6000 6200 6700) (6000 6300 6600) (6000 6300 6700) (6000 6400 6800))) :lonset (quote (0 300 600 900 1200 1500 1800 2100 2400 2700 3000 3300 4300)) :ldur (quote ((1000 1000 1000) (1000 1000 1000) (1000 1000 1000) (1000 1000 1000) (1000 1000 1000) (1000 1000 1000) (1000 1000 1000) (1000 1000 1000) (1000 1000 1000) (1000 1000 1000) (1000 1000 1000) (1000 1000 1000))) :lvel (quote ((100 100 100) (100 100 100) (100 100 100) (100 100 100) (100 100 100) (100 100 100) (100 100 100) (100 100 100) (100 100 100) (100 100 100) (100 100 100) (100 100 100))) :loffset (quote ((0 0 0) (0 0 0) (0 0 0) (0 0 0) (0 0 0) (0 0 0) (0 0 0) (0 0 0) (0 0 0) (0 0 0) (0 0 0) (0 0 0))) :lchan (quote ((1 1 1) (1 1 1) (1 1 1) (1 1 1) (1 1 1) (1 1 1) (1 1 1) (1 1 1) (1 1 1) (1 1 1) (1 1 1) (1 1 1))) :legato 0)))) (load-port-info newobj (quote ((0 0 0) (0 0 0) (0 0 0) (0 0 0) (0 0 0) (0 0 0) (0 0 0) (0 0 0) (0 0 0) (0 0 0) (0 0 0) (0 0 0)))) (init-mus-color newobj (quote nil)) (set-extra-pairs newobj (quote nil)) (set-patch-pairs newobj (quote nil)) (set-name newobj nil) (set-tonalite newobj nil) newobj) nil nil (pairlis (quote (approx fontsize staff cmnpref deltapict outport inport player zoom notechancolor? grillestep mode winsize winpos score-mode obj-mode cursor-mode show-stems scale)) (list 2 24 (quote g) (let ((newobj (make-instance (quote edition-values)))) (setf (paper-size newobj) (om-make-point 600 800)) (setf (top-margin newobj) 2) (setf (left-margin newobj) 1) (setf (right-margin newobj) 1) (setf (bottom-margin newobj) 1) (setf (orientation newobj) nil) (setf (scale newobj) nil) (setf (system-space newobj) (quote (1))) (setf (system-color newobj) (quote nil)) (setf (line-space newobj) 1) (setf (title newobj) nil) (setf (show-title? newobj) nil) (setf (show-page? newobj) nil) (setf (sheet-id newobj) nil) (setf (page-mode newobj) nil) newobj) (om-make-point 0 0) nil nil (quote :jackmidi) 1 nil 1000 0 (om-make-point 370 280) (om-make-point 400 20) 0 1 (quote :normal) (quote t) nil)) t nil nil nil) (om-load-editor-box1 "N-CERCLE1 6" (quote n-cercle) (quote ((om-load-inputfun (quote input-funbox) "objs" "SELF" nil) (om-load-inputfun (quote input-funbox) "no documentation" "N" 12) (om-load-inputfun (quote input-funbox) "no documentation" "PUNTOS" (list 0 5 7)))) (om-make-point 1024 75) (om-make-point 120 131) (if (find-class (quote n-cercle) nil) (make-instance (quote n-cercle) :n 12 :puntos (list (list 0 1 2) (list 0 1 3) (list 0 1 4) (list 0 1 5) (list 0 1 6) (list 0 2 4) (list 0 2 5) (list 0 2 6) (list 0 2 7) (list 0 3 6) (list 0 3 7) (list 0 4 8)) :from-file t)) "x" nil (pairlis (quote (show-stems obj-mode palette-mode deltapict outport inport zoom cmnpref notechancolor? grillestep mode winsize winpos)) (list (quote t) 0 0 (om-make-point 0 0) 0 0 1 (let ((newobj (make-instance (quote edition-values)))) (setf (paper-size newobj) (om-make-point 600 800)) (setf (top-margin newobj) 2) (setf (left-margin newobj) 1) (setf (right-margin newobj) 1) (setf (bottom-margin newobj) 1) (setf (orientation newobj) nil) (setf (scale newobj) nil) (setf (system-space newobj) (quote (1))) (setf (system-color newobj) (quote nil)) (setf (line-space newobj) 1) (setf (title newobj) nil) (setf (show-title? newobj) nil) (setf (show-page? newobj) nil) (setf (sheet-id newobj) nil) (setf (page-mode newobj) nil) newobj) nil 1000 0 18350450 2621450)) t nil nil nil) (om-load-boxcomment "comment 5" (om-make-point 52 58) (quote "E)") "" (om-make-point 887 333) nil (om-make-color 0 0 0) (om-make-font "DejaVu Sans" 37.33203125D0 :family "DejaVu Sans" :style (quote (:plain)) :mode (quote nil))) (om-load-boxcomment "comment 4" (om-make-point 52 58) (quote "C)") "" (om-make-point 365 275) nil (om-make-color 0 0 0) (om-make-font "DejaVu Sans" 37.33203125D0 :family "DejaVu Sans" :style (quote (:plain)) :mode (quote nil))) (om-load-boxcomment "comment 3" (om-make-point 52 58) (quote "D)") "" (om-make-point 242 515) nil (om-make-color 0 0 0) (om-make-font "DejaVu Sans" 37.33203125D0 :family "DejaVu Sans" :style (quote (:plain)) :mode (quote nil))) (om-load-boxcomment "comment 2" (om-make-point 52 58) (quote "B)") "" (om-make-point 104 261) nil (om-make-color 0 0 0) (om-make-font "DejaVu Sans" 37.33203125D0 :family "DejaVu Sans" :style (quote (:plain)) :mode (quote nil))) (om-load-boxcomment "comment" (om-make-point 52 58) (quote "A)") "" (om-make-point 103 31) nil (om-make-color 0 0 0) (om-make-font "DejaVu Sans" 37.33203125D0 :family "DejaVu Sans" :style (quote (:plain)) :mode (quote nil))) (om-load-editor-box1 "CHORD-SEQ" (quote chord-seq) (quote ((om-load-inputfun (quote input-funbox) "object" "self" nil) (om-load-inputfun (quote input-funbox) "pitches (mc): list or list of lists" "lmidic" (list 6000)) (om-load-inputfun (quote input-funbox) "onsets (ms): list" "lonset" (list 0 400)) (om-load-inputfun (quote input-funbox) "durations (ms): list or list of lists" "ldur" (list 1000)) (om-load-inputfun (quote input-funbox) "velocities (0-127): list or list of lists" "lvel" (list 100)) (om-load-inputfun (quote input-funbox) "offsets (ms): list or list of lists" "loffset" (list 0)) (om-load-inputfun (quote input-funbox) "MIDI channels (1-16): list or list of lists" "lchan" (list 1)) (om-load-inputfun (quote input-funbox) "relative chords duration (0-100)" "legato" 0))) (om-make-point 807 472) (om-make-point 153 89) (let ((newobj (when (find-class (quote chord-seq) nil) (make-instance (quote chord-seq) :lmidic (quote ((6000 6300 6700) (6000 6900 6500) (6000 6400 6700))) :lonset (quote (0 1000 2000 3000)) :ldur (quote ((1000 1000 1000) (1000 1000 1000) (1000 1000 1000))) :lvel (quote ((100 100 100) (100 100 100) (100 100 100))) :loffset (quote ((0 0 0) (0 0 0) (0 0 0))) :lchan (quote ((1 1 1) (1 1 1) (1 1 1))) :legato 0)))) (load-port-info newobj (quote ((0 0 0) (0 0 0) (0 0 0)))) (init-mus-color newobj (quote nil)) (set-extra-pairs newobj (quote nil)) (set-patch-pairs newobj (quote nil)) (set-name newobj nil) (set-tonalite newobj nil) newobj) nil nil (pairlis (quote (scale show-stems cursor-mode obj-mode score-mode winpos winsize mode grillestep notechancolor? zoom player inport outport deltapict cmnpref staff fontsize approx)) (list nil (quote t) (quote :normal) 1 0 (om-make-point 400 20) (om-make-point 370 280) 0 1000 nil 1 (quote :jackmidi) nil nil (om-make-point 0 0) (let ((newobj (make-instance (quote edition-values)))) (setf (paper-size newobj) (om-make-point 600 800)) (setf (top-margin newobj) 2) (setf (left-margin newobj) 1) (setf (right-margin newobj) 1) (setf (bottom-margin newobj) 1) (setf (orientation newobj) nil) (setf (scale newobj) nil) (setf (system-space newobj) (quote (1))) (setf (system-color newobj) (quote nil)) (setf (line-space newobj) 1) (setf (title newobj) nil) (setf (show-title? newobj) nil) (setf (show-page? newobj) nil) (setf (sheet-id newobj) nil) (setf (page-mode newobj) nil) newobj) (quote g) 24 2)) t nil nil nil) (om-load-boxcall (quote genfun) "C2CHORD-SEQ" (quote c2chord-seq) (quote ((om-load-inputfun (quote input-funbox) "the cercle" "SELF" nil) (om-load-inputfun (quote input-funbox) "initial value" "BASE" 6000) (om-load-inputfun (quote input-funbox) "approx" "APPROX" 100))) (om-make-point 809 389) nil nil nil nil 1) (om-load-boxcall (quote genfun) "X-APPEND" (quote x-append) (quote ((om-load-inputfun (quote input-funbox) "first element" "L1?" nil) (om-load-inputfun (quote input-funbox) "second element" "L2?" nil) (om-load-inputfun (quote input-funbox) "additional elements" "LST?" nil))) (om-make-point 720 503) nil nil nil nil 1) (om-load-boxcall (quote genfun) "P-FORM" (quote p-form) (quote ((om-load-inputfunmenu1 (quote input-funmenu) "" "TYPE" (quote :integer) (list (list "fn" (quote :fn)) (list "integer" (quote :integer)) (list "pitch" (quote :pitch)))) (om-load-inputfun (quote input-funbox) "" "SET" (list 3 9 6 5 0)))) (om-make-point 459 427) nil nil nil nil 1) (om-load-editor-box1 "N-CERCLE1 5" (quote n-cercle) (quote ((om-load-inputfun (quote input-funbox) "objs" "SELF" nil) (om-load-inputfun (quote input-funbox) "no documentation" "N" 12) (om-load-inputfun (quote input-funbox) "no documentation" "PUNTOS" (list 0 5 7)))) (om-make-point 513 426) (om-make-point 120 131) (if (find-class (quote n-cercle) nil) (make-instance (quote n-cercle) :n 12 :puntos (list (list 0 4 7)) :from-file t)) nil nil (pairlis (quote (show-stems obj-mode palette-mode deltapict outport inport zoom cmnpref notechancolor? grillestep mode winsize winpos)) (list (quote t) 0 0 (om-make-point 0 0) 0 0 1 (let ((newobj (make-instance (quote edition-values)))) (setf (paper-size newobj) (om-make-point 600 800)) (setf (top-margin newobj) 2) (setf (left-margin newobj) 1) (setf (right-margin newobj) 1) (setf (bottom-margin newobj) 1) (setf (orientation newobj) nil) (setf (scale newobj) nil) (setf (system-space newobj) (quote (1))) (setf (system-color newobj) (quote nil)) (setf (line-space newobj) 1) (setf (title newobj) nil) (setf (show-title? newobj) nil) (setf (show-page? newobj) nil) (setf (sheet-id newobj) nil) (setf (page-mode newobj) nil) newobj) nil 1000 0 18350450 2621450)) t nil nil nil) (om-load-editor-box1 "N-CERCLE1 4" (quote n-cercle) (quote ((om-load-inputfun (quote input-funbox) "objs" "SELF" nil) (om-load-inputfun (quote input-funbox) "no documentation" "N" 12) (om-load-inputfun (quote input-funbox) "no documentation" "PUNTOS" (list 0 5 7)))) (om-make-point 830 202) (om-make-point 120 131) (if (find-class (quote n-cercle) nil) (make-instance (quote n-cercle) :n 12 :puntos (list (list 0 3 7) (list 0 9 5) (list 0 4 7)) :from-file t)) nil nil (pairlis (quote (show-stems obj-mode palette-mode deltapict outport inport zoom cmnpref notechancolor? grillestep mode winsize winpos)) (list (quote t) 0 0 (om-make-point 0 0) 0 0 1 (let ((newobj (make-instance (quote edition-values)))) (setf (paper-size newobj) (om-make-point 600 800)) (setf (top-margin newobj) 2) (setf (left-margin newobj) 1) (setf (right-margin newobj) 1) (setf (bottom-margin newobj) 1) (setf (orientation newobj) nil) (setf (scale newobj) nil) (setf (system-space newobj) (quote (1))) (setf (system-color newobj) (quote nil)) (setf (line-space newobj) 1) (setf (title newobj) nil) (setf (show-title? newobj) nil) (setf (show-page? newobj) nil) (setf (sheet-id newobj) nil) (setf (page-mode newobj) nil) newobj) nil 1000 0 18350450 2621450)) t nil nil nil) (om-load-editor-box1 "N-CERCLE1 3" (quote n-cercle) (quote ((om-load-inputfun (quote input-funbox) "objs" "SELF" nil) (om-load-inputfun (quote input-funbox) "no documentation" "N" 12) (om-load-inputfun (quote input-funbox) "no documentation" "PUNTOS" (list 0 5 7)))) (om-make-point 320 430) (om-make-point 120 131) (if (find-class (quote n-cercle) nil) (make-instance (quote n-cercle) :n 12 :puntos (list (list 0 9 5)) :from-file t)) nil nil (pairlis (quote (show-stems obj-mode palette-mode deltapict outport inport zoom cmnpref notechancolor? grillestep mode winsize winpos)) (list (quote t) 0 0 (om-make-point 0 0) 0 0 1 (let ((newobj (make-instance (quote edition-values)))) (setf (paper-size newobj) (om-make-point 600 800)) (setf (top-margin newobj) 2) (setf (left-margin newobj) 1) (setf (right-margin newobj) 1) (setf (bottom-margin newobj) 1) (setf (orientation newobj) nil) (setf (scale newobj) nil) (setf (system-space newobj) (quote (1))) (setf (system-color newobj) (quote nil)) (setf (line-space newobj) 1) (setf (title newobj) nil) (setf (show-title? newobj) nil) (setf (show-page? newobj) nil) (setf (sheet-id newobj) nil) (setf (page-mode newobj) nil) newobj) nil 1000 0 18350450 2621450)) t nil nil nil) (om-load-boxcall (quote genfun) "INV" (quote inv) (quote ((om-load-inputfunmenu1 (quote input-funmenu) "" "TYPE" (quote :integer) (list (list "integer" (quote :integer)) (list "pitch" (quote :pitch)))) (om-load-inputfun (quote input-funbox) "" "SET" (list 0 1 2 7)))) (om-make-point 251 438) nil nil nil nil 1) (om-load-boxcall (quote bastype) "aux 6" (quote t) (quote nil) (om-make-point 106 348) (om-make-point 34 32) 10 "10" nil) (om-load-boxcall (quote lispfun) "NTH" (quote nth) (quote ((om-load-inputfun (quote input-funbox) "ORIG-N" "ORIG-N" nil) (om-load-inputfun (quote input-funbox) "ORIG-LIST" "ORIG-LIST" nil))) (om-make-point 129 384) nil nil nil nil 1) (om-load-editor-box1 "N-CERCLE1 2" (quote n-cercle) (quote ((om-load-inputfun (quote input-funbox) "objs" "SELF" nil) (om-load-inputfun (quote input-funbox) "no documentation" "N" 12) (om-load-inputfun (quote input-funbox) "no documentation" "PUNTOS" (list 0 5 7)))) (om-make-point 116 442) (om-make-point 120 131) (if (find-class (quote n-cercle) nil) (make-instance (quote n-cercle) :n 12 :puntos (list (list 0 3 7)) :from-file t)) nil nil (pairlis (quote (show-stems obj-mode palette-mode deltapict outport inport zoom cmnpref notechancolor? grillestep mode winsize winpos)) (list (quote t) 0 0 (om-make-point 0 0) 0 0 1 (let ((newobj (make-instance (quote edition-values)))) (setf (paper-size newobj) (om-make-point 600 800)) (setf (top-margin newobj) 2) (setf (left-margin newobj) 1) (setf (right-margin newobj) 1) (setf (bottom-margin newobj) 1) (setf (orientation newobj) nil) (setf (scale newobj) nil) (setf (system-space newobj) (quote (1))) (setf (system-color newobj) (quote nil)) (setf (line-space newobj) 1) (setf (title newobj) nil) (setf (show-title? newobj) nil) (setf (show-page? newobj) nil) (setf (sheet-id newobj) nil) (setf (page-mode newobj) nil) newobj) nil 1000 0 18350450 2621450)) t nil nil nil) (om-load-editor-box1 "TEXT-VIEW 5" (quote text-view) (quote ((om-load-inputfun (quote input-funbox) "dialog-item text (string)" "text" "untitled"))) (om-make-point 728 174) (om-make-point 67 239) (let ((rep (om-make-dialog-item (quote text-view) (om-make-point 1 1) (om-make-point 55 210) "untitled"))) (om-set-dialog-item-text rep "(1 1 10)
(1 2 9)
(1 3 8)
(1 4 7)
(1 5 6)
(2 2 8)
(2 3 7)
(2 4 6)
(2 5 5)
(3 3 6)
(3 4 5)
(4 4 4)
") rep) nil nil (pairlis (quote (winsize winpos)) (list (om-make-point 335 275) (om-make-point 10 40))) t nil nil nil) (om-load-boxcall (quote bastype) "aux 5" (quote t) (quote nil) (om-make-point 452 78) (om-make-point 51 32) (quote :pitch) ":pitch" nil) (om-load-boxcall (quote genfun) "PC-SET 3" (quote pc-set) (quote ((om-load-inputfunmenu1 (quote input-funmenu) "no documentation" "TYPE" (quote :pitch) (list (list "integer" (quote :integer)) (list "vector" (quote :vector)) (list "pitch" (quote :pitch)))) (om-load-inputfun (quote input-funbox) "no documentation" "FN-NAME" (quote |6-Z10|)))) (om-make-point 513 73) nil nil nil nil 1) (om-load-boxcall (quote lispfun) "MAPCAR" (quote mapcar) (quote ((om-load-inputfun (quote input-funbox) "FUNCTION" "FUNCTION" nil) (om-load-inputfun (quote input-funbox) "LIST" "LIST" nil))) (om-make-point 644 58) nil nil nil nil 1) (om-load-boxcall (quote bastype) "aux 4" (quote t) (quote nil) (om-make-point 750 26) (om-make-point 34 32) 12 "12" nil) (om-load-boxcall (quote genfun) "N-STRUCTURE" (quote n-structure) (quote ((om-load-inputfun (quote input-funbox) "values" "L" (list 5 7 9)) (om-load-inputfun (quote input-funbox) "n" "N" 12))) (om-make-point 689 40) nil nil "l" nil 1) (om-load-editor-box1 "TEXT-VIEW 4" (quote text-view) (quote ((om-load-inputfun (quote input-funbox) "dialog-item text (string)" "text" "untitled"))) (om-make-point 629 174) (om-make-point 95 241) (let ((rep (om-make-dialog-item (quote text-view) (om-make-point 1 1) (om-make-point 83 212) "untitled"))) (om-set-dialog-item-text rep "(2 1 0 0 0 0)
(1 1 1 0 0 0)
(1 0 1 1 0 0)
(1 0 0 1 1 0)
(1 0 0 0 1 1)
(0 2 0 1 0 0)
(0 1 1 0 1 0)
(0 1 0 1 0 1)
(0 1 0 0 2 0)
(0 0 2 0 0 1)
(0 0 1 1 1 0)
(0 0 0 3 0 0)
") rep) nil nil (pairlis (quote (winsize winpos)) (list (om-make-point 335 275) (om-make-point 10 40))) t nil nil nil) (om-load-boxcall (quote bastype) "aux 3" (quote t) (quote nil) (om-make-point 560 49) (om-make-point 60 32) (quote :vector) ":vector" nil) (om-load-editor-box1 "TEXT-VIEW 3" (quote text-view) (quote ((om-load-inputfun (quote input-funbox) "dialog-item text (string)" "text" "untitled"))) (om-make-point 543 173) (om-make-point 84 240) (let ((rep (om-make-dialog-item (quote text-view) (om-make-point 1 1) (om-make-point 72 211) "untitled"))) (om-set-dialog-item-text rep "(c c# d)
(c c# d#)
(c c# e)
(c c# f)
(c c# f#)
(c d e)
(c d f)
(c d f#)
(c d g)
(c d# f#)
(c d# g)
(c e g#)
") rep) nil nil (pairlis (quote (winsize winpos)) (list (om-make-point 335 275) (om-make-point 10 40))) t nil nil nil) (om-load-boxcall (quote genfun) "PC-SET 2" (quote pc-set) (quote ((om-load-inputfunmenu1 (quote input-funmenu) "no documentation" "TYPE" (quote :vector) (list (list "integer" (quote :integer)) (list "vector" (quote :vector)) (list "pitch" (quote :pitch)))) (om-load-inputfun (quote input-funbox) "no documentation" "FN-NAME" (quote |6-Z10|)))) (om-make-point 601 82) nil nil nil nil 1) (om-load-editor-box1 "TEXT-VIEW 2" (quote text-view) (quote ((om-load-inputfun (quote input-funbox) "dialog-item text (string)" "text" "untitled"))) (om-make-point 475 173) (om-make-point 67 234) (let ((rep (om-make-dialog-item (quote text-view) (om-make-point 1 1) (om-make-point 55 205) "untitled"))) (om-set-dialog-item-text rep "(0 1 2)
(0 1 3)
(0 1 4)
(0 1 5)
(0 1 6)
(0 2 4)
(0 2 5)
(0 2 6)
(0 2 7)
(0 3 6)
(0 3 7)
(0 4 8)
") rep) nil nil (pairlis (quote (winsize winpos)) (list (om-make-point 335 275) (om-make-point 10 40))) t nil nil nil) (om-load-boxcall (quote bastype) "aux 2" (quote t) (quote nil) (om-make-point 108 135) (om-make-point 64 32) (quote :integer) ":integer" nil) (om-load-editor-box1 "TEXT-VIEW" (quote text-view) (quote ((om-load-inputfun (quote input-funbox) "dialog-item text (string)" "text" "untitled"))) (om-make-point 426 173) (om-make-point 47 236) (let ((rep (om-make-dialog-item (quote text-view) (om-make-point 1 1) (om-make-point 35 207) "untitled"))) (om-set-dialog-item-text rep "3-1
3-2
3-3
3-4
3-5
3-6
3-7
3-8
3-9
3-10
3-11
3-12
") rep) nil nil (pairlis (quote (winsize winpos)) (list (om-make-point 335 275) (om-make-point 10 40))) t nil nil nil) (om-load-boxcall (quote bastype) "aux" (quote t) (quote nil) (om-make-point 198 38) (om-make-point 27 32) 3 "3" nil) (om-load-editor-box1 "N-CERCLE1" (quote n-cercle) (quote ((om-load-inputfun (quote input-funbox) "objs" "SELF" nil) (om-load-inputfun (quote input-funbox) "no documentation" "N" 12) (om-load-inputfun (quote input-funbox) "no documentation" "PUNTOS" (list 0 5 7)))) (om-make-point 157 253) (om-make-point 120 131) (if (find-class (quote n-cercle) nil) (make-instance (quote n-cercle) :n 12 :puntos (list (list 0 1 2) (list 0 1 3) (list 0 1 4) (list 0 1 5) (list 0 1 6) (list 0 2 4) (list 0 2 5) (list 0 2 6) (list 0 2 7) (list 0 3 6) (list 0 3 7) (list 0 4 8)) :from-file t)) nil nil (pairlis (quote (show-stems obj-mode palette-mode deltapict outport inport zoom cmnpref notechancolor? grillestep mode winsize winpos)) (list (quote t) 0 0 (om-make-point 0 0) 0 0 1 (let ((newobj (make-instance (quote edition-values)))) (setf (paper-size newobj) (om-make-point 600 800)) (setf (top-margin newobj) 2) (setf (left-margin newobj) 1) (setf (right-margin newobj) 1) (setf (bottom-margin newobj) 1) (setf (orientation newobj) nil) (setf (scale newobj) nil) (setf (system-space newobj) (quote (1))) (setf (system-color newobj) (quote nil)) (setf (line-space newobj) 1) (setf (title newobj) nil) (setf (show-title? newobj) nil) (setf (show-page? newobj) nil) (setf (sheet-id newobj) nil) (setf (page-mode newobj) nil) newobj) nil 1000 0 18350450 2621450)) t nil nil nil) (om-load-boxcall (quote genfun) "PC-SET" (quote pc-set) (quote ((om-load-inputfunmenu1 (quote input-funmenu) "no documentation" "TYPE" (quote :integer) (list (list "integer" (quote :integer)) (list "vector" (quote :vector)) (list "pitch" (quote :pitch)))) (om-load-inputfun (quote input-funbox) "no documentation" "FN-NAME" (quote |6-Z10|)))) (om-make-point 190 179) nil nil nil nil 1) (om-load-boxcall (quote genfun) "DN-ORBITES" (quote dn-orbites) (quote ((om-load-inputfun (quote input-funbox) "no documentation" "SELF" 3))) (om-make-point 147 45) nil nil nil nil 1))) (quote ((4 0 1 1 nil 0) (0 2 2 0 nil 0) (0 2 3 0 nil 0) (2 0 4 0 nil 0) (3 0 4 1 nil 0) (5 0 4 2 nil 0) (2 0 5 0 nil 0) (3 0 5 2 nil 0) (2 0 6 0 nil 0) (6 0 7 1 nil 0) (12 0 9 0 nil 0) (9 0 10 0 nil 0) (10 1 11 1 nil 0) (8 0 11 2 nil 0) (19 0 18 0 nil 0) (23 0 19 0 nil 0) (28 2 20 0 ((om-make-point 204 571) (om-make-point 248 577) (om-make-point 661 575) (om-make-point 690 517) (om-make-point 735 503)) 2) (24 2 20 1 ((om-make-point 408 559) (om-make-point 688 563) (om-make-point 716 478) (om-make-point 750 498) (om-make-point 750 503)) 3) (22 2 20 2 ((om-make-point 601 555) (om-make-point 658 552) (om-make-point 716 462) (om-make-point 765 498) (om-make-point 765 503)) 4) (24 2 21 1 nil 3) (21 0 22 2 ((om-make-point 480 493) (om-make-point 504 493) (om-make-point 504 426) (om-make-point 606 426) (om-make-point 603 426)) 4) (20 0 23 2 ((om-make-point 748 561) (om-make-point 791 560) (om-make-point 808 197) (om-make-point 920 197) (om-make-point 920 202)) 0) (25 0 24 2 ((om-make-point 265 504) (om-make-point 290 504) (om-make-point 290 424) (om-make-point 410 423) (om-make-point 410 430)) 3) (28 2 25 1 nil 2) (26 0 27 0 nil 0) (43 2 27 1 nil 0) (27 0 28 2 nil 0) (32 0 29 0 nil 14) (30 0 31 0 nil 3) (45 0 31 1 nil 3) (34 0 32 0 nil 0) (44 0 32 1 ((om-make-point 209 245) (om-make-point 256 221) (om-make-point 479 28) (om-make-point 657 27) (om-make-point 678 58)) 14) (33 0 34 1 nil 0) (38 0 35 0 nil 5) (31 0 37 0 nil 3) (36 0 38 0 nil 5) (45 0 38 1 ((om-make-point 178 111) (om-make-point 359 38) (om-make-point 628 38) (om-make-point 629 77) (om-make-point 629 82)) 5) (44 0 39 0 ((om-make-point 209 245) (om-make-point 405 208) (om-make-point 414 138) (om-make-point 508 136) (om-make-point 509 173)) 1) (45 0 41 0 nil 2) (44 0 43 2 nil 0) (40 0 44 0 nil 0) (45 0 44 1 nil 0) (42 0 45 0 nil 0))) nil 6.080003))
