; OM File Header - Saved 2015/03/11 13:10:34
; (6.080003 :patc (om-make-point 280 110) (om-make-point 50 50) (om-make-point 500 400) "" 183 0 "2015/03/11 12:58:20" "2015/03/11 13:10:34")
; End File Header
(in-package :om)(load-lib-for (quote nil))(setf *om-current-persistent* (om-load-patch1 "fig65_fibo" (quote ((om-load-editor-box1 "CHORD-SEQ 2" (quote chord-seq) (quote ((om-load-inputfun (quote input-funbox) "object" "self" nil) (om-load-inputfun (quote input-funbox) "pitches (mc): list or list of lists" "lmidic" (list 6000)) (om-load-inputfun (quote input-funbox) "onsets (ms): list" "lonset" (list 0 300)) (om-load-inputfun (quote input-funbox) "durations (ms): list or list of lists" "ldur" (list 1000)) (om-load-inputfun (quote input-funbox) "velocities (0-127): list or list of lists" "lvel" (list 100)) (om-load-inputfun (quote input-funbox) "offsets (ms): list or list of lists" "loffset" (list 0)) (om-load-inputfun (quote input-funbox) "MIDI channels (1-16): list or list of lists" "lchan" (list 1)) (om-load-inputfun (quote input-funbox) "relative chords duration (0-100)" "legato" 0))) (om-make-point 676 464) (om-make-point 190 158) (let ((newobj (when (find-class (quote chord-seq) nil) (make-instance (quote chord-seq) :lmidic (quote ((3600) (4100) (4100) (4500) (5000) (5900) (7200))) :lonset (quote (0 300 600 900 1200 1500 1800 2800)) :ldur (quote ((1000) (1000) (1000) (1000) (1000) (1000) (1000))) :lvel (quote ((100) (100) (100) (100) (100) (100) (100))) :loffset (quote ((0) (0) (0) (0) (0) (0) (0))) :lchan (quote ((1) (1) (1) (1) (1) (1) (1))) :legato 0)))) (load-port-info newobj (quote ((0) (0) (0) (0) (0) (0) (0)))) (init-mus-color newobj (quote nil)) (set-extra-pairs newobj (quote nil)) (set-patch-pairs newobj (quote nil)) (set-name newobj nil) (set-tonalite newobj nil) newobj) "x" nil (pairlis (quote (scale show-stems cursor-mode obj-mode score-mode winpos winsize mode grillestep notechancolor? zoom player inport outport deltapict cmnpref staff fontsize approx)) (list nil (quote t) (quote :normal) 1 0 (om-make-point 0 0) (om-make-point 556 347) 0 1000 nil 1 (quote :jackmidi) nil nil (om-make-point 0 0) (let ((newobj (make-instance (quote edition-values)))) (setf (paper-size newobj) (om-make-point 600 800)) (setf (top-margin newobj) 2) (setf (left-margin newobj) 1) (setf (right-margin newobj) 1) (setf (bottom-margin newobj) 1) (setf (orientation newobj) nil) (setf (scale newobj) nil) (setf (system-space newobj) (quote (1))) (setf (system-color newobj) (quote nil)) (setf (line-space newobj) 1) (setf (title newobj) nil) (setf (show-title? newobj) nil) (setf (show-page? newobj) nil) (setf (sheet-id newobj) nil) (setf (page-mode newobj) nil) newobj) (quote gf) 24 2)) t nil nil nil) (om-load-boxcall (quote bastype) "aux 5" (quote t) (quote nil) (om-make-point 773 384) (om-make-point 41 32) 100 "100" nil) (om-load-boxcall (quote genfun) "OM* 2" (quote om*) (quote ((om-load-inputfun (quote input-funbox) "number or list" "ARG1" 0) (om-load-inputfun (quote input-funbox) "number or list" "ARG2" 0))) (om-make-point 682 391) (om-make-point 39 35) nil nil nil 1) (om-load-editor-box1 "TEXT-BOX 5" (quote text-box) (quote ((om-load-inputfun (quote input-funbox) "dialog-item text (string)" "text" "untitled"))) (om-make-point 655 301) (om-make-point 182 50) (om-make-dialog-item (quote text-box) (om-make-point 1 1) (om-make-point 162 23) "(36 41 41 45 50 59 72)" :font (om-make-font "DejaVu Sans" 10.998697916666666D0 :family "DejaVu Sans" :style (quote (:plain)) :mode (quote nil))) nil nil (pairlis (quote (winpos winsize)) (list (om-make-point 10 40) (om-make-point 335 275))) t nil nil nil) (om-load-editor-box1 "TEXT-BOX 4" (quote text-box) (quote ((om-load-inputfun (quote input-funbox) "dialog-item text (string)" "text" "untitled"))) (om-make-point 647 220) (om-make-point 327 50) (om-make-dialog-item (quote text-box) (om-make-point 1 1) (om-make-point 307 23) "(36 504/13 504/13 540/13 576/13 648/13 756/13 72)" :font (om-make-font "DejaVu Sans" 10.998697916666666D0 :family "DejaVu Sans" :style (quote (:plain)) :mode (quote nil))) nil nil (pairlis (quote (winpos winsize)) (list (om-make-point 10 40) (om-make-point 335 275))) t nil nil nil) (om-load-boxcall (quote bastype) "aux 4" (quote t) (quote nil) (om-make-point 469 90) (om-make-point 34 32) 72 "72" nil) (om-load-boxcall (quote bastype) "aux 3" (quote t) (quote nil) (om-make-point 422 43) (om-make-point 34 32) 36 "36" nil) (om-load-boxcall (quote genfun) "OM-ROUND" (quote om-round) (quote ((om-load-inputfun (quote input-funbox) "number or list" "N" 1))) (om-make-point 522 240) nil nil nil nil 1) (om-load-boxcall (quote genfun) "OM-SCALE" (quote om-scale) (quote ((om-load-inputfun (quote input-funbox) "number or list" "SELF" 1) (om-load-inputfun (quote input-funbox) "a number" "MINOUT" 0) (om-load-inputfun (quote input-funbox) "a number" "MAXOUT" 0))) (om-make-point 380 127) nil nil nil nil 1) (om-load-editor-box1 "TEXT-BOX 3" (quote text-box) (quote ((om-load-inputfun (quote input-funbox) "dialog-item text (string)" "text" "untitled"))) (om-make-point 438 506) (om-make-point 130 50) (om-make-dialog-item (quote text-box) (om-make-point 1 1) (om-make-point 110 23) "(0 1 1 2 3 5 8 13)" :font (om-make-font "DejaVu Sans" 10.998697916666666D0 :family "DejaVu Sans" :style (quote (:plain)) :mode (quote nil))) nil nil (pairlis (quote (winpos winsize)) (list (om-make-point 10 40) (om-make-point 335 275))) t nil nil nil) (om-load-editor-box1 "CHORD-SEQ" (quote chord-seq) (quote ((om-load-inputfun (quote input-funbox) "object" "self" nil) (om-load-inputfun (quote input-funbox) "pitches (mc): list or list of lists" "lmidic" (list 6000)) (om-load-inputfun (quote input-funbox) "onsets (ms): list" "lonset" (list 0 300)) (om-load-inputfun (quote input-funbox) "durations (ms): list or list of lists" "ldur" (list 1000)) (om-load-inputfun (quote input-funbox) "velocities (0-127): list or list of lists" "lvel" (list 100)) (om-load-inputfun (quote input-funbox) "offsets (ms): list or list of lists" "loffset" (list 0)) (om-load-inputfun (quote input-funbox) "MIDI channels (1-16): list or list of lists" "lchan" (list 1)) (om-load-inputfun (quote input-funbox) "relative chords duration (0-100)" "legato" 0))) (om-make-point 182 488) (om-make-point 200 103) (let ((newobj (when (find-class (quote chord-seq) nil) (make-instance (quote chord-seq) :lmidic (quote ((5200) (5200) (5300) (5400) (5600) (5900) (6400) (7200))) :lonset (quote (0 300 600 900 1200 1500 1800 2100 3100)) :ldur (quote ((1000) (1000) (1000) (1000) (1000) (1000) (1000) (1000))) :lvel (quote ((100) (100) (100) (100) (100) (100) (100) (100))) :loffset (quote ((0) (0) (0) (0) (0) (0) (0) (0))) :lchan (quote ((1) (1) (1) (1) (1) (1) (1) (1))) :legato 0)))) (load-port-info newobj (quote ((0) (0) (0) (0) (0) (0) (0) (0)))) (init-mus-color newobj (quote nil)) (set-extra-pairs newobj (quote nil)) (set-patch-pairs newobj (quote nil)) (set-name newobj nil) (set-tonalite newobj nil) newobj) nil nil (pairlis (quote (scale show-stems cursor-mode obj-mode score-mode winpos winsize mode grillestep notechancolor? zoom player inport outport deltapict cmnpref staff fontsize approx)) (list nil (quote t) (quote :normal) 1 0 (om-make-point 400 20) (om-make-point 370 280) 0 1000 nil 1 (quote :jackmidi) nil nil (om-make-point 0 0) (let ((newobj (make-instance (quote edition-values)))) (setf (paper-size newobj) (om-make-point 600 800)) (setf (top-margin newobj) 2) (setf (left-margin newobj) 1) (setf (right-margin newobj) 1) (setf (bottom-margin newobj) 1) (setf (orientation newobj) nil) (setf (scale newobj) nil) (setf (system-space newobj) (quote (1))) (setf (system-color newobj) (quote nil)) (setf (line-space newobj) 1) (setf (title newobj) nil) (setf (show-title? newobj) nil) (setf (show-page? newobj) nil) (setf (sheet-id newobj) nil) (setf (page-mode newobj) nil) newobj) (quote g) 24 2)) t nil nil nil) (om-load-boxcall (quote genfun) "X->DX" (quote x->dx) (quote ((om-load-inputfun (quote input-funbox) "a list of numbers" "SELF" 0))) (om-make-point 484 391) nil nil nil nil 1) (om-load-boxcall (quote bastype) "aux 2" (quote t) (quote nil) (om-make-point 279 408) (om-make-point 41 32) 100 "100" nil) (om-load-boxcall (quote genfun) "OM*" (quote om*) (quote ((om-load-inputfun (quote input-funbox) "number or list" "ARG1" 0) (om-load-inputfun (quote input-funbox) "number or list" "ARG2" 0))) (om-make-point 188 415) (om-make-point 39 35) nil nil nil 1) (om-load-editor-box1 "TEXT-BOX 2" (quote text-box) (quote ((om-load-inputfun (quote input-funbox) "dialog-item text (string)" "text" "untitled"))) (om-make-point 125 315) (om-make-point 219 50) (om-make-dialog-item (quote text-box) (om-make-point 1 1) (om-make-point 199 23) "(52 52 53 54 56 59 64 72)" :font (om-make-font "DejaVu Sans" 10.998697916666666D0 :family "DejaVu Sans" :style (quote (:plain)) :mode (quote nil))) nil nil (pairlis (quote (winpos winsize)) (list (om-make-point 10 40) (om-make-point 335 275))) t nil nil nil) (om-load-boxcall (quote bastype) "aux" (quote t) (quote nil) (om-make-point 115 141) (om-make-point 34 32) 52 "52" nil) (om-load-boxcall (quote genfun) "DX->X" (quote dx->x) (quote ((om-load-inputfun (quote input-funbox) "a number" "START" 0) (om-load-inputfun (quote input-funbox) "a list of numbers" "LIST" (list 1 1)))) (om-make-point 201 226) nil nil nil nil 1) (om-load-editor-box1 "TEXT-BOX" (quote text-box) (quote ((om-load-inputfun (quote input-funbox) "dialog-item text (string)" "text" "untitled"))) (om-make-point 199 119) (om-make-point 130 50) (om-make-dialog-item (quote text-box) (om-make-point 1 1) (om-make-point 110 23) "(0 1 1 2 3 5 8)" :font (om-make-font "DejaVu Sans" 10.998697916666666D0 :family "DejaVu Sans" :style (quote (:plain)) :mode (quote nil))) nil nil (pairlis (quote (winpos winsize)) (list (om-make-point 10 40) (om-make-point 335 275))) t nil nil nil) (om-load-boxcall (quote genfun) "FIBO-SER" (quote fibo-ser) (quote ((om-load-inputfun (quote input-funbox) "a number" "SEED1" 0) (om-load-inputfun (quote input-funbox) "a number" "SEED2" 1) (om-load-inputfun (quote input-funbox) "a number" "LIMIT" 10))) (om-make-point 257 24) nil nil nil nil 1))) (quote ((2 0 0 1 nil 0) (3 0 2 0 nil 0) (1 0 2 1 nil 0) (7 0 3 0 nil 0) (8 0 4 0 nil 0) (8 0 7 0 nil 0) (18 0 8 0 nil 0) (6 0 8 1 nil 0) (5 0 8 2 nil 0) (11 0 9 0 nil 0) (13 0 10 1 nil 0) (14 0 11 0 nil 0) (14 0 13 0 nil 0) (12 0 13 1 nil 0) (16 0 14 0 nil 0) (15 0 16 0 nil 0) (17 0 16 1 nil 0) (18 0 17 0 nil 0))) nil 6.080003))