; OM File Header - Saved 2014/12/30 1:48:01
; (6.080003 :patc (om-make-point 172 10) (om-make-point 0 50) (om-make-point 1364 639) "" 183 0 "2014/12/30 1:19:51" "2014/12/30 1:48:01")
; End File Header
(in-package :om)(load-lib-for (quote ("omlily")))(setf *om-current-persistent* (om-load-patch1 "simetrias" (quote ((om-load-boxcall (quote genfun) "OM->LILY" (quote om->lily) (quote ((om-load-inputfun (quote input-funbox) "self" "SELF" (quote t)))) (om-make-point 1048 615) nil nil nil nil 1) (om-load-boxcomment "comment" (om-make-point 100 60) (quote "no comment") nil (om-make-point 1084 295) nil (om-make-color 0 0 0) (om-make-font "Bitstream Vera Sans" 12 :family "Bitstream Vera Sans" :style (quote (:plain)) :mode (quote nil))) (om-load-boxcall (quote bastype) "aux 2" (quote t) (quote nil) (om-make-point 770 392) (om-make-point 106 32) (list (list 5 4) (list 3 8) (list 5 8)) "((5 4)(3 8)(5 8))" nil) (om-load-boxcall (quote bastype) "aux" (quote t) (quote nil) (om-make-point 581 352) (om-make-point 455 32) (list 1/8 1/16 1/8 1/4 1/8 1/8 1/8 1/16 1/8 3/4 1/8 1/8 1/16 1/8 1/16 1/8 1/16 1/8) "(1/8 1/16 1/8 1/4 1/8 1/8 1/8 1/16 1/8 3/4 1/8 1/8 1/16 1/8 1/16 1/8 1/16 1/8)" nil) (om-load-boxcall (quote genfun) "MKTREE" (quote mktree) (quote ((om-load-inputfun (quote input-funbox) "list of integer ratios" "RHYTHM" (list 1/8 1/4 1/8 1/4 1/4 1/8 1/8 1/2)) (om-load-inputfun (quote input-funbox) "list of time signatures" "TIMESIGNS" (list 5 4)))) (om-make-point 572 428) nil nil nil nil 1) (om-load-boxcall (quote genfun) "X-APPEND" (quote x-append) (quote ((om-load-inputfun (quote input-funbox) "first element" "L1?" nil) (om-load-inputfun (quote input-funbox) "second element" "L2?" nil) (om-load-inputfun (quote input-funbox) "additional elements" "LST?" nil) (om-load-inputfun (quote input-funbox) "additional elements" "LST?" nil))) (om-make-point 271 407) nil nil nil nil 1) (om-load-editor-box1 "CHORD-SEQ 3" (quote chord-seq) (quote ((om-load-inputfun (quote input-funbox) "object" "self" nil) (om-load-inputfun (quote input-funbox) "pitches (mc): list or list of lists" "lmidic" (list 6000)) (om-load-inputfun (quote input-funbox) "onsets (ms): list" "lonset" (list 0 300)) (om-load-inputfun (quote input-funbox) "durations (ms): list or list of lists" "ldur" (list 1000)) (om-load-inputfun (quote input-funbox) "velocities (0-127): list or list of lists" "lvel" (list 100)) (om-load-inputfun (quote input-funbox) "offsets (ms): list or list of lists" "loffset" (list 0)) (om-load-inputfun (quote input-funbox) "MIDI channels (1-16): list or list of lists" "lchan" (list 1)) (om-load-inputfun (quote input-funbox) "relative chords duration (0-100)" "legato" 0))) (om-make-point 732 90) (om-make-point 202 182) (let ((newobj (when (find-class (quote chord-seq) nil) (make-instance (quote chord-seq) :lmidic (quote ((2400 5100 6700) (5400 4500 3700) (6700 5800 3800) (4900 7600 6800) (6000 7500 6700))) :lonset (quote (0 300 600 900 1200 2200)) :ldur (quote ((1000 1000 1000) (1000 1000 1000) (1000 1000 1000) (1000 1000 1000) (1000 1000 1000))) :lvel (quote ((100 100 100) (100 100 100) (100 100 100) (100 100 100) (100 100 100))) :loffset (quote ((0 0 0) (0 0 0) (0 0 0) (0 0 0) (0 0 0))) :lchan (quote ((1 1 1) (1 1 1) (1 1 1) (1 1 1) (1 1 1))) :legato 0)))) (load-port-info newobj (quote ((0 0 0) (0 0 0) (0 0 0) (0 0 0) (0 0 0)))) (init-mus-color newobj (quote nil)) (set-extra-pairs newobj (quote nil)) (set-patch-pairs newobj (quote nil)) (set-name newobj nil) (set-tonalite newobj nil) newobj) "x" nil (pairlis (quote (scale show-stems cursor-mode obj-mode score-mode winpos winsize mode grillestep notechancolor? zoom player inport outport deltapict cmnpref staff fontsize approx)) (list nil (quote t) (quote :normal) 1 3 (om-make-point 0 0) (om-make-point 1278 368) 0 1000 nil 467/100 (quote :jackmidi) nil nil (om-make-point 0 0) (let ((newobj (make-instance (quote edition-values)))) (setf (paper-size newobj) (om-make-point 600 800)) (setf (top-margin newobj) 2) (setf (left-margin newobj) 1) (setf (right-margin newobj) 1) (setf (bottom-margin newobj) 1) (setf (orientation newobj) nil) (setf (scale newobj) nil) (setf (system-space newobj) (quote (1))) (setf (system-color newobj) (quote nil)) (setf (line-space newobj) 1) (setf (title newobj) nil) (setf (show-title? newobj) nil) (setf (show-page? newobj) nil) (setf (sheet-id newobj) nil) (setf (page-mode newobj) nil) newobj) (quote ggff) 24 2)) t nil nil nil) (om-load-editor-box1 "CHORD-SEQ 4" (quote chord-seq) (quote ((om-load-inputfun (quote input-funbox) "object" "self" nil) (om-load-inputfun (quote input-funbox) "pitches (mc): list or list of lists" "lmidic" (list 6000)) (om-load-inputfun (quote input-funbox) "onsets (ms): list" "lonset" (list 0 1000)) (om-load-inputfun (quote input-funbox) "durations (ms): list or list of lists" "ldur" (list 1000)) (om-load-inputfun (quote input-funbox) "velocities (0-127): list or list of lists" "lvel" (list 100)) (om-load-inputfun (quote input-funbox) "offsets (ms): list or list of lists" "loffset" (list 0)) (om-load-inputfun (quote input-funbox) "MIDI channels (1-16): list or list of lists" "lchan" (list 1)) (om-load-inputfun (quote input-funbox) "relative chords duration (0-100)" "legato" 0))) (om-make-point 511 90) (om-make-point 202 182) (let ((newobj (when (find-class (quote chord-seq) nil) (make-instance (quote chord-seq) :lmidic (quote ((6000 7500 6700) (4900 7600 6800) (6700 5800 3800) (5400 4500 3700) (2400 5100 6700))) :lonset (quote (0 500 1000 1500 2000 3000)) :ldur (quote ((1000 1000 1000) (1000 1000 1000) (1000 1000 1000) (1000 1000 1000) (1000 1000 1000))) :lvel (quote ((100 100 100) (100 100 100) (100 100 100) (100 100 100) (100 100 100))) :loffset (quote ((0 0 0) (0 0 0) (0 0 0) (0 0 0) (0 0 0))) :lchan (quote ((1 1 1) (1 1 1) (1 1 1) (1 1 1) (1 1 1))) :legato 0)))) (load-port-info newobj (quote ((0 0 0) (0 0 0) (0 0 0) (0 0 0) (0 0 0)))) (init-mus-color newobj (quote nil)) (set-extra-pairs newobj (quote nil)) (set-patch-pairs newobj (quote nil)) (set-name newobj nil) (set-tonalite newobj nil) newobj) "x" nil (pairlis (quote (scale show-stems cursor-mode obj-mode score-mode winpos winsize mode grillestep notechancolor? zoom player inport outport deltapict cmnpref staff fontsize approx)) (list nil (quote t) (quote :normal) 1 3 (om-make-point 0 0) (om-make-point 1278 368) 0 1000 nil 467/100 (quote :jackmidi) nil nil (om-make-point 0 0) (let ((newobj (make-instance (quote edition-values)))) (setf (paper-size newobj) (om-make-point 600 800)) (setf (top-margin newobj) 2) (setf (left-margin newobj) 1) (setf (right-margin newobj) 1) (setf (bottom-margin newobj) 1) (setf (orientation newobj) nil) (setf (scale newobj) nil) (setf (system-space newobj) (quote (1))) (setf (system-color newobj) (quote nil)) (setf (line-space newobj) 1) (setf (title newobj) nil) (setf (show-title? newobj) nil) (setf (show-page? newobj) nil) (setf (sheet-id newobj) nil) (setf (page-mode newobj) nil) newobj) (quote ggff) 24 2)) t nil nil nil) (om-load-editor-box1 "CHORD-SEQ 2" (quote chord-seq) (quote ((om-load-inputfun (quote input-funbox) "object" "self" nil) (om-load-inputfun (quote input-funbox) "pitches (mc): list or list of lists" "lmidic" (list 6000)) (om-load-inputfun (quote input-funbox) "onsets (ms): list" "lonset" (list 0 1000)) (om-load-inputfun (quote input-funbox) "durations (ms): list or list of lists" "ldur" (list 1000)) (om-load-inputfun (quote input-funbox) "velocities (0-127): list or list of lists" "lvel" (list 100)) (om-load-inputfun (quote input-funbox) "offsets (ms): list or list of lists" "loffset" (list 0)) (om-load-inputfun (quote input-funbox) "MIDI channels (1-16): list or list of lists" "lchan" (list 1)) (om-load-inputfun (quote input-funbox) "relative chords duration (0-100)" "legato" 0))) (om-make-point 285 86) (om-make-point 202 182) (let ((newobj (when (find-class (quote chord-seq) nil) (make-instance (quote chord-seq) :lmidic (quote ((4800 7600 4400) (7300 7700 4500) (3100 5900 6300) (4200 4600 5000) (6000 4000 6800))) :lonset (quote (0 500 1000 1500 2000 3000)) :ldur (quote ((1000 1000 1000) (1000 1000 1000) (1000 1000 1000) (1000 1000 1000) (1000 1000 1000))) :lvel (quote ((100 100 100) (100 100 100) (100 100 100) (100 100 100) (100 100 100))) :loffset (quote ((0 0 0) (0 0 0) (0 0 0) (0 0 0) (0 0 0))) :lchan (quote ((1 1 1) (1 1 1) (1 1 1) (1 1 1) (1 1 1))) :legato 0)))) (load-port-info newobj (quote ((0 0 0) (0 0 0) (0 0 0) (0 0 0) (0 0 0)))) (init-mus-color newobj (quote nil)) (set-extra-pairs newobj (quote nil)) (set-patch-pairs newobj (quote nil)) (set-name newobj nil) (set-tonalite newobj nil) newobj) "x" nil (pairlis (quote (scale show-stems cursor-mode obj-mode score-mode winpos winsize mode grillestep notechancolor? zoom player inport outport deltapict cmnpref staff fontsize approx)) (list nil (quote t) (quote :normal) 1 3 (om-make-point 0 0) (om-make-point 1278 368) 0 1000 nil 467/100 (quote :jackmidi) nil nil (om-make-point 0 0) (let ((newobj (make-instance (quote edition-values)))) (setf (paper-size newobj) (om-make-point 600 800)) (setf (top-margin newobj) 2) (setf (left-margin newobj) 1) (setf (right-margin newobj) 1) (setf (bottom-margin newobj) 1) (setf (orientation newobj) nil) (setf (scale newobj) nil) (setf (system-space newobj) (quote (1))) (setf (system-color newobj) (quote nil)) (setf (line-space newobj) 1) (setf (title newobj) nil) (setf (show-title? newobj) nil) (setf (show-page? newobj) nil) (setf (sheet-id newobj) nil) (setf (page-mode newobj) nil) newobj) (quote ggff) 24 2)) t nil nil nil) (om-load-editor-box1 "CHORD-SEQ" (quote chord-seq) (quote ((om-load-inputfun (quote input-funbox) "object" "self" nil) (om-load-inputfun (quote input-funbox) "pitches (mc): list or list of lists" "lmidic" (list 6000)) (om-load-inputfun (quote input-funbox) "onsets (ms): list" "lonset" (list 0 1000)) (om-load-inputfun (quote input-funbox) "durations (ms): list or list of lists" "ldur" (list 1000)) (om-load-inputfun (quote input-funbox) "velocities (0-127): list or list of lists" "lvel" (list 100)) (om-load-inputfun (quote input-funbox) "offsets (ms): list or list of lists" "loffset" (list 0)) (om-load-inputfun (quote input-funbox) "MIDI channels (1-16): list or list of lists" "lchan" (list 1)) (om-load-inputfun (quote input-funbox) "relative chords duration (0-100)" "legato" 0))) (om-make-point 41 50) (om-make-point 202 182) (let ((newobj (when (find-class (quote chord-seq) nil) (make-instance (quote chord-seq) :lmidic (quote ((6000 5200 7900) (4900 4100 4400) (5500 7100 5000) (6600 5800 7300) (4800 2800 6700))) :lonset (quote (0 500 1000 1500 2000 3000)) :ldur (quote ((1000 1000 1000) (1000 1000 1000) (1000 1000 1000) (1000 1000 1000) (1000 1000 1000))) :lvel (quote ((100 100 100) (100 100 100) (100 100 100) (100 100 100) (100 100 100))) :loffset (quote ((0 0 0) (0 0 0) (0 0 0) (0 0 0) (0 0 0))) :lchan (quote ((1 1 1) (1 1 1) (1 1 1) (1 1 1) (1 1 1))) :legato 0)))) (load-port-info newobj (quote ((0 0 0) (0 0 0) (0 0 0) (0 0 0) (0 0 0)))) (init-mus-color newobj (quote nil)) (set-extra-pairs newobj (quote nil)) (set-patch-pairs newobj (quote nil)) (set-name newobj nil) (set-tonalite newobj nil) newobj) "x" nil (pairlis (quote (scale show-stems cursor-mode obj-mode score-mode winpos winsize mode grillestep notechancolor? zoom player inport outport deltapict cmnpref staff fontsize approx)) (list nil (quote t) (quote :normal) 1 3 (om-make-point 0 0) (om-make-point 1278 368) 0 1000 nil 467/100 (quote :jackmidi) nil nil (om-make-point 0 0) (let ((newobj (make-instance (quote edition-values)))) (setf (paper-size newobj) (om-make-point 600 800)) (setf (top-margin newobj) 2) (setf (left-margin newobj) 1) (setf (right-margin newobj) 1) (setf (bottom-margin newobj) 1) (setf (orientation newobj) nil) (setf (scale newobj) nil) (setf (system-space newobj) (quote (1))) (setf (system-color newobj) (quote nil)) (setf (line-space newobj) 1) (setf (title newobj) nil) (setf (show-title? newobj) nil) (setf (show-page? newobj) nil) (setf (sheet-id newobj) nil) (setf (page-mode newobj) nil) newobj) (quote ggff) 24 2)) t nil nil nil))) (quote ((3 0 4 0 nil 0) (2 0 4 1 nil 0) (9 1 5 0 nil 0) (8 1 5 1 nil 0) (7 1 5 2 nil 0) (6 1 5 3 nil 0))) nil 6.080003))